<?xml version="1.0" encoding="UTF-8" standalone="no"?>
<svg
   width="210"
   height="210"
   viewBox="0 0 24 24"
   version="1.1"
   id="svg6"
   sodipodi:docname="Spay_unselected.svg"
   inkscape:version="1.1.1 (3bf5ae0d25, 2021-09-20)"
   xmlns:inkscape="http://www.inkscape.org/namespaces/inkscape"
   xmlns:sodipodi="http://sodipodi.sourceforge.net/DTD/sodipodi-0.dtd"
   xmlns="http://www.w3.org/2000/svg"
   xmlns:svg="http://www.w3.org/2000/svg"
   xmlns:rdf="http://www.w3.org/1999/02/22-rdf-syntax-ns#"
   xmlns:cc="http://creativecommons.org/ns#"
   xmlns:dc="http://purl.org/dc/elements/1.1/">
  <defs
     id="defs10" />
  <sodipodi:namedview
     id="namedview8"
     pagecolor="#505050"
     bordercolor="#eeeeee"
     borderopacity="1"
     inkscape:pageshadow="0"
     inkscape:pageopacity="0"
     inkscape:pagecheckerboard="0"
     showgrid="false"
     showguides="true"
     inkscape:guide-bbox="true"
     inkscape:zoom="3.62"
     inkscape:cx="104.97238"
     inkscape:cy="105.1105"
     inkscape:window-width="1920"
     inkscape:window-height="1005"
     inkscape:window-x="-9"
     inkscape:window-y="-9"
     inkscape:window-maximized="1"
     inkscape:current-layer="svg6" />
  <title
     id="title2">ic_gallery_set</title>
  <metadata
     id="metadata827">
    <rdf:RDF>
      <cc:Work
         rdf:about="">
        <dc:title>ic_gallery_set</dc:title>
      </cc:Work>
    </rdf:RDF>
  </metadata>
  <g
     id="g859">
    <path
       id="99536383908904833182形状结合"
       style="fill:#000000;fill-opacity:1;stroke:none;stroke-width:1.23077"
       d="M 4.6154017,0 4.3703123,0.00647321 C 1.93526,0.13389265 0,2.1486212 0,4.6154017 V 19.384597 l 0.00647321,0.24509 c 0.12741944,2.435049 2.14214799,4.370312 4.60892849,4.370312 H 19.384597 l 0.24509,-0.0065 c 2.435049,-0.127424 4.370312,-2.142154 4.370312,-4.608934 V 14.932142 14.461606 4.6154017 l -0.0065,-0.2450894 C 23.866107,1.9352627 21.851377,0 19.384597,0 H 9.5383926 8.3341515 Z m 0,1.8462053 h 3.7187498 1.2042411 9.8462044 l 0.18951,0.00625 c 1.440971,0.097382 2.579686,1.2972665 2.579686,2.7629464 v 9.8462043 0.470536 4.452455 l -0.0063,0.189733 c -0.09743,1.440971 -1.297267,2.579463 -2.762947,2.579463 H 4.6154017 l -0.1895091,-0.0063 C 2.9849211,22.050111 1.8462053,20.850277 1.8462053,19.384597 V 4.6154017 l 0.00625,-0.1895091 C 1.9498883,2.9849211 3.149723,1.8462053 4.6154017,1.8462053 Z" />
    <g
       id="g853">
      <rect
         style="fill:#000000;fill-opacity:1;fill-rule:evenodd;stroke:#000000;stroke-width:0;stroke-linecap:round;stroke-linejoin:round;stroke-miterlimit:0;stroke-dasharray:none;paint-order:stroke fill markers"
         id="rect2819"
         width="2.6537278"
         height="4.7338276"
         x="3.691925"
         y="15.573802"
         rx="1.3268639"
         ry="1.1801859" />
      <rect
         style="fill:#000000;fill-opacity:1;fill-rule:evenodd;stroke:#000000;stroke-width:0;stroke-linecap:round;stroke-linejoin:round;stroke-miterlimit:0;stroke-dasharray:none;paint-order:stroke fill markers"
         id="rect2819-7"
         width="2.6537278"
         height="4.7338276"
         x="7.7365975"
         y="15.573804"
         rx="1.3268639"
         ry="1.1801859" />
    </g>
  </g>
</svg>
