<?xml version="1.0" encoding="UTF-8" standalone="no"?>
<!-- Created with Inkscape (http://www.inkscape.org/) -->

<svg
   width="24mm"
   height="24mm"
   viewBox="0 0 24 24"
   version="1.1"
   id="svg5"
   inkscape:version="1.1.1 (3bf5ae0d25, 2021-09-20)"
   sodipodi:docname="Celebration.svg"
   xmlns:inkscape="http://www.inkscape.org/namespaces/inkscape"
   xmlns:sodipodi="http://sodipodi.sourceforge.net/DTD/sodipodi-0.dtd"
   xmlns="http://www.w3.org/2000/svg"
   xmlns:svg="http://www.w3.org/2000/svg"
   xmlns:rdf="http://www.w3.org/1999/02/22-rdf-syntax-ns#"
   xmlns:cc="http://creativecommons.org/ns#"
   xmlns:dc="http://purl.org/dc/elements/1.1/">
  <title
     id="title8797">Celebration</title>
  <sodipodi:namedview
     id="namedview7"
     pagecolor="#505050"
     bordercolor="#eeeeee"
     borderopacity="1"
     inkscape:pageshadow="0"
     inkscape:pageopacity="0"
     inkscape:pagecheckerboard="0"
     inkscape:document-units="mm"
     showgrid="false"
     height="24mm"
     showguides="true"
     inkscape:guide-bbox="true"
     inkscape:lockguides="false"
     inkscape:zoom="8.4"
     inkscape:cx="45.833333"
     inkscape:cy="45.178571"
     inkscape:window-width="1920"
     inkscape:window-height="1005"
     inkscape:window-x="-9"
     inkscape:window-y="-9"
     inkscape:window-maximized="1"
     inkscape:current-layer="layer1" />
  <defs
     id="defs2" />
  <g
     inkscape:label="Layer 1"
     inkscape:groupmode="layer"
     id="layer1">
    <g
       id="g1151">
      <g
         id="g1104">
        <path
           sodipodi:type="star"
           style="fill:none;fill-opacity:0;fill-rule:evenodd;stroke:#000000;stroke-width:11.3386;stroke-linecap:round;stroke-linejoin:round;stroke-miterlimit:0;stroke-dasharray:none;stroke-opacity:1"
           id="path846"
           inkscape:flatsided="false"
           sodipodi:sides="3"
           sodipodi:cx="26.188263"
           sodipodi:cy="42.023026"
           sodipodi:r1="31.133072"
           sodipodi:r2="15.532307"
           sodipodi:arg1="0.26194812"
           sodipodi:arg2="1.3091456"
           inkscape:rounded="0"
           inkscape:randomized="0"
           transform="matrix(0.26458333,0,0,0.26458333,1.0078205,4.9901899)"
           inkscape:transform-center-x="-0.92516541"
           inkscape:transform-center-y="-1.1924289"
           d="M 56.259302,50.08533 30.206089,57.026679 4.1705827,64.034157 11.185805,38.000738 18.134904,11.949589 37.172895,31.041659 Z" />
        <path
           id="path846-7"
           style="fill:#000000;fill-opacity:1;fill-rule:evenodd;stroke:none;stroke-width:0;stroke-linecap:round;stroke-linejoin:round;stroke-miterlimit:0;stroke-dasharray:none;stroke-opacity:1"
           inkscape:transform-center-x="-0.92516541"
           inkscape:transform-center-y="-1.1924289"
           d="M 5.805348,8.152 3.966701,15.044602 2.111,21.932554 l 6.888468,-1.85415 6.893119,-1.836581 -5.04982,-5.038452 z m 0.979268,3.405994 c 0.239448,-0.01543 0.53269,0.216062 0.833025,0.541052 l 0.882633,0.8847 c 0.08095,0.07286 0.16314,0.15706 0.24598,0.247013 l 1.038696,1.041281 1.024227,1.02216 c 0.09347,0.08592 0.180687,0.170887 0.255798,0.254764 l 0.903304,0.901237 c 0.05014,0.04698 0.09528,0.09365 0.140043,0.140043 0.260127,0.269634 0.423293,0.52696 0.36742,0.735356 -0.05606,0.209095 -0.327458,0.350292 -0.689364,0.453719 -0.06019,0.0172 -0.120674,0.03447 -0.185518,0.04961 l -1.237134,0.329178 c -0.105519,0.03446 -0.221724,0.06471 -0.343648,0.09198 l -1.405082,0.374138 -1.418002,0.381888 c -0.115245,0.03588 -0.22748,0.067 -0.332796,0.0894 l -1.231449,0.331762 c -0.451444,0.13772 -0.840195,0.184086 -1.020093,0.0041 -0.164723,-0.164772 -0.137579,-0.505866 -0.02635,-0.908472 5.82e-4,-0.0021 9.79e-4,-0.0041 0.0016,-0.0062 0.0074,-0.02655 0.01309,-0.052 0.02119,-0.07906 L 4.94861,17.179839 C 4.97042,17.07762 5.00082,16.969023 5.03543,16.857378 L 5.427138,15.40372 5.800242,14.004839 c 0.02345,-0.102711 0.04945,-0.200932 0.07803,-0.291972 l 0.0047,-0.01757 0.336414,-1.261421 c 0.01119,-0.04746 0.02389,-0.09091 0.03617,-0.135909 l 0.0041,-0.01602 c 0.103983,-0.374082 0.24718,-0.656405 0.460954,-0.713652 0.02081,-0.0056 0.04234,-0.0089 0.06408,-0.01033 z" />
      </g>
      <g
         id="g1121">
        <g
           id="g1074">
          <g
             id="g1055">
            <path
               style="fill:none;stroke:#000000;stroke-width:1.5;stroke-linecap:butt;stroke-linejoin:miter;stroke-miterlimit:4;stroke-dasharray:none;stroke-opacity:1"
               d="m 16.558984,12.3397 2.047027,-2.047026 c 0,0 0.609196,-0.6551438 1.36178,0.0071 0.752583,0.662273 2.491447,2.43837 2.491447,2.43837"
               id="path2074" />
            <path
               id="rect866-4-7-6"
               style="fill:#000000;fill-opacity:1;fill-rule:evenodd;stroke-width:0;stroke-linecap:round;stroke-linejoin:round;stroke-miterlimit:0"
               d="m 19.295432,10.662716 -0.214974,0.214974 c 0.11608,-0.09976 0.28636,-0.101304 0.404109,-0.0047 l 0.001,-10e-4 0.255282,0.236678 z" />
          </g>
          <rect
             style="fill:#000000;fill-opacity:1;fill-rule:evenodd;stroke:none;stroke-width:0;stroke-linecap:round;stroke-linejoin:round;stroke-miterlimit:4;stroke-dasharray:none;stroke-opacity:1"
             id="rect5105-6"
             width="1.5000002"
             height="1.5"
             x="24.003155"
             y="-7.624536"
             transform="rotate(45)"
             rx="0.25"
             ry="0.25" />
          <rect
             style="fill:#000000;fill-opacity:1;fill-rule:evenodd;stroke:none;stroke-width:0;stroke-linecap:round;stroke-linejoin:round;stroke-miterlimit:4;stroke-dasharray:none;stroke-opacity:1"
             id="rect5105-6-9"
             width="1.5000002"
             height="1.5"
             x="19.686459"
             y="-4.200573"
             transform="rotate(45)"
             rx="0.25"
             ry="0.25" />
        </g>
        <g
           id="g1081">
          <g
             id="g1059">
            <path
               style="fill:none;stroke:#000000;stroke-width:1.5;stroke-linecap:butt;stroke-linejoin:miter;stroke-miterlimit:4;stroke-dasharray:none;stroke-opacity:1"
               d="m 14.914249,10.694964 4.06395,-4.0639494 c 0,0 0.693681,-0.7478644 1.32914,-0.1124059 0.635458,0.6354588 2.28768,2.2836793 2.28768,2.2836793"
               id="path2405" />
            <path
               id="rect866-4-7"
               style="fill:#000000;fill-opacity:1;fill-rule:evenodd;stroke-width:0;stroke-linecap:round;stroke-linejoin:round;stroke-miterlimit:0"
               d="m 19.695896,6.9637169 -0.445451,0.4454509 0.0052,0.00517 0.200505,-0.1999879 c 0.0048,-0.00579 0.01024,-0.011017 0.0155,-0.016536 0.0017,-0.00185 0.0034,-0.00388 0.0052,-0.00568 0.116594,-0.1165937 0.30026,-0.1228767 0.424264,-0.019122 l 5.29e-4,-5.292e-4 0.0026,0.0031 c 0.002,0.00175 0.0042,0.00336 0.0062,0.00517 0.004,0.00361 0.008,0.00751 0.01189,0.011369 0.0034,0.00335 0.0066,0.00688 0.0098,0.010335 0.0032,0.00346 0.0063,0.00677 0.0093,0.010335 l 0.198438,0.1979207 0.0016,-0.00156 z" />
          </g>
          <rect
             style="fill:#000000;fill-opacity:1;fill-rule:evenodd;stroke:none;stroke-width:0;stroke-linecap:round;stroke-linejoin:round;stroke-miterlimit:4;stroke-dasharray:none;stroke-opacity:1"
             id="rect5105"
             width="1.5000002"
             height="1.5"
             x="21.218674"
             y="-10.503998"
             transform="rotate(45)"
             rx="0.25"
             ry="0.25" />
          <rect
             style="fill:#000000;fill-opacity:1;fill-rule:evenodd;stroke:none;stroke-width:0;stroke-linecap:round;stroke-linejoin:round;stroke-miterlimit:4;stroke-dasharray:none;stroke-opacity:1"
             id="rect5105-6-9-6"
             width="1.5000002"
             height="1.5"
             x="17.360077"
             y="-4.200573"
             transform="rotate(45)"
             rx="0.25"
             ry="0.25" />
        </g>
        <g
           id="g1088">
          <g
             id="g1063">
            <path
               style="fill:none;stroke:#000000;stroke-width:1.5;stroke-linecap:butt;stroke-linejoin:miter;stroke-miterlimit:4;stroke-dasharray:none;stroke-opacity:1"
               d="m 13.227529,9.0082456 5.900254,-5.9002535 c 0,0 0.406351,-0.2267511 0.08339,-0.6199211 -0.322961,-0.39317 -0.954841,-0.9961943 -0.954841,-0.9961943"
               id="path2776" />
            <path
               id="rect866-4"
               style="fill:#000000;fill-opacity:1;fill-rule:evenodd;stroke-width:0;stroke-linecap:round;stroke-linejoin:round;stroke-miterlimit:0"
               d="m 18.001426,2.287 -0.0052,0.00517 0.173633,0.1736328 0.0016,0.00104 c 0.01239,0.00794 0.02423,0.016506 0.03566,0.026355 z m 0.239262,0.2397786 c 0.103417,0.1199645 0.101592,0.2984286 -0.0052,0.4165121 l 0.211357,-0.2108398 z m -0.02791,0.4392499 c -0.0057,0.00518 -0.01159,0.010303 -0.01757,0.014986 l -0.195337,0.1953368 0.0016,0.00156 z" />
          </g>
          <rect
             style="fill:#000000;fill-opacity:1;fill-rule:evenodd;stroke:none;stroke-width:0;stroke-linecap:round;stroke-linejoin:round;stroke-miterlimit:4;stroke-dasharray:none;stroke-opacity:1"
             id="rect5105-6-9-6-7"
             width="1.5000002"
             height="1.5"
             x="14.974298"
             y="-4.2005734"
             transform="rotate(45)"
             rx="0.25"
             ry="0.25" />
          <rect
             style="fill:#000000;fill-opacity:1;fill-rule:evenodd;stroke:none;stroke-width:0;stroke-linecap:round;stroke-linejoin:round;stroke-miterlimit:4;stroke-dasharray:none;stroke-opacity:1"
             id="rect5105-9"
             width="1.5000002"
             height="1.5"
             x="13.344037"
             y="-12.604262"
             transform="rotate(45)"
             rx="0.25"
             ry="0.25" />
        </g>
        <g
           id="g1095">
          <g
             id="g1067">
            <path
               style="fill:none;stroke:#000000;stroke-width:1.5;stroke-linecap:butt;stroke-linejoin:miter;stroke-miterlimit:4;stroke-dasharray:none;stroke-opacity:1"
               d="M 11.648298,7.4290137 13.695325,5.381987 c 0,0 0.80371,-0.7765135 -0.0066,-1.5867999 C 12.878462,2.9849006 11.425706,1.52876 11.425706,1.52876"
               id="path6693" />
            <path
               id="rect866-4-7-6-8"
               style="fill:#000000;fill-opacity:1;fill-rule:evenodd;stroke-width:0;stroke-linecap:round;stroke-linejoin:round;stroke-miterlimit:0"
               d="m 13.211021,4.3798956 c 0.08632,0.1002903 0.09924,0.2414884 0.03876,0.3539834 l 0.01654,0.016536 -0.287321,0.287838 5.29e-4,5.29e-4 0.445451,-0.4454509 z" />
          </g>
          <rect
             style="fill:#000000;fill-opacity:1;fill-rule:evenodd;stroke:none;stroke-width:0;stroke-linecap:round;stroke-linejoin:round;stroke-miterlimit:4;stroke-dasharray:none;stroke-opacity:1"
             id="rect5105-6-9-6-7-5"
             width="1.5000002"
             height="1.5"
             x="12.741255"
             y="-4.200573"
             transform="rotate(45)"
             rx="0.25"
             ry="0.25" />
          <rect
             style="fill:#000000;fill-opacity:1;fill-rule:evenodd;stroke:none;stroke-width:0;stroke-linecap:round;stroke-linejoin:round;stroke-miterlimit:4;stroke-dasharray:none;stroke-opacity:1"
             id="rect5105-2"
             width="1.5000002"
             height="1.5"
             x="8.405983"
             y="-7.7495422"
             transform="rotate(45)"
             rx="0.25"
             ry="0.25" />
        </g>
      </g>
    </g>
  </g>
  <metadata
     id="metadata8795">
    <rdf:RDF>
      <cc:Work
         rdf:about="">
        <dc:title>Celebration</dc:title>
        <dc:date>2/18/2022</dc:date>
        <dc:creator>
          <cc:Agent>
            <dc:title>PhilMinecraft</dc:title>
          </cc:Agent>
        </dc:creator>
        <dc:publisher>
          <cc:Agent>
            <dc:title>RareFrostbites</dc:title>
          </cc:Agent>
        </dc:publisher>
        <dc:subject>
          <rdf:Bag>
            <rdf:li>Celebration</rdf:li>
            <rdf:li>Fun</rdf:li>
          </rdf:Bag>
        </dc:subject>
      </cc:Work>
    </rdf:RDF>
  </metadata>
</svg>
