<?xml version="1.0" encoding="UTF-8" standalone="no"?>
<!-- Created with Inkscape (http://www.inkscape.org/) -->

<svg
   width="24mm"
   height="24mm"
   viewBox="0 0 24 24"
   version="1.1"
   id="svg5"
   inkscape:version="1.1.1 (3bf5ae0d25, 2021-09-20)"
   sodipodi:docname="Good Mood.svg"
   xmlns:inkscape="http://www.inkscape.org/namespaces/inkscape"
   xmlns:sodipodi="http://sodipodi.sourceforge.net/DTD/sodipodi-0.dtd"
   xmlns="http://www.w3.org/2000/svg"
   xmlns:svg="http://www.w3.org/2000/svg"
   xmlns:rdf="http://www.w3.org/1999/02/22-rdf-syntax-ns#"
   xmlns:cc="http://creativecommons.org/ns#"
   xmlns:dc="http://purl.org/dc/elements/1.1/">
  <title
     id="title2937">Good Mood</title>
  <sodipodi:namedview
     id="namedview7"
     pagecolor="#505050"
     bordercolor="#eeeeee"
     borderopacity="1"
     inkscape:pageshadow="0"
     inkscape:pageopacity="0"
     inkscape:pagecheckerboard="0"
     inkscape:document-units="mm"
     showgrid="false"
     showguides="true"
     inkscape:guide-bbox="true"
     inkscape:zoom="7.4809788"
     inkscape:cx="44.245547"
     inkscape:cy="44.980745"
     inkscape:window-width="1920"
     inkscape:window-height="1005"
     inkscape:window-x="-9"
     inkscape:window-y="-9"
     inkscape:window-maximized="1"
     inkscape:current-layer="layer1" />
  <defs
     id="defs2" />
  <g
     inkscape:label="Layer 1"
     inkscape:groupmode="layer"
     id="layer1">
    <path
       style="fill:none;stroke:none;stroke-width:0;stroke-linecap:butt;stroke-linejoin:miter;stroke-opacity:1;stroke-miterlimit:4;stroke-dasharray:none"
       d="m 5.2596271,14.258561 c 0,0 2.7977616,5.71748 6.7396399,5.71748 3.941879,0 6.741707,-5.71748 6.741707,-5.71748 L 18.223177,12.964583 H 5.7774252 Z"
       id="path2408" />
    <g
       id="g1206">
      <path
         style="fill:none;fill-rule:evenodd;stroke:#000000;stroke-width:3;stroke-linecap:round;stroke-linejoin:round;stroke-miterlimit:0;stroke-dasharray:none;stroke-opacity:1"
         id="path846"
         sodipodi:type="arc"
         sodipodi:cx="11.999997"
         sodipodi:cy="12.000003"
         sodipodi:rx="10.486214"
         sodipodi:ry="10.486184"
         sodipodi:start="0.36616833"
         sodipodi:end="0.36559935"
         sodipodi:open="true"
         sodipodi:arc-type="arc"
         d="M 21.791039,15.754481 A 10.486214,10.486184 0 0 1 8.2469016,21.791551 10.486214,10.486184 0 0 1 2.2078879,8.2483107 10.486214,10.486184 0 0 1 15.750307,2.2073876 10.486214,10.486184 0 0 1 21.793173,15.748909" />
      <g
         id="g1195">
        <g
           id="g1186">
          <path
             style="fill:#000000;fill-opacity:1;fill-rule:evenodd;stroke:none;stroke-width:0;stroke-linecap:round;stroke-linejoin:round;stroke-miterlimit:0;stroke-dasharray:none;stroke-opacity:1"
             id="path1130"
             sodipodi:type="arc"
             sodipodi:cx="8.0007696"
             sodipodi:cy="9.8627577"
             sodipodi:rx="1.4997573"
             sodipodi:ry="1.4997573"
             sodipodi:start="0.36616833"
             sodipodi:end="0.36559935"
             sodipodi:open="true"
             sodipodi:arc-type="arc"
             d="M 9.4011021,10.399731 A 1.4997573,1.4997573 0 0 1 7.4639951,11.263167 1.4997573,1.4997573 0 0 1 6.6002844,9.3261824 1.4997573,1.4997573 0 0 1 8.5371457,8.4621962 1.4997573,1.4997573 0 0 1 9.4014074,10.398935" />
          <path
             style="fill:#000000;fill-opacity:1;fill-rule:evenodd;stroke:none;stroke-width:0;stroke-linecap:round;stroke-linejoin:round;stroke-miterlimit:0;stroke-dasharray:none;stroke-opacity:1"
             id="path1130-7"
             sodipodi:type="arc"
             sodipodi:cx="15.99923"
             sodipodi:cy="9.8632431"
             sodipodi:rx="1.4997573"
             sodipodi:ry="1.4997573"
             sodipodi:start="0.36616833"
             sodipodi:end="0.36559935"
             sodipodi:open="true"
             sodipodi:arc-type="arc"
             d="M 17.399563,10.400217 A 1.4997573,1.4997573 0 0 1 15.462456,11.263652 1.4997573,1.4997573 0 0 1 14.598745,9.3266678 1.4997573,1.4997573 0 0 1 16.535606,8.4626816 1.4997573,1.4997573 0 0 1 17.399868,10.39942" />
        </g>
        <g
           id="g1182">
          <path
             style="fill:#000000;fill-opacity:1;stroke:none;stroke-width:0;stroke-linecap:butt;stroke-linejoin:miter;stroke-miterlimit:4;stroke-dasharray:none;stroke-opacity:1"
             d="m 5.2596271,14.258561 c 0,0 5.7154129,5.71748 6.7396399,5.71748 1.024227,0 6.741707,-5.71748 6.741707,-5.71748 L 18.223177,12.964583 H 5.7774252 Z"
             id="path2577" />
          <path
             style="fill:#000000;fill-opacity:1;fill-rule:evenodd;stroke:none;stroke-width:0;stroke-linecap:round;stroke-linejoin:round;stroke-miterlimit:0;stroke-dasharray:none;stroke-opacity:1"
             id="path1130-4"
             sodipodi:type="arc"
             sodipodi:cx="5.7780094"
             sodipodi:cy="13.715509"
             sodipodi:rx="0.75"
             sodipodi:ry="0.75"
             sodipodi:start="0.36616833"
             sodipodi:end="0.36559935"
             sodipodi:open="true"
             sodipodi:arc-type="arc"
             d="M 6.478289,13.98404 A 0.75,0.75 0 0 1 5.5095787,14.415827 0.75,0.75 0 0 1 5.0776535,13.447178 0.75,0.75 0 0 1 6.0462409,13.015115 0.75,0.75 0 0 1 6.4784417,13.983641" />
          <path
             style="fill:#000000;fill-opacity:1;fill-rule:evenodd;stroke:none;stroke-width:0;stroke-linecap:round;stroke-linejoin:round;stroke-miterlimit:0;stroke-dasharray:none;stroke-opacity:1"
             id="path1130-4-9"
             sodipodi:type="arc"
             sodipodi:cx="18.22386"
             sodipodi:cy="13.715176"
             sodipodi:rx="0.75"
             sodipodi:ry="0.75"
             sodipodi:start="0.36616833"
             sodipodi:end="0.36559935"
             sodipodi:open="true"
             sodipodi:arc-type="arc"
             d="m 18.924139,13.983706 a 0.75,0.75 0 0 1 -0.96871,0.431787 0.75,0.75 0 0 1 -0.431925,-0.968648 0.75,0.75 0 0 1 0.968587,-0.432063 0.75,0.75 0 0 1 0.432201,0.968525" />
        </g>
      </g>
    </g>
  </g>
  <metadata
     id="metadata2935">
    <rdf:RDF>
      <cc:Work
         rdf:about="">
        <dc:title>Good Mood</dc:title>
        <dc:date>2/19/2022</dc:date>
        <dc:creator>
          <cc:Agent>
            <dc:title>PhilMinecraft</dc:title>
          </cc:Agent>
        </dc:creator>
        <dc:publisher>
          <cc:Agent>
            <dc:title>RareFrostbites</dc:title>
          </cc:Agent>
        </dc:publisher>
        <dc:subject>
          <rdf:Bag>
            <rdf:li>Mood</rdf:li>
            <rdf:li>Good Mood</rdf:li>
          </rdf:Bag>
        </dc:subject>
      </cc:Work>
    </rdf:RDF>
  </metadata>
</svg>
