<?xml version="1.0" encoding="UTF-8" standalone="no"?>
<!-- Created with Inkscape (http://www.inkscape.org/) -->

<svg
   width="24mm"
   height="24mm"
   viewBox="0 0 24 24"
   version="1.1"
   id="svg953"
   inkscape:version="1.1.1 (3bf5ae0d25, 2021-09-20)"
   sodipodi:docname="Link.svg"
   xmlns:inkscape="http://www.inkscape.org/namespaces/inkscape"
   xmlns:sodipodi="http://sodipodi.sourceforge.net/DTD/sodipodi-0.dtd"
   xmlns="http://www.w3.org/2000/svg"
   xmlns:svg="http://www.w3.org/2000/svg"
   xmlns:rdf="http://www.w3.org/1999/02/22-rdf-syntax-ns#"
   xmlns:cc="http://creativecommons.org/ns#"
   xmlns:dc="http://purl.org/dc/elements/1.1/">
  <title
     id="title3475">Link</title>
  <sodipodi:namedview
     id="namedview955"
     pagecolor="#505050"
     bordercolor="#eeeeee"
     borderopacity="1"
     inkscape:pageshadow="0"
     inkscape:pageopacity="0"
     inkscape:pagecheckerboard="0"
     inkscape:document-units="mm"
     showgrid="false"
     showguides="true"
     inkscape:guide-bbox="true"
     inkscape:zoom="8"
     inkscape:cx="45.625"
     inkscape:cy="43.9375"
     inkscape:window-width="1920"
     inkscape:window-height="1005"
     inkscape:window-x="-9"
     inkscape:window-y="-9"
     inkscape:window-maximized="1"
     inkscape:current-layer="layer1" />
  <defs
     id="defs950" />
  <g
     inkscape:label="Layer 1"
     inkscape:groupmode="layer"
     id="layer1">
    <g
       id="g3511">
      <path
         id="rect1763"
         style="fill:#000000;fill-opacity:1;fill-rule:evenodd;stroke-width:0;stroke-linecap:round;stroke-linejoin:round"
         d="M 5.0002117,7.0000894 C 2.2302114,7.0000894 0,9.2297842 0,11.999784 c 0,2.77 2.2302114,5.000212 5.0002117,5.000212 h 3.9997556 c 3.44e-4,0 6.88e-4,0 0.00103,0 0.5535189,-5.56e-4 0.9989055,-0.446285 0.9989055,-0.999939 0,-0.552096 -0.4429029,-0.996888 -0.9942546,-0.999939 h -0.00465 -0.026872 -3.9739176 c -1.662,0 -3.0003337,-1.338334 -3.0003337,-3.000334 0,-1.662 1.3383337,-2.9998167 3.0003337,-2.9998167 h 3.9997557 0.00103 c 0.5535189,-5.556e-4 0.9989055,-0.4462851 0.9989055,-0.999939 0,-0.5536535 -0.4453869,-0.9993817 -0.9989055,-0.9999389 z" />
      <path
         id="rect1763-4"
         style="fill:#000000;fill-opacity:1;fill-rule:evenodd;stroke-width:0;stroke-linecap:round;stroke-linejoin:round"
         d="m 14.97428,7.0000894 c -0.541941,0.013639 -0.974101,0.4545951 -0.974101,0.9999389 0,0.5538269 0.445663,0.9996604 0.999422,0.999939 1.73e-4,0 3.44e-4,0 5.29e-4,0 h 4.00026 c 1.661761,2.646e-4 2.999817,1.3379887 2.999817,2.9998167 0,1.661829 -1.338056,3.000057 -2.999817,3.000334 h -5.29e-4 -3.999756 c 0,0 -5.29e-4,0 -5.29e-4,0 -0.553759,2.91e-4 -0.999422,0.446112 -0.999422,0.999939 0,0.553827 0.446179,0.99966 0.999939,0.999939 h 3.999756 c 2.77,0 5.000211,-2.230212 5.000211,-5.000212 0,-2.7698265 -2.229936,-4.9994155 -4.999694,-4.9996946 h -5.3e-4 -3.973917 -0.02584 c -1.73e-4,0 -3.44e-4,0 -5.3e-4,0 -0.0085,4.2e-6 -0.01689,-2.122e-4 -0.02532,0 z" />
      <path
         id="rect1763-4-6-60"
         style="fill:#000000;fill-opacity:1;fill-rule:evenodd;stroke-width:0;stroke-linecap:round;stroke-linejoin:round"
         d="m 5.9996336,10.999845 c -0.5537594,2.91e-4 -0.9994219,0.446112 -0.9994219,0.999939 -3e-7,0.553827 0.4456625,1.000177 0.9994219,1.000456 1.731e-4,0 3.44e-4,0 5.292e-4,0 H 18.000464 c 0.554,0 0.999939,-0.446456 0.999939,-1.000456 0,-0.553654 -0.445387,-0.999382 -0.998906,-0.999939 H 6.0001504 Z" />
    </g>
  </g>
  <metadata
     id="metadata3471">
    <rdf:RDF>
      <cc:Work
         rdf:about="">
        <dc:date>7/3/2022</dc:date>
        <dc:creator>
          <cc:Agent>
            <dc:title>PhilMinecraft</dc:title>
          </cc:Agent>
        </dc:creator>
        <dc:publisher>
          <cc:Agent>
            <dc:title>RareFrostbites</dc:title>
          </cc:Agent>
        </dc:publisher>
        <dc:title>Link</dc:title>
        <dc:subject>
          <rdf:Bag>
            <rdf:li>Link</rdf:li>
            <rdf:li>Link Chain</rdf:li>
            <rdf:li>Chain</rdf:li>
          </rdf:Bag>
        </dc:subject>
      </cc:Work>
    </rdf:RDF>
  </metadata>
</svg>
