<?xml version="1.0" encoding="UTF-8" standalone="no"?>
<!-- Created with Inkscape (http://www.inkscape.org/) -->

<svg
   width="210mm"
   height="210mm"
   viewBox="0 0 210 210"
   version="1.1"
   id="svg5"
   inkscape:version="1.1.1 (3bf5ae0d25, 2021-09-20)"
   sodipodi:docname="Post Feed.svg"
   xmlns:inkscape="http://www.inkscape.org/namespaces/inkscape"
   xmlns:sodipodi="http://sodipodi.sourceforge.net/DTD/sodipodi-0.dtd"
   xmlns="http://www.w3.org/2000/svg"
   xmlns:svg="http://www.w3.org/2000/svg"
   xmlns:rdf="http://www.w3.org/1999/02/22-rdf-syntax-ns#"
   xmlns:cc="http://creativecommons.org/ns#"
   xmlns:dc="http://purl.org/dc/elements/1.1/">
  <title
     id="title3052">Post Feed</title>
  <sodipodi:namedview
     id="namedview7"
     pagecolor="#505050"
     bordercolor="#eeeeee"
     borderopacity="1"
     inkscape:pageshadow="0"
     inkscape:pageopacity="0"
     inkscape:pagecheckerboard="0"
     inkscape:document-units="mm"
     showgrid="false"
     height="210mm"
     inkscape:zoom="0.93303299"
     inkscape:cx="356.90056"
     inkscape:cy="389.58965"
     inkscape:window-width="1920"
     inkscape:window-height="1005"
     inkscape:window-x="-9"
     inkscape:window-y="-9"
     inkscape:window-maximized="1"
     inkscape:current-layer="layer1"
     showguides="true"
     inkscape:guide-bbox="true" />
  <defs
     id="defs2" />
  <g
     inkscape:label="Layer 1"
     inkscape:groupmode="layer"
     id="layer1">
    <g
       id="g3607"
       transform="translate(-4.9291748e-5,-4.9291748e-5)">
      <path
         id="rect846"
         style="fill:#000000;fill-opacity:1;fill-rule:evenodd;stroke-width:0;stroke-linecap:round;stroke-linejoin:round"
         d="M 75.589844,0 C 33.712682,0 0,33.712678 0,75.589844 V 566.92969 c 0,41.87716 33.712682,75.58984 75.589844,75.58984 H 396.84961 510.23633 v -37.79492 -37.79688 c 0,-20.91238 -16.81464,-37.75085 -37.7168,-37.79296 H 167.37891 c -29.91226,0 -53.99219,-21.81512 -53.99219,-48.91211 V 162.29688 c 0,-27.097 24.07993,-48.91016 53.99219,-48.91016 h 458.94336 c 29.91225,0 53.99218,21.81316 53.99218,48.91016 v 317.92578 c 0,0.0236 -0.002,0.0467 -0.002,0.0703 V 604.7246 c 0,13.7921 -3.67532,26.68672 -10.07617,37.79492 h 47.87305 c 41.87714,0 75.59179,-33.71268 75.59179,-75.58984 V 75.589844 C 793.70117,33.712678 759.98652,0 718.10938,0 Z"
         transform="scale(0.26458333)" />
      <path
         id="rect846-8"
         style="fill:#000000;fill-opacity:1;fill-rule:evenodd;stroke-width:0;stroke-linecap:round;stroke-linejoin:round"
         d="m 680.3125,491.33789 v 113.38672 c 0,41.87728 -33.71268,75.58984 -75.58984,75.58984 h -9.44922 -9.44727 -75.58984 V 642.52148 H 396.84961 v 75.5879 75.59179 h 75.5918 75.58984 170.07813 c 41.87714,0 75.59179,-33.71465 75.59179,-75.59179 V 566.92969 c 0,-41.87721 -33.71465,-75.5918 -75.59179,-75.5918 z m -273.38672,37.79688 c -6.40114,11.10849 -10.07617,24.00284 -10.07617,37.79492 v 75.58984 h 37.79687 18.06446 19.73047 37.79492 v -37.79492 -37.79688 c 0,-20.91239 -16.81465,-37.75101 -37.7168,-37.79296 z"
         transform="scale(0.26458333)" />
    </g>
  </g>
  <metadata
     id="metadata3050">
    <rdf:RDF>
      <cc:Work
         rdf:about="">
        <dc:title>Post Feed</dc:title>
        <dc:date>4/9/2022</dc:date>
        <dc:creator>
          <cc:Agent>
            <dc:title>PhilMinecraft</dc:title>
          </cc:Agent>
        </dc:creator>
        <dc:publisher>
          <cc:Agent>
            <dc:title>RareFrostbites</dc:title>
          </cc:Agent>
        </dc:publisher>
        <dc:subject>
          <rdf:Bag>
            <rdf:li>Post Feed</rdf:li>
            <rdf:li>News Feed</rdf:li>
            <rdf:li>Feed</rdf:li>
          </rdf:Bag>
        </dc:subject>
      </cc:Work>
    </rdf:RDF>
  </metadata>
</svg>
