<?xml version="1.0" encoding="UTF-8" standalone="no"?>
<!-- Created with Inkscape (http://www.inkscape.org/) -->

<svg
   width="24mm"
   height="24mm"
   viewBox="0 0 24 24"
   version="1.1"
   id="svg5"
   sodipodi:docname="Search.svg"
   inkscape:version="1.1.1 (3bf5ae0d25, 2021-09-20)"
   xmlns:inkscape="http://www.inkscape.org/namespaces/inkscape"
   xmlns:sodipodi="http://sodipodi.sourceforge.net/DTD/sodipodi-0.dtd"
   xmlns="http://www.w3.org/2000/svg"
   xmlns:svg="http://www.w3.org/2000/svg"
   xmlns:rdf="http://www.w3.org/1999/02/22-rdf-syntax-ns#"
   xmlns:cc="http://creativecommons.org/ns#"
   xmlns:dc="http://purl.org/dc/elements/1.1/">
  <title
     id="title12674">Search</title>
  <sodipodi:namedview
     id="namedview7"
     pagecolor="#505050"
     bordercolor="#eeeeee"
     borderopacity="1"
     inkscape:pageshadow="0"
     inkscape:pageopacity="0"
     inkscape:pagecheckerboard="0"
     inkscape:document-units="mm"
     showgrid="false"
     inkscape:snap-grids="true"
     showguides="true"
     inkscape:guide-bbox="true"
     inkscape:zoom="5.66878"
     inkscape:cx="43.748391"
     inkscape:cy="50.187166"
     inkscape:window-width="1920"
     inkscape:window-height="1005"
     inkscape:window-x="-9"
     inkscape:window-y="-9"
     inkscape:window-maximized="1"
     inkscape:current-layer="layer1" />
  <defs
     id="defs2" />
  <g
     inkscape:label="Layer 1"
     inkscape:groupmode="layer"
     id="layer1">
    <g
       id="g12970">
      <path
         id="rect2392-3"
         style="fill:#000000;fill-opacity:1;fill-rule:evenodd;stroke-width:0;stroke-linecap:round;stroke-linejoin:round"
         d="m 14.594913,16.749205 c -0.315273,1.837748 3.362762,5.751402 3.362762,5.751402 l 4.42e-4,-4.42e-4 0.55626,0.556262 c 1.2581,1.258097 3.283948,1.258097 4.542048,0 1.258099,-1.258101 1.2581,-3.28395 0,-4.542051 L 20.21455,15.672502 c -0.0057,-0.0057 -0.01162,-0.01078 -0.01724,-0.01636 l 2.302417,2.302418 c 0,0 -3.914133,-3.677555 -5.751847,-3.362317 l -1.07626,1.076259 -0.51558,0.515581 z" />
      <path
         id="rect10783"
         style="fill:#000000;fill-opacity:1;fill-rule:evenodd;stroke:none;stroke-width:0;stroke-linecap:round;stroke-linejoin:round;stroke-miterlimit:4;stroke-dasharray:none"
         d="M 36.007812 0 C 16.059997 0 0 16.059997 0 36.007812 C 0 55.955628 16.059997 72.013672 36.007812 72.013672 C 55.955628 72.013672 72.013672 55.955628 72.013672 36.007812 C 72.013672 16.059997 55.955628 0 36.007812 0 z M 36.007812 11.337891 C 49.674053 11.337891 60.675781 22.341572 60.675781 36.007812 C 60.675781 49.674053 49.674053 60.675781 36.007812 60.675781 C 22.341572 60.675781 11.337891 49.674053 11.337891 36.007812 C 11.337891 22.341572 22.341572 11.337891 36.007812 11.337891 z "
         transform="scale(0.26458333)" />
    </g>
  </g>
  <metadata
     id="metadata12672">
    <rdf:RDF>
      <cc:Work
         rdf:about="">
        <dc:title>Search</dc:title>
        <dc:date>4/8/2022</dc:date>
        <dc:creator>
          <cc:Agent>
            <dc:title>PhilMinecraft</dc:title>
          </cc:Agent>
        </dc:creator>
        <dc:publisher>
          <cc:Agent>
            <dc:title>RareFrostbites</dc:title>
          </cc:Agent>
        </dc:publisher>
        <dc:subject>
          <rdf:Bag>
            <rdf:li>Search</rdf:li>
          </rdf:Bag>
        </dc:subject>
      </cc:Work>
    </rdf:RDF>
  </metadata>
</svg>
