<?xml version="1.0" encoding="UTF-8" standalone="no"?>
<!-- Created with Inkscape (http://www.inkscape.org/) -->

<svg
   width="24mm"
   height="24mm"
   viewBox="0 0 24 24"
   version="1.1"
   id="svg1574"
   inkscape:version="1.1.1 (3bf5ae0d25, 2021-09-20)"
   sodipodi:docname="Share.svg"
   xmlns:inkscape="http://www.inkscape.org/namespaces/inkscape"
   xmlns:sodipodi="http://sodipodi.sourceforge.net/DTD/sodipodi-0.dtd"
   xmlns="http://www.w3.org/2000/svg"
   xmlns:svg="http://www.w3.org/2000/svg"
   xmlns:rdf="http://www.w3.org/1999/02/22-rdf-syntax-ns#"
   xmlns:cc="http://creativecommons.org/ns#"
   xmlns:dc="http://purl.org/dc/elements/1.1/">
  <title
     id="title3789">Share</title>
  <sodipodi:namedview
     id="namedview1576"
     pagecolor="#505050"
     bordercolor="#eeeeee"
     borderopacity="1"
     inkscape:pageshadow="0"
     inkscape:pageopacity="0"
     inkscape:pagecheckerboard="0"
     inkscape:document-units="mm"
     showgrid="false"
     showguides="true"
     inkscape:guide-bbox="true"
     inkscape:zoom="8.5849054"
     inkscape:cx="50.204397"
     inkscape:cy="45.137364"
     inkscape:window-width="1920"
     inkscape:window-height="1005"
     inkscape:window-x="-9"
     inkscape:window-y="-9"
     inkscape:window-maximized="1"
     inkscape:current-layer="layer1" />
  <defs
     id="defs1571" />
  <g
     inkscape:label="Layer 1"
     inkscape:groupmode="layer"
     id="layer1">
    <g
       id="g2679">
      <path
         id="rect1779"
         style="fill:#000000;fill-opacity:1;fill-rule:evenodd;stroke-width:0;stroke-linecap:round;stroke-linejoin:round"
         d="M 2.8417969 3.7792969 L 2.8417969 15.117188 L 38.376953 15.117188 C 41.517741 15.117188 44.046875 17.646322 44.046875 20.787109 L 44.046875 69.921875 C 44.046875 73.062662 41.517741 75.589844 38.376953 75.589844 L 2.8417969 75.589844 L 2.8417969 86.929688 L 49.714844 86.929688 L 49.716797 86.929688 C 52.857584 86.929688 55.384766 84.400553 55.384766 81.259766 L 55.384766 56.693359 C 55.384766 53.552572 57.9139 51.023438 61.054688 51.023438 L 81.257812 51.023438 L 81.257812 49.132812 C 79.164876 49.131747 77.480469 47.446711 77.480469 45.353516 C 77.480469 43.26032 79.164876 41.575285 81.257812 41.574219 L 81.257812 39.685547 L 61.054688 39.685547 C 57.9139 39.685547 55.384766 37.156412 55.384766 34.015625 L 55.384766 9.4492188 C 55.384766 6.3084313 52.857584 3.7792969 49.716797 3.7792969 L 49.714844 3.7792969 L 2.8417969 3.7792969 z M 9.4492188 5.6699219 C 11.543077 5.6699219 13.228516 7.3553605 13.228516 9.4492188 C 13.228516 11.543077 11.543077 13.228516 9.4492188 13.228516 C 7.3553605 13.228516 5.6699219 11.543077 5.6699219 9.4492188 C 5.6699219 7.3553605 7.3553605 5.6699219 9.4492188 5.6699219 z M 9.4492188 77.480469 C 11.543077 77.480469 13.228516 79.165907 13.228516 81.259766 C 13.228516 83.353624 11.543077 85.039062 9.4492188 85.039062 C 7.3553605 85.039062 5.6699219 83.353624 5.6699219 81.259766 C 5.6699219 79.165907 7.3553605 77.480469 9.4492188 77.480469 z "
         transform="scale(0.26458333)" />
      <path
         id="rect958"
         style="fill:#000000;fill-opacity:1;fill-rule:evenodd;stroke-width:0;stroke-linecap:round;stroke-linejoin:round"
         d="M 2.4675496,6.032e-5 C 1.0976069,0.01729492 0,1.1259864 0,2.5001661 c 0,1.3849998 1.1151058,2.5001058 2.5001058,2.5001058 1.3849994,0 2.5001054,-1.115106 2.5001054,-2.5001058 0,-1.385 -1.115106,-2.50010578 -2.5001054,-2.50010578 -0.01082,0 -0.021769,-1.3571e-4 -0.032556,0 z m 0.032556,1.50016678 c 0.554,0 0.999939,0.4459389 0.999939,0.999939 0,0.5539999 -0.445939,0.999939 -0.999939,0.999939 -0.5540001,0 -0.999939,-0.4459391 -0.999939,-0.999939 0,-0.5540001 0.4459389,-0.999939 0.999939,-0.999939 z" />
      <path
         id="rect958-6"
         style="fill:#000000;fill-opacity:1;fill-rule:evenodd;stroke-width:0;stroke-linecap:round;stroke-linejoin:round"
         d="m 21.467338,9.4999244 c -1.369942,0.017235 -2.467549,1.1259256 -2.467549,2.5001056 0,1.385 1.115106,2.500106 2.500106,2.500106 C 22.884894,14.500136 24,13.38503 24,12.00003 c 0,-1.385 -1.115106,-2.5001056 -2.500105,-2.5001056 -0.01082,0 -0.02177,-1.357e-4 -0.03256,0 z m 0.03256,1.5001666 c 0.554,0 0.999939,0.445939 0.999939,0.999939 0,0.554 -0.445939,0.999939 -0.999939,0.999939 -0.554,0 -0.999939,-0.445939 -0.999939,-0.999939 0,-0.554 0.445939,-0.999939 0.999939,-0.999939 z" />
      <path
         id="rect958-6-1"
         style="fill:#000000;fill-opacity:1;fill-rule:evenodd;stroke-width:0;stroke-linecap:round;stroke-linejoin:round"
         d="M 2.4675496,18.999788 C 1.0976069,19.017023 0,20.125714 0,21.499894 0,22.884894 1.1151058,24 2.5001058,24 c 1.3849994,0 2.5001054,-1.115106 2.5001054,-2.500106 0,-1.385 -1.115106,-2.500106 -2.5001054,-2.500106 -0.01082,0 -0.021769,-1.36e-4 -0.032556,0 z m 0.032556,1.500167 c 0.554,0 0.999939,0.445939 0.999939,0.999939 0,0.554 -0.445939,0.999939 -0.999939,0.999939 -0.5540001,0 -0.999939,-0.445939 -0.999939,-0.999939 0,-0.554 0.4459389,-0.999939 0.999939,-0.999939 z" />
    </g>
  </g>
  <metadata
     id="metadata3787">
    <rdf:RDF>
      <cc:Work
         rdf:about="">
        <dc:title>Share</dc:title>
      </cc:Work>
    </rdf:RDF>
  </metadata>
</svg>
