<?xml version="1.0" encoding="UTF-8" standalone="no"?>
<!-- Created with Inkscape (http://www.inkscape.org/) -->

<svg
   width="210mm"
   height="210mm"
   viewBox="0 0 210 210"
   version="1.1"
   id="svg5"
   inkscape:version="1.1.1 (3bf5ae0d25, 2021-09-20)"
   sodipodi:docname="Spay.svg"
   xmlns:inkscape="http://www.inkscape.org/namespaces/inkscape"
   xmlns:sodipodi="http://sodipodi.sourceforge.net/DTD/sodipodi-0.dtd"
   xmlns="http://www.w3.org/2000/svg"
   xmlns:svg="http://www.w3.org/2000/svg"
   xmlns:rdf="http://www.w3.org/1999/02/22-rdf-syntax-ns#"
   xmlns:cc="http://creativecommons.org/ns#"
   xmlns:dc="http://purl.org/dc/elements/1.1/">
  <title
     id="title824">Spay</title>
  <sodipodi:namedview
     id="namedview7"
     pagecolor="#505050"
     bordercolor="#eeeeee"
     borderopacity="1"
     inkscape:pageshadow="0"
     inkscape:pageopacity="0"
     inkscape:pagecheckerboard="0"
     inkscape:document-units="mm"
     showgrid="false"
     inkscape:lockguides="false"
     inkscape:snap-grids="true"
     inkscape:snap-to-guides="true"
     inkscape:zoom="0.9"
     inkscape:cx="380"
     inkscape:cy="397.22222"
     inkscape:window-width="1920"
     inkscape:window-height="1005"
     inkscape:window-x="-9"
     inkscape:window-y="-9"
     inkscape:window-maximized="1"
     inkscape:current-layer="layer1"
     height="210mm" />
  <defs
     id="defs2" />
  <g
     inkscape:label="Layer 1"
     inkscape:groupmode="layer"
     id="layer1">
    <path
       id="rect2215"
       style="fill:#ffffff;fill-opacity:1;fill-rule:evenodd;stroke:#000000;stroke-width:0;stroke-linecap:round;stroke-linejoin:round;stroke-miterlimit:0;stroke-dasharray:none;paint-order:stroke fill markers"
       d="M 140.42383 0 C 62.628939 -2.8421709e-14 0 54.459691 0 122.10742 L 0 671.59375 C 0 739.24148 62.628939 793.70117 140.42383 793.70117 L 653.27734 793.70117 C 731.07223 793.70117 793.70117 739.24148 793.70117 671.59375 L 793.70117 122.10742 C 793.70117 54.459691 731.07223 7.5578553e-16 653.27734 0 L 140.42383 0 z M 117.16211 528.11719 C 149.86917 528.11719 176.19922 551.53745 176.19922 580.62891 L 176.19922 686.23438 C 176.19922 715.32583 149.86917 738.74609 117.16211 738.74609 C 84.455049 738.74609 58.123047 715.32583 58.123047 686.23438 L 58.123047 580.62891 C 58.123047 551.53745 84.455049 528.11719 117.16211 528.11719 z M 297.14844 528.11719 C 329.8555 528.11719 356.18555 551.53745 356.18555 580.62891 L 356.18555 686.23438 C 356.18555 715.32583 329.8555 738.74609 297.14844 738.74609 C 264.44138 738.74609 238.10937 715.32583 238.10938 686.23438 L 238.10938 580.62891 C 238.10938 551.53745 264.44138 528.11719 297.14844 528.11719 z "
       transform="scale(0.26458333)" />
  </g>
  <metadata
     id="metadata822">
    <rdf:RDF>
      <cc:Work
         rdf:about="">
        <dc:description>Spay is a social networking and multimedia sharing site made by Spay Team for free and it's accessible from various devices, and it's similar to Facebook.</dc:description>
        <dc:subject>
          <rdf:Bag>
            <rdf:li>Spay</rdf:li>
          </rdf:Bag>
        </dc:subject>
        <dc:publisher>
          <cc:Agent>
            <dc:title>RareFrostbites, Spay Team</dc:title>
          </cc:Agent>
        </dc:publisher>
        <dc:creator>
          <cc:Agent>
            <dc:title>PhilMinecraft</dc:title>
          </cc:Agent>
        </dc:creator>
        <dc:date>2/9/2022</dc:date>
        <dc:title>Spay</dc:title>
      </cc:Work>
    </rdf:RDF>
  </metadata>
</svg>
