<?xml version="1.0" encoding="UTF-8" standalone="no"?>
<svg
   width="210"
   height="210"
   fill="none"
   viewBox="0 0 210 210"
   class="h-10 w-10"
   version="1.1"
   id="svg4"
   sodipodi:docname="Spay_Chat_unselected.svg"
   inkscape:version="1.1.1 (3bf5ae0d25, 2021-09-20)"
   xmlns:inkscape="http://www.inkscape.org/namespaces/inkscape"
   xmlns:sodipodi="http://sodipodi.sourceforge.net/DTD/sodipodi-0.dtd"
   xmlns="http://www.w3.org/2000/svg"
   xmlns:svg="http://www.w3.org/2000/svg">
  <defs
     id="defs8" />
  <sodipodi:namedview
     id="namedview6"
     pagecolor="#505050"
     bordercolor="#eeeeee"
     borderopacity="1"
     inkscape:pageshadow="0"
     inkscape:pageopacity="0"
     inkscape:pagecheckerboard="0"
     showgrid="false"
     height="210px"
     showguides="true"
     inkscape:guide-bbox="true"
     inkscape:zoom="3"
     inkscape:cx="106.33333"
     inkscape:cy="98.166667"
     inkscape:window-width="1920"
     inkscape:window-height="1005"
     inkscape:window-x="-9"
     inkscape:window-y="-9"
     inkscape:window-maximized="1"
     inkscape:current-layer="svg4">
    <sodipodi:guide
       position="15.754999,166.4448"
       orientation="0,-1"
       id="guide1835" />
    <sodipodi:guide
       position="15.754999,166.4448"
       orientation="1,0"
       id="guide1837" />
    <sodipodi:guide
       position="172.95581,43.555069"
       orientation="0,-1"
       id="guide1839" />
    <sodipodi:guide
       position="172.95581,43.555069"
       orientation="1,0"
       id="guide1841" />
    <sodipodi:guide
       position="186.68359,166.4448"
       orientation="1,0"
       id="guide2396" />
  </sodipodi:namedview>
  <rect
     style="fill:#ffff00;fill-opacity:1;fill-rule:evenodd;stroke:#000000;stroke-width:0;stroke-linecap:round;stroke-linejoin:round;stroke-miterlimit:0;stroke-dasharray:none;paint-order:stroke fill markers"
     id="rect2215"
     width="188.71082"
     height="154.39973"
     x="-1e-06"
     y="27.800201"
     rx="28.9"
     ry="28.9" />
  <rect
     style="fill:#ff7500;fill-opacity:1;fill-rule:evenodd;stroke:#000000;stroke-width:0;stroke-linecap:round;stroke-linejoin:round;stroke-miterlimit:0;stroke-dasharray:none;paint-order:stroke fill markers"
     id="rect2215-0"
     width="157.20081"
     height="122.88974"
     x="15.754999"
     y="43.555199"
     rx="24.074419"
     ry="23.002069" />
  <path
     d="M 314.9948,1.1088082e-6 C 372.98338,1.1088082e-6 419.98952,47.006134 419.98952,104.99471 c 0,57.98858 -47.00614,104.99472 -104.99472,104.99472 a 104.57474,104.57474 0 0 1 -48.16107,-11.67541 l -40.17098,11.20293 A 13.124339,13.124339 0 0 1 210.49356,193.34777 L 221.707,153.20829 A 104.57474,104.57474 0 0 1 210.00009,104.99471 C 210.00009,47.006134 257.00622,1.1088082e-6 314.9948,1.1088082e-6 Z m 0,15.7492068911918 a 89.245507,89.245507 0 0 0 -89.2455,89.245502 c 0,15.43423 3.9163,30.26998 11.26593,43.43632 l 1.57492,2.83485 -11.67541,41.8299 41.86139,-11.67541 2.83486,1.57492 A 89.245507,89.245507 0 1 0 314.9948,15.749208 Z m -34.12328,99.744982 h 47.22662 a 7.8746035,7.8746035 0 0 1 1.07095,15.67571 l -1.07095,0.0735 h -47.22662 a 7.8746035,7.8746035 0 0 1 -1.07095,-15.67571 l 1.07095,-0.0735 h 47.22662 z m 0,-36.748154 h 68.29906 a 7.8746035,7.8746035 0 0 1 1.06045,15.675711 l -1.06045,0.0735 h -68.29906 a 7.8746035,7.8746035 0 0 1 -1.07095,-15.675714 l 1.07095,-0.0735 h 68.29906 z"
     fill="#ffffff"
     id="path2"
     style="stroke-width:10.4995" />
  <rect
     style="fill:#d2c700;fill-opacity:1;fill-rule:evenodd;stroke-width:0;stroke-linecap:round;stroke-linejoin:round"
     id="rect1449"
     width="15.755"
     height="15.755"
     x="-15.755"
     y="92.171883" />
  <g
     id="g838"
     transform="matrix(1.4516217,0,0,1.4516217,-58.064869,-215.94468)">
    <rect
       style="fill:#000000;fill-opacity:1;fill-rule:evenodd;stroke:#000000;stroke-width:0;stroke-linecap:round;stroke-linejoin:round;stroke-miterlimit:0;stroke-dasharray:none;paint-order:stroke fill markers"
       id="rect2819"
       width="19.339636"
       height="34.498829"
       x="49.354"
       y="114.26216"
       rx="9.6698179"
       ry="8.6008682" />
    <rect
       style="fill:#000000;fill-opacity:1;fill-rule:evenodd;stroke:#000000;stroke-width:0;stroke-linecap:round;stroke-linejoin:round;stroke-miterlimit:0;stroke-dasharray:none;paint-order:stroke fill markers"
       id="rect2819-5"
       width="19.339636"
       height="34.498829"
       x="78.852875"
       y="114.26199"
       rx="9.6698179"
       ry="8.6008682" />
  </g>
  <g
     id="g3763"
     transform="matrix(1.4516217,0,0,1.4516217,-46.162397,-47.420209)">
    <g
       id="g2454"
       transform="matrix(1.3358597,0,0,1.3358597,-55.970951,-87.519832)">
      <circle
         style="fill:#ffff00;fill-opacity:1;fill-rule:evenodd;stroke:#000000;stroke-width:0;stroke-linecap:round;stroke-linejoin:round;stroke-miterlimit:4;stroke-dasharray:none;paint-order:stroke fill markers"
         id="path1468"
         cx="169.98015"
         cy="108.35528"
         r="4.0181479" />
    </g>
    <path
       style="fill:none;stroke:none;stroke-width:0.264583px;stroke-linecap:butt;stroke-linejoin:miter;stroke-opacity:1"
       d="m 139.55057,51.818096 h 31.66731 l 2.27377,10.169922 -14.38672,8.185546 z"
       id="path1249" />
    <path
       style="fill:none;stroke:#000000;stroke-width:0;stroke-linecap:butt;stroke-linejoin:miter;stroke-miterlimit:4;stroke-dasharray:none;stroke-opacity:1"
       d="M 175.85428,59.641476 161.76416,79.402715 139.55057,51.818096 h 31.66731 z"
       id="path3446" />
    <path
       style="fill:#ffff00;fill-opacity:1;stroke:#000000;stroke-width:0;stroke-linecap:butt;stroke-linejoin:miter;stroke-miterlimit:4;stroke-dasharray:none;stroke-opacity:1"
       d="m 175.21116,60.636037 -13.447,18.767333 -22.21359,-27.58462 h 31.66731 z"
       id="path3522" />
  </g>
  <rect
     style="fill:#d2c700;fill-opacity:1;fill-rule:evenodd;stroke-width:0;stroke-linecap:round;stroke-linejoin:round"
     id="rect1449-1"
     width="15.755"
     height="15.755"
     x="0"
     y="92.171883" />
  <rect
     style="fill:#d2c700;fill-opacity:1;fill-rule:evenodd;stroke-width:0;stroke-linecap:round;stroke-linejoin:round"
     id="rect1449-1-1"
     width="15.755"
     height="15.755"
     x="172.90297"
     y="67.843445" />
  <rect
     style="fill:#d2c700;fill-opacity:1;fill-rule:evenodd;stroke-width:0;stroke-linecap:round;stroke-linejoin:round"
     id="rect1449-1-1-72"
     width="15.755"
     height="15.755"
     x="-1e-06"
     y="27.800201" />
  <rect
     style="fill:#d2c700;fill-opacity:1;fill-rule:evenodd;stroke-width:0;stroke-linecap:round;stroke-linejoin:round"
     id="rect1449-1-1-72-9"
     width="15.755"
     height="15.755"
     x="-1e-06"
     y="166.44495" />
  <rect
     style="fill:#d2c700;fill-opacity:1;fill-rule:evenodd;stroke-width:0;stroke-linecap:round;stroke-linejoin:round"
     id="rect1449-1-1-72-9-2"
     width="15.755"
     height="15.755"
     x="172.95581"
     y="166.44493" />
  <rect
     style="fill:#d2c700;fill-opacity:1;fill-rule:evenodd;stroke-width:0;stroke-linecap:round;stroke-linejoin:round"
     id="rect1449-1-1-1"
     width="73.006157"
     height="15.755"
     x="147.91106"
     y="27.801012" />
  <rect
     style="fill:#d2c700;fill-opacity:1;fill-rule:evenodd;stroke-width:0;stroke-linecap:round;stroke-linejoin:round"
     id="rect1449-1-1-7"
     width="15.755"
     height="65"
     x="177.09778"
     y="-109.79265"
     transform="rotate(35.639598)" />
  <g
     style="fill:none"
     id="g1874"
     transform="matrix(0.89862243,0,0,0.89862243,1.4474169e-4,199.51784)">
    <g
       id="g845">
      <path
         id="rect881"
         style="fill:#000000;fill-opacity:1;fill-rule:evenodd;stroke-width:0;stroke-linecap:round;stroke-linejoin:round"
         d="m 8.7732867,58.348972 c -4.8612561,-1e-5 -8.77343747441,3.912172 -8.77343747441,8.773438 v 21.179688 c 0,0.007 0.001953134,0.01604 0.001953134,0.02344 v 2.125 c -9.001e-5,0.0146 -0.001953134,0.03032 -0.001953134,0.04492 v 75.693362 c 0,17.80828 14.33625577441,32.14648 32.14453077441,32.14648 h 145.70899 c 17.80828,0 32.14648,-14.3382 32.14648,-32.14648 V 90.495457 c 0,-0.0146 -0.002,-0.03032 -0.002,-0.04492 v -2.125 c 8e-5,-0.007 0.002,-0.01604 0.002,-0.02344 V 67.12241 c 0,-4.861266 -3.91414,-8.773438 -8.77539,-8.773438 H 177.85337 32.14438 Z M 50.128755,108.93686 c 9.575342,0 17.283203,6.85621 17.283203,15.37305 v 30.91797 c 0,8.51683 -7.707861,15.37305 -17.283203,15.37305 -9.575341,0 -17.285156,-6.85622 -17.285156,-15.37305 v -30.91797 c 0,-8.51684 7.709815,-15.37305 17.285156,-15.37305 z m 52.691405,0 c 9.57534,0 17.28516,6.85621 17.28516,15.37305 v 30.91797 c 0,8.51683 -7.70982,15.37305 -17.28516,15.37305 -9.575337,0 -17.283202,-6.85622 -17.283202,-15.37305 v -30.91797 c 0,-8.51684 7.707865,-15.37305 17.283202,-15.37305 z" />
      <path
         id="rect6621"
         style="fill:#000000;fill-opacity:1;fill-rule:evenodd;stroke-width:0;stroke-linecap:round;stroke-linejoin:round"
         d="m 177.89857,11.6647 -145.814961,0.04846 -1.9616,0.06794 A 32.084388,32.084388 0 0 0 -1.6077441e-4,43.809789 l 0.006000004,20.60528 0.007,1e-4 0.002,2.77967 a 8.7502879,8.7501599 89.911289 0 0 7.53344997,8.65395 c 0.85851,-0.007 1.43058,-0.0345 2.38469,-0.0347 l 175.0292308,-0.0491 c 2.58316,-7.7e-4 4.39726,0.0507 6.59971,0.0808 l 9.69418,-0.002 1.18803,-0.0812 a 8.7502879,8.7502879 0 0 0 7.55603,-8.67409 l -0.0171,-23.33109 -0.0465,-1.95475 -0.007,-0.0153 a 32.084388,32.084388 0 0 0 -24.04212,-29.109861 32.084388,32.084388 0 0 0 -7.98869,-1.012363 z m -12.20987,17.512472 -29.15895,29.174747 -32.97515,-0.003 29.15422,-29.151058 z m -57.73951,0.02811 -29.143681,29.166367 -32.98376,-0.005 29.14991,-29.15112 z m -57.724091,0.01118 -0.002,0.0089 -29.15211,29.153257 -3.58162,0.005 -8.3e-4,-14.57687 0.0775,-1.4944 a 14.583813,14.583813 0 0 1 14.49851,-13.081193 z m 136.936921,3.283583 a 14.560479,14.560479 0 0 1 5.31853,11.268074 l -0.01,14.56159 -31.16851,0.0168 z" />
    </g>
  </g>
  <path
     style="fill:#ff7500;stroke:none;stroke-width:0;stroke-linecap:butt;stroke-linejoin:miter;stroke-opacity:1;stroke-miterlimit:4;stroke-dasharray:none;fill-opacity:1"
     d="M 147.91106,43.556011 186.68359,43.5552 170.02705,66.789273 Z"
     id="path2398" />
</svg>
