<?xml version="1.0" encoding="UTF-8" standalone="no"?>
<svg
   height="210"
   viewBox="0 0 210 210"
   width="210"
   fill="#000000"
   version="1.1"
   id="svg6"
   sodipodi:docname="Spay_Grids_selected.svg"
   inkscape:version="1.1.1 (3bf5ae0d25, 2021-09-20)"
   xmlns:inkscape="http://www.inkscape.org/namespaces/inkscape"
   xmlns:sodipodi="http://sodipodi.sourceforge.net/DTD/sodipodi-0.dtd"
   xmlns="http://www.w3.org/2000/svg"
   xmlns:svg="http://www.w3.org/2000/svg">
  <defs
     id="defs10" />
  <sodipodi:namedview
     id="namedview8"
     pagecolor="#505050"
     bordercolor="#eeeeee"
     borderopacity="1"
     inkscape:pageshadow="0"
     inkscape:pageopacity="0"
     inkscape:pagecheckerboard="0"
     showgrid="false"
     height="210px"
     showguides="true"
     inkscape:guide-bbox="true"
     inkscape:zoom="3"
     inkscape:cx="108.33333"
     inkscape:cy="103.5"
     inkscape:window-width="1920"
     inkscape:window-height="1005"
     inkscape:window-x="-9"
     inkscape:window-y="-9"
     inkscape:window-maximized="1"
     inkscape:current-layer="svg6" />
  <path
     id="rect1076"
     style="fill:#ffffff;fill-opacity:1;fill-rule:evenodd;stroke-width:0;stroke-linecap:round;stroke-linejoin:round"
     d="M 23.449219 23.332031 C 10.457918 23.332031 0 33.78995 0 46.78125 L 0 163.21484 C 0 176.20614 10.457918 186.66406 23.449219 186.66406 L 186.55078 186.66406 C 199.54208 186.66406 210 176.20614 210 163.21484 L 210 46.78125 C 210 33.78995 199.54208 23.332031 186.55078 23.332031 L 23.449219 23.332031 z M 104.66406 58.333984 A 12.5 12.5 0 0 1 109.4707 59.15625 A 12.5 12.5 0 0 1 116.67383 75.298828 L 116.67188 75.304688 A 12.5 12.5 0 0 1 100.52539 82.501953 A 12.5 12.5 0 0 1 93.328125 66.357422 A 12.5 12.5 0 0 1 104.66406 58.333984 z M 41.322266 58.421875 A 7.5 7.5 0 0 1 45.181641 58.824219 A 7.5 7.5 0 0 1 49.503906 68.509766 L 49.501953 68.513672 A 7.5 7.5 0 0 1 39.816406 72.832031 A 7.5 7.5 0 0 1 35.496094 63.146484 A 7.5 7.5 0 0 1 41.322266 58.421875 z M 61.544922 86.925781 C 69.786567 86.925781 76.421875 92.825677 76.421875 100.15625 L 76.421875 126.76758 C 76.421875 134.09815 69.786567 140 61.544922 140 C 53.303277 140 46.667969 134.09815 46.667969 126.76758 L 46.667969 100.15625 C 46.667969 92.825677 53.303277 86.925781 61.544922 86.925781 z M 106.89844 86.925781 C 115.14008 86.925781 121.77539 92.825677 121.77539 100.15625 L 121.77539 126.76758 C 121.77539 134.09815 115.14008 140 106.89844 140 C 98.656788 140 92.021484 134.09815 92.021484 126.76758 L 92.021484 100.15625 C 92.021484 92.825677 98.656788 86.925781 106.89844 86.925781 z " />
</svg>
