<?xml version="1.0" encoding="UTF-8" standalone="no"?>
<!-- Created with Inkscape (http://www.inkscape.org/) -->

<svg
   width="210mm"
   height="210mm"
   viewBox="0 0 210 210"
   version="1.1"
   id="svg5"
   inkscape:version="1.1.1 (3bf5ae0d25, 2021-09-20)"
   sodipodi:docname="Spay_Vertz_unselected.svg"
   xmlns:inkscape="http://www.inkscape.org/namespaces/inkscape"
   xmlns:sodipodi="http://sodipodi.sourceforge.net/DTD/sodipodi-0.dtd"
   xmlns="http://www.w3.org/2000/svg"
   xmlns:svg="http://www.w3.org/2000/svg">
  <sodipodi:namedview
     id="namedview7"
     pagecolor="#505050"
     bordercolor="#eeeeee"
     borderopacity="1"
     inkscape:pageshadow="0"
     inkscape:pageopacity="0"
     inkscape:pagecheckerboard="0"
     inkscape:document-units="mm"
     showgrid="false"
     height="210mm"
     inkscape:zoom="0.9"
     inkscape:cx="397.77778"
     inkscape:cy="397.22222"
     inkscape:window-width="1920"
     inkscape:window-height="1005"
     inkscape:window-x="-9"
     inkscape:window-y="-9"
     inkscape:window-maximized="1"
     inkscape:current-layer="layer1"
     showguides="true"
     inkscape:guide-bbox="true" />
  <defs
     id="defs2" />
  <g
     inkscape:label="Layer 1"
     inkscape:groupmode="layer"
     id="layer1">
    <g
       id="g870">
      <g
         id="g858">
        <rect
           style="fill:#000000;fill-opacity:1;fill-rule:evenodd;stroke:#000000;stroke-width:0;stroke-linecap:round;stroke-linejoin:round;stroke-miterlimit:0;stroke-dasharray:none;paint-order:stroke fill markers"
           id="rect2819-3"
           width="28.265526"
           height="50.421196"
           x="66.955956"
           y="117.77956"
           rx="14.132763"
           ry="12.570457" />
        <rect
           style="fill:#000000;fill-opacity:1;fill-rule:evenodd;stroke:#000000;stroke-width:0;stroke-linecap:round;stroke-linejoin:round;stroke-miterlimit:0;stroke-dasharray:none;paint-order:stroke fill markers"
           id="rect2819-5-1"
           width="28.265999"
           height="50.422039"
           x="110.04196"
           y="117.77956"
           rx="14.132999"
           ry="12.570668" />
      </g>
      <g
         id="g862">
        <path
           id="rect17332"
           style="fill:#000000;fill-opacity:1;fill-rule:evenodd;stroke:#ff8800;stroke-width:0;stroke-linecap:round;stroke-linejoin:round;stroke-miterlimit:4;stroke-dasharray:none;stroke-opacity:0.952941"
           d="m 53.202953,9.9999063 c -0.01442,0 -0.02849,0.00101 -0.04289,0.00103 -3.494645,0.0076 -6.651886,0.948391 -9.482108,2.793111 -0.252931,0.16486 -0.503235,0.337231 -0.750858,0.516765 -0.23812,0.172641 -0.473723,0.352258 -0.706932,0.538468 -0.238853,0.190714 -0.475301,0.388298 -0.709002,0.593246 -0.34245,0.300313 -0.684564,0.60085 -1.01596,0.931726 -0.0041,0.0041 -0.0083,0.0078 -0.01241,0.01188 -1.34647,1.346563 -2.440392,2.794838 -3.281971,4.345471 -0.280448,0.516731 -0.533202,1.045001 -0.757576,1.584399 -6.1e-5,1.5e-4 6.3e-5,3.71e-4 0,5.29e-4 -0.224356,0.539397 -0.420828,1.090031 -0.589111,1.652096 -0.280061,0.93541 -0.463849,1.909631 -0.588595,2.907833 -2.1e-5,1.67e-4 2.2e-5,3.44e-4 0,5.29e-4 -0.100091,0.801642 -0.168465,1.616056 -0.168465,2.458249 V 44.83708 h -5.29e-4 v 137.28619 c 0,5.0423 1.795629,9.28235 5.386234,12.72016 3.584987,3.43243 7.8174,5.15179 12.696899,5.15679 H 156.59042 c 5.03235,-0.005 9.34159,-1.80043 12.92686,-5.38572 3.59073,-3.5906 5.38623,-7.83065 5.38623,-12.72015 V 28.334705 c 0,-5.042192 -1.79551,-9.358355 -5.38623,-12.949081 -3.58526,-3.58516 -7.8945,-5.380278 -12.92684,-5.3857177 h -23.3996 l 16.9602,34.8371497 H 120.35648 L 103.39627,9.9999063 H 82.998034 L 99.958238,44.837056 H 70.163157 Z M 35.265547,25.876973 c -0.100144,0.801514 -0.168981,1.615725 -0.168981,2.457732 0,-0.841941 0.06876,-1.656281 0.168981,-2.457732 z M 52.293448,10.021094 c -0.253783,0.01185 -0.504828,0.03137 -0.754991,0.05323 0.250108,-0.02185 0.501266,-0.04138 0.754991,-0.05323 z m 0.909505,53.151277 H 156.79766 V 181.95375 H 53.202953 Z" />
        <rect
           style="fill:#000000;fill-opacity:1;fill-rule:evenodd;stroke:#ff8800;stroke-width:0;stroke-linecap:round;stroke-linejoin:round;stroke-miterlimit:4;stroke-dasharray:none;stroke-opacity:0.952941"
           id="rect30288"
           width="28.266001"
           height="28.266001"
           x="90.866997"
           y="76.925369"
           rx="14.133"
           ry="14.133" />
      </g>
    </g>
  </g>
</svg>
