<?xml version="1.0" encoding="UTF-8" standalone="no"?>
<!-- Created with Inkscape (http://www.inkscape.org/) -->

<svg
   width="210mm"
   height="210mm"
   viewBox="0 0 210 210"
   version="1.1"
   id="svg5"
   inkscape:version="1.1.1 (3bf5ae0d25, 2021-09-20)"
   sodipodi:docname="Spay_Vertz_selected.svg"
   xmlns:inkscape="http://www.inkscape.org/namespaces/inkscape"
   xmlns:sodipodi="http://sodipodi.sourceforge.net/DTD/sodipodi-0.dtd"
   xmlns="http://www.w3.org/2000/svg"
   xmlns:svg="http://www.w3.org/2000/svg">
  <sodipodi:namedview
     id="namedview7"
     pagecolor="#505050"
     bordercolor="#eeeeee"
     borderopacity="1"
     inkscape:pageshadow="0"
     inkscape:pageopacity="0"
     inkscape:pagecheckerboard="0"
     inkscape:document-units="mm"
     showgrid="false"
     height="210mm"
     inkscape:zoom="0.9"
     inkscape:cx="397.77778"
     inkscape:cy="397.22222"
     inkscape:window-width="1920"
     inkscape:window-height="1005"
     inkscape:window-x="-9"
     inkscape:window-y="-9"
     inkscape:window-maximized="1"
     inkscape:current-layer="layer1"
     showguides="true"
     inkscape:guide-bbox="true" />
  <defs
     id="defs2" />
  <g
     inkscape:label="Layer 1"
     inkscape:groupmode="layer"
     id="layer1">
    <path
       id="rect850"
       style="fill:#000000;fill-rule:evenodd;stroke-width:0;stroke-linecap:round;stroke-linejoin:round;fill-opacity:1"
       d="M 201.08203 37.794922 C 201.02753 37.794922 200.97435 37.798753 200.91992 37.798828 C 187.71181 37.827553 175.77893 41.383299 165.08203 48.355469 C 164.12607 48.978562 163.18004 49.63004 162.24414 50.308594 C 161.34416 50.961095 160.45369 51.639964 159.57227 52.34375 C 158.66951 53.064559 157.77586 53.811331 156.89258 54.585938 C 155.59828 55.720978 154.30525 56.856867 153.05273 58.107422 C 153.03724 58.122918 153.02139 58.136923 153.00586 58.152344 C 147.91684 63.241716 143.78233 68.715512 140.60156 74.576172 C 139.5416 76.529171 138.58631 78.525784 137.73828 80.564453 L 137.73828 80.566406 C 136.89032 82.605072 136.14775 84.686207 135.51172 86.810547 C 134.45322 90.345955 133.75859 94.028049 133.28711 97.800781 L 133.28711 97.802734 C 133.09772 99.317287 132.93849 100.84477 132.82617 102.39062 C 132.71428 103.93677 132.65039 105.5022 132.65039 107.09375 L 132.65039 169.46289 L 132.64844 169.46289 L 132.64844 688.33984 C 132.64844 707.39736 139.43507 723.42272 153.00586 736.41602 C 166.55542 749.38898 182.55194 755.88735 200.99414 755.90625 L 591.83789 755.90625 C 610.8578 755.88735 627.14469 749.10148 640.69531 735.55078 C 654.26658 721.98001 661.05273 705.95461 661.05273 687.47461 L 661.05273 107.0918 C 661.05273 88.03469 654.26654 71.721637 640.69531 58.150391 C 627.14472 44.60018 610.85776 37.815481 591.83789 37.794922 L 503.39844 37.794922 L 567.5 169.46289 L 454.89062 169.46289 L 390.78906 37.794922 L 313.69336 37.794922 L 377.79492 169.46289 L 265.18359 169.46289 L 201.08203 37.794922 z M 396.84961 290.74219 C 426.44211 290.74219 450.26563 314.5657 450.26562 344.1582 C 450.26562 373.7507 426.44211 397.57422 396.84961 397.57422 C 367.25711 397.57422 343.43359 373.7507 343.43359 344.1582 C 343.43359 314.5657 367.25711 290.74219 396.84961 290.74219 z M 306.47656 445.15039 C 336.06856 445.15039 359.89258 466.34135 359.89258 492.66211 L 359.89258 588.20898 C 359.89258 614.52974 336.06856 635.71875 306.47656 635.71875 C 276.88456 635.71875 253.0625 614.52974 253.0625 588.20898 L 253.0625 492.66211 C 253.0625 466.34135 276.88456 445.15039 306.47656 445.15039 z M 469.32227 445.15039 C 498.91476 445.15039 522.73828 466.34091 522.73828 492.66211 L 522.73828 588.21094 C 522.73828 614.53214 498.91476 635.72266 469.32227 635.72266 C 439.72977 635.72266 415.90625 614.53214 415.90625 588.21094 L 415.90625 492.66211 C 415.90625 466.34091 439.72977 445.15039 469.32227 445.15039 z "
       transform="scale(0.26458333)" />
  </g>
</svg>
