<?xml version="1.0" encoding="UTF-8" standalone="no"?>
<svg
   height="210"
   width="210"
   version="1.1"
   id="svg4"
   sodipodi:docname="Spay_unselected.svg"
   inkscape:version="1.1.1 (3bf5ae0d25, 2021-09-20)"
   xmlns:inkscape="http://www.inkscape.org/namespaces/inkscape"
   xmlns:sodipodi="http://sodipodi.sourceforge.net/DTD/sodipodi-0.dtd"
   xmlns="http://www.w3.org/2000/svg"
   xmlns:svg="http://www.w3.org/2000/svg">
  <defs
     id="defs8" />
  <sodipodi:namedview
     id="namedview6"
     pagecolor="#505050"
     bordercolor="#eeeeee"
     borderopacity="1"
     inkscape:pageshadow="0"
     inkscape:pageopacity="0"
     inkscape:pagecheckerboard="0"
     showgrid="false"
     height="210px"
     inkscape:zoom="3"
     inkscape:cx="104.33333"
     inkscape:cy="103.16667"
     inkscape:window-width="1920"
     inkscape:window-height="1005"
     inkscape:window-x="-9"
     inkscape:window-y="-9"
     inkscape:window-maximized="1"
     inkscape:current-layer="svg4" />
  <g
     id="g828">
    <path
       d="M 22.149533,210 Q 13.17757,210 6.588785,203.41121 0,196.82243 0,187.85047 V 22.429907 Q 0,13.17757 6.588785,6.588785 13.17757,0 22.149533,0 H 187.57009 q 9.25234,0 15.84112,6.588785 Q 210,13.17757 210,22.429907 V 187.85047 q 0,8.97196 -6.58879,15.56074 Q 196.82243,210 187.57009,210 Z m 0,-22.14953 H 187.57009 q 0,0 0,0 0,0 0,0 V 22.429907 q 0,0 0,0 0,0 0,0 H 22.149533 q 0,0 0,0 0,0 0,0 V 187.85047 q 0,0 0,0 0,0 0,0 z m 0,0 q 0,0 0,0 0,0 0,0 V 22.429907 q 0,0 0,0 0,0 0,0 0,0 0,0 0,0 0,0 V 187.85047 q 0,0 0,0 0,0 0,0 z"
       id="path2"
       style="stroke-width:5.60748;fill:#ffff00;fill-opacity:1" />
    <g
       id="g888"
       transform="matrix(0.99999378,0,0,0.99999378,18.337888,-18.447783)">
      <rect
         style="fill:#ffff00;fill-opacity:1;fill-rule:evenodd;stroke:#000000;stroke-width:0;stroke-linecap:round;stroke-linejoin:round;stroke-miterlimit:0;stroke-dasharray:none;paint-order:stroke fill markers"
         id="rect2819"
         width="31.24095"
         height="55.728878"
         x="25.961803"
         y="128.42052"
         rx="15.620475"
         ry="13.89371" />
      <rect
         style="fill:#ffff00;fill-opacity:1;fill-rule:evenodd;stroke:#000000;stroke-width:0;stroke-linecap:round;stroke-linejoin:round;stroke-miterlimit:0;stroke-dasharray:none;paint-order:stroke fill markers"
         id="rect2819-5"
         width="31.24095"
         height="55.728878"
         x="73.583344"
         y="128.42052"
         rx="15.620475"
         ry="13.89371" />
    </g>
  </g>
</svg>
