<?xml version="1.0" encoding="UTF-8" standalone="no"?>
<!-- Created with Inkscape (http://www.inkscape.org/) -->

<svg
   width="210mm"
   height="210mm"
   viewBox="0 0 210 210"
   version="1.1"
   id="svg5"
   inkscape:version="1.1.1 (3bf5ae0d25, 2021-09-20)"
   sodipodi:docname="Spay_unselected.svg"
   xmlns:inkscape="http://www.inkscape.org/namespaces/inkscape"
   xmlns:sodipodi="http://sodipodi.sourceforge.net/DTD/sodipodi-0.dtd"
   xmlns="http://www.w3.org/2000/svg"
   xmlns:svg="http://www.w3.org/2000/svg">
  <sodipodi:namedview
     id="namedview7"
     pagecolor="#505050"
     bordercolor="#eeeeee"
     borderopacity="1"
     inkscape:pageshadow="0"
     inkscape:pageopacity="0"
     inkscape:pagecheckerboard="0"
     inkscape:document-units="mm"
     showgrid="false"
     inkscape:lockguides="false"
     inkscape:snap-grids="true"
     inkscape:snap-to-guides="true"
     inkscape:zoom="0.70710678"
     inkscape:cx="333.04729"
     inkscape:cy="378.30213"
     inkscape:window-width="1168"
     inkscape:window-height="987"
     inkscape:window-x="0"
     inkscape:window-y="0"
     inkscape:window-maximized="0"
     inkscape:current-layer="layer1"
     height="210mm"
     showguides="true"
     inkscape:guide-bbox="true" />
  <defs
     id="defs2" />
  <g
     inkscape:label="Layer 1"
     inkscape:groupmode="layer"
     id="layer1">
    <g
       id="g4679">
      <path
         id="rect2215"
         style="fill:#212121;fill-opacity:1;fill-rule:evenodd;stroke:#000000;stroke-width:0;stroke-linecap:round;stroke-linejoin:round;stroke-miterlimit:0;stroke-dasharray:none;paint-order:stroke fill markers"
         d="M 124.50195 0 C 55.528164 0 0 55.528164 0 124.50195 L 0 669.19922 C 0 738.17301 55.528164 793.70117 124.50195 793.70117 L 669.19922 793.70117 C 738.17301 793.70117 793.70117 738.17301 793.70117 669.19922 L 793.70117 124.50195 C 793.70117 55.528164 738.17301 0 669.19922 0 L 124.50195 0 z M 175.16992 50.667969 L 618.53125 50.667969 C 687.50504 50.667969 743.0332 106.19613 743.0332 175.16992 L 743.0332 618.53125 C 743.0332 687.50504 687.50504 743.0332 618.53125 743.0332 L 175.16992 743.0332 C 106.19613 743.0332 50.667969 687.50504 50.667969 618.53125 L 50.667969 175.16992 C 50.667969 106.19613 106.19613 50.667969 175.16992 50.667969 z "
         transform="scale(0.26458333)" />
      <g
         id="g4673">
        <rect
           style="fill:#212121;fill-opacity:1;fill-rule:evenodd;stroke:#000000;stroke-width:0;stroke-linecap:round;stroke-linejoin:round;stroke-miterlimit:0;stroke-dasharray:none;paint-order:stroke fill markers"
           id="rect2819"
           width="31.24095"
           height="55.728878"
           x="25.961803"
           y="128.42052"
           rx="15.620475"
           ry="13.89371" />
        <rect
           style="fill:#212121;fill-opacity:1;fill-rule:evenodd;stroke:#000000;stroke-width:0;stroke-linecap:round;stroke-linejoin:round;stroke-miterlimit:0;stroke-dasharray:none;paint-order:stroke fill markers"
           id="rect2819-5"
           width="31.24095"
           height="55.728878"
           x="73.583344"
           y="128.42052"
           rx="15.620475"
           ry="13.89371" />
      </g>
    </g>
  </g>
</svg>
