<?xml version="1.0" encoding="UTF-8" standalone="no"?>
<!-- Created with Inkscape (http://www.inkscape.org/) -->

<svg
   width="210mm"
   height="90mm"
   viewBox="0 0 210 90"
   version="1.1"
   id="svg5"
   inkscape:version="1.1.1 (3bf5ae0d25, 2021-09-20)"
   sodipodi:docname="Share Embed Code.svg"
   xmlns:inkscape="http://www.inkscape.org/namespaces/inkscape"
   xmlns:sodipodi="http://sodipodi.sourceforge.net/DTD/sodipodi-0.dtd"
   xmlns="http://www.w3.org/2000/svg"
   xmlns:svg="http://www.w3.org/2000/svg">
  <sodipodi:namedview
     id="namedview7"
     pagecolor="#505050"
     bordercolor="#eeeeee"
     borderopacity="1"
     inkscape:pageshadow="0"
     inkscape:pageopacity="0"
     inkscape:pagecheckerboard="0"
     inkscape:document-units="mm"
     showgrid="false"
     showguides="true"
     inkscape:guide-bbox="true"
     inkscape:zoom="1.3"
     inkscape:cx="396.92308"
     inkscape:cy="169.61538"
     inkscape:window-width="1920"
     inkscape:window-height="1005"
     inkscape:window-x="-9"
     inkscape:window-y="-9"
     inkscape:window-maximized="1"
     inkscape:current-layer="layer1" />
  <defs
     id="defs2" />
  <g
     inkscape:label="Layer 1"
     inkscape:groupmode="layer"
     id="layer1">
    <g
       id="g8010"
       transform="translate(-4.9291748e-5,-59.997983)">
      <g
         id="g7999">
        <path
           id="rect862-2-9"
           style="fill:#000000;fill-opacity:1;fill-rule:evenodd;stroke-width:0;stroke-linecap:round;stroke-linejoin:round"
           d="m 75.589844,264.5625 v 37.79492 H 37.794922 v 37.79492 H 0 v 37.79493 37.79687 37.79492 h 37.794922 v 37.79492 h 37.794922 v 37.79493 h 37.796876 37.79492 37.79492 v -37.79493 -37.79492 -37.79687 h -37.79492 v -37.79492 h 37.79492 V 340.15234 302.35742 264.5625 h -37.79492 -37.79492 z m 37.796876,37.79492 h 37.79492 v 37.79492 h -37.79492 v 37.79493 H 75.589844 v 37.79492 H 37.794922 V 377.94727 H 75.589844 V 340.15234 H 113.38672 Z M 75.589844,415.74414 h 37.796876 v 37.79492 h 37.79492 v 37.79492 H 113.38672 V 453.53906 H 75.589844 Z"
           transform="scale(0.26458333)" />
        <path
           id="rect862-8-8"
           style="fill:#2e58da;fill-opacity:1;fill-rule:evenodd;stroke-width:0;stroke-linecap:round;stroke-linejoin:round"
           d="m 113.38672,302.35742 v 37.79492 h 37.79492 v -37.79492 z m 0,37.79492 H 75.589844 v 37.79493 H 113.38672 Z M 75.589844,377.94727 H 37.794922 v 37.79687 h 37.794922 v 37.79492 H 113.38672 V 415.74219 H 75.589844 Z m 37.796876,75.59179 v 37.79492 h 37.79492 v -37.79492 z"
           transform="scale(0.26458333)" />
      </g>
      <g
         id="g7995">
        <path
           id="rect862-2-9-39"
           style="fill:#000000;fill-opacity:1;fill-rule:evenodd;stroke-width:0;stroke-linecap:round;stroke-linejoin:round"
           d="m 604.72461,264.56055 v 37.79492 37.79492 37.79492 h 37.79492 v 37.79688 h -37.79492 v 37.79492 37.79492 37.79492 h 37.79492 37.79492 37.79493 v -37.79492 h 37.79687 v -37.79492 h 37.79492 v -37.79492 -37.79688 -37.79492 h -37.79492 v -37.79492 h -37.79687 v -37.79492 h -37.79493 -37.79492 z m 37.79492,37.79492 h 37.79492 v 37.79492 h 37.79493 v 37.79492 h 37.79687 v 37.79688 h -37.79687 v 37.79492 h -37.79493 v 37.79492 h -37.79492 v -37.79492 h 37.79492 v -37.79492 h 37.79493 v -37.79688 h -37.79493 v -37.79492 h -37.79492 z"
           transform="scale(0.26458333)" />
        <path
           id="rect862-8-8-42"
           style="fill:#2e58da;fill-opacity:1;fill-rule:evenodd;stroke-width:0;stroke-linecap:round;stroke-linejoin:round"
           d="m 642.51953,302.35547 v 37.79492 h 37.79492 v -37.79492 z m 37.79492,37.79492 v 37.79492 h 37.79493 v -37.79492 z m 37.79493,37.79492 v 37.79688 h 37.79687 v -37.79688 z m 0,37.79688 h -37.79493 v 37.79492 h 37.79493 z m -37.79493,37.79492 h -37.79492 v 37.79492 h 37.79492 z"
           transform="scale(0.26458333)" />
      </g>
      <g
         id="g7991">
        <path
           id="rect862-2-9-2-8"
           style="fill:#000000;fill-opacity:1;fill-rule:evenodd;stroke-width:0;stroke-linecap:round;stroke-linejoin:round"
           d="m 491.33789,226.76367 v 37.79688 h 37.79688 v -37.79688 z m 37.79688,37.79688 v 37.79492 h 37.79492 v -37.79492 z m 0,37.79492 h -37.79688 v 37.79492 h 37.79688 z m -37.79688,37.79492 h -37.79492 v 37.79492 h 37.79492 z m -37.79492,37.79492 h -37.79492 v 37.79492 h 37.79492 z m -37.79492,37.79492 h -37.79493 v 37.79493 h 37.79493 z m -37.79493,37.79493 H 340.1582 v 37.79687 h 37.79492 z m -37.79492,37.79687 h -37.79687 v 37.79492 h 37.79687 z m -37.79687,37.79492 h -37.79492 v 37.79493 h 37.79492 z m -37.79492,0 v -37.79492 h -37.79493 v 37.79492 z m 0,-37.79492 h 37.79492 v -37.79687 h -37.79492 z m 37.79492,-37.79687 h 37.79687 v -37.79493 h -37.79687 z m 37.79687,-37.79493 h 37.79492 V 377.94531 H 340.1582 Z m 37.79492,-37.79492 h 37.79493 v -37.79492 h -37.79493 z m 37.79493,-37.79492 h 37.79492 v -37.79492 h -37.79492 z m 37.79492,-37.79492 h 37.79492 v -37.79492 h -37.79492 z"
           transform="scale(0.26458333)" />
        <path
           id="rect862-9"
           style="fill:#c6c6c6;fill-opacity:1;fill-rule:evenodd;stroke-width:0;stroke-linecap:round;stroke-linejoin:round"
           d="m 491.33789,264.56055 v 37.79492 h 37.79688 v -37.79492 z m 0,37.79492 h -37.79492 v 37.79492 h 37.79492 z m -37.79492,37.79492 h -37.79492 v 37.79492 h 37.79492 z m -37.79492,37.79492 h -37.79493 v 37.79492 h 37.79493 z m -37.79493,37.79492 H 340.1582 v 37.79493 h 37.79492 z m -37.79492,37.79493 h -37.79687 v 37.79687 h 37.79687 z m -37.79687,37.79687 h -37.79492 v 37.79492 h 37.79492 z"
           transform="scale(0.26458333)" />
      </g>
    </g>
  </g>
</svg>
