<?xml version="1.0" encoding="UTF-8" standalone="no"?>
<!-- Created with Inkscape (http://www.inkscape.org/) -->

<svg
   width="210mm"
   height="210mm"
   viewBox="0 0 210 210"
   version="1.1"
   id="svg5"
   inkscape:version="1.1.1 (3bf5ae0d25, 2021-09-20)"
   sodipodi:docname="Spay_Group_selected.svg"
   xmlns:inkscape="http://www.inkscape.org/namespaces/inkscape"
   xmlns:sodipodi="http://sodipodi.sourceforge.net/DTD/sodipodi-0.dtd"
   xmlns="http://www.w3.org/2000/svg"
   xmlns:svg="http://www.w3.org/2000/svg">
  <sodipodi:namedview
     id="namedview7"
     pagecolor="#505050"
     bordercolor="#eeeeee"
     borderopacity="1"
     inkscape:pageshadow="0"
     inkscape:pageopacity="0"
     inkscape:pagecheckerboard="0"
     inkscape:document-units="mm"
     showgrid="false"
     inkscape:lockguides="false"
     inkscape:snap-grids="true"
     inkscape:snap-to-guides="true"
     inkscape:zoom="0.9"
     inkscape:cx="396.66667"
     inkscape:cy="397.22222"
     inkscape:window-width="1920"
     inkscape:window-height="1005"
     inkscape:window-x="-9"
     inkscape:window-y="-9"
     inkscape:window-maximized="1"
     inkscape:current-layer="layer1"
     height="210mm"
     showguides="true"
     inkscape:guide-bbox="true" />
  <defs
     id="defs2" />
  <g
     inkscape:label="Layer 1"
     inkscape:groupmode="layer"
     id="layer1">
    <g
       id="g1064">
      <g
         id="g832"
         transform="matrix(1.6153846,0,0,1.6153846,-64.615383,-64.615383)" />
    </g>
    <g
       id="g884">
      <path
         id="rect848-7"
         style="fill:#ffffff;fill-opacity:1;fill-rule:evenodd;stroke-width:0;stroke-linecap:round;stroke-linejoin:round"
         d="M 153.98175,35.865461 V 174.13453 h 27.14408 c 15.99619,0 28.8742,-12.878 28.8742,-28.8742 V 64.739668 c 0,-15.996198 -12.87801,-28.874207 -28.8742,-28.874207 z" />
      <path
         id="rect848"
         style="fill:#ffffff;fill-opacity:1;fill-rule:evenodd;stroke-width:0;stroke-linecap:round;stroke-linejoin:round"
         d="M 28.874181,-4.9291748e-5 C 12.877985,-4.9291748e-5 -2.5e-5,12.877961 -2.5e-5,28.874157 V 181.12584 c 0,15.9962 12.87801,28.87421 28.874206,28.87421 h 80.520149 c 15.9962,0 28.87421,-12.87801 28.87421,-28.87421 V 28.874157 c 0,-15.996196 -12.87801,-28.874206291748 -28.87421,-28.874206291748 z M 45.323306,122.84775 c 8.653743,0 15.620751,6.19661 15.620751,13.89372 v 27.94145 c 0,7.69712 -6.967008,13.89373 -15.620751,13.89373 -8.653743,0 -15.620235,-6.19661 -15.620235,-13.89373 v -27.94145 c 0,-7.69711 6.966492,-13.89372 15.620235,-13.89372 z m 47.621898,0 c 8.653746,0 15.620236,6.19661 15.620236,13.89372 v 27.94145 c 0,7.69712 -6.96649,13.89373 -15.620236,13.89373 -8.653743,0 -15.620751,-6.19661 -15.620751,-13.89373 v -27.94145 c 0,-7.69711 6.967008,-13.89372 15.620751,-13.89372 z" />
    </g>
  </g>
</svg>
