<?xml version="1.0" encoding="UTF-8" standalone="no"?>
<!-- Created with Inkscape (http://www.inkscape.org/) -->

<svg
   width="210mm"
   height="210mm"
   viewBox="0 0 210 210"
   version="1.1"
   id="svg5"
   inkscape:version="1.1.1 (3bf5ae0d25, 2021-09-20)"
   sodipodi:docname="Spay_Group_unselected.svg"
   xmlns:inkscape="http://www.inkscape.org/namespaces/inkscape"
   xmlns:sodipodi="http://sodipodi.sourceforge.net/DTD/sodipodi-0.dtd"
   xmlns="http://www.w3.org/2000/svg"
   xmlns:svg="http://www.w3.org/2000/svg">
  <sodipodi:namedview
     id="namedview7"
     pagecolor="#505050"
     bordercolor="#eeeeee"
     borderopacity="1"
     inkscape:pageshadow="0"
     inkscape:pageopacity="0"
     inkscape:pagecheckerboard="0"
     inkscape:document-units="mm"
     showgrid="false"
     inkscape:lockguides="false"
     inkscape:snap-grids="true"
     inkscape:snap-to-guides="true"
     inkscape:zoom="0.9"
     inkscape:cx="396.66667"
     inkscape:cy="397.22222"
     inkscape:window-width="1920"
     inkscape:window-height="1005"
     inkscape:window-x="-9"
     inkscape:window-y="-9"
     inkscape:window-maximized="1"
     inkscape:current-layer="layer1"
     height="210mm"
     showguides="true"
     inkscape:guide-bbox="true" />
  <defs
     id="defs2" />
  <g
     inkscape:label="Layer 1"
     inkscape:groupmode="layer"
     id="layer1">
    <g
       id="g918">
      <path
         id="rect848-7"
         style="fill:#ffffff;fill-opacity:1;fill-rule:evenodd;stroke-width:0;stroke-linecap:round;stroke-linejoin:round"
         d="m 153.98181,35.865511 v 15.713252 h 15.75201 c 13.60236,0 24.55303,10.950663 24.55303,24.553024 V 133.8678 c 0,13.60236 -10.95067,24.55302 -24.55303,24.55302 h -15.75201 v 15.71377 h 27.14408 c 15.9962,0 28.87421,-12.87801 28.87421,-28.87421 V 64.739718 c 0,-15.996198 -12.87801,-28.874207 -28.87421,-28.874207 z" />
      <g
         id="g910">
        <path
           id="rect848"
           style="fill:#ffffff;fill-opacity:1;fill-rule:evenodd;stroke-width:0;stroke-linecap:round;stroke-linejoin:round"
           d="M 28.874206,0 C 12.87801,0 0,12.87801 0,28.874206 V 181.12589 c 0,15.9962 12.87801,28.87421 28.874206,28.87421 h 80.520144 c 15.9962,0 28.87421,-12.87801 28.87421,-28.87421 V 28.874206 C 138.26856,12.87801 125.39055,0 109.39435,0 Z m 11.39207,15.712219 h 57.736009 c 13.602365,0 24.553025,10.950145 24.553025,24.552506 V 169.73486 c 0,13.60236 -10.95066,24.55302 -24.553025,24.55302 H 40.266276 c -13.602362,0 -24.553023,-10.95066 -24.553023,-24.55302 V 40.264725 c 0,-13.602361 10.950661,-24.552506 24.553023,-24.552506 z" />
        <g
           id="g904">
          <rect
             style="fill:#ffffff;fill-opacity:1;fill-rule:evenodd;stroke:#000000;stroke-width:0;stroke-linecap:round;stroke-linejoin:round;stroke-miterlimit:0;stroke-dasharray:none;paint-order:stroke fill markers"
             id="rect2819"
             width="31.24095"
             height="55.728878"
             x="29.703018"
             y="122.84802"
             rx="15.620475"
             ry="13.89371" />
          <rect
             style="fill:#ffffff;fill-opacity:1;fill-rule:evenodd;stroke:#000000;stroke-width:0;stroke-linecap:round;stroke-linejoin:round;stroke-miterlimit:0;stroke-dasharray:none;paint-order:stroke fill markers"
             id="rect2819-5"
             width="31.24095"
             height="55.728878"
             x="77.324554"
             y="122.84802"
             rx="15.620475"
             ry="13.89371" />
        </g>
      </g>
    </g>
  </g>
</svg>
