<?xml version="1.0" encoding="UTF-8" standalone="no"?>
<!-- Created with Inkscape (http://www.inkscape.org/) -->

<svg
   width="210mm"
   height="210mm"
   viewBox="0 0 210 210"
   version="1.1"
   id="svg5"
   inkscape:version="1.1.1 (3bf5ae0d25, 2021-09-20)"
   sodipodi:docname="Spay Vertz.svg"
   xmlns:inkscape="http://www.inkscape.org/namespaces/inkscape"
   xmlns:sodipodi="http://sodipodi.sourceforge.net/DTD/sodipodi-0.dtd"
   xmlns="http://www.w3.org/2000/svg"
   xmlns:svg="http://www.w3.org/2000/svg"
   xmlns:rdf="http://www.w3.org/1999/02/22-rdf-syntax-ns#"
   xmlns:cc="http://creativecommons.org/ns#"
   xmlns:dc="http://purl.org/dc/elements/1.1/">
  <title
     id="title2176">Spay Vertz</title>
  <sodipodi:namedview
     id="namedview7"
     pagecolor="#505050"
     bordercolor="#eeeeee"
     borderopacity="1"
     inkscape:pageshadow="0"
     inkscape:pageopacity="0"
     inkscape:pagecheckerboard="0"
     inkscape:document-units="mm"
     showgrid="false"
     height="210mm"
     showguides="true"
     inkscape:guide-bbox="true"
     inkscape:zoom="0.9"
     inkscape:cx="406.66667"
     inkscape:cy="386.11111"
     inkscape:window-width="1920"
     inkscape:window-height="1005"
     inkscape:window-x="-9"
     inkscape:window-y="-9"
     inkscape:window-maximized="1"
     inkscape:current-layer="layer1" />
  <defs
     id="defs2" />
  <g
     inkscape:label="Layer 1"
     inkscape:groupmode="layer"
     id="layer1">
    <path
       id="rect846"
       style="fill:#ffff00;fill-rule:evenodd;stroke-width:0;stroke-linecap:round;stroke-linejoin:round"
       d="M 161.76367 0 C 130.35581 0 105.07031 25.285488 105.07031 56.693359 L 105.07031 737.00781 C 105.07031 768.41569 130.35581 793.70117 161.76367 793.70117 L 631.9375 793.70117 C 663.34537 793.70117 688.63086 768.41569 688.63086 737.00781 L 688.63086 56.693359 C 688.63086 25.285488 663.34537 4.7369516e-15 631.9375 0 L 336.0332 0 L 381.32227 135.63867 L 320.99023 135.63867 L 275.70117 0 L 230.41016 0 L 275.70117 135.63867 L 215.36914 135.63867 L 170.07812 0 L 161.76367 0 z M 396.84961 226.77148 C 459.66536 226.77148 510.23633 277.34247 510.23633 340.1582 C 510.23633 402.97395 459.66536 453.54297 396.84961 453.54297 C 334.03387 453.54297 283.46484 402.97395 283.46484 340.1582 C 283.46484 277.34247 334.03387 226.77148 396.84961 226.77148 z M 229.11719 548.03125 C 261.82415 548.03125 288.1543 571.45159 288.1543 600.54297 L 288.1543 706.14844 C 288.1543 735.23981 261.82415 758.66016 229.11719 758.66016 C 196.41022 758.66016 170.07813 735.23981 170.07812 706.14844 L 170.07812 600.54297 C 170.07812 571.45159 196.41022 548.03125 229.11719 548.03125 z M 409.10352 548.03125 C 441.81048 548.03125 468.14062 571.45159 468.14062 600.54297 L 468.14062 706.14844 C 468.14062 735.23981 441.81048 758.66016 409.10352 758.66016 C 376.39655 758.66016 350.06445 735.23981 350.06445 706.14844 L 350.06445 600.54297 C 350.06445 571.45159 376.39655 548.03125 409.10352 548.03125 z "
       transform="scale(0.26458333)" />
  </g>
  <metadata
     id="metadata2174">
    <rdf:RDF>
      <cc:Work
         rdf:about="">
        <dc:title>Spay Vertz</dc:title>
        <dc:date>4/22/2022</dc:date>
        <dc:creator>
          <cc:Agent>
            <dc:title>PhilMinecraft</dc:title>
          </cc:Agent>
        </dc:creator>
        <dc:publisher>
          <cc:Agent>
            <dc:title>RareFrostbites, Spay Team</dc:title>
          </cc:Agent>
        </dc:publisher>
        <dc:subject>
          <rdf:Bag>
            <rdf:li>Spay</rdf:li>
            <rdf:li>Spay Vertz</rdf:li>
          </rdf:Bag>
        </dc:subject>
        <dc:description>Spay Vertz is a vertical (and short-form) video and photo platform, you can upload photos and videos (from 1-5 mins length). If you came from TikTok, then this service is similar to them.</dc:description>
      </cc:Work>
    </rdf:RDF>
  </metadata>
</svg>
