<?xml version="1.0" encoding="UTF-8" standalone="no"?>
<svg
   width="210"
   height="210"
   viewBox="0 0 210 210"
   version="1.1"
   id="svg12"
   sodipodi:docname="Spay_Watch_selected.svg"
   inkscape:version="1.1.1 (3bf5ae0d25, 2021-09-20)"
   xmlns:inkscape="http://www.inkscape.org/namespaces/inkscape"
   xmlns:sodipodi="http://sodipodi.sourceforge.net/DTD/sodipodi-0.dtd"
   xmlns:xlink="http://www.w3.org/1999/xlink"
   xmlns="http://www.w3.org/2000/svg"
   xmlns:svg="http://www.w3.org/2000/svg"
   xmlns:rdf="http://www.w3.org/1999/02/22-rdf-syntax-ns#"
   xmlns:cc="http://creativecommons.org/ns#"
   xmlns:dc="http://purl.org/dc/elements/1.1/">
  <sodipodi:namedview
     id="namedview14"
     pagecolor="#505050"
     bordercolor="#eeeeee"
     borderopacity="1"
     inkscape:pageshadow="0"
     inkscape:pageopacity="0"
     inkscape:pagecheckerboard="0"
     showgrid="false"
     height="210px"
     showguides="true"
     inkscape:guide-bbox="true"
     inkscape:zoom="3"
     inkscape:cx="110"
     inkscape:cy="102.5"
     inkscape:window-width="1920"
     inkscape:window-height="1005"
     inkscape:window-x="-9"
     inkscape:window-y="-9"
     inkscape:window-maximized="1"
     inkscape:current-layer="svg12" />
  <title
     id="title2">ic_template</title>
  <defs
     id="defs5">
    <path
       d="m 18,2 c 2.209139,0 4,1.790861 4,4 v 12 c 0,2.209139 -1.790861,4 -4,4 H 6 C 3.790861,22 2,20.209139 2,18 V 6 C 2,3.790861 3.790861,2 6,2 Z m 2.5,6.75 H 3.5 V 18 c 0,1.325483 1.0315359,2.410039 2.3356243,2.494682 L 6,20.5 h 12 c 1.325483,0 2.410039,-1.031536 2.494682,-2.335624 L 20.5,18 Z M 18,3.5 H 6 C 4.6745166,3.5 3.5899613,4.5315359 3.5053177,5.8356243 L 3.5,6 v 1.25 h 17 V 6 c 0,-1.3254834 -1.031536,-2.4100387 -2.335624,-2.4946823 z m -7.4,7.939231 c 0.105322,0 0.208789,0.02772 0.3,0.08038 l 3.396152,1.96077 c 0.286976,0.165685 0.385301,0.532639 0.219616,0.819615 -0.05266,0.09121 -0.128404,0.166954 -0.219616,0.219615 L 10.9,16.480385 C 10.613024,16.64607 10.24607,16.547745 10.080385,16.260769 10.027724,16.169558 10,16.066091 10,15.96077 v -3.921539 c 0,-0.331371 0.268629,-0.6 0.6,-0.6 z M 16.516864,2 18.700866,7.7330035 17.299134,8.2669965 15.483,3.5 h -3.396 l 2.001293,5.25 H 7.4831355 L 5.2991342,3.0169965 6.7008658,2.4830035 8.516,7.25 h 3.396 L 9.911707,2 Z"
       id="_path-1" />
    <mask
       id="_mask-2"
       fill="#ffffff">
      <use
         xlink:href="#_path-1"
         id="use7"
         x="0"
         y="0"
         width="100%"
         height="100%" />
    </mask>
  </defs>
  <path
     id="_形状结合"
     style="fill:#000000;fill-rule:nonzero;stroke:none;stroke-width:10.5;fill-opacity:1"
     d="M 42 0 C 18.80404 0 0 18.80404 0 42 L 0 168 C 0 191.19596 18.80404 210 42 210 L 168 210 C 191.19596 210 210 191.19596 210 168 L 210 42 C 210 18.80404 191.19596 0 168 0 L 42 0 z M 53.476562 15.742188 L 89.125 15.742188 L 104.12695 55.117188 L 68.46875 55.117188 L 53.476562 15.742188 z M 105.96484 15.742188 L 141.62305 15.742188 L 156.62305 55.117188 L 120.97461 55.117188 L 105.96484 15.742188 z M 158.47852 15.742188 L 168.05078 15.742188 L 169.77734 15.798828 C 183.47026 16.687587 194.30078 28.074611 194.30078 41.992188 L 194.30078 55.117188 L 173.47852 55.117188 L 158.47852 15.742188 z M 36.824219 16.265625 L 51.623047 55.117188 L 15.800781 55.117188 L 15.800781 41.992188 L 15.857422 40.265625 C 16.631853 28.334103 25.37897 18.578818 36.824219 16.265625 z M 43.726562 134.87305 C 50.500484 134.87305 55.955078 139.72295 55.955078 145.74805 L 55.955078 167.62109 C 55.955078 173.64619 50.500484 178.49609 43.726562 178.49609 C 36.952641 178.49609 31.5 173.64619 31.5 167.62109 L 31.5 145.74805 C 31.5 139.72295 36.952641 134.87305 43.726562 134.87305 z M 81 134.87305 C 87.773922 134.87305 93.226562 139.72295 93.226562 145.74805 L 93.226562 167.62109 C 93.226562 173.64619 87.773922 178.49609 81 178.49609 C 74.226078 178.49609 68.771484 173.64619 68.771484 167.62109 L 68.771484 145.74805 C 68.771484 139.72295 74.226078 134.87305 81 134.87305 z " />
  <metadata
     id="metadata831">
    <rdf:RDF>
      <cc:Work
         rdf:about="">
        <dc:title>ic_template</dc:title>
      </cc:Work>
    </rdf:RDF>
  </metadata>
</svg>
