<?xml version="1.0" encoding="UTF-8" standalone="no"?>
<!-- Created with Inkscape (http://www.inkscape.org/) -->

<svg
   width="24mm"
   height="24mm"
   viewBox="0 0 24 24"
   version="1.1"
   id="svg5"
   inkscape:version="1.1.1 (3bf5ae0d25, 2021-09-20)"
   sodipodi:docname="Notification.svg"
   xmlns:inkscape="http://www.inkscape.org/namespaces/inkscape"
   xmlns:sodipodi="http://sodipodi.sourceforge.net/DTD/sodipodi-0.dtd"
   xmlns="http://www.w3.org/2000/svg"
   xmlns:svg="http://www.w3.org/2000/svg"
   xmlns:rdf="http://www.w3.org/1999/02/22-rdf-syntax-ns#"
   xmlns:cc="http://creativecommons.org/ns#"
   xmlns:dc="http://purl.org/dc/elements/1.1/">
  <title
     id="title1114">Notification</title>
  <sodipodi:namedview
     id="namedview7"
     pagecolor="#505050"
     bordercolor="#eeeeee"
     borderopacity="1"
     inkscape:pageshadow="0"
     inkscape:pageopacity="0"
     inkscape:pagecheckerboard="0"
     inkscape:document-units="mm"
     showgrid="false"
     inkscape:zoom="8"
     inkscape:cx="42.75"
     inkscape:cy="44.0625"
     inkscape:window-width="1920"
     inkscape:window-height="1005"
     inkscape:window-x="-9"
     inkscape:window-y="-9"
     inkscape:window-maximized="1"
     inkscape:current-layer="layer1" />
  <defs
     id="defs2" />
  <g
     inkscape:label="Layer 1"
     inkscape:groupmode="layer"
     id="layer1">
    <g
       id="g1110">
      <path
         id="path846"
         style="fill:#ffffff;fill-opacity:1;fill-rule:evenodd;stroke-width:0;stroke-linecap:round;stroke-linejoin:round"
         d="M 45.123047 0 A 28.346457 28.346457 0 0 0 18.886719 18.205078 A 28.346457 28.346457 0 0 0 17.019531 28.34375 L 17.005859 28.34375 L 17.005859 47.5 C 17.005859 47.5 -11.341795 70.125 17.005859 70.125 L 45.353516 70.125 L 73.701172 70.125 C 102.04937 70.125 73.701172 47.5 73.701172 47.5 L 73.701172 28.595703 A 28.346457 28.346457 0 0 0 73.701172 28.34375 A 28.346457 28.346457 0 0 0 55.494141 1.875 A 28.346457 28.346457 0 0 0 45.123047 0 z "
         transform="scale(0.26458333)" />
      <path
         style="fill:#ffffff;fill-opacity:1;fill-rule:evenodd;stroke:none;stroke-width:0;stroke-linecap:round;stroke-linejoin:round;stroke-miterlimit:4;stroke-dasharray:none"
         id="path1306"
         sodipodi:type="arc"
         sodipodi:cx="12.0007"
         sodipodi:cy="21.5"
         sodipodi:rx="2.5"
         sodipodi:ry="2.5"
         sodipodi:start="0.36616833"
         sodipodi:end="0.36559935"
         sodipodi:open="true"
         sodipodi:arc-type="arc"
         d="m 14.334965,22.395101 a 2.5,2.5 0 0 1 -3.229034,1.439292 2.5,2.5 0 0 1 -1.4397508,-3.22883 2.5,2.5 0 0 1 3.2286248,-1.44021 2.5,2.5 0 0 1 1.440669,3.22842" />
    </g>
  </g>
  <metadata
     id="metadata1112">
    <rdf:RDF>
      <cc:Work
         rdf:about="">
        <dc:title>Notification</dc:title>
        <dc:date>4/8.2022</dc:date>
        <dc:creator>
          <cc:Agent>
            <dc:title>PhilMinecraft</dc:title>
          </cc:Agent>
        </dc:creator>
        <dc:publisher>
          <cc:Agent>
            <dc:title>RareFrostbites</dc:title>
          </cc:Agent>
        </dc:publisher>
        <dc:subject>
          <rdf:Bag>
            <rdf:li>Notification</rdf:li>
            <rdf:li>Bell</rdf:li>
          </rdf:Bag>
        </dc:subject>
      </cc:Work>
    </rdf:RDF>
  </metadata>
</svg>
