<?xml version="1.0" encoding="UTF-8" standalone="no"?>
<!-- Created with Inkscape (http://www.inkscape.org/) -->

<svg
   width="210mm"
   height="210mm"
   viewBox="0 0 210 210"
   version="1.1"
   id="svg5"
   inkscape:version="1.1.1 (3bf5ae0d25, 2021-09-20)"
   sodipodi:docname="rfbsafe.svg"
   xmlns:inkscape="http://www.inkscape.org/namespaces/inkscape"
   xmlns:sodipodi="http://sodipodi.sourceforge.net/DTD/sodipodi-0.dtd"
   xmlns="http://www.w3.org/2000/svg"
   xmlns:svg="http://www.w3.org/2000/svg">
  <sodipodi:namedview
     id="namedview7"
     pagecolor="#505050"
     bordercolor="#eeeeee"
     borderopacity="1"
     inkscape:pageshadow="0"
     inkscape:pageopacity="0"
     inkscape:pagecheckerboard="0"
     inkscape:document-units="mm"
     showgrid="false"
     height="210mm"
     showguides="true"
     inkscape:guide-bbox="true"
     inkscape:zoom="0.6363961"
     inkscape:cx="347.268"
     inkscape:cy="392.05143"
     inkscape:window-width="1920"
     inkscape:window-height="1005"
     inkscape:window-x="-9"
     inkscape:window-y="-9"
     inkscape:window-maximized="1"
     inkscape:current-layer="layer1" />
  <defs
     id="defs2" />
  <g
     inkscape:label="Layer 1"
     inkscape:groupmode="layer"
     id="layer1">
    <g
       id="g8164">
      <path
         id="rect17871"
         style="fill:#03fac4;fill-opacity:1;fill-rule:evenodd;stroke:#004909;stroke-width:1.08615;stroke-linecap:round;stroke-linejoin:round;stroke-miterlimit:4;stroke-dasharray:none;stroke-opacity:1;paint-order:normal"
         d="M 46.277284,0.5430735 V 16.055352 H 60.908352 V 0.5430735 Z M 60.908352,16.055352 V 30.416201 H 75.648475 V 16.055352 Z m 14.740123,0 h 14.68559 V 0.5430735 h -14.68559 z m 0,14.360849 V 45.535585 H 60.908352 V 60.930802 H 46.277284 V 75.658876 H 30.959055 v 88.616314 h 15.318229 v 14.68559 h 14.631068 v 14.74011 h 14.740123 v 15.75604 H 134.5544 v -15.75604 h 14.35763 v -14.74011 h 14.95821 v -14.68559 h 15.17071 V 75.658876 H 163.87024 V 60.930802 H 148.91203 V 45.535585 H 134.5544 V 30.416201 H 119.6499 V 0.5430735 H 104.70531 V 30.416201 H 90.334065 Z m 73.263555,15.119384 h 14.95821 V 16.055352 h -14.95821 z m 0,-29.480233 V 0.5430735 H 134.5544 V 16.055352 Z M 60.908352,45.535585 V 30.416201 H 46.277284 V 45.535585 Z M 46.277284,30.416201 V 16.055352 H 30.959055 v 14.360849 z" />
      <g
         id="g8145">
        <g
           id="g7514"
           transform="translate(-1.1969073e-4,3.8342067e-4)">
          <path
             style="fill:#000000;fill-opacity:1;stroke:#000000;stroke-width:0;stroke-linecap:butt;stroke-linejoin:round;stroke-miterlimit:4;stroke-dasharray:none;stroke-opacity:1"
             d="m 104.99987,63.338617 44.66597,28.69426 c 0,0 0.27413,78.762073 -44.66597,78.762073 -44.9401,0 0,-78.762073 0,-78.762073 v -28.69426"
             id="path1911" />
          <path
             style="fill:#000000;fill-opacity:1;stroke:#000000;stroke-width:0;stroke-linecap:butt;stroke-linejoin:round;stroke-miterlimit:4;stroke-dasharray:none;stroke-opacity:1"
             d="M 104.99987,63.338617 60.33416,92.032789 c 0,0 -0.27412,78.761831 44.66571,78.761831 44.93983,0 0,-78.761831 0,-78.761831 V 63.338617"
             id="path1911-9" />
          <path
             style="fill:none;stroke:#000000;stroke-width:0.264583px;stroke-linecap:butt;stroke-linejoin:miter;stroke-opacity:1"
             d="M 104.99987,63.338617 V 92.032875"
             id="path7272" />
        </g>
        <g
           id="g7008"
           style="display:inline"
           transform="matrix(2.0833333,0,0,2.0833333,80,97.990985)">
          <g
             id="g6996">
            <rect
               style="fill:#ffffff;fill-opacity:1;fill-rule:evenodd;stroke:#ffa47b;stroke-width:0;stroke-linecap:round;stroke-linejoin:round;stroke-opacity:0.99177"
               id="rect947-7-5-4"
               height="12.92444"
               x="-8.394331"
               y="7.8985615"
               rx="1.4912816"
               ry="1.4912816"
               width="2.9825854"
               transform="rotate(-45)" />
            <rect
               style="fill:#ffffff;fill-opacity:1;fill-rule:evenodd;stroke:#ffa47b;stroke-width:0;stroke-linecap:round;stroke-linejoin:round;stroke-opacity:0.99177"
               id="rect2335-2"
               width="1.4902867"
               height="2.9803801"
               x="-8.394331"
               y="7.8985615"
               transform="rotate(-45)"
               rx="0.99418777"
               ry="0.99418777" />
            <rect
               style="fill:#ffffff;fill-opacity:1;fill-rule:evenodd;stroke:#ffa47b;stroke-width:0;stroke-linecap:round;stroke-linejoin:round;stroke-opacity:0.99177"
               id="rect2335-2-7"
               width="0.74464613"
               height="0.74464613"
               x="-7.6486907"
               y="7.8985615"
               transform="rotate(-45)" />
          </g>
          <g
             id="g6991">
            <rect
               style="fill:#ffffff;fill-opacity:1;fill-rule:evenodd;stroke:#ffa47b;stroke-width:0;stroke-linecap:round;stroke-linejoin:round;stroke-opacity:0.99177"
               id="rect947-7-5"
               height="21.872082"
               x="17.911283"
               y="-13.543108"
               rx="1.4912816"
               ry="1.4912816"
               width="2.982579"
               transform="matrix(0.70710524,0.70710833,-0.70710524,0.70710833,0,0)" />
            <rect
               style="fill:#ffffff;fill-opacity:1;fill-rule:evenodd;stroke:#ffa47b;stroke-width:0;stroke-linecap:round;stroke-linejoin:round;stroke-opacity:0.99177"
               id="rect2335-2-5"
               width="1.4902867"
               height="2.9803801"
               x="19.403545"
               y="-13.543063"
               transform="rotate(45)"
               ry="0.99418777"
               rx="0.99418777" />
            <rect
               style="fill:#ffffff;fill-opacity:1;fill-rule:evenodd;stroke:#ffa47b;stroke-width:0;stroke-linecap:round;stroke-linejoin:round;stroke-opacity:0.99177"
               id="rect2335-2-7-7"
               width="0.74464613"
               height="0.74464613"
               x="12.798417"
               y="19.403545"
               transform="rotate(-45)" />
          </g>
          <path
             id="rect4546"
             style="fill:#ffffff;fill-opacity:1;fill-rule:evenodd;stroke:#ffa47b;stroke-width:0;stroke-linecap:round;stroke-linejoin:round;stroke-miterlimit:4;stroke-dasharray:none;stroke-opacity:0.99177"
             d="m 4.6450055,12.298001 v 4.20359 H 13.0527 v -4.20359 h -0.02107 c 0,0 -2.98906,3.032216 -4.1933147,3.032216 C 7.6340606,15.330217 4.645,12.298001 4.645,12.298001 Z" />
          <rect
             style="fill:#ffffff;fill-opacity:1;fill-rule:evenodd;stroke:#ffa47b;stroke-width:0;stroke-linecap:round;stroke-linejoin:round;stroke-opacity:0.99177"
             id="rect2335"
             width="2.9803798"
             height="2.9803798"
             x="-8.3922596"
             y="17.910055"
             transform="rotate(-45)"
             ry="0.99418777"
             rx="0.99418777" />
        </g>
      </g>
    </g>
  </g>
</svg>
