<?xml version="1.0" encoding="UTF-8" standalone="no"?>
<!-- Created with Inkscape (http://www.inkscape.org/) -->

<svg
   width="210mm"
   height="210mm"
   viewBox="0 0 210 210"
   version="1.1"
   id="svg5"
   inkscape:version="1.1.1 (3bf5ae0d25, 2021-09-20)"
   sodipodi:docname="Spay Group.svg"
   xmlns:inkscape="http://www.inkscape.org/namespaces/inkscape"
   xmlns:sodipodi="http://sodipodi.sourceforge.net/DTD/sodipodi-0.dtd"
   xmlns="http://www.w3.org/2000/svg"
   xmlns:svg="http://www.w3.org/2000/svg"
   xmlns:rdf="http://www.w3.org/1999/02/22-rdf-syntax-ns#"
   xmlns:cc="http://creativecommons.org/ns#"
   xmlns:dc="http://purl.org/dc/elements/1.1/">
  <title
     id="title829">Spay Group</title>
  <sodipodi:namedview
     id="namedview7"
     pagecolor="#505050"
     bordercolor="#eeeeee"
     borderopacity="1"
     inkscape:pageshadow="0"
     inkscape:pageopacity="0"
     inkscape:pagecheckerboard="0"
     inkscape:document-units="mm"
     showgrid="false"
     inkscape:lockguides="false"
     inkscape:snap-grids="true"
     inkscape:snap-to-guides="true"
     inkscape:zoom="0.7"
     inkscape:cx="397.14286"
     inkscape:cy="396.42857"
     inkscape:window-width="1920"
     inkscape:window-height="1005"
     inkscape:window-x="-9"
     inkscape:window-y="-9"
     inkscape:window-maximized="1"
     inkscape:current-layer="g1064"
     height="210mm"
     showguides="true"
     inkscape:guide-bbox="true" />
  <defs
     id="defs2" />
  <g
     inkscape:label="Layer 1"
     inkscape:groupmode="layer"
     id="layer1">
    <g
       id="g1064">
      <g
         id="g885">
        <path
           id="rect2215-8"
           style="fill:#000000;fill-opacity:1;fill-rule:evenodd;stroke:#000000;stroke-width:0;stroke-linecap:round;stroke-linejoin:round;stroke-miterlimit:0;stroke-dasharray:none;paint-order:stroke fill markers"
           d="M 150.0001,19.999763 V 189.99972 h 39.99962 c 11.08,0 20.00033,-8.91981 20.00033,-19.99981 V 40.000092 c 0,-11.079998 -8.92033,-20.000329 -20.00033,-20.000329 z" />
        <path
           id="rect2215-88"
           style="fill:#000000;fill-opacity:1;fill-rule:evenodd;stroke:#000000;stroke-width:0;stroke-linecap:round;stroke-linejoin:round;stroke-miterlimit:0;stroke-dasharray:none;paint-order:stroke fill markers"
           d="M 19.999763,-4.9291748e-5 C 8.9197633,-4.9291748e-5 -4.9291748e-5,8.9197633 -4.9291748e-5,19.999763 V 189.99972 c 0,11.08 8.919812591748,20.00033 19.999812291748,20.00033 h 90.000187 c 11.08,0 19.99982,-8.92033 19.99982,-20.00033 V 19.999763 c 0,-11.0799997 -8.91982,-19.999812291748 -19.99982,-19.999812291748 z M 30.998576,139.00387 c 8.653743,0 15.620235,6.19661 15.620235,13.89372 v 27.94145 c 0,7.69712 -6.966492,13.89373 -15.620235,13.89373 -8.653745,0 -15.620753,-6.19661 -15.620753,-13.89373 v -27.94145 c 0,-7.69711 6.967008,-13.89372 15.620753,-13.89372 z m 47.62138,0 c 8.653743,0 15.620235,6.19661 15.620235,13.89372 v 27.94145 c 0,7.69712 -6.966492,13.89373 -15.620235,13.89373 -8.653743,0 -15.620751,-6.19661 -15.620751,-13.89373 v -27.94145 c 0,-7.69711 6.967008,-13.89372 15.620751,-13.89372 z" />
      </g>
    </g>
  </g>
  <metadata
     id="metadata827">
    <rdf:RDF>
      <cc:Work
         rdf:about="">
        <dc:title>Spay Group</dc:title>
        <dc:date>7/1/2022</dc:date>
        <dc:creator>
          <cc:Agent>
            <dc:title>PhilMinecraft</dc:title>
          </cc:Agent>
        </dc:creator>
        <dc:publisher>
          <cc:Agent>
            <dc:title>RareFrostbites, Spay Team</dc:title>
          </cc:Agent>
        </dc:publisher>
        <dc:subject>
          <rdf:Bag>
            <rdf:li>Spay</rdf:li>
            <rdf:li>Spay Group</rdf:li>
          </rdf:Bag>
        </dc:subject>
        <dc:description>Spay Group is a social network platform that focus on discussions in a much bigger space, similar to Reddit.</dc:description>
      </cc:Work>
    </rdf:RDF>
  </metadata>
</svg>
