<?xml version="1.0" encoding="UTF-8" standalone="no"?>
<!-- Created with Inkscape (http://www.inkscape.org/) -->

<svg
   width="24mm"
   height="24mm"
   viewBox="0 0 24 24"
   version="1.1"
   id="svg5"
   inkscape:version="1.1.1 (3bf5ae0d25, 2021-09-20)"
   sodipodi:docname="Close.svg"
   xmlns:inkscape="http://www.inkscape.org/namespaces/inkscape"
   xmlns:sodipodi="http://sodipodi.sourceforge.net/DTD/sodipodi-0.dtd"
   xmlns="http://www.w3.org/2000/svg"
   xmlns:svg="http://www.w3.org/2000/svg">
  <sodipodi:namedview
     id="namedview7"
     pagecolor="#505050"
     bordercolor="#eeeeee"
     borderopacity="1"
     inkscape:pageshadow="0"
     inkscape:pageopacity="0"
     inkscape:pagecheckerboard="0"
     inkscape:document-units="mm"
     showgrid="false"
     height="210mm"
     inkscape:zoom="8"
     inkscape:cx="48.4375"
     inkscape:cy="45.3125"
     inkscape:window-width="1920"
     inkscape:window-height="1005"
     inkscape:window-x="-9"
     inkscape:window-y="-9"
     inkscape:window-maximized="1"
     inkscape:current-layer="layer1"
     showguides="true"
     inkscape:guide-bbox="true" />
  <defs
     id="defs2" />
  <g
     inkscape:label="Layer 1"
     inkscape:groupmode="layer"
     id="layer1">
    <g
       id="g2513">
      <path
         id="rect848"
         style="fill:#000000;fill-rule:evenodd;stroke:#ffa47b;stroke-width:0;stroke-linecap:round;stroke-linejoin:round;stroke-opacity:0.99177"
         d="M 5.9224151,2.167e-4 0,5.9226319 6.0773683,12 0,18.077368 5.9224151,23.999783 11.999783,17.922415 18.077152,23.999783 24,18.077368 17.922632,12 24,5.9226319 18.077152,2.167e-4 11.999783,6.0775852 Z" />
      <path
         id="rect1199"
         style="fill:#000000;fill-opacity:1;fill-rule:evenodd;stroke:#ffa47b;stroke-width:0;stroke-linecap:round;stroke-linejoin:round;stroke-opacity:0.99177"
         d="M 17.007812 17.009766 L 17.007812 39.382812 C 17.007812 39.382812 20.789063 43.136716 20.789062 45.347656 C 20.789062 47.558593 17.007812 51.308594 17.007812 51.308594 L 17.007812 73.699219 L 39.390625 73.699219 C 39.390625 73.699219 43.144528 69.917969 45.355469 69.917969 C 47.566405 69.917969 51.316406 73.699219 51.316406 73.699219 L 73.701172 73.699219 L 73.701172 17.009766 L 51.310547 17.009766 C 51.292497 17.027934 47.557166 20.785156 45.351562 20.785156 C 43.145965 20.785156 39.414515 17.027934 39.396484 17.009766 L 17.007812 17.009766 z M 73.699219 39.382812 L 73.699219 51.308594 C 73.699219 51.308594 69.917969 47.55469 69.917969 45.34375 C 69.917969 43.132813 73.699219 39.382812 73.699219 39.382812 z "
         transform="scale(0.26458333)" />
    </g>
  </g>
</svg>
