<?xml version="1.0" encoding="UTF-8" standalone="no"?>
<!-- Created with Inkscape (http://www.inkscape.org/) -->

<svg
   width="210mm"
   height="210mm"
   viewBox="0 0 210 210"
   version="1.1"
   id="svg5"
   inkscape:version="1.1.1 (3bf5ae0d25, 2021-09-20)"
   sodipodi:docname="Spay.svg"
   xmlns:inkscape="http://www.inkscape.org/namespaces/inkscape"
   xmlns:sodipodi="http://sodipodi.sourceforge.net/DTD/sodipodi-0.dtd"
   xmlns="http://www.w3.org/2000/svg"
   xmlns:svg="http://www.w3.org/2000/svg"
   xmlns:rdf="http://www.w3.org/1999/02/22-rdf-syntax-ns#"
   xmlns:cc="http://creativecommons.org/ns#"
   xmlns:dc="http://purl.org/dc/elements/1.1/">
  <title
     id="title829">Spay</title>
  <sodipodi:namedview
     id="namedview7"
     pagecolor="#505050"
     bordercolor="#eeeeee"
     borderopacity="1"
     inkscape:pageshadow="0"
     inkscape:pageopacity="0"
     inkscape:pagecheckerboard="0"
     inkscape:document-units="mm"
     showgrid="false"
     inkscape:lockguides="false"
     inkscape:snap-grids="true"
     inkscape:snap-to-guides="true"
     inkscape:zoom="0.6363961"
     inkscape:cx="329.98317"
     inkscape:cy="326.0548"
     inkscape:window-width="1920"
     inkscape:window-height="1005"
     inkscape:window-x="-9"
     inkscape:window-y="-9"
     inkscape:window-maximized="1"
     inkscape:current-layer="g1064"
     height="210mm" />
  <defs
     id="defs2" />
  <g
     inkscape:label="Layer 1"
     inkscape:groupmode="layer"
     id="layer1">
    <g
       id="g1064">
      <path
         id="rect2215"
         style="fill:#ffff00;fill-opacity:1;fill-rule:evenodd;stroke:#000000;stroke-width:0;stroke-linecap:round;stroke-linejoin:round;stroke-miterlimit:0;stroke-dasharray:none;paint-order:stroke fill markers"
         d="M 140.42383 0 C 62.628618 1.8947806e-14 0 54.459694 0 122.10742 L 0 671.59375 C 5.6843418e-14 739.24148 62.628618 793.70117 140.42383 793.70117 L 653.27539 793.70117 C 731.0706 793.70117 793.70117 739.24148 793.70117 671.59375 L 793.70117 122.10742 C 793.70117 54.459694 731.0706 9.4739031e-15 653.27539 0 L 140.42383 0 z M 117.16211 525.36914 C 149.86917 525.36914 176.19922 548.7894 176.19922 577.88086 L 176.19922 683.48633 C 176.19922 712.57779 149.86917 735.99805 117.16211 735.99805 C 84.455049 735.99805 58.123047 712.57779 58.123047 683.48633 L 58.123047 577.88086 C 58.123047 548.7894 84.455049 525.36914 117.16211 525.36914 z M 297.14844 525.36914 C 329.8555 525.36914 356.18555 548.7894 356.18555 577.88086 L 356.18555 683.48633 C 356.18555 712.57779 329.8555 735.99805 297.14844 735.99805 C 264.44138 735.99805 238.10937 712.57779 238.10938 683.48633 L 238.10938 577.88086 C 238.10938 548.7894 264.44138 525.36914 297.14844 525.36914 z "
         transform="scale(0.26458333)" />
    </g>
  </g>
  <metadata
     id="metadata827">
    <rdf:RDF>
      <cc:Work
         rdf:about="">
        <dc:title>Spay</dc:title>
        <dc:date>2/9/2022</dc:date>
        <dc:creator>
          <cc:Agent>
            <dc:title>PhilMinecraft</dc:title>
          </cc:Agent>
        </dc:creator>
        <dc:publisher>
          <cc:Agent>
            <dc:title>RareFrostbites, Spay Team</dc:title>
          </cc:Agent>
        </dc:publisher>
        <dc:subject>
          <rdf:Bag>
            <rdf:li>Spay</rdf:li>
          </rdf:Bag>
        </dc:subject>
        <dc:description>Spay is a social networking and multimedia sharing site made by Spay Team for free and it's accessible from various devices, and it's similar to Facebook.</dc:description>
      </cc:Work>
    </rdf:RDF>
  </metadata>
</svg>
