<?xml version="1.0" encoding="UTF-8" standalone="no"?>
<!-- Created with Inkscape (http://www.inkscape.org/) -->

<svg
   width="210mm"
   height="210mm"
   viewBox="0 0 210 210"
   version="1.1"
   id="svg5"
   inkscape:version="1.1.1 (3bf5ae0d25, 2021-09-20)"
   sodipodi:docname="Spay_Vertz_selected.svg"
   xmlns:inkscape="http://www.inkscape.org/namespaces/inkscape"
   xmlns:sodipodi="http://sodipodi.sourceforge.net/DTD/sodipodi-0.dtd"
   xmlns:xlink="http://www.w3.org/1999/xlink"
   xmlns="http://www.w3.org/2000/svg"
   xmlns:svg="http://www.w3.org/2000/svg">
  <sodipodi:namedview
     id="namedview7"
     pagecolor="#505050"
     bordercolor="#eeeeee"
     borderopacity="1"
     inkscape:pageshadow="0"
     inkscape:pageopacity="0"
     inkscape:pagecheckerboard="0"
     inkscape:document-units="mm"
     showgrid="false"
     height="210mm"
     inkscape:zoom="0.9"
     inkscape:cx="396.66667"
     inkscape:cy="395"
     inkscape:window-width="1920"
     inkscape:window-height="1005"
     inkscape:window-x="-9"
     inkscape:window-y="-9"
     inkscape:window-maximized="1"
     inkscape:current-layer="g8380"
     showguides="true"
     inkscape:guide-bbox="true" />
  <defs
     id="defs2">
    <path
       d="m 18,2 c 2.209139,0 4,1.790861 4,4 v 12 c 0,2.209139 -1.790861,4 -4,4 H 6 C 3.790861,22 2,20.209139 2,18 V 6 C 2,3.790861 3.790861,2 6,2 Z m 2.5,6.75 H 3.5 V 18 c 0,1.325483 1.0315359,2.410039 2.3356243,2.494682 L 6,20.5 h 12 c 1.325483,0 2.410039,-1.031536 2.494682,-2.335624 L 20.5,18 Z M 18,3.5 H 6 C 4.6745166,3.5 3.5899613,4.5315359 3.5053177,5.8356243 L 3.5,6 v 1.25 h 17 V 6 c 0,-1.3254834 -1.031536,-2.4100387 -2.335624,-2.4946823 z m -7.4,7.939231 c 0.105322,0 0.208789,0.02772 0.3,0.08038 l 3.396152,1.96077 c 0.286976,0.165685 0.385301,0.532639 0.219616,0.819615 -0.05266,0.09121 -0.128404,0.166954 -0.219616,0.219615 L 10.9,16.480385 C 10.613024,16.64607 10.24607,16.547745 10.080385,16.260769 10.027724,16.169558 10,16.066091 10,15.96077 v -3.921539 c 0,-0.331371 0.268629,-0.6 0.6,-0.6 z M 16.516864,2 18.700866,7.7330035 17.299134,8.2669965 15.483,3.5 h -3.396 l 2.001293,5.25 H 7.4831355 L 5.2991342,3.0169965 6.7008658,2.4830035 8.516,7.25 h 3.396 L 9.911707,2 Z"
       id="_path-1" />
    <mask
       id="_mask-2"
       fill="#ffffff">
      <use
         xlink:href="#_path-1"
         id="use7"
         x="0"
         y="0"
         width="100%"
         height="100%" />
    </mask>
    <path
       d="M12,16 C14.3472102,16 16.25,17.9027898 16.25,20.25 C16.25,20.6642136 15.9142136,21 15.5,21 L8.5,21 C8.12030423,21 7.80650904,20.7178461 7.75684662,20.3517706 L7.75,20.25 C7.75,17.9027898 9.65278981,16 12,16 Z M19.25,3 C21.2542592,3 22.8912737,4.57236105 22.994802,6.55084143 L23,6.75 L23,16.5 C23,18.5042592 21.4276389,20.1412737 19.4491586,20.244802 L19.25,20.25 L18,20.25 C17.5857864,20.25 17.25,19.9142136 17.25,19.5 C17.25,19.1203042 17.5321539,18.806509 17.8982294,18.7568466 L18,18.75 L19.25,18.75 C20.440864,18.75 21.4156449,17.8248384 21.4948092,16.6540488 L21.5,16.5 L21.5,6.75 C21.5,5.55913601 20.5748384,4.58435508 19.4040488,4.50519081 L19.25,4.5 L4.75,4.5 C3.55913601,4.5 2.58435508,5.42516159 2.50519081,6.59595119 L2.5,6.75 L2.5,16.5 C2.5,17.690864 3.42516159,18.6656449 4.59595119,18.7448092 L4.75,18.75 L6,18.75 C6.41421356,18.75 6.75,19.0857864 6.75,19.5 C6.75,19.8796958 6.46784612,20.193491 6.10177056,20.2431534 L6,20.25 L4.75,20.25 C2.74574083,20.25 1.10872626,18.6776389 1.00519801,16.6991586 L1,16.5 L1,6.75 C1,4.74574083 2.57236105,3.10872626 4.55084143,3.00519801 L4.75,3 L19.25,3 Z M16.2803301,14.7196699 C16.5732233,15.0125631 16.5732233,15.4874369 16.2803301,15.7803301 C15.9874369,16.0732233 15.5125631,16.0732233 15.2196699,15.7803301 C13.4414953,14.0021555 10.5585047,14.0021555 8.78033009,15.7803301 C8.48743687,16.0732233 8.01256313,16.0732233 7.71966991,15.7803301 C7.4267767,15.4874369 7.4267767,15.0125631 7.71966991,14.7196699 C10.0836309,12.3557089 13.9163691,12.3557089 16.2803301,14.7196699 Z"
       id="_path-1-9" />
    <mask
       id="_mask-2-9"
       fill="#ffffff">
      <use
         xlink:href="#_path-1-9"
         id="use7-1"
         x="0"
         y="0"
         width="100%"
         height="100%" />
    </mask>
  </defs>
  <g
     inkscape:label="Layer 1"
     inkscape:groupmode="layer"
     id="layer1">
    <g
       id="g3538"
       transform="matrix(0.90476148,0,0,0.90476148,-244.17865,5.1544564)" />
    <g
       id="g3618"
       transform="matrix(0.90476148,0,0,0.90476148,-244.17865,5.1544564)" />
    <g
       id="g3685"
       transform="matrix(0.90476148,0,0,0.90476148,-244.17865,5.1544564)" />
    <g
       id="g3734"
       transform="matrix(0.90476148,0,0,0.90476148,-244.17865,5.1544564)" />
    <g
       id="g8380"
       transform="matrix(1.1052615,0,0,1.1052615,-11.052512,-11.052511)">
      <path
         id="rect1366"
         style="fill:#ffffff;fill-opacity:1;fill-rule:evenodd;stroke-width:0;stroke-linecap:round;stroke-linejoin:round"
         d="M 257.94922 0 C 170.27958 0 99.208984 71.070603 99.208984 158.74023 L 99.208984 634.95898 C 99.208984 722.62866 170.27959 793.70117 257.94922 793.70117 L 535.75195 793.70117 C 623.42092 793.70117 694.49219 722.62866 694.49219 634.95898 L 694.49219 158.73828 C 694.49219 71.069318 623.42163 -5.6843419e-14 535.75195 0 L 257.94922 0 z M 301.13281 59.527344 L 435.86523 59.527344 L 492.56641 208.3457 L 357.79688 208.3457 L 301.13281 59.527344 z M 499.57227 59.529297 L 535.75 59.529297 L 542.27539 59.742188 C 594.02811 63.101041 634.96289 106.13846 634.96289 158.74023 L 634.96289 208.34766 L 556.26367 208.34766 L 499.57227 59.529297 z M 238.19531 61.503906 L 294.12695 208.3457 L 158.73633 208.3457 L 158.73633 158.73828 L 158.95117 152.21289 C 161.87814 107.11747 194.93774 70.246666 238.19531 61.503906 z M 396.84961 327.40234 C 431.82649 327.40234 459.98436 355.52891 459.98438 390.4668 L 459.98438 390.60742 C 459.98438 425.54531 431.82649 453.67185 396.84961 453.67188 C 361.87273 453.67188 333.71484 425.54531 333.71484 390.60742 L 333.71484 390.4668 C 333.71484 355.52891 361.87273 327.40234 396.84961 327.40234 z M 264.47656 509.77148 C 290.07875 509.77148 310.68945 528.10301 310.68945 550.875 L 310.68945 633.54102 C 310.68945 656.31301 290.07875 674.64453 264.47656 674.64453 C 238.87438 674.64453 218.26367 656.31301 218.26367 633.54102 L 218.26367 550.875 C 218.26367 528.10301 238.87438 509.77148 264.47656 509.77148 z M 405.34961 509.77148 C 430.9518 509.77148 451.5625 528.10301 451.5625 550.875 L 451.5625 633.54102 C 451.5625 656.31301 430.9518 674.64453 405.34961 674.64453 C 379.74742 674.64453 359.13477 656.31301 359.13477 633.54102 L 359.13477 550.875 C 359.13477 528.10301 379.74742 509.77148 405.34961 509.77148 z "
         transform="matrix(0.23938528,0,0,0.23938528,9.9999068,9.9999059)" />
    </g>
  </g>
</svg>
