<?xml version="1.0" encoding="UTF-8" standalone="no"?>
<!-- Created with Inkscape (http://www.inkscape.org/) -->

<svg
   width="24mm"
   height="24mm"
   viewBox="0 0 24 24"
   version="1.1"
   id="svg5"
   inkscape:version="1.1.1 (3bf5ae0d25, 2021-09-20)"
   sodipodi:docname="Spay_Chat_selected.svg"
   xmlns:inkscape="http://www.inkscape.org/namespaces/inkscape"
   xmlns:sodipodi="http://sodipodi.sourceforge.net/DTD/sodipodi-0.dtd"
   xmlns="http://www.w3.org/2000/svg"
   xmlns:svg="http://www.w3.org/2000/svg">
  <sodipodi:namedview
     id="namedview7"
     pagecolor="#505050"
     bordercolor="#eeeeee"
     borderopacity="1"
     inkscape:pageshadow="0"
     inkscape:pageopacity="0"
     inkscape:pagecheckerboard="0"
     inkscape:document-units="mm"
     showgrid="false"
     showguides="true"
     inkscape:guide-bbox="true"
     inkscape:zoom="8"
     inkscape:cx="42.375"
     inkscape:cy="44.6875"
     inkscape:window-width="1920"
     inkscape:window-height="1005"
     inkscape:window-x="-9"
     inkscape:window-y="-9"
     inkscape:window-maximized="1"
     inkscape:current-layer="layer1" />
  <defs
     id="defs2" />
  <g
     inkscape:label="Layer 1"
     inkscape:groupmode="layer"
     id="layer1">
    <g
       id="g938"
       transform="translate(0,-4.2523818e-5)">
      <path
         id="rect2215"
         style="fill:#000000;fill-opacity:1;fill-rule:evenodd;stroke:#000000;stroke-width:0;stroke-linecap:round;stroke-linejoin:round;stroke-miterlimit:0;stroke-dasharray:none;paint-order:stroke fill markers"
         d="M 14.820312,12.007812 C 6.6097382,12.007812 0,18.61755 0,26.828125 v 37.052734 c 0,8.210575 6.6097382,14.820313 14.820312,14.820313 h 51.871094 c 8.210575,0 14.822266,-6.609738 14.822266,-14.820313 V 26.828125 c 0,-8.210575 -6.611691,-14.820313 -14.822266,-14.820313 z m 9.353516,26.94336 c 3.359008,0 6.064453,2.406845 6.064453,5.394531 v 10.845703 c 0,2.987686 -2.705445,5.392578 -6.064453,5.392578 -3.359007,0 -6.0625,-2.404892 -6.0625,-5.392578 V 44.345703 c 0,-2.987686 2.703493,-5.394531 6.0625,-5.394531 z m 18.498047,0 c 3.359007,0 6.0625,2.406845 6.0625,5.394531 v 10.84375 c 0,2.987686 -2.703493,5.394531 -6.0625,5.394531 -3.359007,0 -6.064453,-2.406845 -6.064453,-5.394531 v -10.84375 c 0,-2.987686 2.705446,-5.394531 6.064453,-5.394531 z"
         transform="scale(0.26458333)" />
      <g
         id="g932">
        <circle
           style="fill:#000000;fill-opacity:1;fill-rule:evenodd;stroke:#000000;stroke-width:0;stroke-linecap:round;stroke-linejoin:round;stroke-miterlimit:4;stroke-dasharray:none;paint-order:stroke fill markers"
           id="path1468"
           cx="23.109503"
           cy="4.0745831"
           r="0.89049637" />
        <path
           style="fill:#000000;fill-opacity:1;stroke:#000000;stroke-width:0;stroke-linecap:butt;stroke-linejoin:miter;stroke-miterlimit:4;stroke-dasharray:none;stroke-opacity:1"
           d="M 23.791762,4.6400396 21.56091,7.753533 17.875684,3.1772551 h 5.253594 z"
           id="path3522" />
      </g>
    </g>
  </g>
</svg>
