<?xml version="1.0" encoding="UTF-8" standalone="no"?>
<!-- Created with Inkscape (http://www.inkscape.org/) -->

<svg
   width="210mm"
   height="210mm"
   viewBox="0 0 210 210"
   version="1.1"
   id="svg5"
   inkscape:version="1.1.1 (3bf5ae0d25, 2021-09-20)"
   sodipodi:docname="Spay_Vertz_unselected.svg"
   xmlns:inkscape="http://www.inkscape.org/namespaces/inkscape"
   xmlns:sodipodi="http://sodipodi.sourceforge.net/DTD/sodipodi-0.dtd"
   xmlns:xlink="http://www.w3.org/1999/xlink"
   xmlns="http://www.w3.org/2000/svg"
   xmlns:svg="http://www.w3.org/2000/svg">
  <sodipodi:namedview
     id="namedview7"
     pagecolor="#505050"
     bordercolor="#eeeeee"
     borderopacity="1"
     inkscape:pageshadow="0"
     inkscape:pageopacity="0"
     inkscape:pagecheckerboard="0"
     inkscape:document-units="mm"
     showgrid="false"
     height="210mm"
     inkscape:zoom="0.9"
     inkscape:cx="396.66667"
     inkscape:cy="395"
     inkscape:window-width="1920"
     inkscape:window-height="1005"
     inkscape:window-x="-9"
     inkscape:window-y="-9"
     inkscape:window-maximized="1"
     inkscape:current-layer="g8380"
     showguides="true"
     inkscape:guide-bbox="true" />
  <defs
     id="defs2">
    <path
       d="m 18,2 c 2.209139,0 4,1.790861 4,4 v 12 c 0,2.209139 -1.790861,4 -4,4 H 6 C 3.790861,22 2,20.209139 2,18 V 6 C 2,3.790861 3.790861,2 6,2 Z m 2.5,6.75 H 3.5 V 18 c 0,1.325483 1.0315359,2.410039 2.3356243,2.494682 L 6,20.5 h 12 c 1.325483,0 2.410039,-1.031536 2.494682,-2.335624 L 20.5,18 Z M 18,3.5 H 6 C 4.6745166,3.5 3.5899613,4.5315359 3.5053177,5.8356243 L 3.5,6 v 1.25 h 17 V 6 c 0,-1.3254834 -1.031536,-2.4100387 -2.335624,-2.4946823 z m -7.4,7.939231 c 0.105322,0 0.208789,0.02772 0.3,0.08038 l 3.396152,1.96077 c 0.286976,0.165685 0.385301,0.532639 0.219616,0.819615 -0.05266,0.09121 -0.128404,0.166954 -0.219616,0.219615 L 10.9,16.480385 C 10.613024,16.64607 10.24607,16.547745 10.080385,16.260769 10.027724,16.169558 10,16.066091 10,15.96077 v -3.921539 c 0,-0.331371 0.268629,-0.6 0.6,-0.6 z M 16.516864,2 18.700866,7.7330035 17.299134,8.2669965 15.483,3.5 h -3.396 l 2.001293,5.25 H 7.4831355 L 5.2991342,3.0169965 6.7008658,2.4830035 8.516,7.25 h 3.396 L 9.911707,2 Z"
       id="_path-1" />
    <mask
       id="_mask-2"
       fill="#ffffff">
      <use
         xlink:href="#_path-1"
         id="use7"
         x="0"
         y="0"
         width="100%"
         height="100%" />
    </mask>
    <path
       d="M12,16 C14.3472102,16 16.25,17.9027898 16.25,20.25 C16.25,20.6642136 15.9142136,21 15.5,21 L8.5,21 C8.12030423,21 7.80650904,20.7178461 7.75684662,20.3517706 L7.75,20.25 C7.75,17.9027898 9.65278981,16 12,16 Z M19.25,3 C21.2542592,3 22.8912737,4.57236105 22.994802,6.55084143 L23,6.75 L23,16.5 C23,18.5042592 21.4276389,20.1412737 19.4491586,20.244802 L19.25,20.25 L18,20.25 C17.5857864,20.25 17.25,19.9142136 17.25,19.5 C17.25,19.1203042 17.5321539,18.806509 17.8982294,18.7568466 L18,18.75 L19.25,18.75 C20.440864,18.75 21.4156449,17.8248384 21.4948092,16.6540488 L21.5,16.5 L21.5,6.75 C21.5,5.55913601 20.5748384,4.58435508 19.4040488,4.50519081 L19.25,4.5 L4.75,4.5 C3.55913601,4.5 2.58435508,5.42516159 2.50519081,6.59595119 L2.5,6.75 L2.5,16.5 C2.5,17.690864 3.42516159,18.6656449 4.59595119,18.7448092 L4.75,18.75 L6,18.75 C6.41421356,18.75 6.75,19.0857864 6.75,19.5 C6.75,19.8796958 6.46784612,20.193491 6.10177056,20.2431534 L6,20.25 L4.75,20.25 C2.74574083,20.25 1.10872626,18.6776389 1.00519801,16.6991586 L1,16.5 L1,6.75 C1,4.74574083 2.57236105,3.10872626 4.55084143,3.00519801 L4.75,3 L19.25,3 Z M16.2803301,14.7196699 C16.5732233,15.0125631 16.5732233,15.4874369 16.2803301,15.7803301 C15.9874369,16.0732233 15.5125631,16.0732233 15.2196699,15.7803301 C13.4414953,14.0021555 10.5585047,14.0021555 8.78033009,15.7803301 C8.48743687,16.0732233 8.01256313,16.0732233 7.71966991,15.7803301 C7.4267767,15.4874369 7.4267767,15.0125631 7.71966991,14.7196699 C10.0836309,12.3557089 13.9163691,12.3557089 16.2803301,14.7196699 Z"
       id="_path-1-9" />
    <mask
       id="_mask-2-9"
       fill="#ffffff">
      <use
         xlink:href="#_path-1-9"
         id="use7-1"
         x="0"
         y="0"
         width="100%"
         height="100%" />
    </mask>
  </defs>
  <g
     inkscape:label="Layer 1"
     inkscape:groupmode="layer"
     id="layer1">
    <g
       id="g3538"
       transform="matrix(0.90476148,0,0,0.90476148,-244.17865,5.1544564)" />
    <g
       id="g3618"
       transform="matrix(0.90476148,0,0,0.90476148,-244.17865,5.1544564)" />
    <g
       id="g3685"
       transform="matrix(0.90476148,0,0,0.90476148,-244.17865,5.1544564)" />
    <g
       id="g3734"
       transform="matrix(0.90476148,0,0,0.90476148,-244.17865,5.1544564)" />
    <g
       id="g8380"
       transform="matrix(1.1052615,0,0,1.1052615,-11.052512,-11.052511)">
      <g
         id="g881">
        <g
           id="g869">
          <rect
             style="fill:#ffff00;fill-opacity:1;fill-rule:evenodd;stroke:#000000;stroke-width:0;stroke-linecap:round;stroke-linejoin:round;stroke-miterlimit:0;stroke-dasharray:none;paint-order:stroke fill markers"
             id="rect2819-9-0-8"
             width="22.125584"
             height="39.468513"
             x="62.249001"
             y="132.03149"
             rx="11.062792"
             ry="9.8398561" />
          <rect
             style="fill:#ffff00;fill-opacity:1;fill-rule:evenodd;stroke:#000000;stroke-width:0;stroke-linecap:round;stroke-linejoin:round;stroke-miterlimit:0;stroke-dasharray:none;paint-order:stroke fill markers"
             id="rect2819-7-8-8"
             width="22.125584"
             height="39.468513"
             x="95.971657"
             y="132.03149"
             rx="11.062792"
             ry="9.8398561" />
        </g>
        <g
           id="g873">
          <path
             id="rect1366"
             style="fill:#ffff00;fill-opacity:1;fill-rule:evenodd;stroke-width:0;stroke-linecap:round;stroke-linejoin:round"
             d="m 71.749107,9.9999063 c -20.986821,0 -38.000262,17.0134427 -38.000262,38.0002647 V 161.99993 c 0,20.98683 17.013443,38.00026 38.000262,38.00026 h 66.501883 c 20.98666,0 38.00026,-17.01343 38.00026,-38.00026 V 47.999655 c 0,-20.98666 -17.01343,-37.9997487 -38.00026,-37.9997487 z M 82.086462,24.249682 h 32.253328 l 13.57333,35.625216 H 95.651007 Z m 47.503558,5.3e-4 h 8.66045 l 1.56218,0.05116 c 12.38884,0.80406 22.1878,11.106723 22.1878,23.698813 v 11.875243 h -18.83916 z m -62.569822,0.472839 13.389364,35.15186 H 47.999136 V 47.999668 l 0.05116,-1.562179 c 0.700672,-10.79518 8.614677,-19.62155 18.969902,-21.714438 z M 47.999136,74.125189 H 162.00096 v 87.874741 l -0.0512,1.56218 c -0.80415,12.38882 -11.10672,22.18779 -23.69881,22.18779 H 121.13524 97.41886 71.749107 L 70.18693,185.6982 C 57.79826,184.89409 47.999409,174.59178 47.999136,161.99993 v -5.3e-4 z" />
          <rect
             style="fill:#ffff00;fill-opacity:1;fill-rule:evenodd;stroke-width:0;stroke-linecap:round;stroke-linejoin:round"
             id="rect968-6-9"
             width="30.227259"
             height="30.227259"
             x="89.886368"
             y="88.375191"
             ry="15.09678"
             rx="15.113629" />
        </g>
      </g>
    </g>
  </g>
</svg>
