<?xml version="1.0" encoding="UTF-8" standalone="no"?>
<!-- Created with Inkscape (http://www.inkscape.org/) -->

<svg
   width="24mm"
   height="24mm"
   viewBox="0 0 24 24"
   version="1.1"
   id="svg5"
   inkscape:version="1.1.1 (3bf5ae0d25, 2021-09-20)"
   sodipodi:docname="Celebration.svg"
   xmlns:inkscape="http://www.inkscape.org/namespaces/inkscape"
   xmlns:sodipodi="http://sodipodi.sourceforge.net/DTD/sodipodi-0.dtd"
   xmlns="http://www.w3.org/2000/svg"
   xmlns:svg="http://www.w3.org/2000/svg"
   xmlns:rdf="http://www.w3.org/1999/02/22-rdf-syntax-ns#"
   xmlns:cc="http://creativecommons.org/ns#"
   xmlns:dc="http://purl.org/dc/elements/1.1/">
  <title
     id="title8797">Celebration</title>
  <sodipodi:namedview
     id="namedview7"
     pagecolor="#505050"
     bordercolor="#eeeeee"
     borderopacity="1"
     inkscape:pageshadow="0"
     inkscape:pageopacity="0"
     inkscape:pagecheckerboard="0"
     inkscape:document-units="mm"
     showgrid="false"
     height="24mm"
     showguides="true"
     inkscape:guide-bbox="true"
     inkscape:lockguides="false"
     inkscape:zoom="8.4"
     inkscape:cx="45.238095"
     inkscape:cy="44.702381"
     inkscape:window-width="1920"
     inkscape:window-height="1005"
     inkscape:window-x="-9"
     inkscape:window-y="-9"
     inkscape:window-maximized="1"
     inkscape:current-layer="layer1" />
  <defs
     id="defs2" />
  <g
     inkscape:label="Layer 1"
     inkscape:groupmode="layer"
     id="layer1">
    <g
       id="g2606">
      <g
         id="g1829">
        <path
           sodipodi:type="star"
           style="fill:none;fill-opacity:0;fill-rule:evenodd;stroke:#ffffff;stroke-width:11.3386;stroke-linecap:round;stroke-linejoin:round;stroke-miterlimit:0;stroke-dasharray:none;stroke-opacity:1"
           id="path846"
           inkscape:flatsided="false"
           sodipodi:sides="3"
           sodipodi:cx="26.188263"
           sodipodi:cy="42.023026"
           sodipodi:r1="31.133072"
           sodipodi:r2="15.532307"
           sodipodi:arg1="0.26194812"
           sodipodi:arg2="1.3091456"
           inkscape:rounded="0"
           inkscape:randomized="0"
           transform="matrix(0.26458333,0,0,0.26458333,1.0078205,4.9901899)"
           inkscape:transform-center-x="-0.92516541"
           inkscape:transform-center-y="-1.1924289"
           d="M 56.259302,50.08533 30.206089,57.026679 4.1705827,64.034157 11.185805,38.000738 18.134904,11.949589 37.172895,31.041659 Z" />
        <path
           id="path846-7"
           style="fill:#ffffff;fill-opacity:1;fill-rule:evenodd;stroke:none;stroke-width:0;stroke-linecap:round;stroke-linejoin:round;stroke-miterlimit:0;stroke-dasharray:none;stroke-opacity:1"
           inkscape:transform-center-x="-0.92516541"
           inkscape:transform-center-y="-1.1924289"
           d="M 21.943359,30.810547 14.994141,56.861328 7.9804688,82.894531 34.015625,75.886719 60.068359,68.945312 40.982422,49.902344 Z m 3.701172,12.873047 c 0.904999,-0.05833 2.013315,0.816613 3.148438,2.044922 l 3.335937,3.34375 c 0.305943,0.27539 0.616593,0.593612 0.929688,0.933593 l 3.925781,3.935547 3.871094,3.863282 c 0.353279,0.324739 0.682913,0.645872 0.966797,0.96289 l 3.414062,3.40625 c 0.189514,0.177552 0.360127,0.353944 0.529297,0.529297 0.983154,1.019088 1.599844,1.991658 1.388672,2.779297 -0.211881,0.79028 -1.237638,1.323938 -2.605469,1.714844 -0.227493,0.06501 -0.456093,0.130263 -0.701172,0.1875 l -4.675781,1.24414 c -0.398813,0.130235 -0.838011,0.244577 -1.298828,0.347656 l -5.310547,1.414063 -5.359375,1.443359 c -0.435575,0.13561 -0.859769,0.253235 -1.257813,0.337891 l -4.654296,1.253906 c -1.706246,0.520513 -3.17554,0.695756 -3.855469,0.01563 -0.622577,-0.622761 -0.519985,-1.911934 -0.09961,-3.433594 0.0022,-0.0079 0.0037,-0.01551 0.0059,-0.02344 0.0279,-0.100351 0.04947,-0.196534 0.08008,-0.298828 l 1.283203,-4.753906 c 0.08243,-0.386339 0.197342,-0.796786 0.328125,-1.21875 l 1.480469,-5.494141 1.410156,-5.287109 c 0.08864,-0.388201 0.186884,-0.75943 0.294922,-1.103516 l 0.01758,-0.06641 1.271484,-4.767578 c 0.04228,-0.179367 0.09029,-0.34359 0.136719,-0.513672 l 0.01563,-0.06055 c 0.393007,-1.413852 0.934223,-2.480901 1.742188,-2.697266 0.07864,-0.02106 0.160007,-0.03377 0.242187,-0.03906 z"
           transform="scale(0.26458333)" />
      </g>
      <g
         id="g2576">
        <g
           id="g2529">
          <g
             id="g2438">
            <path
               style="fill:none;stroke:#ffffff;stroke-width:1.5;stroke-linecap:butt;stroke-linejoin:miter;stroke-miterlimit:4;stroke-dasharray:none;stroke-opacity:1"
               d="m 16.558984,12.3397 2.047027,-2.047026 c 0,0 0.609196,-0.6551438 1.36178,0.0071 0.752583,0.662273 2.491447,2.43837 2.491447,2.43837"
               id="path2074" />
            <path
               id="rect866-4-7-6"
               style="fill:#ffffff;fill-opacity:1;fill-rule:evenodd;stroke-width:0;stroke-linecap:round;stroke-linejoin:round;stroke-miterlimit:0"
               d="M 19.294974,10.662915 19.08,10.877889 c 0.11608,-0.09976 0.28636,-0.101304 0.404109,-0.0047 l 0.001,-10e-4 0.255282,0.236678 z" />
          </g>
          <rect
             style="fill:#ffffff;fill-opacity:1;fill-rule:evenodd;stroke:none;stroke-width:0;stroke-linecap:round;stroke-linejoin:round;stroke-miterlimit:4;stroke-dasharray:none;stroke-opacity:1"
             id="rect5105-6"
             width="1.5000002"
             height="1.5"
             x="24.003155"
             y="-7.624536"
             transform="rotate(45)"
             rx="0.25"
             ry="0.25" />
          <rect
             style="fill:#ffffff;fill-opacity:1;fill-rule:evenodd;stroke:none;stroke-width:0;stroke-linecap:round;stroke-linejoin:round;stroke-miterlimit:4;stroke-dasharray:none;stroke-opacity:1"
             id="rect5105-6-9"
             width="1.5000002"
             height="1.5"
             x="19.686459"
             y="-4.200573"
             transform="rotate(45)"
             rx="0.25"
             ry="0.25" />
        </g>
        <g
           id="g2536">
          <g
             id="g2442">
            <path
               style="fill:none;stroke:#ffffff;stroke-width:1.5;stroke-linecap:butt;stroke-linejoin:miter;stroke-miterlimit:4;stroke-dasharray:none;stroke-opacity:1"
               d="m 14.914249,10.694964 4.06395,-4.0639494 c 0,0 0.693681,-0.7478644 1.32914,-0.1124059 0.635458,0.6354588 2.28768,2.2836793 2.28768,2.2836793"
               id="path2405" />
            <path
               id="rect866-4-7"
               style="fill:#ffffff;fill-opacity:1;fill-rule:evenodd;stroke-width:0;stroke-linecap:round;stroke-linejoin:round;stroke-miterlimit:0"
               d="M 74.439453 26.320312 L 72.755859 28.003906 L 72.775391 28.023438 L 73.533203 27.267578 C 73.551296 27.2457 73.571903 27.225934 73.591797 27.205078 C 73.598428 27.198126 73.604497 27.190425 73.611328 27.183594 C 74.051997 26.742925 74.746169 26.719178 75.214844 27.111328 L 75.216797 27.109375 L 75.226562 27.121094 C 75.234247 27.127698 75.242444 27.133793 75.25 27.140625 C 75.265113 27.154289 75.280347 27.169019 75.294922 27.183594 C 75.307588 27.196259 75.320052 27.20958 75.332031 27.222656 C 75.344011 27.235733 75.355894 27.248255 75.367188 27.261719 L 76.117188 28.009766 L 76.123047 28.003906 L 74.439453 26.320312 z "
               transform="scale(0.26458333)" />
          </g>
          <rect
             style="fill:#ffffff;fill-opacity:1;fill-rule:evenodd;stroke:none;stroke-width:0;stroke-linecap:round;stroke-linejoin:round;stroke-miterlimit:4;stroke-dasharray:none;stroke-opacity:1"
             id="rect5105"
             width="1.5000002"
             height="1.5"
             x="21.218674"
             y="-10.503998"
             transform="rotate(45)"
             rx="0.25"
             ry="0.25" />
          <rect
             style="fill:#ffffff;fill-opacity:1;fill-rule:evenodd;stroke:none;stroke-width:0;stroke-linecap:round;stroke-linejoin:round;stroke-miterlimit:4;stroke-dasharray:none;stroke-opacity:1"
             id="rect5105-6-9-6"
             width="1.5000002"
             height="1.5"
             x="17.360077"
             y="-4.200573"
             transform="rotate(45)"
             rx="0.25"
             ry="0.25" />
        </g>
        <g
           id="g2543">
          <g
             id="g2446">
            <path
               style="fill:none;stroke:#ffffff;stroke-width:1.5;stroke-linecap:butt;stroke-linejoin:miter;stroke-miterlimit:4;stroke-dasharray:none;stroke-opacity:1"
               d="m 13.227529,9.0082456 5.900254,-5.9002535 c 0,0 0.406351,-0.2267511 0.08339,-0.6199211 -0.322961,-0.39317 -0.954841,-0.9961943 -0.954841,-0.9961943"
               id="path2776" />
            <path
               id="rect866-4"
               style="fill:#ffffff;fill-opacity:1;fill-rule:evenodd;stroke-width:0;stroke-linecap:round;stroke-linejoin:round;stroke-miterlimit:0"
               d="M 68.035156 8.6445312 L 68.015625 8.6640625 L 68.671875 9.3203125 L 68.677734 9.3242188 C 68.72454 9.3542396 68.769318 9.3866026 68.8125 9.4238281 L 68.035156 8.6445312 z M 68.939453 9.5507812 C 69.330321 10.00419 69.323425 10.6787 68.919922 11.125 L 69.71875 10.328125 L 68.939453 9.5507812 z M 68.833984 11.210938 C 68.81238 11.230503 68.790197 11.249874 68.767578 11.267578 L 68.029297 12.005859 L 68.035156 12.011719 L 68.833984 11.210938 z "
               transform="scale(0.26458333)" />
          </g>
          <rect
             style="fill:#ffffff;fill-opacity:1;fill-rule:evenodd;stroke:none;stroke-width:0;stroke-linecap:round;stroke-linejoin:round;stroke-miterlimit:4;stroke-dasharray:none;stroke-opacity:1"
             id="rect5105-6-9-6-7"
             width="1.5000002"
             height="1.5"
             x="14.974298"
             y="-4.2005734"
             transform="rotate(45)"
             rx="0.25"
             ry="0.25" />
          <rect
             style="fill:#ffffff;fill-opacity:1;fill-rule:evenodd;stroke:none;stroke-width:0;stroke-linecap:round;stroke-linejoin:round;stroke-miterlimit:4;stroke-dasharray:none;stroke-opacity:1"
             id="rect5105-9"
             width="1.5000002"
             height="1.5"
             x="13.344037"
             y="-12.604262"
             transform="rotate(45)"
             rx="0.25"
             ry="0.25" />
        </g>
        <g
           id="g2550">
          <g
             id="g2450">
            <path
               style="fill:none;stroke:#ffffff;stroke-width:1.5;stroke-linecap:butt;stroke-linejoin:miter;stroke-miterlimit:4;stroke-dasharray:none;stroke-opacity:1"
               d="M 11.648298,7.4290137 13.695325,5.381987 c 0,0 0.80371,-0.7765135 -0.0066,-1.5867999 C 12.878462,2.9849006 11.425706,1.52876 11.425706,1.52876"
               id="path6693" />
            <path
               id="rect866-4-7-6-8"
               style="fill:#ffffff;fill-opacity:1;fill-rule:evenodd;stroke-width:0;stroke-linecap:round;stroke-linejoin:round;stroke-miterlimit:0"
               d="M 49.929688 16.554688 C 50.255953 16.933738 50.304758 17.4674 50.076172 17.892578 L 50.138672 17.955078 L 49.052734 19.042969 L 49.054688 19.044922 L 50.738281 17.361328 L 49.929688 16.554688 z "
               transform="scale(0.26458333)" />
          </g>
          <rect
             style="fill:#ffffff;fill-opacity:1;fill-rule:evenodd;stroke:none;stroke-width:0;stroke-linecap:round;stroke-linejoin:round;stroke-miterlimit:4;stroke-dasharray:none;stroke-opacity:1"
             id="rect5105-6-9-6-7-5"
             width="1.5000002"
             height="1.5"
             x="12.741255"
             y="-4.200573"
             transform="rotate(45)"
             rx="0.25"
             ry="0.25" />
          <rect
             style="fill:#ffffff;fill-opacity:1;fill-rule:evenodd;stroke:none;stroke-width:0;stroke-linecap:round;stroke-linejoin:round;stroke-miterlimit:4;stroke-dasharray:none;stroke-opacity:1"
             id="rect5105-2"
             width="1.5000002"
             height="1.5"
             x="8.405983"
             y="-7.7495422"
             transform="rotate(45)"
             rx="0.25"
             ry="0.25" />
        </g>
      </g>
    </g>
  </g>
  <metadata
     id="metadata8795">
    <rdf:RDF>
      <cc:Work
         rdf:about="">
        <dc:title>Celebration</dc:title>
        <dc:date>2/18/2022</dc:date>
        <dc:creator>
          <cc:Agent>
            <dc:title>PhilMinecraft</dc:title>
          </cc:Agent>
        </dc:creator>
        <dc:publisher>
          <cc:Agent>
            <dc:title>RareFrostbites</dc:title>
          </cc:Agent>
        </dc:publisher>
        <dc:subject>
          <rdf:Bag>
            <rdf:li>Celebration</rdf:li>
            <rdf:li>Fun</rdf:li>
          </rdf:Bag>
        </dc:subject>
      </cc:Work>
    </rdf:RDF>
  </metadata>
</svg>
