<?xml version="1.0" encoding="UTF-8" standalone="no"?>
<svg
   height="24"
   viewBox="0 0 24 24"
   width="24"
   fill="#ffffff"
   version="1.1"
   id="svg970"
   sodipodi:docname="Close.svg"
   inkscape:version="1.1.1 (3bf5ae0d25, 2021-09-20)"
   xmlns:inkscape="http://www.inkscape.org/namespaces/inkscape"
   xmlns:sodipodi="http://sodipodi.sourceforge.net/DTD/sodipodi-0.dtd"
   xmlns="http://www.w3.org/2000/svg"
   xmlns:svg="http://www.w3.org/2000/svg">
  <defs
     id="defs974" />
  <sodipodi:namedview
     id="namedview972"
     pagecolor="#505050"
     bordercolor="#eeeeee"
     borderopacity="1"
     inkscape:pageshadow="0"
     inkscape:pageopacity="0"
     inkscape:pagecheckerboard="0"
     showgrid="false"
     inkscape:zoom="29.859616"
     inkscape:cx="11.185676"
     inkscape:cy="11.537322"
     inkscape:window-width="1920"
     inkscape:window-height="1005"
     inkscape:window-x="-9"
     inkscape:window-y="-9"
     inkscape:window-maximized="1"
     inkscape:current-layer="svg970"
     showguides="true"
     inkscape:guide-bbox="true" />
  <g
     id="g840">
    <path
       id="rect1976"
       style="fill:#ffffff;fill-opacity:1;fill-rule:evenodd;stroke:#ffa47b;stroke-width:0;stroke-linecap:round;stroke-linejoin:round;stroke-opacity:0.99177"
       d="m 5.6854405,5.6835003 v 2.1061461 c 0,1e-7 2.1061461,2.1022674 2.1061461,4.2161726 -1.1e-6,2.113902 -2.1061462,4.208414 -2.1061462,4.208414 V 18.3165 H 7.793526 c 0.010903,-0.01088 2.1058311,-2.104208 4.214233,-2.104208 2.108401,10e-7 4.195613,2.093301 4.206472,2.104208 h 2.100329 v -2.106148 c -0.02172,-0.02173 -2.102269,-2.109395 -2.102269,-4.212291 1e-6,-2.1029 2.080567,-4.1828968 2.102269,-4.2045357 v -2.110025 h -2.098387 c 0,0 -2.102267,2.1061463 -4.216172,2.1061461 -2.1139049,-2e-7 -4.2084146,-2.1061461 -4.2084146,-2.1061461 z" />
    <g
       id="g834">
      <rect
         style="fill:#ffffff;fill-opacity:1;fill-rule:evenodd;stroke:#ffa47b;stroke-width:0;stroke-linecap:round;stroke-linejoin:round;stroke-opacity:0.99177"
         id="rect947"
         width="2.999999"
         height="32.03661"
         x="-1.4999995"
         y="0.95225793"
         rx="0.9999997"
         ry="1.0401497"
         transform="rotate(-45)" />
      <rect
         style="fill:#ffffff;fill-opacity:1;fill-rule:evenodd;stroke:#ffa47b;stroke-width:0;stroke-linecap:round;stroke-linejoin:round;stroke-opacity:0.99177"
         id="rect947-7"
         width="2.999999"
         height="32.03661"
         x="15.470563"
         y="-16.018305"
         rx="0.9999997"
         ry="1.0401497"
         transform="rotate(45)" />
    </g>
  </g>
</svg>
