<?xml version="1.0" encoding="UTF-8" standalone="no"?>
<!-- Created with Inkscape (http://www.inkscape.org/) -->

<svg
   width="210mm"
   height="210mm"
   viewBox="0 0 210 210"
   version="1.1"
   id="svg5"
   inkscape:version="1.1.1 (3bf5ae0d25, 2021-09-20)"
   sodipodi:docname="Post.svg"
   xmlns:inkscape="http://www.inkscape.org/namespaces/inkscape"
   xmlns:sodipodi="http://sodipodi.sourceforge.net/DTD/sodipodi-0.dtd"
   xmlns="http://www.w3.org/2000/svg"
   xmlns:svg="http://www.w3.org/2000/svg"
   xmlns:rdf="http://www.w3.org/1999/02/22-rdf-syntax-ns#"
   xmlns:cc="http://creativecommons.org/ns#"
   xmlns:dc="http://purl.org/dc/elements/1.1/">
  <title
     id="title847">Post</title>
  <sodipodi:namedview
     id="namedview7"
     pagecolor="#505050"
     bordercolor="#eeeeee"
     borderopacity="1"
     inkscape:pageshadow="0"
     inkscape:pageopacity="0"
     inkscape:pagecheckerboard="0"
     inkscape:document-units="mm"
     showgrid="false"
     inkscape:zoom="0.82"
     inkscape:cx="397.56098"
     inkscape:cy="385.97561"
     inkscape:window-width="1920"
     inkscape:window-height="1005"
     inkscape:window-x="-9"
     inkscape:window-y="-9"
     inkscape:window-maximized="1"
     inkscape:current-layer="layer1" />
  <defs
     id="defs2" />
  <g
     inkscape:label="Layer 1"
     inkscape:groupmode="layer"
     id="layer1">
    <g
       id="g988">
      <path
         id="rect868"
         style="fill:#ffffff;fill-rule:evenodd;stroke-width:0;stroke-linecap:round;stroke-linejoin:round;fill-opacity:1"
         d="m 104.99971,-5e-5 c -52.63,0 -94.99988,42.369885 -94.99988,94.99989 0,52.62999 42.36988,94.99988 94.99988,94.99988 52.63,0 95.0004,-42.36989 95.0004,-94.99988 0,-52.630005 -42.3704,-94.99989 -95.0004,-94.99989 z m 0.001,30.000236 c 36.0093,0 64.99861,28.989308 64.99861,64.998614 0,36.00931 -28.98931,64.99862 -64.99861,64.99862 -36.00931,0 -64.99862,-28.98931 -64.99862,-64.99862 0,-36.009306 28.98931,-64.998614 64.99862,-64.998614 z" />
      <path
         id="path5323"
         style="fill:#ffffff;fill-opacity:1;stroke:none;stroke-width:0;stroke-linecap:butt;stroke-linejoin:miter;stroke-miterlimit:4;stroke-dasharray:none;stroke-opacity:1"
         d="m 169.99988,94.99984 c -5.3e-4,36.00882 -28.98966,64.99758 -64.99862,64.99758 -7.9e-4,0 -0.001,0 -0.002,0 v 50.00263 c 94.99938,0 95.00091,-115.00021 95.00091,-115.00021 z" />
    </g>
  </g>
  <metadata
     id="metadata845">
    <rdf:RDF>
      <cc:Work
         rdf:about="">
        <dc:title>Post</dc:title>
        <dc:date>4/9/2022</dc:date>
        <dc:creator>
          <cc:Agent>
            <dc:title>PhilMinecraft</dc:title>
          </cc:Agent>
        </dc:creator>
        <dc:publisher>
          <cc:Agent>
            <dc:title>RareFrostbites</dc:title>
          </cc:Agent>
        </dc:publisher>
        <dc:subject>
          <rdf:Bag>
            <rdf:li>Post</rdf:li>
          </rdf:Bag>
        </dc:subject>
      </cc:Work>
    </rdf:RDF>
  </metadata>
</svg>
