<?xml version="1.0" encoding="UTF-8" standalone="no"?>
<!-- Created with Inkscape (http://www.inkscape.org/) -->

<svg
   width="210mm"
   height="210mm"
   viewBox="0 0 210 210"
   version="1.1"
   id="svg5"
   inkscape:version="1.1.1 (3bf5ae0d25, 2021-09-20)"
   sodipodi:docname="Post Feed.svg"
   xmlns:inkscape="http://www.inkscape.org/namespaces/inkscape"
   xmlns:sodipodi="http://sodipodi.sourceforge.net/DTD/sodipodi-0.dtd"
   xmlns="http://www.w3.org/2000/svg"
   xmlns:svg="http://www.w3.org/2000/svg"
   xmlns:rdf="http://www.w3.org/1999/02/22-rdf-syntax-ns#"
   xmlns:cc="http://creativecommons.org/ns#"
   xmlns:dc="http://purl.org/dc/elements/1.1/">
  <title
     id="title3052">Post Feed</title>
  <sodipodi:namedview
     id="namedview7"
     pagecolor="#505050"
     bordercolor="#eeeeee"
     borderopacity="1"
     inkscape:pageshadow="0"
     inkscape:pageopacity="0"
     inkscape:pagecheckerboard="0"
     inkscape:document-units="mm"
     showgrid="false"
     height="210mm"
     inkscape:zoom="0.82526557"
     inkscape:cx="397.44782"
     inkscape:cy="398.05368"
     inkscape:window-width="1920"
     inkscape:window-height="1005"
     inkscape:window-x="-9"
     inkscape:window-y="-9"
     inkscape:window-maximized="1"
     inkscape:current-layer="layer1" />
  <defs
     id="defs2" />
  <g
     inkscape:label="Layer 1"
     inkscape:groupmode="layer"
     id="layer1">
    <g
       id="g954">
      <path
         id="rect846-6"
         style="fill:#ffffff;fill-opacity:1;fill-rule:evenodd;stroke-width:0;stroke-linecap:round;stroke-linejoin:round"
         d="M 19.999763,-4.9291748e-5 C 8.9197644,-4.9291748e-5 -4.9291748e-5,8.9197633 -4.9291748e-5,19.999763 V 150.0001 c 0,11.07999 8.919813691748,19.99981 19.999812291748,19.99981 h 84.999977 30.00024 V 160 149.99958 c 0,-5.53307 -4.44888,-9.98825 -9.97924,-9.99939 H 44.28562 c -7.914285,0 -14.285433,-5.77192 -14.285433,-12.94133 V 42.941 c 0,-7.169415 6.371148,-12.940813 14.285433,-12.940813 h 121.42876 c 7.91429,0 14.28543,5.771398 14.28543,12.940813 v 84.11786 c 0,0.006 -5.3e-4,0.0124 -5.3e-4,0.0186 V 160 c 0,3.64916 -0.97242,7.06086 -2.66598,9.9999 h 12.66641 c 11.07999,0 20.00033,-8.91981 20.00033,-19.99981 V 19.999763 C 210.00005,8.9197633 201.07971,-4.9291748e-5 189.99972,-4.9291748e-5 Z" />
      <path
         id="rect846-8-4"
         style="fill:#ffffff;fill-opacity:1;fill-rule:evenodd;stroke-width:0;stroke-linecap:round;stroke-linejoin:round"
         d="M 179.9993,129.99977 V 160 c 0,11.08003 -8.91982,19.99981 -19.99981,19.99981 h -2.50011 -2.49959 -19.99981 v -9.99939 h -30.00024 v 19.9993 20.00033 h 20.00033 19.99981 44.99984 c 11.07999,0 20.00033,-8.92034 20.00033,-20.00033 V 150.0001 c 0,-11.08002 -8.92034,-20.00033 -20.00033,-20.00033 z m -72.33357,10.00042 c -1.69364,2.93912 -2.66599,6.35075 -2.66599,9.99991 v 19.99981 h 10.00042 4.77956 5.22035 9.99991 V 160 149.99958 c 0,-5.53307 -4.44888,-9.98829 -9.97924,-9.99939 z" />
    </g>
  </g>
  <metadata
     id="metadata3050">
    <rdf:RDF>
      <cc:Work
         rdf:about="">
        <dc:title>Post Feed</dc:title>
        <dc:date>4/9/2022</dc:date>
        <dc:creator>
          <cc:Agent>
            <dc:title>PhilMinecraft</dc:title>
          </cc:Agent>
        </dc:creator>
        <dc:publisher>
          <cc:Agent>
            <dc:title>RareFrostbites</dc:title>
          </cc:Agent>
        </dc:publisher>
        <dc:subject>
          <rdf:Bag>
            <rdf:li>Post Feed</rdf:li>
            <rdf:li>News Feed</rdf:li>
            <rdf:li>Feed</rdf:li>
          </rdf:Bag>
        </dc:subject>
      </cc:Work>
    </rdf:RDF>
  </metadata>
</svg>
