<?xml version="1.0" encoding="UTF-8" standalone="no"?>
<svg
   height="210"
   width="210"
   version="1.1"
   id="svg4"
   sodipodi:docname="Spay_selected.svg"
   inkscape:version="1.1.1 (3bf5ae0d25, 2021-09-20)"
   xmlns:inkscape="http://www.inkscape.org/namespaces/inkscape"
   xmlns:sodipodi="http://sodipodi.sourceforge.net/DTD/sodipodi-0.dtd"
   xmlns="http://www.w3.org/2000/svg"
   xmlns:svg="http://www.w3.org/2000/svg">
  <defs
     id="defs8" />
  <sodipodi:namedview
     id="namedview6"
     pagecolor="#505050"
     bordercolor="#eeeeee"
     borderopacity="1"
     inkscape:pageshadow="0"
     inkscape:pageopacity="0"
     inkscape:pagecheckerboard="0"
     showgrid="false"
     height="210px"
     inkscape:zoom="3"
     inkscape:cx="104.33333"
     inkscape:cy="103.5"
     inkscape:window-width="1920"
     inkscape:window-height="1005"
     inkscape:window-x="-9"
     inkscape:window-y="-9"
     inkscape:window-maximized="1"
     inkscape:current-layer="svg4" />
  <path
     id="path2"
     style="stroke-width:5.60748;fill:#ffffff;fill-opacity:1"
     d="M 22.150391 0 C 16.169082 -1.1842379e-15 10.980414 2.1953673 6.5878906 6.5878906 C 2.1953673 10.980414 -1.1842379e-15 16.261463 0 22.429688 L 0 187.84961 C -1.1842379e-15 193.83092 2.1953673 199.01959 6.5878906 203.41211 C 10.980414 207.80464 16.169082 210 22.150391 210 L 187.57031 210 C 193.73854 210 199.01959 207.80464 203.41211 203.41211 C 207.80464 199.01959 210 193.83092 210 187.84961 L 210 22.429688 C 210 16.261463 207.80464 10.980414 203.41211 6.5878906 C 199.01959 2.1953673 193.73854 -1.1842379e-15 187.57031 0 L 22.150391 0 z M 59.919922 109.97266 C 68.573611 109.97266 75.541016 116.16817 75.541016 123.86523 L 75.541016 151.80664 C 75.541016 159.50371 68.573611 165.70117 59.919922 165.70117 C 51.266233 165.70117 44.300781 159.50371 44.300781 151.80664 L 44.300781 123.86523 C 44.300781 116.16817 51.266233 109.97266 59.919922 109.97266 z M 107.54102 109.97266 C 116.1947 109.97266 123.16211 116.16817 123.16211 123.86523 L 123.16211 151.80664 C 123.16211 159.50371 116.1947 165.70117 107.54102 165.70117 C 98.887322 165.70117 91.921875 159.50371 91.921875 151.80664 L 91.921875 123.86523 C 91.921875 116.16817 98.887322 109.97266 107.54102 109.97266 z " />
</svg>
