<?xml version="1.0" encoding="UTF-8" standalone="no"?>
<!-- Created with Inkscape (http://www.inkscape.org/) -->

<svg
   width="210mm"
   height="210mm"
   viewBox="0 0 210 210"
   version="1.1"
   id="svg5"
   sodipodi:docname="Spay_Grids_unselected.svg"
   inkscape:version="1.1.1 (3bf5ae0d25, 2021-09-20)"
   xmlns:inkscape="http://www.inkscape.org/namespaces/inkscape"
   xmlns:sodipodi="http://sodipodi.sourceforge.net/DTD/sodipodi-0.dtd"
   xmlns:xlink="http://www.w3.org/1999/xlink"
   xmlns="http://www.w3.org/2000/svg"
   xmlns:svg="http://www.w3.org/2000/svg">
  <sodipodi:namedview
     id="namedview7"
     pagecolor="#505050"
     bordercolor="#eeeeee"
     borderopacity="1"
     inkscape:pageshadow="0"
     inkscape:pageopacity="0"
     inkscape:pagecheckerboard="0"
     inkscape:document-units="mm"
     showgrid="false"
     showguides="true"
     inkscape:guide-bbox="true"
     inkscape:zoom="0.9"
     inkscape:cx="397.77778"
     inkscape:cy="402.77778"
     inkscape:window-width="1920"
     inkscape:window-height="1005"
     inkscape:window-x="-9"
     inkscape:window-y="-9"
     inkscape:window-maximized="1"
     inkscape:current-layer="layer1" />
  <defs
     id="defs2">
    <path
       d="M12,16 C14.3472102,16 16.25,17.9027898 16.25,20.25 C16.25,20.6642136 15.9142136,21 15.5,21 L8.5,21 C8.12030423,21 7.80650904,20.7178461 7.75684662,20.3517706 L7.75,20.25 C7.75,17.9027898 9.65278981,16 12,16 Z M19.25,3 C21.2542592,3 22.8912737,4.57236105 22.994802,6.55084143 L23,6.75 L23,16.5 C23,18.5042592 21.4276389,20.1412737 19.4491586,20.244802 L19.25,20.25 L18,20.25 C17.5857864,20.25 17.25,19.9142136 17.25,19.5 C17.25,19.1203042 17.5321539,18.806509 17.8982294,18.7568466 L18,18.75 L19.25,18.75 C20.440864,18.75 21.4156449,17.8248384 21.4948092,16.6540488 L21.5,16.5 L21.5,6.75 C21.5,5.55913601 20.5748384,4.58435508 19.4040488,4.50519081 L19.25,4.5 L4.75,4.5 C3.55913601,4.5 2.58435508,5.42516159 2.50519081,6.59595119 L2.5,6.75 L2.5,16.5 C2.5,17.690864 3.42516159,18.6656449 4.59595119,18.7448092 L4.75,18.75 L6,18.75 C6.41421356,18.75 6.75,19.0857864 6.75,19.5 C6.75,19.8796958 6.46784612,20.193491 6.10177056,20.2431534 L6,20.25 L4.75,20.25 C2.74574083,20.25 1.10872626,18.6776389 1.00519801,16.6991586 L1,16.5 L1,6.75 C1,4.74574083 2.57236105,3.10872626 4.55084143,3.00519801 L4.75,3 L19.25,3 Z M16.2803301,14.7196699 C16.5732233,15.0125631 16.5732233,15.4874369 16.2803301,15.7803301 C15.9874369,16.0732233 15.5125631,16.0732233 15.2196699,15.7803301 C13.4414953,14.0021555 10.5585047,14.0021555 8.78033009,15.7803301 C8.48743687,16.0732233 8.01256313,16.0732233 7.71966991,15.7803301 C7.4267767,15.4874369 7.4267767,15.0125631 7.71966991,14.7196699 C10.0836309,12.3557089 13.9163691,12.3557089 16.2803301,14.7196699 Z"
       id="_path-1" />
    <mask
       id="_mask-2-9"
       fill="#ffffff">
      <use
         xlink:href="#_path-1"
         id="use7-1"
         x="0"
         y="0"
         width="100%"
         height="100%" />
    </mask>
  </defs>
  <g
     inkscape:label="Layer 1"
     inkscape:groupmode="layer"
     id="layer1">
    <g
       id="g3538"
       transform="translate(-4.6185503,-5.3556509)" />
    <g
       id="g3618"
       transform="translate(-4.6185503,-5.3556509)" />
    <g
       id="g3685"
       transform="translate(-4.6185503,-5.3556509)" />
    <g
       id="g3734"
       transform="translate(-4.6185503,-5.3556509)" />
    <g
       id="g893">
      <g
         id="g873">
        <rect
           style="fill:#000000;fill-opacity:1;fill-rule:evenodd;stroke:#000000;stroke-width:0;stroke-linecap:round;stroke-linejoin:round;stroke-miterlimit:0;stroke-dasharray:none;paint-order:stroke fill markers"
           id="rect2819-9-0"
           width="24.414976"
           height="43.552425"
           x="28.637506"
           y="115.20948"
           rx="12.207488"
           ry="10.858012" />
        <rect
           style="fill:#000000;fill-opacity:1;fill-rule:evenodd;stroke:#000000;stroke-width:0;stroke-linecap:round;stroke-linejoin:round;stroke-miterlimit:0;stroke-dasharray:none;paint-order:stroke fill markers"
           id="rect2819-7-8"
           width="24.414976"
           height="43.552425"
           x="65.849533"
           y="115.2095"
           rx="12.207488"
           ry="10.858012" />
      </g>
      <g
         id="g883">
        <path
           id="rect1747"
           style="fill:#000000;fill-opacity:1;fill-rule:evenodd;stroke-width:0;stroke-linecap:round;stroke-linejoin:round"
           d="m 35.819988,22.600123 c -19.844281,0 -35.820036878337,15.995783 -35.820036878337,35.864993 v 93.069774 c 0,19.86921 15.975755878337,35.86499 35.820036878337,35.86499 H 174.18001 c 19.84429,0 35.82004,-15.99578 35.82004,-35.86499 V 58.465116 c 0,-19.86921 -15.97575,-35.864993 -35.82004,-35.864993 z m 0.133323,14.319023 H 174.04617 c 11.98579,0 21.63486,9.421558 21.63486,21.124809 v 93.912615 c 0,11.70325 -9.64907,21.12481 -21.63486,21.12481 H 35.953311 c -11.985789,0 -21.634854,-9.42156 -21.634854,-21.12481 V 58.043955 c 0,-11.703251 9.649065,-21.124809 21.634854,-21.124809 z" />
        <g
           id="g877">
          <rect
             style="fill:#000000;fill-opacity:1;fill-rule:evenodd;stroke-width:0;stroke-linecap:round;stroke-linejoin:round"
             id="rect968-6"
             width="33.409092"
             height="33.409092"
             x="34.540707"
             y="51.238998"
             ry="16.685923"
             rx="16.704546" />
          <rect
             style="fill:#000000;fill-opacity:1;fill-rule:evenodd;stroke-width:0;stroke-linecap:round;stroke-linejoin:round"
             id="rect3168"
             width="42.954544"
             height="42.954544"
             x="93.091629"
             y="61.280842"
             rx="21.477272"
             ry="21.477272" />
        </g>
      </g>
    </g>
  </g>
</svg>
