<?xml version="1.0" encoding="UTF-8" standalone="no"?>
<!-- Created with Inkscape (http://www.inkscape.org/) -->

<svg
   width="210mm"
   height="210mm"
   viewBox="0 0 210 210"
   version="1.1"
   id="svg5"
   inkscape:version="1.1.1 (3bf5ae0d25, 2021-09-20)"
   sodipodi:docname="Spay Watch.svg"
   xmlns:inkscape="http://www.inkscape.org/namespaces/inkscape"
   xmlns:sodipodi="http://sodipodi.sourceforge.net/DTD/sodipodi-0.dtd"
   xmlns="http://www.w3.org/2000/svg"
   xmlns:svg="http://www.w3.org/2000/svg"
   xmlns:rdf="http://www.w3.org/1999/02/22-rdf-syntax-ns#"
   xmlns:cc="http://creativecommons.org/ns#"
   xmlns:dc="http://purl.org/dc/elements/1.1/">
  <title
     id="title5476">Spay Watch</title>
  <sodipodi:namedview
     id="namedview7"
     pagecolor="#505050"
     bordercolor="#eeeeee"
     borderopacity="1"
     inkscape:pageshadow="0"
     inkscape:pageopacity="0"
     inkscape:pagecheckerboard="0"
     inkscape:document-units="mm"
     showgrid="false"
     showguides="true"
     inkscape:guide-bbox="true"
     inkscape:zoom="0.70710678"
     inkscape:cx="400.22244"
     inkscape:cy="385.3732"
     inkscape:window-width="1920"
     inkscape:window-height="1005"
     inkscape:window-x="-9"
     inkscape:window-y="-9"
     inkscape:window-maximized="1"
     inkscape:current-layer="g842" />
  <defs
     id="defs2" />
  <g
     inkscape:label="Layer 1"
     inkscape:groupmode="layer"
     id="layer1">
    <g
       id="g842">
      <g
         id="g993">
        <path
           id="rect2215"
           style="fill:#ffffff;fill-opacity:1;fill-rule:evenodd;stroke:#000000;stroke-width:0;stroke-linecap:round;stroke-linejoin:round;stroke-miterlimit:0;stroke-dasharray:none;paint-order:stroke fill markers"
           d="m 43.452129,27.798821 12.041639,35.99935 H 39.493713 L 27.489277,27.91044 C 12.053766,29.178805 -5.1676564e-4,42.025408 -5.1676564e-4,57.799054 v 94.399926 c 0,16.62 13.38023476564,30.00023 30.00023676564,30.00023 h 149.99963 c 16.62,0 30.00023,-13.38023 30.00023,-30.00023 V 57.799054 c 0,-16.619998 -13.38023,-30.000233 -30.00023,-30.000233 H 99.570666 l 12.041644,35.99935 H 95.612766 L 83.571127,27.798821 H 71.49176 l 12.042158,35.99935 H 67.53386 L 55.492221,27.798821 Z M 30.998625,115.99292 c 8.653743,0 15.620235,6.19661 15.620235,13.89372 v 27.94145 c 0,7.69711 -6.966492,13.89372 -15.620235,13.89372 -8.653744,0 -15.620752,-6.19661 -15.620752,-13.89372 v -27.94145 c 0,-7.69711 6.967008,-13.89372 15.620752,-13.89372 z m 47.62138,0 c 8.653743,0 15.620235,6.19661 15.620235,13.89372 v 27.94145 c 0,7.69711 -6.966492,13.89372 -15.620235,13.89372 -8.653743,0 -15.620235,-6.19661 -15.620232,-13.89372 v -27.94145 c 0,-7.69711 6.966489,-13.89372 15.620232,-13.89372 z" />
        <rect
           style="fill:#ffffff;fill-opacity:1;fill-rule:evenodd;stroke:#ffa47b;stroke-width:0;stroke-linecap:round;stroke-linejoin:round;stroke-opacity:0.99177"
           id="rect3607"
           width="3.9137125"
           height="14.371651"
           x="4.0479912e-07"
           y="43.427162" />
        <rect
           style="fill:#ffffff;fill-opacity:1;fill-rule:evenodd;stroke:#ffa47b;stroke-width:0;stroke-linecap:round;stroke-linejoin:round;stroke-opacity:0.99177"
           id="rect3607-2"
           width="3.9137125"
           height="14.371651"
           x="206.08629"
           y="43.427002" />
        <g
           id="g985">
          <path
             id="rect1632"
             style="fill:#ffffff;fill-opacity:1;fill-rule:evenodd;stroke:#ffa47b;stroke-width:0;stroke-linecap:round;stroke-linejoin:round;stroke-opacity:0.99177"
             d="M 15.000118,27.798821 C 6.6901184,27.798821 0,34.488937 0,42.798939 0,51.108937 6.6901184,57.799057 15.000118,57.799054 H 37.4866 L 27.451555,27.798821 Z m 28.451492,0 10.035048,30.000233 H 65.52675 L 55.491702,27.798821 Z m 28.04015,0 10.035045,30.000233 H 93.605656 L 83.570608,27.798821 Z m 28.078906,0 10.035044,30.000233 h 85.39427 c 8.31,0 15.00012,-6.690117 15.00012,-15.000115 0,-8.310002 -6.69012,-15.000118 -15.00012,-15.000118 z" />
          <rect
             style="fill:#ffffff;fill-opacity:1;fill-rule:evenodd;stroke:#ffa47b;stroke-width:0;stroke-linecap:round;stroke-linejoin:round;stroke-opacity:0.99177"
             id="rect3933"
             width="30"
             height="30"
             x="180"
             y="27.798817" />
        </g>
      </g>
    </g>
  </g>
  <metadata
     id="metadata5474">
    <rdf:RDF>
      <cc:Work
         rdf:about="">
        <dc:title>Spay Watch</dc:title>
        <dc:date>2/9/2022</dc:date>
        <dc:creator>
          <cc:Agent>
            <dc:title>PhilMinecraft</dc:title>
          </cc:Agent>
        </dc:creator>
        <dc:publisher>
          <cc:Agent>
            <dc:title>RareFrostbites, Spay Team</dc:title>
          </cc:Agent>
        </dc:publisher>
        <dc:subject>
          <rdf:Bag>
            <rdf:li>Spay</rdf:li>
            <rdf:li>Spay Watch</rdf:li>
          </rdf:Bag>
        </dc:subject>
        <dc:description>Spay Watch is a video sharing platform site made by Spay Team dedicated for long-form content that's kinda like YouTube...?</dc:description>
      </cc:Work>
    </rdf:RDF>
  </metadata>
</svg>
