<?xml version="1.0" encoding="UTF-8" standalone="no"?>
<!-- Created with Inkscape (http://www.inkscape.org/) -->

<svg
   width="210mm"
   height="210mm"
   viewBox="0 0 210 210"
   version="1.1"
   id="svg5"
   inkscape:version="1.1.1 (3bf5ae0d25, 2021-09-20)"
   sodipodi:docname="Spay_Vertz_unselected.svg"
   xmlns:inkscape="http://www.inkscape.org/namespaces/inkscape"
   xmlns:sodipodi="http://sodipodi.sourceforge.net/DTD/sodipodi-0.dtd"
   xmlns="http://www.w3.org/2000/svg"
   xmlns:svg="http://www.w3.org/2000/svg">
  <sodipodi:namedview
     id="namedview7"
     pagecolor="#505050"
     bordercolor="#eeeeee"
     borderopacity="1"
     inkscape:pageshadow="0"
     inkscape:pageopacity="0"
     inkscape:pagecheckerboard="0"
     inkscape:document-units="mm"
     showgrid="false"
     height="210mm"
     inkscape:zoom="0.9"
     inkscape:cx="396.66667"
     inkscape:cy="396.11111"
     inkscape:window-width="1920"
     inkscape:window-height="1005"
     inkscape:window-x="-9"
     inkscape:window-y="-9"
     inkscape:window-maximized="1"
     inkscape:current-layer="layer1"
     showguides="true"
     inkscape:guide-bbox="true" />
  <defs
     id="defs2" />
  <g
     inkscape:label="Layer 1"
     inkscape:groupmode="layer"
     id="layer1">
    <g
       id="g890">
      <g
         id="g870">
        <rect
           style="fill:#ffffff;fill-opacity:1;fill-rule:evenodd;stroke:#000000;stroke-width:0;stroke-linecap:round;stroke-linejoin:round;stroke-miterlimit:0;stroke-dasharray:none;paint-order:stroke fill markers"
           id="rect2819-4-0"
           width="34.567966"
           height="61.663746"
           x="56.388302"
           y="120.84488"
           rx="17.283983"
           ry="15.373326" />
        <rect
           style="fill:#ffffff;fill-opacity:1;fill-rule:evenodd;stroke:#000000;stroke-width:0;stroke-linecap:round;stroke-linejoin:round;stroke-miterlimit:0;stroke-dasharray:none;paint-order:stroke fill markers"
           id="rect2819-5-2-7"
           width="34.567966"
           height="61.663746"
           x="109.08131"
           y="120.84488"
           rx="17.283983"
           ry="15.373326" />
      </g>
      <g
         id="g880">
        <g
           id="g874">
          <path
             id="rect1562-3-3-7"
             style="fill:#ffffff;fill-opacity:1;fill-rule:evenodd;stroke-width:0;stroke-linecap:round;stroke-linejoin:round"
             d="M 61.019845,-8.4726841e-6 V 0.04854021 h -0.03941 L 59.019072,0.11650796 A 32.084339,32.084339 0 0 0 28.896683,32.144861 v 23.171375 c 0,4.861253 3.913474,8.774157 8.774724,8.774157 h 0.848172 v 5.85e-4 H 171.68547 v -5.85e-4 h 0.64312 c 4.86126,0 8.77473,-3.912904 8.77473,-8.774157 V 30.122383 h -0.0702 A 32.084339,32.084339 0 0 0 156.99067,1.0126575 32.084339,32.084339 0 0 0 149.00186,-8.4726841e-6 Z M 136.84244,17.476907 107.69902,46.643177 74.715113,46.637475 103.86482,17.486626 Z m -57.724257,0.01085 -0.0018,0.0086 -29.152562,29.153134 -3.58117,0.0063 -0.0012,-14.577139 0.07768,-1.494152 A 14.583786,14.583786 0 0 1 60.957448,17.50323 Z m 79.189577,3.285881 a 14.560454,14.560454 0 0 1 5.31807,11.268409 l -0.0103,14.561719 -31.16819,0.01655 z" />
          <path
             id="rect1562-3-3"
             style="fill:#ffffff;fill-opacity:1;fill-rule:evenodd;stroke-width:0;stroke-linecap:round;stroke-linejoin:round"
             d="m 38.314533,46.603769 v 5.85e-4 h -0.643126 c -4.861252,0 -8.774727,3.912907 -8.774724,8.774156 v 122.47663 c 0,17.80057 14.325567,32.13249 32.123162,32.14487 h 87.960305 c 17.79761,-0.0123 32.12317,-14.34428 32.12317,-32.14487 V 55.378496 c 0,-4.86125 -3.91348,-8.774157 -8.77473,-8.774157 h -0.84817 v -5.85e-4 z m 8.070488,17.487194 H 163.61612 V 178.01791 h 0.002 c 0,8.03056 -6.36646,14.49489 -14.27442,14.49489 H 137.03892 66.05576 60.659444 c -7.907965,0 -14.274993,-6.46433 -14.274993,-14.49489 h 5.84e-4 z" />
        </g>
        <rect
           style="fill:#ffffff;fill-opacity:1;fill-rule:evenodd;stroke-width:0;stroke-linecap:round;stroke-linejoin:round"
           id="rect859-4-8"
           width="31.499952"
           height="31.499952"
           x="89.249969"
           y="74.094658"
           rx="95.894661"
           ry="31.499952" />
      </g>
    </g>
  </g>
</svg>
