<?xml version="1.0" encoding="UTF-8" standalone="no"?>
<!-- Created with Inkscape (http://www.inkscape.org/) -->

<svg
   width="210mm"
   height="210mm"
   viewBox="0 0 210 210"
   version="1.1"
   id="svg5"
   inkscape:version="1.1.1 (3bf5ae0d25, 2021-09-20)"
   sodipodi:docname="Spay Watch.svg"
   xmlns:inkscape="http://www.inkscape.org/namespaces/inkscape"
   xmlns:sodipodi="http://sodipodi.sourceforge.net/DTD/sodipodi-0.dtd"
   xmlns="http://www.w3.org/2000/svg"
   xmlns:svg="http://www.w3.org/2000/svg"
   xmlns:rdf="http://www.w3.org/1999/02/22-rdf-syntax-ns#"
   xmlns:cc="http://creativecommons.org/ns#"
   xmlns:dc="http://purl.org/dc/elements/1.1/">
  <title
     id="title5476">Spay Watch</title>
  <sodipodi:namedview
     id="namedview7"
     pagecolor="#505050"
     bordercolor="#eeeeee"
     borderopacity="1"
     inkscape:pageshadow="0"
     inkscape:pageopacity="0"
     inkscape:pagecheckerboard="0"
     inkscape:document-units="mm"
     showgrid="false"
     showguides="true"
     inkscape:guide-bbox="true"
     inkscape:zoom="0.70710678"
     inkscape:cx="400.22244"
     inkscape:cy="385.3732"
     inkscape:window-width="1920"
     inkscape:window-height="1005"
     inkscape:window-x="-9"
     inkscape:window-y="-9"
     inkscape:window-maximized="1"
     inkscape:current-layer="g842" />
  <defs
     id="defs2" />
  <g
     inkscape:label="Layer 1"
     inkscape:groupmode="layer"
     id="layer1">
    <g
       id="g842">
      <g
         id="g957">
        <path
           id="rect2215"
           style="fill:#000000;fill-opacity:1;fill-rule:evenodd;stroke:#000000;stroke-width:0;stroke-linecap:round;stroke-linejoin:round;stroke-miterlimit:0;stroke-dasharray:none;paint-order:stroke fill markers"
           d="M 164.22852 105.06641 L 209.74023 241.12695 L 149.26758 241.12695 L 103.89648 105.48828 C 45.557543 110.2821 -0.001953125 158.83619 -0.001953125 218.45312 L -0.001953125 575.24023 C -0.001953125 638.05598 50.569014 688.62695 113.38477 688.62695 L 680.3125 688.62695 C 743.12825 688.62695 793.69922 638.05598 793.69922 575.24023 L 793.69922 218.45312 C 793.69922 155.63738 743.12825 105.06641 680.3125 105.06641 L 376.33008 105.06641 L 421.8418 241.12695 L 361.37109 241.12695 L 315.85938 105.06641 L 270.20508 105.06641 L 315.71875 241.12695 L 255.24609 241.12695 L 209.73438 105.06641 L 164.22852 105.06641 z M 117.16016 438.39844 C 149.86722 438.39844 176.19727 461.8187 176.19727 490.91016 L 176.19727 596.51562 C 176.19727 625.60708 149.86722 649.02734 117.16016 649.02734 C 84.453096 649.02734 58.121094 625.60708 58.121094 596.51562 L 58.121094 490.91016 C 58.121094 461.8187 84.453096 438.39844 117.16016 438.39844 z M 297.14648 438.39844 C 329.85354 438.39844 356.18359 461.8187 356.18359 490.91016 L 356.18359 596.51562 C 356.18359 625.60708 329.85354 649.02734 297.14648 649.02734 C 264.43942 649.02734 238.10937 625.60708 238.10938 596.51562 L 238.10938 490.91016 C 238.10938 461.8187 264.43942 438.39844 297.14648 438.39844 z "
           transform="scale(0.26458333)" />
        <rect
           style="fill:#000000;fill-opacity:1;fill-rule:evenodd;stroke:#ffa47b;stroke-width:0;stroke-linecap:round;stroke-linejoin:round;stroke-opacity:0.99177"
           id="rect3607"
           width="3.9137125"
           height="14.371651"
           x="4.0479912e-07"
           y="43.427162" />
        <rect
           style="fill:#000000;fill-opacity:1;fill-rule:evenodd;stroke:#ffa47b;stroke-width:0;stroke-linecap:round;stroke-linejoin:round;stroke-opacity:0.99177"
           id="rect3607-2"
           width="3.9137125"
           height="14.371651"
           x="206.08629"
           y="43.427002" />
        <g
           id="g949">
          <path
             id="rect1632"
             style="fill:#000000;fill-opacity:1;fill-rule:evenodd;stroke:#ffa47b;stroke-width:0;stroke-linecap:round;stroke-linejoin:round;stroke-opacity:0.99177"
             d="M 15.000118,27.798821 C 6.6901184,27.798821 0,34.488937 0,42.798939 0,51.108937 6.6901184,57.799057 15.000118,57.799054 H 37.4866 L 27.451555,27.798821 Z m 28.451492,0 10.035048,30.000233 H 65.52675 L 55.491702,27.798821 Z m 28.04015,0 10.035045,30.000233 H 93.605656 L 83.570608,27.798821 Z m 28.078906,0 10.035044,30.000233 h 85.39427 c 8.31,0 15.00012,-6.690117 15.00012,-15.000115 0,-8.310002 -6.69012,-15.000118 -15.00012,-15.000118 z" />
          <rect
             style="fill:#000000;fill-opacity:1;fill-rule:evenodd;stroke:#ffa47b;stroke-width:0;stroke-linecap:round;stroke-linejoin:round;stroke-opacity:0.99177"
             id="rect3933"
             width="30"
             height="30"
             x="180"
             y="27.798817" />
        </g>
      </g>
    </g>
  </g>
  <metadata
     id="metadata5474">
    <rdf:RDF>
      <cc:Work
         rdf:about="">
        <dc:title>Spay Watch</dc:title>
        <dc:date>2/9/2022</dc:date>
        <dc:creator>
          <cc:Agent>
            <dc:title>PhilMinecraft</dc:title>
          </cc:Agent>
        </dc:creator>
        <dc:publisher>
          <cc:Agent>
            <dc:title>RareFrostbites, Spay Team</dc:title>
          </cc:Agent>
        </dc:publisher>
        <dc:subject>
          <rdf:Bag>
            <rdf:li>Spay</rdf:li>
            <rdf:li>Spay Watch</rdf:li>
          </rdf:Bag>
        </dc:subject>
        <dc:description>Spay Watch is a video sharing platform site made by Spay Team dedicated for long-form content that's kinda like YouTube...?</dc:description>
      </cc:Work>
    </rdf:RDF>
  </metadata>
</svg>
