<?xml version="1.0" encoding="UTF-8" standalone="no"?>
<svg
   width="210"
   height="210"
   fill="none"
   viewBox="0 0 210 210"
   class="h-10 w-10"
   version="1.1"
   id="svg4"
   sodipodi:docname="Spay_Watch_unselected.svg"
   inkscape:version="1.1.1 (3bf5ae0d25, 2021-09-20)"
   xmlns:inkscape="http://www.inkscape.org/namespaces/inkscape"
   xmlns:sodipodi="http://sodipodi.sourceforge.net/DTD/sodipodi-0.dtd"
   xmlns="http://www.w3.org/2000/svg"
   xmlns:svg="http://www.w3.org/2000/svg">
  <defs
     id="defs8" />
  <sodipodi:namedview
     id="namedview6"
     pagecolor="#505050"
     bordercolor="#eeeeee"
     borderopacity="1"
     inkscape:pageshadow="0"
     inkscape:pageopacity="0"
     inkscape:pagecheckerboard="0"
     showgrid="false"
     showguides="true"
     inkscape:guide-bbox="true"
     inkscape:zoom="3"
     inkscape:cx="111"
     inkscape:cy="100.5"
     inkscape:window-width="1920"
     inkscape:window-height="1005"
     inkscape:window-x="-9"
     inkscape:window-y="-9"
     inkscape:window-maximized="1"
     inkscape:current-layer="svg4" />
  <g
     id="g869">
    <g
       id="g861">
      <path
         id="rect1318"
         style="fill:#ffffff;fill-opacity:1;fill-rule:evenodd;stroke-width:0;stroke-linecap:round;stroke-linejoin:round"
         d="M 8.7744944,58.349237 C 3.9132333,58.349235 4.3463208e-7,62.26247 4.3463208e-7,67.123731 v 21.179811 c 0,0.0074 0.002069225368,0.01423 0.002157745368,0.02161 v 2.126626 c -8.907e-5,0.01457 -0.002157745368,0.02863 -0.002157745368,0.04322 V 166.18906 C 4.3463208e-7,183.99734 14.337493,198.33483 32.14577,198.33483 H 177.85423 C 195.66251,198.33483 210,183.99734 210,166.18906 V 90.495004 c 0,-0.01459 -0.002,-0.02865 -0.002,-0.04322 v -2.126627 c 8e-5,-0.0074 0.002,-0.0142 0.002,-0.02161 V 67.123731 c 0,-4.861261 -3.91323,-8.774495 -8.77448,-8.774495 H 177.85423 32.14577 Z m 8.7269476,17.50144 h 14.274761 146.460577 14.27476 v 14.495205 6.732154 69.201794 c 0,8.03058 -6.36679,14.49521 -14.27476,14.49521 H 31.776203 c -7.907978,0 -14.274761,-6.46463 -14.274761,-14.49521 V 97.078036 90.345882 Z" />
      <path
         id="rect6621"
         style="fill:#ffffff;fill-opacity:1;fill-rule:evenodd;stroke-width:0;stroke-linecap:round;stroke-linejoin:round"
         d="m 177.89903,11.665173 -145.814958,0.04847 -1.961599,0.06794 A 32.084388,32.084388 0 0 0 2.9508865e-4,43.810262 l 0.005532521,20.605282 0.00663902,1e-4 0.002213,2.77967 a 8.7502879,8.7501599 89.911289 0 0 7.53345447,8.653945 c 0.8585032,-0.0066 1.4305767,-0.03452 2.3846819,-0.03474 l 175.029234,-0.04913 c 2.58316,-7.63e-4 4.39726,0.05068 6.59971,0.08078 l 9.69418,-0.0022 1.18803,-0.08122 A 8.7502879,8.7502879 0 0 0 210,67.088658 l -0.0171,-23.331088 -0.0465,-1.954749 -0.007,-0.01527 a 32.084388,32.084388 0 0 0 -24.04212,-29.10986 32.084388,32.084388 0 0 0 -7.98869,-1.012363 z m -12.20987,17.512471 -29.15895,29.174745 -32.97515,-0.0033 29.15422,-29.151056 z m -57.73951,0.02811 -29.143683,29.166369 -32.983752,-0.0055 29.149904,-29.151122 z m -57.724092,0.01118 -0.0022,0.0089 -29.152107,29.153256 -3.58162,0.0055 -8.3e-4,-14.576873 0.07746,-1.494399 a 14.583813,14.583813 0 0 1 14.498514,-13.08119 z m 136.936922,3.283583 a 14.560479,14.560479 0 0 1 5.31853,11.268072 l -0.01,14.561591 -31.16851,0.01682 z" />
    </g>
    <g
       id="g857">
      <rect
         style="fill:#ffffff;fill-opacity:1;fill-rule:evenodd;stroke:#000000;stroke-width:0;stroke-linecap:round;stroke-linejoin:round;stroke-miterlimit:0;stroke-dasharray:none;paint-order:stroke fill markers"
         id="rect2819"
         width="34.56802"
         height="61.663837"
         x="35.002441"
         y="101.60859"
         rx="17.28401"
         ry="15.373349" />
      <rect
         style="fill:#ffffff;fill-opacity:1;fill-rule:evenodd;stroke:#000000;stroke-width:0;stroke-linecap:round;stroke-linejoin:round;stroke-miterlimit:0;stroke-dasharray:none;paint-order:stroke fill markers"
         id="rect2819-5"
         width="34.56802"
         height="61.663837"
         x="87.695534"
         y="101.60859"
         rx="17.28401"
         ry="15.373349" />
    </g>
  </g>
</svg>
