<?xml version="1.0" encoding="UTF-8" standalone="no"?>
<svg
   width="210"
   height="210"
   viewBox="0 0 24 24"
   version="1.1"
   id="svg6"
   sodipodi:docname="Spay_Group_selected.svg"
   inkscape:version="1.1.1 (3bf5ae0d25, 2021-09-20)"
   xmlns:inkscape="http://www.inkscape.org/namespaces/inkscape"
   xmlns:sodipodi="http://sodipodi.sourceforge.net/DTD/sodipodi-0.dtd"
   xmlns="http://www.w3.org/2000/svg"
   xmlns:svg="http://www.w3.org/2000/svg"
   xmlns:rdf="http://www.w3.org/1999/02/22-rdf-syntax-ns#"
   xmlns:cc="http://creativecommons.org/ns#">
  <defs
     id="defs10" />
  <sodipodi:namedview
     id="namedview8"
     pagecolor="#505050"
     bordercolor="#eeeeee"
     borderopacity="1"
     inkscape:pageshadow="0"
     inkscape:pageopacity="0"
     inkscape:pagecheckerboard="0"
     showgrid="false"
     inkscape:zoom="3"
     inkscape:cx="105"
     inkscape:cy="104.83333"
     inkscape:window-width="1920"
     inkscape:window-height="1005"
     inkscape:window-x="-9"
     inkscape:window-y="-9"
     inkscape:window-maximized="1"
     inkscape:current-layer="svg6"
     showguides="true"
     inkscape:guide-bbox="true" />
  <metadata
     id="metadata827">
    <rdf:RDF>
      <cc:Work
         rdf:about="" />
    </rdf:RDF>
  </metadata>
  <g
     id="g2528">
    <path
       id="rect853-4"
       style="fill:#ffff00;fill-opacity:1;fill-rule:evenodd;stroke-width:0;stroke-linecap:round;stroke-linejoin:round"
       d="m 163.05078,31 c 0.7161,3.02103 1.10547,6.171829 1.10547,9.417969 V 169.58203 c 0,3.24614 -0.38938,6.39694 -1.10547,9.41797 h 1.10547 5.42578 C 191.9736,179 210,160.9736 210,138.58203 V 71.417969 C 210,49.0264 191.9736,31 169.58203,31 h -5.42578 z"
       transform="scale(0.11428571)" />
    <path
       id="rect853"
       style="fill:#ffff00;fill-opacity:1;fill-rule:evenodd;stroke-width:0;stroke-linecap:round;stroke-linejoin:round"
       d="M 40.417969,0 C 18.026399,0 0,18.026397 0,40.417969 V 169.58203 C 0,191.9736 18.026399,210 40.417969,210 H 107.58203 C 129.9736,210 148,191.9736 148,169.58203 V 40.417969 C 148,18.026397 129.9736,0 107.58203,0 Z m 3.496093,136.27148 c 6.431973,0 11.611329,4.60523 11.611329,10.32618 v 20.76757 c 0,5.72096 -5.179356,10.32618 -11.611329,10.32618 -6.431971,0 -11.609375,-4.60522 -11.609374,-10.32618 v -20.76757 c 0,-5.72095 5.177403,-10.32618 11.609374,-10.32618 z m 35.390626,0 c 6.431972,0 11.611328,4.60523 11.611328,10.32618 v 20.76757 c 0,5.72096 -5.179356,10.32618 -11.611328,10.32618 -6.431973,0 -11.609376,-4.60522 -11.609376,-10.32618 v -20.76757 c 0,-5.72095 5.177403,-10.32618 11.609376,-10.32618 z"
       transform="scale(0.11428571)" />
  </g>
</svg>
