<?xml version="1.0" encoding="UTF-8" standalone="no"?>
<svg
   width="210"
   height="210"
   viewBox="0 0 24 24"
   version="1.1"
   id="svg6"
   sodipodi:docname="Spay_unselected.svg"
   inkscape:version="1.1.1 (3bf5ae0d25, 2021-09-20)"
   xmlns:inkscape="http://www.inkscape.org/namespaces/inkscape"
   xmlns:sodipodi="http://sodipodi.sourceforge.net/DTD/sodipodi-0.dtd"
   xmlns="http://www.w3.org/2000/svg"
   xmlns:svg="http://www.w3.org/2000/svg"
   xmlns:rdf="http://www.w3.org/1999/02/22-rdf-syntax-ns#"
   xmlns:cc="http://creativecommons.org/ns#">
  <defs
     id="defs10" />
  <sodipodi:namedview
     id="namedview8"
     pagecolor="#505050"
     bordercolor="#eeeeee"
     borderopacity="1"
     inkscape:pageshadow="0"
     inkscape:pageopacity="0"
     inkscape:pagecheckerboard="0"
     showgrid="false"
     showguides="true"
     inkscape:guide-bbox="true"
     inkscape:zoom="3"
     inkscape:cx="105"
     inkscape:cy="104.83333"
     inkscape:window-width="1920"
     inkscape:window-height="1005"
     inkscape:window-x="-9"
     inkscape:window-y="-9"
     inkscape:window-maximized="1"
     inkscape:current-layer="svg6" />
  <metadata
     id="metadata827">
    <rdf:RDF>
      <cc:Work
         rdf:about="" />
    </rdf:RDF>
  </metadata>
  <g
     id="g7009">
    <path
       id="rect853-4"
       style="fill:#ffff00;fill-opacity:1;fill-rule:evenodd;stroke-width:0;stroke-linecap:round;stroke-linejoin:round"
       d="m 163.05078,31 c 0.7161,3.02103 1.10547,6.171829 1.10547,9.417969 v 6.730469 h 5.50977 c 13.39461,0 24.17773,10.783122 24.17773,24.177734 v 67.347658 c 0,13.39461 -10.78312,24.17773 -24.17773,24.17773 h -5.50977 v 6.73047 c 0,3.24614 -0.38938,6.39694 -1.10547,9.41797 h 1.10547 5.42578 C 191.9736,179 210,160.9736 210,138.58203 V 71.417969 C 210,49.026401 191.9736,31 169.58203,31 h -5.42578 z"
       transform="scale(0.11428571)" />
    <g
       id="g7001">
      <path
         id="rect853"
         style="fill:#ffff00;fill-opacity:1;fill-rule:evenodd;stroke-width:0;stroke-linecap:round;stroke-linejoin:round"
         d="M 40.417969,0 C 18.026398,0 0,18.026396 0,40.417969 V 169.58203 C 0,191.9736 18.026398,210 40.417969,210 H 107.58203 C 129.9736,210 148,191.9736 148,169.58203 V 40.417969 C 148,18.026396 129.9736,0 107.58203,0 Z m -0.08789,16.148438 h 67.335941 c 13.39461,0 24.17773,10.783122 24.17773,24.177734 V 169.66797 c 0,13.39461 -10.78312,24.17969 -24.17773,24.17969 H 40.330078 c -13.394612,0 -24.177734,-10.78508 -24.177734,-24.17969 V 40.326172 c 0,-13.394612 10.783122,-24.177735 24.177735,-24.177734 z"
         transform="scale(0.11428571)" />
      <g
         id="g924"
         transform="matrix(0.11428536,0,0,0.11428536,0.26694722,0.07990465)">
        <rect
           style="fill:#ffff00;fill-opacity:1;fill-rule:evenodd;stroke:#000000;stroke-width:0;stroke-linecap:round;stroke-linejoin:round;stroke-miterlimit:0;stroke-dasharray:none;paint-order:stroke fill markers"
           id="rect2819"
           width="23.22019"
           height="41.42112"
           x="29.968649"
           y="135.57202"
           rx="11.610095"
           ry="10.326658" />
        <rect
           style="fill:#ffff00;fill-opacity:1;fill-rule:evenodd;stroke:#000000;stroke-width:0;stroke-linecap:round;stroke-linejoin:round;stroke-miterlimit:0;stroke-dasharray:none;paint-order:stroke fill markers"
           id="rect2819-7"
           width="23.22019"
           height="41.42112"
           x="65.359642"
           y="135.57204"
           rx="11.610095"
           ry="10.326658" />
      </g>
    </g>
  </g>
</svg>
