<?xml version="1.0" encoding="UTF-8" standalone="no"?>
<!-- Created with Inkscape (http://www.inkscape.org/) -->

<svg
   width="210mm"
   height="210mm"
   viewBox="0 0 210 210"
   version="1.1"
   id="svg5"
   inkscape:version="1.1.1 (3bf5ae0d25, 2021-09-20)"
   sodipodi:docname="Spay_Vertz_unselected.svg"
   xmlns:inkscape="http://www.inkscape.org/namespaces/inkscape"
   xmlns:sodipodi="http://sodipodi.sourceforge.net/DTD/sodipodi-0.dtd"
   xmlns="http://www.w3.org/2000/svg"
   xmlns:svg="http://www.w3.org/2000/svg">
  <sodipodi:namedview
     id="namedview7"
     pagecolor="#505050"
     bordercolor="#eeeeee"
     borderopacity="1"
     inkscape:pageshadow="0"
     inkscape:pageopacity="0"
     inkscape:pagecheckerboard="0"
     inkscape:document-units="mm"
     showgrid="false"
     height="210mm"
     inkscape:zoom="0.9"
     inkscape:cx="397.77778"
     inkscape:cy="397.22222"
     inkscape:window-width="1920"
     inkscape:window-height="1005"
     inkscape:window-x="-9"
     inkscape:window-y="-9"
     inkscape:window-maximized="1"
     inkscape:current-layer="layer1"
     showguides="true"
     inkscape:guide-bbox="true" />
  <defs
     id="defs2" />
  <g
     inkscape:label="Layer 1"
     inkscape:groupmode="layer"
     id="layer1">
    <g
       id="g32068">
      <g
         id="g32056">
        <rect
           style="fill:#ffff00;fill-opacity:1;fill-rule:evenodd;stroke:#000000;stroke-width:0;stroke-linecap:round;stroke-linejoin:round;stroke-miterlimit:0;stroke-dasharray:none;paint-order:stroke fill markers"
           id="rect2819-3"
           width="28.265526"
           height="50.421196"
           x="66.955956"
           y="117.77956"
           rx="14.132763"
           ry="12.570457" />
        <rect
           style="fill:#ffff00;fill-opacity:1;fill-rule:evenodd;stroke:#000000;stroke-width:0;stroke-linecap:round;stroke-linejoin:round;stroke-miterlimit:0;stroke-dasharray:none;paint-order:stroke fill markers"
           id="rect2819-5-1"
           width="28.265999"
           height="50.422039"
           x="110.04196"
           y="117.77956"
           rx="14.132999"
           ry="12.570668" />
      </g>
      <g
         id="g32060">
        <path
           id="rect17332"
           style="fill:#ffff00;fill-opacity:1;fill-rule:evenodd;stroke:#ff8800;stroke-width:0;stroke-linecap:round;stroke-linejoin:round;stroke-miterlimit:4;stroke-dasharray:none;stroke-opacity:0.952941"
           d="M 201.08203 37.794922 C 201.02753 37.794922 200.97437 37.798697 200.91992 37.798828 C 187.71181 37.827564 175.77893 41.383298 165.08203 48.355469 C 164.12607 48.97856 163.18004 49.630043 162.24414 50.308594 C 161.34416 50.961097 160.45369 51.639962 159.57227 52.34375 C 158.66952 53.064559 157.77586 53.811333 156.89258 54.585938 C 155.59828 55.72098 154.30525 56.85687 153.05273 58.107422 C 153.03728 58.122851 153.02131 58.136898 153.00586 58.152344 C 147.91684 63.241718 143.78233 68.715514 140.60156 74.576172 C 139.5416 76.529173 138.58631 78.525784 137.73828 80.564453 C 137.73805 80.565019 137.73852 80.56584 137.73828 80.566406 C 136.89032 82.605071 136.14775 84.686208 135.51172 86.810547 C 134.45322 90.345954 133.75859 94.028052 133.28711 97.800781 C 133.28703 97.801415 133.28719 97.8021 133.28711 97.802734 C 132.90881 100.83256 132.65039 103.91066 132.65039 107.09375 L 132.65039 169.46289 L 132.64844 169.46289 L 132.64844 688.33984 C 132.64844 707.39736 139.43507 723.42272 153.00586 736.41602 C 166.55542 749.38898 182.55194 755.88735 200.99414 755.90625 L 591.83789 755.90625 C 610.8578 755.88569 627.14469 749.10148 640.69531 735.55078 C 654.26658 721.98001 661.05273 705.95461 661.05273 687.47461 L 661.05273 107.0918 C 661.05273 88.034696 654.26654 71.721638 640.69531 58.150391 C 627.14465 44.60018 610.85776 37.815483 591.83789 37.794922 L 503.39844 37.794922 L 567.5 169.46289 L 454.89062 169.46289 L 390.78906 37.794922 L 313.69336 37.794922 L 377.79492 169.46289 L 265.18359 169.46289 L 201.08203 37.794922 z M 133.28711 97.802734 C 132.90861 100.83208 132.64844 103.90941 132.64844 107.0918 C 132.64844 103.90966 132.90831 100.83184 133.28711 97.802734 z M 197.64453 37.875 C 196.68535 37.919794 195.73652 37.993571 194.79102 38.076172 C 195.73631 37.9936 196.68557 37.919785 197.64453 37.875 z M 201.08203 238.76172 L 592.62109 238.76172 L 592.62109 687.69922 L 201.08203 687.69922 L 201.08203 238.76172 z "
           transform="scale(0.26458333)" />
        <rect
           style="fill:#ffff00;fill-opacity:1;fill-rule:evenodd;stroke:#ff8800;stroke-width:0;stroke-linecap:round;stroke-linejoin:round;stroke-miterlimit:4;stroke-dasharray:none;stroke-opacity:0.952941"
           id="rect30288"
           width="28.266001"
           height="28.266001"
           x="90.866997"
           y="76.925369"
           rx="14.133"
           ry="14.133" />
      </g>
    </g>
  </g>
</svg>
