<?xml version="1.0" encoding="UTF-8" standalone="no"?>
<svg
   width="136px"
   height="129px"
   viewBox="0 0 136 129"
   version="1.1"
   id="svg8"
   sodipodi:docname="guilded.svg"
   inkscape:version="1.1.1 (3bf5ae0d25, 2021-09-20)"
   xmlns:inkscape="http://www.inkscape.org/namespaces/inkscape"
   xmlns:sodipodi="http://sodipodi.sourceforge.net/DTD/sodipodi-0.dtd"
   xmlns="http://www.w3.org/2000/svg"
   xmlns:svg="http://www.w3.org/2000/svg"
   xmlns:rdf="http://www.w3.org/1999/02/22-rdf-syntax-ns#"
   xmlns:cc="http://creativecommons.org/ns#"
   xmlns:dc="http://purl.org/dc/elements/1.1/">
  <defs
     id="defs12" />
  <sodipodi:namedview
     id="namedview10"
     pagecolor="#505050"
     bordercolor="#eeeeee"
     borderopacity="1"
     inkscape:pageshadow="0"
     inkscape:pageopacity="0"
     inkscape:pagecheckerboard="0"
     showgrid="false"
     inkscape:zoom="5.8874382"
     inkscape:cx="67.941265"
     inkscape:cy="64.459276"
     inkscape:window-width="1920"
     inkscape:window-height="1005"
     inkscape:window-x="-9"
     inkscape:window-y="-9"
     inkscape:window-maximized="1"
     inkscape:current-layer="svg8" />
  <!-- Generator: Sketch 56.2 (81672) - https://sketch.com -->
  <title
     id="title2">Logomark / Guilded-Wordmark-White</title>
  <desc
     id="desc4">Created with Sketch.</desc>
  <g
     id="Logomark-/-Guilded-Wordmark-White"
     stroke="none"
     stroke-width="1"
     fill="none"
     fill-rule="evenodd"
     transform="matrix(1.8888809,0,0,1.8888809,-60.444188,-59.221699)">
    <path
       d="m 47.890329,48.264151 c 0,0 0.06,8.539472 4.44478,17.371358 4.50478,8.501434 10.715952,13.962227 15.839929,16.13751 5.294376,-2.47483 10.408753,-6.770717 13.199941,-11.399434 H 66.840644 C 63.079861,67.256868 60.120674,62.086113 59.441477,56.109434 H 102.07969 C 99.977296,65.718717 95.515716,74.457887 91.265335,80.023283 85.365875,87.739919 77.366483,93.629283 68.206238,97 h -0.1344 C 52.779107,90.90683 44.551944,81.309434 39.123168,70.480566 35.640784,63.541057 32,50.941057 32,34 h 72 c 0.0116,4.770941 -0.30912,9.537003 -0.96032,14.264151 z"
       id="Path"
       fill="#ffffff"
       fill-rule="nonzero" />
  </g>
  <metadata
     id="metadata829">
    <rdf:RDF>
      <cc:Work
         rdf:about="">
        <dc:title>Logomark / Guilded-Wordmark-White</dc:title>
      </cc:Work>
    </rdf:RDF>
  </metadata>
</svg>
