<?xml version="1.0" encoding="UTF-8" standalone="no"?>
<!-- Created with Inkscape (http://www.inkscape.org/) -->

<svg
   width="24mm"
   height="24mm"
   viewBox="0 0 24 24"
   version="1.1"
   id="svg828"
   sodipodi:docname="Spay_Chat_selected.svg"
   inkscape:version="1.1.1 (3bf5ae0d25, 2021-09-20)"
   xmlns:inkscape="http://www.inkscape.org/namespaces/inkscape"
   xmlns:sodipodi="http://sodipodi.sourceforge.net/DTD/sodipodi-0.dtd"
   xmlns="http://www.w3.org/2000/svg"
   xmlns:svg="http://www.w3.org/2000/svg">
  <sodipodi:namedview
     id="namedview830"
     pagecolor="#505050"
     bordercolor="#eeeeee"
     borderopacity="1"
     inkscape:pageshadow="0"
     inkscape:pageopacity="0"
     inkscape:pagecheckerboard="0"
     inkscape:document-units="mm"
     showgrid="false"
     showguides="true"
     inkscape:guide-bbox="true"
     inkscape:zoom="8"
     inkscape:cx="44.375"
     inkscape:cy="44.0625"
     inkscape:window-width="1920"
     inkscape:window-height="1005"
     inkscape:window-x="-9"
     inkscape:window-y="-9"
     inkscape:window-maximized="1"
     inkscape:current-layer="layer1" />
  <defs
     id="defs825" />
  <g
     inkscape:label="Layer 1"
     inkscape:groupmode="layer"
     id="layer1">
    <g
       id="g1020">
      <path
         id="rect2215"
         style="fill:#ffffff;fill-opacity:1;fill-rule:evenodd;stroke:#000000;stroke-width:0;stroke-linecap:round;stroke-linejoin:round;stroke-miterlimit:0;stroke-dasharray:none;paint-order:stroke fill markers"
         d="M 3.9212075,3.1770244 C 1.7488264,3.1770244 0,4.9258509 0,7.0982321 v 9.8035359 c 0,2.172381 1.7488264,3.921208 3.9212075,3.921208 H 17.645434 c 2.172382,0 3.921725,-1.748827 3.921725,-3.921208 V 7.0982321 c 0,-2.1723812 -1.749343,-3.9212077 -3.921725,-3.9212077 z m 0.8299236,9.1379436 c 0.7350876,0 1.326534,0.526462 1.326534,1.180289 v 2.373499 c 0,0.653827 -0.5914464,1.18029 -1.326534,1.18029 -0.7350874,0 -1.3270508,-0.526463 -1.3270508,-1.18029 v -2.373499 c 0,-0.653827 0.5919634,-1.180289 1.3270508,-1.180289 z m 4.0441977,0 c 0.7350871,0 1.3270512,0.526462 1.3270502,1.180289 v 2.373499 c 0,0.653827 -0.5919631,1.18029 -1.3270502,1.18029 -0.7350876,0 -1.326534,-0.526463 -1.326534,-1.18029 v -2.373499 c 0,-0.653827 0.5914464,-1.180289 1.326534,-1.180289 z" />
      <g
         id="g1014">
        <circle
           style="fill:#ffffff;fill-opacity:1;fill-rule:evenodd;stroke:#000000;stroke-width:0;stroke-linecap:round;stroke-linejoin:round;stroke-miterlimit:4;stroke-dasharray:none;paint-order:stroke fill markers"
           id="path1468"
           cx="23.109505"
           cy="4.0745459"
           r="0.89049637" />
        <path
           style="fill:#ffffff;fill-opacity:1;stroke:#000000;stroke-width:0;stroke-linecap:butt;stroke-linejoin:miter;stroke-miterlimit:4;stroke-dasharray:none;stroke-opacity:1"
           d="M 23.791763,4.6400008 21.56091,7.7534942 17.875684,3.1772162 h 5.253595 z"
           id="path3522" />
      </g>
    </g>
  </g>
</svg>
