<?xml version="1.0" encoding="UTF-8" standalone="no"?>
<svg
   width="210"
   height="210"
   viewBox="0 0 24 24"
   version="1.1"
   id="svg6"
   sodipodi:docname="Spay_Group_unselected.svg"
   inkscape:version="1.1.1 (3bf5ae0d25, 2021-09-20)"
   xmlns:inkscape="http://www.inkscape.org/namespaces/inkscape"
   xmlns:sodipodi="http://sodipodi.sourceforge.net/DTD/sodipodi-0.dtd"
   xmlns="http://www.w3.org/2000/svg"
   xmlns:svg="http://www.w3.org/2000/svg"
   xmlns:rdf="http://www.w3.org/1999/02/22-rdf-syntax-ns#"
   xmlns:cc="http://creativecommons.org/ns#">
  <defs
     id="defs10" />
  <sodipodi:namedview
     id="namedview8"
     pagecolor="#505050"
     bordercolor="#eeeeee"
     borderopacity="1"
     inkscape:pageshadow="0"
     inkscape:pageopacity="0"
     inkscape:pagecheckerboard="0"
     showgrid="false"
     showguides="true"
     inkscape:guide-bbox="true"
     inkscape:zoom="3"
     inkscape:cx="105"
     inkscape:cy="104.83333"
     inkscape:window-width="1920"
     inkscape:window-height="1005"
     inkscape:window-x="-9"
     inkscape:window-y="-9"
     inkscape:window-maximized="1"
     inkscape:current-layer="svg6" />
  <metadata
     id="metadata827">
    <rdf:RDF>
      <cc:Work
         rdf:about="" />
    </rdf:RDF>
  </metadata>
  <g
     id="g874">
    <path
       id="rect853-4"
       style="fill:#000000;fill-opacity:1;fill-rule:evenodd;stroke-width:0;stroke-linecap:round;stroke-linejoin:round"
       d="m 18.634374,3.542857 c 0.08184,0.3452606 0.12634,0.7053519 0.12634,1.0763393 v 0.7691964 h 0.629688 c 1.530812,0 2.763169,1.2323568 2.763169,2.7631695 v 7.6968748 c 0,1.530813 -1.232357,2.763169 -2.763169,2.763169 h -0.629688 v 0.769197 c 0,0.370987 -0.0445,0.731079 -0.12634,1.076339 h 0.12634 0.620089 c 2.559036,0 4.619196,-2.06016 4.619196,-4.619196 V 8.1620533 c 0,-2.5590363 -2.06016,-4.6191963 -4.619196,-4.6191963 h -0.620089 z" />
    <g
       id="g866">
      <path
         id="rect853"
         style="fill:#000000;fill-opacity:1;fill-rule:evenodd;stroke-width:0;stroke-linecap:round;stroke-linejoin:round"
         d="M 4.6191963,0 C 2.0601597,0 0,2.0601595 0,4.6191963 V 19.380803 c 0,2.559036 2.0601597,4.619196 4.6191963,4.619196 h 7.6758927 c 2.559036,0 4.619196,-2.06016 4.619196,-4.619196 V 4.6191963 C 16.914285,2.0601595 14.854125,0 12.295089,0 Z m -0.010045,1.8455357 h 7.6955367 c 1.530812,0 2.763169,1.2323568 2.763169,2.7631695 V 19.390624 c 0,1.530813 -1.232357,2.763393 -2.763169,2.763393 H 4.6091516 c -1.5308127,0 -2.7631695,-1.23258 -2.7631695,-2.763393 V 4.6087052 c 0,-1.5308127 1.2323568,-2.7631696 2.7631692,-2.7631695 z" />
      <g
         id="g860">
        <rect
           style="fill:#000000;fill-opacity:1;fill-rule:evenodd;stroke:#000000;stroke-width:0;stroke-linecap:round;stroke-linejoin:round;stroke-miterlimit:0;stroke-dasharray:none;paint-order:stroke fill markers"
           id="rect2819"
           width="2.6537278"
           height="4.7338276"
           x="3.691925"
           y="15.573802"
           rx="1.3268639"
           ry="1.1801859" />
        <rect
           style="fill:#000000;fill-opacity:1;fill-rule:evenodd;stroke:#000000;stroke-width:0;stroke-linecap:round;stroke-linejoin:round;stroke-miterlimit:0;stroke-dasharray:none;paint-order:stroke fill markers"
           id="rect2819-7"
           width="2.6537278"
           height="4.7338276"
           x="7.7365975"
           y="15.573804"
           rx="1.3268639"
           ry="1.1801859" />
      </g>
    </g>
  </g>
</svg>
