<?xml version="1.0" encoding="UTF-8" standalone="no"?>
<!-- Created with Inkscape (http://www.inkscape.org/) -->

<svg
   width="24mm"
   height="24mm"
   viewBox="0 0 24 24"
   version="1.1"
   id="svg828"
   sodipodi:docname="Spay_Chat_selected.svg"
   inkscape:version="1.1.1 (3bf5ae0d25, 2021-09-20)"
   xmlns:inkscape="http://www.inkscape.org/namespaces/inkscape"
   xmlns:sodipodi="http://sodipodi.sourceforge.net/DTD/sodipodi-0.dtd"
   xmlns="http://www.w3.org/2000/svg"
   xmlns:svg="http://www.w3.org/2000/svg">
  <sodipodi:namedview
     id="namedview830"
     pagecolor="#505050"
     bordercolor="#eeeeee"
     borderopacity="1"
     inkscape:pageshadow="0"
     inkscape:pageopacity="0"
     inkscape:pagecheckerboard="0"
     inkscape:document-units="mm"
     showgrid="false"
     showguides="true"
     inkscape:guide-bbox="true"
     inkscape:zoom="8"
     inkscape:cx="38.125"
     inkscape:cy="44.0625"
     inkscape:window-width="1920"
     inkscape:window-height="1005"
     inkscape:window-x="-9"
     inkscape:window-y="-9"
     inkscape:window-maximized="1"
     inkscape:current-layer="layer1" />
  <defs
     id="defs825" />
  <g
     inkscape:label="Layer 1"
     inkscape:groupmode="layer"
     id="layer1">
    <g
       id="g1047"
       transform="translate(0,-4.2523818e-5)">
      <path
         id="rect2215"
         style="fill:#000000;fill-opacity:1;fill-rule:evenodd;stroke:#000000;stroke-width:0;stroke-linecap:round;stroke-linejoin:round;stroke-miterlimit:0;stroke-dasharray:none;paint-order:stroke fill markers"
         d="M 14.820312,12.007812 C 6.6097377,12.007812 0,18.61755 0,26.828125 v 37.052734 c 0,8.210576 6.6097377,14.820313 14.820312,14.820313 h 51.871094 c 8.210576,0 14.822266,-6.609737 14.822266,-14.820313 V 26.828125 c 0,-8.210575 -6.61169,-14.820313 -14.822266,-14.820313 z m 3.136719,34.53711 c 2.778284,0 5.013672,1.989779 5.013672,4.460937 v 8.970703 c 0,2.471159 -2.235388,4.460938 -5.013672,4.460938 -2.778283,0 -5.015625,-1.989779 -5.015625,-4.460938 v -8.970703 c 0,-2.471158 2.237342,-4.460937 5.015625,-4.460937 z m 15.285157,0 c 2.778282,0 5.015625,1.989779 5.015624,4.460937 v 8.970703 c 0,2.471159 -2.237342,4.460938 -5.015624,4.460938 -2.778284,0 -5.013672,-1.989779 -5.013672,-4.460938 v -8.970703 c 0,-2.471158 2.235388,-4.460937 5.013672,-4.460937 z"
         transform="scale(0.26458333)" />
      <g
         id="g1041">
        <circle
           style="fill:#000000;fill-opacity:1;fill-rule:evenodd;stroke:#000000;stroke-width:0;stroke-linecap:round;stroke-linejoin:round;stroke-miterlimit:4;stroke-dasharray:none;paint-order:stroke fill markers"
           id="path1468"
           cx="23.109505"
           cy="4.0745883"
           r="0.89049637" />
        <path
           style="fill:#000000;fill-opacity:1;stroke:#000000;stroke-width:0;stroke-linecap:butt;stroke-linejoin:miter;stroke-miterlimit:4;stroke-dasharray:none;stroke-opacity:1"
           d="M 23.791763,4.6400433 21.56091,7.7535367 17.875684,3.1772587 h 5.253595 z"
           id="path3522" />
      </g>
    </g>
  </g>
</svg>
