<?xml version="1.0" encoding="UTF-8" standalone="no"?>
<!-- Created with Inkscape (http://www.inkscape.org/) -->

<svg
   width="210mm"
   height="210mm"
   viewBox="0 0 210 210"
   version="1.1"
   id="svg828"
   sodipodi:docname="Spay_Chat_unselected.svg"
   inkscape:version="1.1.1 (3bf5ae0d25, 2021-09-20)"
   xmlns:inkscape="http://www.inkscape.org/namespaces/inkscape"
   xmlns:sodipodi="http://sodipodi.sourceforge.net/DTD/sodipodi-0.dtd"
   xmlns="http://www.w3.org/2000/svg"
   xmlns:svg="http://www.w3.org/2000/svg">
  <sodipodi:namedview
     id="namedview830"
     pagecolor="#505050"
     bordercolor="#eeeeee"
     borderopacity="1"
     inkscape:pageshadow="0"
     inkscape:pageopacity="0"
     inkscape:pagecheckerboard="0"
     inkscape:document-units="mm"
     showgrid="false"
     showguides="true"
     inkscape:guide-bbox="true"
     inkscape:zoom="0.9"
     inkscape:cx="391.11111"
     inkscape:cy="396.11111"
     inkscape:window-width="1920"
     inkscape:window-height="1005"
     inkscape:window-x="-9"
     inkscape:window-y="-9"
     inkscape:window-maximized="1"
     inkscape:current-layer="layer1" />
  <defs
     id="defs825" />
  <g
     inkscape:label="Layer 1"
     inkscape:groupmode="layer"
     id="layer1">
    <g
       id="g950">
      <g
         id="g937">
        <rect
           style="fill:#000000;fill-opacity:1;fill-rule:evenodd;stroke:#000000;stroke-width:0;stroke-linecap:round;stroke-linejoin:round;stroke-miterlimit:0;stroke-dasharray:none;paint-order:stroke fill markers"
           id="rect2819-9-0"
           width="24.454741"
           height="43.62336"
           x="30.073689"
           y="112.39403"
           rx="12.22737"
           ry="10.875696" />
        <rect
           style="fill:#000000;fill-opacity:1;fill-rule:evenodd;stroke:#000000;stroke-width:0;stroke-linecap:round;stroke-linejoin:round;stroke-miterlimit:0;stroke-dasharray:none;paint-order:stroke fill markers"
           id="rect2819-7-8"
           width="24.454741"
           height="43.62336"
           x="67.346313"
           y="112.39404"
           rx="12.22737"
           ry="10.875696" />
      </g>
      <g
         id="g930">
        <rect
           style="fill:#000000;fill-opacity:1;fill-rule:evenodd;stroke-width:0;stroke-linecap:round;stroke-linejoin:round"
           id="rect1302-9-1-4-9-6"
           width="15.036881"
           height="15.036881"
           x="153.11325"
           y="-38.946671"
           transform="scale(1,-1)"
           ry="7.5184407"
           rx="7.5184407" />
        <g
           id="g921">
          <path
             id="rect1615"
             style="fill:#000000;fill-opacity:1;fill-rule:evenodd;stroke-width:0;stroke-linecap:round;stroke-linejoin:round"
             d="M 36.053612,23.909767 C 16.080008,23.909767 0,39.989259 0,59.962863 v 90.074607 c 0,19.9736 16.080008,36.05309 36.053612,36.05309 H 162.17098 c 19.97359,0 36.05361,-16.07949 36.05361,-36.05309 V 59.962863 c 0,-8.967882 -3.26023,-17.133509 -8.6403,-23.428544 l -2.02882,2.832386 -2.41225,3.39049 c 0,0 -1.95601,2.708039 -1.95182,4.504118 0.004,1.796079 -0.004,6.72207 -0.004,6.72207 v 14.316956 c 0,0.0048 5.3e-4,0.0092 5.3e-4,0.01394 v 73.371751 c 0,16.26984 -13.64037,29.36772 -30.58366,29.36772 H 45.620471 c -16.943295,0 -30.583663,-13.09788 -30.583663,-29.36772 V 68.314291 c 0,-16.269835 13.640368,-29.367715 30.583663,-29.367715 h 104.324379 1.20096 9.48521 V 23.909767 h -9.48521 -1.20096 z" />
          <g
             id="g914">
            <rect
               style="fill:#000000;fill-opacity:1;fill-rule:evenodd;stroke-width:0;stroke-linecap:round;stroke-linejoin:round"
               id="rect1302-9-1-4-6"
               width="15.036881"
               height="15.036881"
               x="194.96312"
               y="-38.94632"
               transform="scale(1,-1)"
               ry="7.5184407"
               rx="7.5184407" />
            <path
               id="rect5879-6"
               style="fill:#000000;fill-opacity:1;fill-rule:evenodd;stroke-width:0;stroke-linecap:round;stroke-linejoin:round"
               d="m 196.43192,26.938198 -1.1651,1.660748 -7.41217,10.347533 -0.0231,0.03188 -2.68805,3.7791 c 0,0 -1.95647,2.707989 -1.95227,4.504068 0.004,1.796081 -0.004,6.721656 -0.004,6.721656 v 17.301075 l 24.30398,-33.928597 1.06534,-1.500842 z" />
          </g>
          <rect
             style="fill:#000000;fill-opacity:1;fill-rule:evenodd;stroke-width:0;stroke-linecap:round;stroke-linejoin:round"
             id="rect1302-9-1-4-2"
             width="15.037319"
             height="20.991167"
             x="183.18701"
             y="-71.284508"
             transform="scale(1,-1)" />
        </g>
      </g>
    </g>
  </g>
</svg>
