<?xml version="1.0" encoding="UTF-8" standalone="no"?>
<svg
   height="24"
   viewBox="0 0 24 24"
   width="24"
   fill="#ffffff"
   version="1.1"
   id="svg970"
   sodipodi:docname="Close.svg"
   inkscape:version="1.1.1 (3bf5ae0d25, 2021-09-20)"
   xmlns:inkscape="http://www.inkscape.org/namespaces/inkscape"
   xmlns:sodipodi="http://sodipodi.sourceforge.net/DTD/sodipodi-0.dtd"
   xmlns="http://www.w3.org/2000/svg"
   xmlns:svg="http://www.w3.org/2000/svg">
  <defs
     id="defs974" />
  <sodipodi:namedview
     id="namedview972"
     pagecolor="#505050"
     bordercolor="#eeeeee"
     borderopacity="1"
     inkscape:pageshadow="0"
     inkscape:pageopacity="0"
     inkscape:pagecheckerboard="0"
     showgrid="false"
     inkscape:zoom="21.114537"
     inkscape:cx="10.561444"
     inkscape:cy="10.91665"
     inkscape:window-width="1920"
     inkscape:window-height="1005"
     inkscape:window-x="-9"
     inkscape:window-y="-9"
     inkscape:window-maximized="1"
     inkscape:current-layer="svg970"
     showguides="true"
     inkscape:guide-bbox="true" />
  <g
     id="g4591"
     transform="scale(0.11428571)">
    <path
       id="rect1296"
       style="fill:#ffffff;fill-opacity:1;fill-rule:evenodd;stroke-width:0;stroke-linecap:round;stroke-linejoin:round;paint-order:stroke fill markers"
       d="m 75,75 v 21.179688 c 0.01808,0.01799 5.188312,5.167222 5.191406,8.746092 0.0031,3.5634 -5.128927,8.75912 -5.191406,8.82227 V 135 h 21.197266 c 0.0222,-0.0223 5.176494,-5.18573 8.753904,-5.18555 3.51811,1.8e-4 8.61425,4.99761 8.80469,5.18555 H 135 v -21.23828 c -0.0444,-0.0442 -5.18647,-5.17445 -5.18945,-8.74414 -0.003,-3.54301 5.0698,-8.701088 5.18945,-8.822268 V 75 h -21.21875 l -0.0117,0.0098 h 0.0215 c 0,0 -5.17268,5.189453 -8.75782,5.189453 -3.56342,0 -8.755335,-5.136758 -8.818356,-5.199219 z" />
    <path
       d="M 210,21.149998 188.85,-1.5e-6 105,83.850001 21.15,-1.5e-6 0,21.149998 83.85,105 0,188.85 21.15,210 105,126.15 188.85,210 210,188.85 126.15,105 Z"
       id="path968"
       style="stroke-width:15" />
  </g>
</svg>
