<?xml version="1.0" encoding="UTF-8" standalone="no"?>
<!-- Created with Inkscape (http://www.inkscape.org/) -->

<svg
   width="210mm"
   height="210mm"
   viewBox="0 0 210 210"
   version="1.1"
   id="svg5"
   inkscape:version="1.1.1 (3bf5ae0d25, 2021-09-20)"
   sodipodi:docname="Spay_Group_unselected.svg"
   xmlns:inkscape="http://www.inkscape.org/namespaces/inkscape"
   xmlns:sodipodi="http://sodipodi.sourceforge.net/DTD/sodipodi-0.dtd"
   xmlns="http://www.w3.org/2000/svg"
   xmlns:svg="http://www.w3.org/2000/svg">
  <sodipodi:namedview
     id="namedview7"
     pagecolor="#505050"
     bordercolor="#eeeeee"
     borderopacity="1"
     inkscape:pageshadow="0"
     inkscape:pageopacity="0"
     inkscape:pagecheckerboard="0"
     inkscape:document-units="mm"
     showgrid="false"
     inkscape:lockguides="false"
     inkscape:snap-grids="true"
     inkscape:snap-to-guides="true"
     inkscape:zoom="0.9"
     inkscape:cx="396.66667"
     inkscape:cy="397.22222"
     inkscape:window-width="1920"
     inkscape:window-height="1005"
     inkscape:window-x="-9"
     inkscape:window-y="-9"
     inkscape:window-maximized="1"
     inkscape:current-layer="layer1"
     height="210mm"
     showguides="true"
     inkscape:guide-bbox="true" />
  <defs
     id="defs2" />
  <g
     inkscape:label="Layer 1"
     inkscape:groupmode="layer"
     id="layer1">
    <g
       id="g3664">
      <path
         id="rect848-7"
         style="fill:#ffff00;fill-opacity:1;fill-rule:evenodd;stroke-width:0;stroke-linecap:round;stroke-linejoin:round"
         d="M 581.97852 135.55469 L 581.97852 194.94336 L 641.51367 194.94336 C 692.92417 194.94336 734.3125 236.33169 734.3125 287.74219 L 734.3125 505.95703 C 734.3125 557.36753 692.92417 598.75586 641.51367 598.75586 L 581.97852 598.75586 L 581.97852 658.14648 L 684.57031 658.14648 C 745.02838 658.14648 793.70117 609.47369 793.70117 549.01562 L 793.70117 244.68555 C 793.70117 184.22748 745.02838 135.55469 684.57031 135.55469 L 581.97852 135.55469 z "
         transform="scale(0.26458333)" />
      <g
         id="g3656">
        <path
           id="rect848"
           style="fill:#ffff00;fill-opacity:1;fill-rule:evenodd;stroke-width:0;stroke-linecap:round;stroke-linejoin:round"
           d="M 109.13086 0 C 48.672795 -1.8947806e-14 3.3772996e-16 48.672795 0 109.13086 L 0 684.57031 C -1.8947806e-14 745.02838 48.672795 793.70117 109.13086 793.70117 L 413.45898 793.70117 C 473.91705 793.70117 522.58984 745.02838 522.58984 684.57031 L 522.58984 109.13086 C 522.58984 48.672795 473.91705 3.3772996e-16 413.45898 0 L 109.13086 0 z M 152.1875 59.384766 L 370.40234 59.384766 C 421.81284 59.384766 463.20117 100.77114 463.20117 152.18164 L 463.20117 641.51758 C 463.20117 692.92808 421.81284 734.31641 370.40234 734.31641 L 152.1875 734.31641 C 100.777 734.31641 59.388672 692.92808 59.388672 641.51758 L 59.388672 152.18164 C 59.388672 100.77114 100.777 59.384766 152.1875 59.384766 z "
           transform="scale(0.26458333)" />
        <g
           id="g888"
           transform="translate(3.741214,-5.5724945)">
          <rect
             style="fill:#ffff00;fill-opacity:1;fill-rule:evenodd;stroke:#000000;stroke-width:0;stroke-linecap:round;stroke-linejoin:round;stroke-miterlimit:0;stroke-dasharray:none;paint-order:stroke fill markers"
             id="rect2819"
             width="31.24095"
             height="55.728878"
             x="25.961803"
             y="128.42052"
             rx="15.620475"
             ry="13.89371" />
          <rect
             style="fill:#ffff00;fill-opacity:1;fill-rule:evenodd;stroke:#000000;stroke-width:0;stroke-linecap:round;stroke-linejoin:round;stroke-miterlimit:0;stroke-dasharray:none;paint-order:stroke fill markers"
             id="rect2819-5"
             width="31.24095"
             height="55.728878"
             x="73.583344"
             y="128.42052"
             rx="15.620475"
             ry="13.89371" />
        </g>
      </g>
    </g>
  </g>
</svg>
