<?xml version="1.0" encoding="UTF-8" standalone="no"?>
<svg
   width="210"
   height="210"
   fill="none"
   viewBox="0 0 210 210"
   class="h-10 w-10"
   version="1.1"
   id="svg4"
   sodipodi:docname="Spay_Chat_selected.svg"
   inkscape:version="1.1.1 (3bf5ae0d25, 2021-09-20)"
   xmlns:inkscape="http://www.inkscape.org/namespaces/inkscape"
   xmlns:sodipodi="http://sodipodi.sourceforge.net/DTD/sodipodi-0.dtd"
   xmlns="http://www.w3.org/2000/svg"
   xmlns:svg="http://www.w3.org/2000/svg">
  <defs
     id="defs8" />
  <sodipodi:namedview
     id="namedview6"
     pagecolor="#505050"
     bordercolor="#eeeeee"
     borderopacity="1"
     inkscape:pageshadow="0"
     inkscape:pageopacity="0"
     inkscape:pagecheckerboard="0"
     showgrid="false"
     height="210px"
     inkscape:zoom="3"
     inkscape:cx="112"
     inkscape:cy="103.5"
     inkscape:window-width="1920"
     inkscape:window-height="1005"
     inkscape:window-x="-9"
     inkscape:window-y="-9"
     inkscape:window-maximized="1"
     inkscape:current-layer="svg4" />
  <g
     id="g857">
    <path
       id="rect2215"
       style="fill:#000000;fill-opacity:1;fill-rule:evenodd;stroke:#000000;stroke-width:0;stroke-linecap:round;stroke-linejoin:round;stroke-miterlimit:0;stroke-dasharray:none;paint-order:stroke fill markers"
       d="M 28.900391,27.800781 C 12.889791,27.800781 0,40.690572 0,56.701172 v 96.599608 c 0,16.0106 12.889791,28.89844 28.900391,28.89844 H 159.81055 c 16.0106,0 28.90039,-12.88784 28.90039,-28.89844 V 56.701172 c 0,-16.0106 -12.88979,-28.900391 -28.90039,-28.900391 z m 16.652343,72.806639 c 7.776453,0 14.03711,5.56953 14.03711,12.48633 v 25.10937 c 0,6.91681 -6.260657,12.48438 -14.03711,12.48438 -7.776452,0 -14.037109,-5.56757 -14.037109,-12.48438 v -25.10937 c 0,-6.9168 6.260657,-12.48633 14.037109,-12.48633 z m 42.822266,0 c 7.776452,0 14.03516,5.56953 14.03516,12.48633 v 25.10742 c 0,6.91681 -6.258708,12.48633 -14.03516,12.48633 -7.776452,0 -14.037109,-5.56952 -14.037109,-12.48633 v -25.10742 c 0,-6.9168 6.260657,-12.48633 14.037109,-12.48633 z" />
    <g
       id="g851">
      <circle
         style="fill:#000000;fill-opacity:1;fill-rule:evenodd;stroke:#000000;stroke-width:0;stroke-linecap:round;stroke-linejoin:round;stroke-miterlimit:4;stroke-dasharray:none;paint-order:stroke fill markers"
         id="path1468"
         cx="202.20816"
         cy="35.652634"
         r="7.7918434" />
      <path
         style="fill:#000000;fill-opacity:1;stroke:#000000;stroke-width:0;stroke-linecap:butt;stroke-linejoin:miter;stroke-miterlimit:4;stroke-dasharray:none;stroke-opacity:1"
         d="M 208.17792,40.600378 188.65797,67.843446 156.41224,27.801013 h 45.96895 z"
         id="path3522" />
    </g>
  </g>
</svg>
