<?xml version="1.0" encoding="UTF-8" standalone="no"?>
<svg
   width="210"
   height="210"
   viewBox="0 0 210 210"
   version="1.1"
   id="svg9"
   sodipodi:docname="guilded.svg"
   inkscape:version="1.1.1 (3bf5ae0d25, 2021-09-20)"
   xmlns:inkscape="http://www.inkscape.org/namespaces/inkscape"
   xmlns:sodipodi="http://sodipodi.sourceforge.net/DTD/sodipodi-0.dtd"
   xmlns="http://www.w3.org/2000/svg"
   xmlns:svg="http://www.w3.org/2000/svg"
   xmlns:rdf="http://www.w3.org/1999/02/22-rdf-syntax-ns#"
   xmlns:cc="http://creativecommons.org/ns#"
   xmlns:dc="http://purl.org/dc/elements/1.1/">
  <title
     id="title826">Guilded</title>
  <defs
     id="defs13" />
  <sodipodi:namedview
     id="namedview11"
     pagecolor="#505050"
     bordercolor="#eeeeee"
     borderopacity="1"
     inkscape:pageshadow="0"
     inkscape:pageopacity="0"
     inkscape:pagecheckerboard="0"
     showgrid="false"
     width="210px"
     inkscape:zoom="3.1550388"
     inkscape:cx="101.10811"
     inkscape:cy="101.58354"
     inkscape:window-width="1920"
     inkscape:window-height="1005"
     inkscape:window-x="-9"
     inkscape:window-y="-9"
     inkscape:window-maximized="1"
     inkscape:current-layer="svg9" />
  <!-- Generator: Sketch 56.2 (81672) - https://sketch.com -->
  <desc
     id="desc4">Created with Sketch.</desc>
  <g
     id="g974">
    <rect
       id="Rectangle"
       fill="#f5c400"
       x="0"
       y="0"
       width="210"
       height="210"
       style="fill:#4c4d4f;fill-opacity:1;fill-rule:evenodd;stroke:none;stroke-width:1.58546" />
    <path
       d="m 73.948071,78.385826 c 0,0 0.09265,13.18595 6.863263,26.823414 6.95591,13.12721 16.54669,21.55932 24.458716,24.91821 8.17514,-3.82143 16.07234,-10.45478 20.38226,-17.60206 H 103.20959 C 97.402495,107.71281 92.833162,99.728556 91.784402,90.499865 h 65.838418 c -3.24634,14.837855 -10.13555,28.332165 -16.69864,36.925785 -9.10946,11.9154 -21.46146,21.00927 -35.60595,26.21405 H 105.1107 C 81.496919,144.23113 68.793212,129.41162 60.410543,112.69058 55.033333,101.97516 49.411534,82.519284 49.411534,56.360299 H 160.588 c 0.0179,7.366894 -0.47731,14.726254 -1.48284,22.025527 z"
       id="Path"
       fill="#111820"
       fill-rule="nonzero"
       style="fill:#f5c400;fill-opacity:1;stroke:none;stroke-width:1.54412" />
  </g>
  <metadata
     id="metadata830">
    <rdf:RDF>
      <cc:Work
         rdf:about="">
        <dc:title>Guilded</dc:title>
      </cc:Work>
    </rdf:RDF>
  </metadata>
</svg>
