<?xml version="1.0" encoding="UTF-8" standalone="no"?>
<svg
   viewBox="0 0 210 210"
   version="1.1"
   id="svg6"
   sodipodi:docname="youtube.svg"
   width="210"
   height="210"
   inkscape:version="1.1.1 (3bf5ae0d25, 2021-09-20)"
   xmlns:inkscape="http://www.inkscape.org/namespaces/inkscape"
   xmlns:sodipodi="http://sodipodi.sourceforge.net/DTD/sodipodi-0.dtd"
   xmlns="http://www.w3.org/2000/svg"
   xmlns:svg="http://www.w3.org/2000/svg"
   xmlns:rdf="http://www.w3.org/1999/02/22-rdf-syntax-ns#"
   xmlns:cc="http://creativecommons.org/ns#"
   xmlns:dc="http://purl.org/dc/elements/1.1/">
  <title
     id="title827">YouTube</title>
  <defs
     id="defs10" />
  <sodipodi:namedview
     id="namedview8"
     pagecolor="#505050"
     bordercolor="#eeeeee"
     borderopacity="1"
     inkscape:pageshadow="0"
     inkscape:pageopacity="0"
     inkscape:pagecheckerboard="0"
     showgrid="false"
     inkscape:zoom="2"
     inkscape:cx="79"
     inkscape:cy="97.75"
     inkscape:window-width="1920"
     inkscape:window-height="1005"
     inkscape:window-x="-9"
     inkscape:window-y="-9"
     inkscape:window-maximized="1"
     inkscape:current-layer="svg6" />
  <g
     id="g1043">
    <rect
       style="fill:#4c4d4f;fill-rule:evenodd;stroke:#ffa47b;stroke-width:0;stroke-linecap:round;stroke-linejoin:round;stroke-opacity:0.99177"
       id="rect845"
       width="210"
       height="210"
       x="0"
       y="2.2826086e-06" />
    <g
       id="g829"
       transform="matrix(1.988546,0,0,1.988546,39.616608,45.34362)">
      <path
         fill="#ff0000"
         d="M 63,14.87 C 62.28,12.17 60.15,10.04 57.44,9.31 52.54,8 32.88,8 32.88,8 32.88,8 13.23,8 8.32,9.31 5.62,10.03 3.49,12.16 2.76,14.87 1.45,19.77 1.45,30 1.45,30 c 0,0 0,10.23 1.31,15.13 0.72,2.7 2.85,4.83 5.56,5.56 C 13.23,52 32.88,52 32.88,52 c 0,0 19.66,0 24.56,-1.31 2.7,-0.72 4.83,-2.85 5.56,-5.56 1.31,-4.9 1.31,-15.13 1.31,-15.13 0,0 0,-10.23 -1.31,-15.13 z"
         id="path2" />
      <polygon
         fill="#ffffff"
         points="42.93,30 26.6,20.57 26.6,39.43 "
         id="polygon4" />
    </g>
  </g>
  <metadata
     id="metadata825">
    <rdf:RDF>
      <cc:Work
         rdf:about="">
        <dc:title>YouTube</dc:title>
      </cc:Work>
    </rdf:RDF>
  </metadata>
</svg>
