<?xml version="1.0" encoding="UTF-8" standalone="no"?>
<!-- Created with Inkscape (http://www.inkscape.org/) -->

<svg
   width="210mm"
   height="210mm"
   viewBox="0 0 210 210"
   version="1.1"
   id="svg5"
   inkscape:version="1.1.1 (3bf5ae0d25, 2021-09-20)"
   sodipodi:docname="Spay_selected.svg"
   xmlns:inkscape="http://www.inkscape.org/namespaces/inkscape"
   xmlns:sodipodi="http://sodipodi.sourceforge.net/DTD/sodipodi-0.dtd"
   xmlns="http://www.w3.org/2000/svg"
   xmlns:svg="http://www.w3.org/2000/svg">
  <sodipodi:namedview
     id="namedview7"
     pagecolor="#505050"
     bordercolor="#eeeeee"
     borderopacity="1"
     inkscape:pageshadow="0"
     inkscape:pageopacity="0"
     inkscape:pagecheckerboard="0"
     inkscape:document-units="mm"
     showgrid="false"
     inkscape:lockguides="false"
     inkscape:snap-grids="true"
     inkscape:snap-to-guides="true"
     inkscape:zoom="0.9"
     inkscape:cx="404.44444"
     inkscape:cy="397.22222"
     inkscape:window-width="1920"
     inkscape:window-height="1005"
     inkscape:window-x="-9"
     inkscape:window-y="-9"
     inkscape:window-maximized="1"
     inkscape:current-layer="layer1"
     height="210mm" />
  <defs
     id="defs2" />
  <g
     inkscape:label="Layer 1"
     inkscape:groupmode="layer"
     id="layer1">
    <path
       id="rect866"
       style="fill:#ffff00;fill-opacity:1;fill-rule:evenodd;stroke-width:0;stroke-linecap:round;stroke-linejoin:round"
       d="M 109.22852 0 C 48.715996 0 -6.6317322e-14 48.715996 0 109.22852 L 0 684.47266 C 0 744.98512 48.715996 793.70117 109.22852 793.70117 L 684.47266 793.70117 C 744.98516 793.70117 793.70117 744.98512 793.70117 684.47266 L 793.70117 109.22852 C 793.70117 48.715996 744.98516 -1.8947806e-14 684.47266 0 L 109.22852 0 z M 177.80664 464.30664 C 210.5137 464.30664 236.84375 487.7269 236.84375 516.81836 L 236.84375 622.42383 C 236.84375 651.51529 210.5137 674.93555 177.80664 674.93555 C 145.09958 674.93555 118.76758 651.51529 118.76758 622.42383 L 118.76758 516.81836 C 118.76758 487.7269 145.09958 464.30664 177.80664 464.30664 z M 357.79297 464.30664 C 390.50003 464.30664 416.83008 487.7269 416.83008 516.81836 L 416.83008 622.42383 C 416.83008 651.51529 390.50003 674.93555 357.79297 674.93555 C 325.08591 674.93555 298.75391 651.51529 298.75391 622.42383 L 298.75391 516.81836 C 298.75391 487.7269 325.08591 464.30664 357.79297 464.30664 z "
       transform="scale(0.26458333)" />
    <g
       id="g1064">
      <g
         id="g832"
         transform="matrix(1.6153846,0,0,1.6153846,-64.615383,-64.615383)" />
    </g>
  </g>
</svg>
