<?xml version="1.0" encoding="UTF-8" standalone="no"?>
<svg
   width="210"
   height="210"
   fill="none"
   viewBox="0 0 210 210"
   class="h-10 w-10"
   version="1.1"
   id="svg4"
   sodipodi:docname="Spay_Watch_selected.svg"
   inkscape:version="1.1.1 (3bf5ae0d25, 2021-09-20)"
   xmlns:inkscape="http://www.inkscape.org/namespaces/inkscape"
   xmlns:sodipodi="http://sodipodi.sourceforge.net/DTD/sodipodi-0.dtd"
   xmlns="http://www.w3.org/2000/svg"
   xmlns:svg="http://www.w3.org/2000/svg">
  <defs
     id="defs8" />
  <sodipodi:namedview
     id="namedview6"
     pagecolor="#505050"
     bordercolor="#eeeeee"
     borderopacity="1"
     inkscape:pageshadow="0"
     inkscape:pageopacity="0"
     inkscape:pagecheckerboard="0"
     showgrid="false"
     height="210px"
     inkscape:zoom="3"
     inkscape:cx="111.33333"
     inkscape:cy="100.83333"
     inkscape:window-width="1920"
     inkscape:window-height="1005"
     inkscape:window-x="-9"
     inkscape:window-y="-9"
     inkscape:window-maximized="1"
     inkscape:current-layer="svg4" />
  <g
     id="g881">
    <path
       id="rect881"
       style="fill:#ffff00;fill-opacity:1;fill-rule:evenodd;stroke-width:0;stroke-linecap:round;stroke-linejoin:round"
       d="M 8.7734375,58.349609 C 3.9121814,58.349599 0,62.261781 0,67.123047 v 21.179687 c 0,0.007 0.00195313,0.01604 0.00195313,0.02344 v 2.125 C 0.00186312,90.465772 0,90.481494 0,90.496094 v 75.693356 c 0,17.80828 14.336256,32.14649 32.144531,32.14649 H 177.85352 C 195.6618,198.33594 210,183.99773 210,166.18945 V 90.496094 c 0,-0.0146 -0.002,-0.03032 -0.002,-0.04492 v -2.125 c 8e-5,-0.007 0.002,-0.01604 0.002,-0.02344 V 67.123047 c 0,-4.861266 -3.91414,-8.773438 -8.77539,-8.773438 H 177.85352 32.144531 Z M 52.285156,101.60938 c 9.575342,0 17.285157,6.85621 17.285156,15.37304 v 30.91797 c 0,8.51684 -7.709814,15.37305 -17.285156,15.37305 -9.575341,0 -17.283203,-6.85621 -17.283203,-15.37305 v -30.91797 c 0,-8.51683 7.707862,-15.37304 17.283203,-15.37304 z m 52.693364,0 c 9.57534,0 17.28515,6.85621 17.28515,15.37304 v 30.91797 c 0,8.51684 -7.70981,15.37305 -17.28515,15.37305 -9.575346,0 -17.283208,-6.85621 -17.283208,-15.37305 v -30.91797 c 0,-8.51683 7.707862,-15.37304 17.283208,-15.37304 z" />
    <path
       id="rect6621"
       style="fill:#ffff00;fill-opacity:1;fill-rule:evenodd;stroke-width:0;stroke-linecap:round;stroke-linejoin:round"
       d="m 177.89857,11.6647 -145.814961,0.04846 -1.9616,0.06794 A 32.084388,32.084388 0 0 0 -1.6077441e-4,43.809789 l 0.006000004,20.60528 0.007,1e-4 0.002,2.77967 a 8.7502879,8.7501599 89.911289 0 0 7.53344997,8.65395 c 0.85851,-0.007 1.43058,-0.0345 2.38469,-0.0347 l 175.0292308,-0.0491 c 2.58316,-7.7e-4 4.39726,0.0507 6.59971,0.0808 l 9.69418,-0.002 1.18803,-0.0812 a 8.7502879,8.7502879 0 0 0 7.55603,-8.67409 l -0.0171,-23.33109 -0.0465,-1.95475 -0.007,-0.0153 a 32.084388,32.084388 0 0 0 -24.04212,-29.109861 32.084388,32.084388 0 0 0 -7.98869,-1.012363 z m -12.20987,17.512472 -29.15895,29.174747 -32.97515,-0.003 29.15422,-29.151058 z m -57.73951,0.02811 -29.143681,29.166367 -32.98376,-0.005 29.14991,-29.15112 z m -57.724091,0.01118 -0.002,0.0089 -29.15211,29.153257 -3.58162,0.005 -8.3e-4,-14.57687 0.0775,-1.4944 a 14.583813,14.583813 0 0 1 14.49851,-13.081193 z m 136.936921,3.283583 a 14.560479,14.560479 0 0 1 5.31853,11.268074 l -0.01,14.56159 -31.16851,0.0168 z" />
  </g>
</svg>
