<?xml version="1.0" encoding="UTF-8" standalone="no"?>
<!-- Created with Inkscape (http://www.inkscape.org/) -->

<svg
   width="210mm"
   height="210mm"
   viewBox="0 0 210 210"
   version="1.1"
   id="svg5"
   inkscape:version="1.1.1 (3bf5ae0d25, 2021-09-20)"
   sodipodi:docname="messenger.svg"
   xmlns:inkscape="http://www.inkscape.org/namespaces/inkscape"
   xmlns:sodipodi="http://sodipodi.sourceforge.net/DTD/sodipodi-0.dtd"
   xmlns="http://www.w3.org/2000/svg"
   xmlns:svg="http://www.w3.org/2000/svg"
   xmlns:rdf="http://www.w3.org/1999/02/22-rdf-syntax-ns#"
   xmlns:cc="http://creativecommons.org/ns#"
   xmlns:dc="http://purl.org/dc/elements/1.1/">
  <title
     id="title2045">Messenger</title>
  <sodipodi:namedview
     id="namedview7"
     pagecolor="#505050"
     bordercolor="#eeeeee"
     borderopacity="1"
     inkscape:pageshadow="0"
     inkscape:pageopacity="0"
     inkscape:pagecheckerboard="0"
     inkscape:document-units="mm"
     showgrid="false"
     inkscape:zoom="0.72515432"
     inkscape:cx="397.15684"
     inkscape:cy="400.60438"
     inkscape:window-width="1920"
     inkscape:window-height="1005"
     inkscape:window-x="-9"
     inkscape:window-y="-9"
     inkscape:window-maximized="1"
     inkscape:current-layer="layer1" />
  <defs
     id="defs2">
    <radialGradient
       cx="265.97926"
       cy="917.72096"
       fx="265.97926"
       fy="917.72096"
       r="871.67593"
       id="radialGradient-1"
       gradientUnits="userSpaceOnUse">
      <stop
         stop-color="#0099FF"
         offset="0%"
         id="stop2003" />
      <stop
         stop-color="#A033FF"
         offset="60.9753877%"
         id="stop2005" />
      <stop
         stop-color="#FF5280"
         offset="93.482299%"
         id="stop2007" />
      <stop
         stop-color="#FF7061"
         offset="100%"
         id="stop2009" />
    </radialGradient>
  </defs>
  <g
     inkscape:label="Layer 1"
     inkscape:groupmode="layer"
     id="layer1">
    <g
       id="g2041">
      <rect
         style="fill:#4c4d4f;fill-rule:evenodd;stroke-width:0;stroke-linecap:round;stroke-linejoin:round;fill-opacity:1"
         id="rect846"
         width="210"
         height="210"
         x="0"
         y="0" />
      <g
         id="g2019"
         stroke="none"
         stroke-width="1"
         fill="none"
         fill-rule="evenodd"
         transform="matrix(0.17578125,0,0,0.17578125,15,15)">
        <rect
           id="bounding-box"
           fill-opacity="0"
           fill="#ffffff"
           x="0"
           y="0"
           width="1024"
           height="1024" />
        <g
           id="logo">
          <path
             d="m 512,122 c -225.332,0 -400,165.056 -400,388 0,116.6144 47.792,217.3824 125.6224,286.984 6.5336,5.848 10.4776,14.04 10.7456,22.808 l 2.1784,71.152 c 0.696,22.696 24.1392,37.464 44.9072,28.296 l 79.3944,-35.048 c 6.7304,-2.968 14.272,-3.52 21.364,-1.568 C 432.696,892.656 471.5264,898 512,898 737.332,898 912,732.944 912,510 912,287.056 737.332,122 512,122 Z"
             id="Path"
             fill="url(#radialGradient-1)"
             style="fill:url(#radialGradient-1)" />
          <path
             d="m 271.8016,623.4688 117.5,-186.416 c 18.6904,-29.656 58.7144,-37.04 86.7584,-16.008 l 93.4536,70.0904 c 8.5744,6.432 20.372,6.3976 28.9104,-0.0824 l 126.2136,-95.788 c 16.8464,-12.784 38.836,7.376 27.5624,25.2664 L 634.7,606.9488 c -18.692,29.6544 -58.716,37.04 -86.7584,16.0064 l -93.456,-70.092 c -8.5736,-6.4304 -20.372,-6.396 -28.9096,0.084 l -126.2144,95.788 c -16.8456,12.7832 -38.836,-7.3768 -27.56,-25.2664 z"
             id="path2016"
             fill="#ffffff" />
        </g>
      </g>
    </g>
  </g>
  <metadata
     id="metadata2043">
    <rdf:RDF>
      <cc:Work
         rdf:about="">
        <dc:title>Messenger</dc:title>
      </cc:Work>
    </rdf:RDF>
  </metadata>
</svg>
