<?xml version="1.0" encoding="UTF-8" standalone="no"?>
<!-- Created with Inkscape (http://www.inkscape.org/) -->

<svg
   width="210mm"
   height="210mm"
   viewBox="0 0 210 210"
   version="1.1"
   id="svg5"
   inkscape:version="1.1.1 (3bf5ae0d25, 2021-09-20)"
   sodipodi:docname="omlet_arcade.svg"
   xmlns:inkscape="http://www.inkscape.org/namespaces/inkscape"
   xmlns:sodipodi="http://sodipodi.sourceforge.net/DTD/sodipodi-0.dtd"
   xmlns="http://www.w3.org/2000/svg"
   xmlns:svg="http://www.w3.org/2000/svg">
  <sodipodi:namedview
     id="namedview7"
     pagecolor="#505050"
     bordercolor="#eeeeee"
     borderopacity="1"
     inkscape:pageshadow="0"
     inkscape:pageopacity="0"
     inkscape:pagecheckerboard="0"
     inkscape:document-units="mm"
     showgrid="false"
     inkscape:zoom="0.51276154"
     inkscape:cx="368.59239"
     inkscape:cy="459.27782"
     inkscape:window-width="1920"
     inkscape:window-height="1005"
     inkscape:window-x="-9"
     inkscape:window-y="-9"
     inkscape:window-maximized="1"
     inkscape:current-layer="layer1" />
  <defs
     id="defs2" />
  <g
     inkscape:label="Layer 1"
     inkscape:groupmode="layer"
     id="layer1">
    <g
       id="g3886">
      <rect
         style="fill:#4d4d4d;fill-opacity:1;fill-rule:evenodd;stroke-width:0;stroke-linecap:round;stroke-linejoin:round"
         id="rect2348"
         width="210"
         height="210"
         x="-2.8421709e-14"
         y="-8.8817842e-15" />
      <path
         id="rect956"
         style="fill:#fe724f;fill-rule:evenodd;stroke-width:0;stroke-linecap:round;stroke-linejoin:round;fill-opacity:1"
         d="M 260.54492 200.83594 C 256.77633 200.8911 253.01209 201.09051 249.25586 201.45703 C 236.71909 202.68024 224.79301 204.12992 212.89453 208.84375 C 190.88256 217.56372 172.12197 235.66045 157.67578 253.82422 C 152.91603 259.8088 150.06255 266.92735 145.88281 273.24805 C 119.33598 313.39358 104.46518 359.53347 95.158203 406.35938 C 94.536471 409.48746 92.956959 412.3151 92.376953 415.45312 C 90.422068 426.03164 90.459509 436.60206 89.101562 447.16406 C 88.242136 453.85677 86.298961 460.30608 86 467.12695 C 85.715175 473.63779 85.598712 480.51581 86.515625 486.96875 C 87.113773 491.17287 88.669904 495.11735 89.173828 499.37109 C 89.629601 503.22799 89.246378 507.07602 89.816406 510.94531 C 93.897767 538.65042 103.83455 566.54534 126.91016 583.74219 C 143.79077 596.32563 168.07433 596.07677 187.26367 589.75195 C 196.38174 586.74662 204.95734 581.78726 213.7207 577.91797 C 221.88592 574.31324 230.08306 570.82809 238.10938 566.85547 C 244.99556 563.44501 252.09098 559.96055 259.19336 557.05859 C 275.41834 550.4279 291.73509 544.49922 308.79883 540.39844 C 311.50981 539.7453 313.96603 538.19136 316.6543 537.625 C 328.8438 535.07027 342.07595 532.90837 354.50977 531.73438 C 356.23898 531.56902 357.81311 532.51457 359.64648 532.25 C 374.0873 530.15414 387.96968 527.19902 402.63867 527.48438 C 407.0284 527.57119 410.40254 529.11376 414.62695 529.7793 C 417.36356 530.20903 420.14965 529.73796 422.89453 530.03125 C 427.62778 530.53975 432.249 532.01895 436.94922 532.66797 C 441.02933 533.22998 445.23639 532.38614 449.34961 533.03516 C 452.91711 533.59736 456.16764 535.64387 459.68555 536.08203 C 465.62591 536.82199 471.98231 536.22723 477.87305 537.5625 C 479.68782 537.97587 481.03988 539.39321 482.83398 539.91406 C 490.04755 541.99753 497.50162 543.41995 504.74414 545.61914 C 531.47368 553.74633 556.82208 566.29654 582.04688 578.11523 C 593.79531 583.6174 605.55294 590.62006 618.42578 593.40625 C 621.92717 594.16696 626.01428 593.62109 629.58594 593.62109 C 634.69541 593.62109 640.23508 594.22561 645.29492 593.49805 C 683.34297 588.01652 700.58622 544.28777 705.97266 511.35742 C 707.06811 504.64819 706.47656 497.47314 706.47656 490.68945 C 706.47656 472.28554 707.86479 453.3074 705.99219 434.88281 C 704.94632 424.58122 702.80223 413.13532 700.54102 403.05078 C 700.05735 400.89577 698.76998 399.01823 698.33594 396.84961 C 693.73081 373.7951 686.898 350.54332 678.17969 328.64258 C 676.95607 325.56449 674.88937 322.96872 673.59961 319.96094 C 665.8817 302.00017 657.71671 283.16521 647.07617 266.63477 C 640.00728 255.65645 631.16183 245.31406 622.36914 235.70117 C 615.87485 228.60129 606.36326 221.91722 598.16992 216.94336 C 562.16818 195.08809 517.5877 199.21121 478.28711 208.65625 C 469.97804 210.65331 462.14964 214.18849 453.89844 216.29883 C 444.1756 218.787 433.94442 220.07652 424.13477 222.32617 C 418.2895 223.66594 412.86522 225.4704 406.77148 226.05078 C 399.29497 226.76307 392.17823 225.15664 384.86133 224.90039 C 382.98827 224.83466 381.27411 226.01446 379.48828 225.86328 C 376.56107 225.61523 374.10407 222.90319 371.2207 222.24219 C 360.26227 219.7288 349.39115 217.37911 338.5625 214.31055 C 313.48824 207.20544 286.92504 200.44977 260.54492 200.83594 z M 254.29102 320.89453 C 262.06393 321.10069 269.60702 325.9656 272.79492 333.18945 C 277.11727 342.9838 274.07187 356.97931 274.90234 367.5 C 282.60623 367.5 290.32131 367.08594 298.05078 367.08594 C 301.06439 367.08594 305.17282 366.38082 307.97266 367.67969 C 313.90187 370.42996 321.57567 379.62944 321.57812 386.51562 C 321.57896 389.82146 319.73863 393.53924 318.30664 396.4375 C 317.10452 398.87027 316.0048 401.24081 313.75391 402.86914 C 306.72553 407.95378 296.70694 406.35938 288.54297 406.35938 C 285.45045 406.35937 279.88027 405.26471 277.54297 407.69336 C 273.96141 411.41506 274.48828 416.52762 274.48828 421.24023 C 274.48828 431.84355 275.5087 447.78767 262.91406 452.14062 C 259.88768 453.18638 256.55792 453.08543 253.40625 453.07031 C 245.24398 453.02896 237.70216 447.7222 235.64844 439.42969 C 234.34382 434.16314 235.2168 427.88342 235.2168 422.48047 C 235.2168 418.77241 236.36976 412.43633 233.86133 409.37109 C 230.48273 405.24219 224.26756 406.35938 219.50781 406.35938 C 208.65395 406.35938 197.66642 408.73043 191.76367 397.67773 C 190.85587 395.97831 190.01584 394.17122 189.5293 392.30273 C 187.02997 382.70266 192.56463 371.00019 202.14648 367.51367 C 207.21751 365.66832 214.96452 367.08594 220.33398 367.08594 C 223.39389 367.08594 232.97329 369.02755 234.94141 366.5625 C 237.06667 363.90115 235.36357 360.15521 235.23242 357.16602 C 234.93807 350.44726 233.19055 338.70415 236.6543 332.77539 C 238.29832 329.96187 241.16213 325.46831 243.93555 323.7168 C 247.17714 321.66964 250.75787 320.80082 254.29102 320.89453 z M 556.71094 328.63867 C 563.10121 328.64506 568.92297 331.48419 574.60547 334.32617 C 589.198 341.62285 600.24034 353.48241 605.27539 369.1543 C 606.24684 372.1683 607.81727 375.03768 608.05273 378.24805 C 608.63561 386.21397 609.38463 396.50821 607.57812 404.29102 C 601.40215 430.92546 578.8763 449.09044 552.2832 452.5918 C 525.33872 456.13866 498.10922 439.07321 488.17969 413.79883 C 483.41748 401.67709 483.1621 388.63446 485.96484 376.18164 C 486.72959 372.78899 487.06691 368.59933 488.47656 365.43359 C 494.67733 351.52565 506.02875 340.01975 519.625 333.45312 C 522.21696 332.20097 524.65705 330.35941 527.48047 329.67773 C 536.02927 327.6137 545.26466 329.95488 553.9375 328.81641 C 554.87485 328.69337 555.79804 328.63776 556.71094 328.63867 z "
         transform="scale(0.26458333)" />
    </g>
  </g>
</svg>
