<?xml version="1.0" encoding="UTF-8" standalone="no"?>
<!-- Generator: Adobe Illustrator 21.1.0, SVG Export Plug-In . SVG Version: 6.00 Build 0)  -->

<svg
   version="1.1"
   x="0px"
   y="0px"
   viewBox="0 0 210.00001 210.00001"
   xml:space="preserve"
   id="svg22"
   sodipodi:docname="reddit.svg"
   width="210"
   height="210"
   inkscape:version="1.1.1 (3bf5ae0d25, 2021-09-20)"
   xmlns:inkscape="http://www.inkscape.org/namespaces/inkscape"
   xmlns:sodipodi="http://sodipodi.sourceforge.net/DTD/sodipodi-0.dtd"
   xmlns="http://www.w3.org/2000/svg"
   xmlns:svg="http://www.w3.org/2000/svg"><defs
   id="defs26">
	

		
		
	</defs><sodipodi:namedview
   id="namedview24"
   pagecolor="#505050"
   bordercolor="#eeeeee"
   borderopacity="1"
   inkscape:pageshadow="0"
   inkscape:pageopacity="0"
   inkscape:pagecheckerboard="0"
   showgrid="false"
   inkscape:zoom="2.3815097"
   inkscape:cx="126.39042"
   inkscape:cy="119.88194"
   inkscape:window-width="1920"
   inkscape:window-height="1005"
   inkscape:window-x="-9"
   inkscape:window-y="-9"
   inkscape:window-maximized="1"
   inkscape:current-layer="svg22" />
<style
   type="text/css"
   id="style2">
	.st0{fill:#FF4500;}
	.st1{fill:#FFFFFF;}
	.st2{display:none;}
	.st3{display:inline;fill:none;stroke:#D8D8D8;stroke-width:0.5;stroke-miterlimit:10;}
</style>

<g
   id="Spacing_Guide"
   class="st2">
	<rect
   class="st3"
   width="85.400002"
   height="85.400002"
   id="rect11"
   x="0"
   y="0" />
	<rect
   class="st3"
   width="341.79999"
   height="85.400002"
   id="rect13"
   x="0"
   y="0" />
	<rect
   y="256.29999"
   class="st3"
   width="341.79999"
   height="85.400002"
   id="rect15"
   x="0" />
	<rect
   class="st3"
   width="85.400002"
   height="341.79999"
   id="rect17"
   x="0"
   y="0" />
	<rect
   x="256.39999"
   class="st3"
   width="85.400002"
   height="341.79999"
   id="rect19"
   y="0" />
</g>
<g
   id="g870"><rect
     style="fill:#4c4d4f;fill-rule:evenodd;stroke:#ffa47b;stroke-width:0;stroke-linecap:round;stroke-linejoin:round;stroke-opacity:0.99177"
     id="rect1045"
     width="210"
     height="210"
     x="0"
     y="0" /><path
     class="st1"
     d="m 174.87719,106.10526 c 0,-8.473679 -6.87719,-15.350872 -15.35088,-15.350872 -4.17544,0 -7.85965,1.596491 -10.5614,4.298245 -10.4386,-7.491228 -24.92983,-12.403509 -40.89474,-13.017544 l 7,-32.789474 22.7193,4.789474 c 0.24561,5.77193 5.03509,10.438596 10.92982,10.438596 6.01755,0 10.92983,-4.91228 10.92983,-10.929824 0,-6.017544 -4.91228,-10.929825 -10.92983,-10.929825 -4.29824,0 -7.98245,2.45614 -9.70175,6.140351 l -25.42105,-5.403509 c -0.73685,-0.122807 -1.47369,0 -2.08772,0.368421 -0.61404,0.368421 -0.98246,0.982456 -1.22807,1.719298 l -7.73685,36.596492 c -16.333324,0.491228 -30.947354,5.280702 -41.508764,13.017544 -2.70175,-2.578947 -6.50877,-4.298245 -10.561401,-4.298245 -8.473684,0 -15.350877,6.877193 -15.350877,15.350872 0,6.26316 3.68421,11.54386 9.087719,14 -0.245614,1.47368 -0.368421,3.07017 -0.368421,4.66666 0,23.57895 27.38597,42.61404 61.280694,42.61404 33.89474,0 61.2807,-19.03508 61.2807,-42.61403 0,-1.59649 -0.1228,-3.07017 -0.36842,-4.54386 5.03509,-2.45614 8.84211,-7.85964 8.84211,-14.12281 z M 69.877196,117.03508 c 0,-6.01754 4.91228,-10.92982 10.92982,-10.92982 6.01755,0 10.929827,4.91228 10.929827,10.92982 0,6.01755 -4.912277,10.92983 -10.929827,10.92983 -6.01754,0 -10.929821,-4.91228 -10.92982,-10.92983 z m 61.035084,28.85965 c -7.49123,7.49123 -21.73685,7.98246 -25.91229,7.98246 -4.17543,0 -18.543844,-0.61404 -25.912274,-7.98246 -1.105261,-1.10526 -1.105261,-2.94737 0,-4.05263 1.10527,-1.10526 2.94737,-1.10526 4.052639,0 4.666661,4.66667 14.736837,6.38597 21.982445,6.38597 7.24562,0 17.19298,-1.7193 21.98246,-6.38597 1.10526,-1.10526 2.94737,-1.10526 4.05263,0 0.85965,1.22807 0.85965,2.94737 -0.24561,4.05263 z m -1.96492,-17.92982 c -6.01754,0 -10.92982,-4.91228 -10.92982,-10.92983 0,-6.01754 4.91228,-10.92982 10.92982,-10.92982 6.01755,0 10.92983,4.91228 10.92983,10.92982 0,6.01755 -4.91228,10.92983 -10.92983,10.92983 z"
     id="path6"
     style="fill:#ff4500;stroke-width:1.22807;fill-opacity:1" /></g></svg>
