<?xml version="1.0" encoding="UTF-8" standalone="no"?>
<svg
   width="210"
   height="210"
   viewBox="0 0 210 210"
   version="1.1"
   id="svg16"
   sodipodi:docname="telegram.svg"
   inkscape:version="1.1.1 (3bf5ae0d25, 2021-09-20)"
   xmlns:inkscape="http://www.inkscape.org/namespaces/inkscape"
   xmlns:sodipodi="http://sodipodi.sourceforge.net/DTD/sodipodi-0.dtd"
   xmlns:xlink="http://www.w3.org/1999/xlink"
   xmlns="http://www.w3.org/2000/svg"
   xmlns:svg="http://www.w3.org/2000/svg"
   xmlns:rdf="http://www.w3.org/1999/02/22-rdf-syntax-ns#"
   xmlns:cc="http://creativecommons.org/ns#"
   xmlns:dc="http://purl.org/dc/elements/1.1/">
  <sodipodi:namedview
     id="namedview18"
     pagecolor="#505050"
     bordercolor="#eeeeee"
     borderopacity="1"
     inkscape:pageshadow="0"
     inkscape:pageopacity="0"
     inkscape:pagecheckerboard="0"
     showgrid="false"
     inkscape:zoom="2.8284271"
     inkscape:cx="105.71246"
     inkscape:cy="104.12147"
     inkscape:window-width="1920"
     inkscape:window-height="1005"
     inkscape:window-x="-9"
     inkscape:window-y="-9"
     inkscape:window-maximized="1"
     inkscape:current-layer="svg16"
     showguides="true"
     inkscape:guide-bbox="true" />
  <!-- Generator: Sketch 53.2 (72643) - https://sketchapp.com -->
  <title
     id="title2">Artboard</title>
  <desc
     id="desc4">Created with Sketch.</desc>
  <defs
     id="defs11">
    <linearGradient
       x1="500"
       y1="0"
       x2="500"
       y2="992.58339"
       id="linearGradient-1"
       gradientUnits="userSpaceOnUse"
       gradientTransform="scale(0.21)">
      <stop
         stop-color="#2AABEE"
         offset="0%"
         id="stop6" />
      <stop
         stop-color="#229ED9"
         offset="100%"
         id="stop8" />
    </linearGradient>
    <linearGradient
       inkscape:collect="always"
       xlink:href="#linearGradient-1"
       id="linearGradient837"
       x1="96.703125"
       y1="63.209999"
       x2="96.703125"
       y2="157.70999"
       gradientUnits="userSpaceOnUse" />
  </defs>
  <metadata
     id="metadata835">
    <rdf:RDF>
      <cc:Work
         rdf:about="">
        <dc:title>Artboard</dc:title>
      </cc:Work>
    </rdf:RDF>
  </metadata>
  <g
     id="g1559">
    <rect
       style="fill:#4c4d4f;fill-opacity:1;fill-rule:evenodd;stroke:#ffa47b;stroke-width:0;stroke-linecap:round;stroke-linejoin:round;stroke-opacity:0.99177"
       id="rect909"
       width="210"
       height="210"
       x="2.13675e-06"
       y="3.1655554e-06" />
    <path
       d="M 47.528968,103.89163 C 78.138598,90.555503 98.549818,81.76351 108.76262,77.515654 137.92223,65.38716 143.98135,63.28031 147.9306,63.210741 c 0.8686,-0.01531 2.81073,0.199964 4.06875,1.220768 1.06226,0.861945 1.35453,2.026311 1.49439,2.84353 0.13986,0.817219 0.31401,2.678865 0.17557,4.133502 -1.58017,16.602982 -8.41754,56.894039 -11.896,75.489669 -1.47187,7.8685 -4.37003,10.50677 -7.17578,10.76496 -6.09755,0.56111 -10.72774,-4.02968 -16.63352,-7.90099 -9.24136,-6.05783 -14.46215,-9.82885 -23.432502,-15.74018 -10.36678,-6.83156 -3.64643,-10.5863 2.26158,-16.7226 1.54615,-1.6059 28.412082,-26.042539 28.932072,-28.259324 0.065,-0.277249 0.12539,-1.31069 -0.48856,-1.856386 -0.61395,-0.545695 -1.52009,-0.359089 -2.17399,-0.210678 -0.92687,0.210365 -15.69007,9.968295 -44.289602,29.273788 -4.19049,2.87751 -7.9861,4.27953 -11.38684,4.20606 -3.74904,-0.081 -10.96069,-2.11976 -16.32181,-3.86245 -6.57564,-2.13748 -11.80182,-3.26758 -11.34673,-6.89768 0.23703,-1.89079 2.84081,-3.82448 7.81134,-5.8011 z"
       id="Path-3-0"
       fill="#ffffff"
       style="fill-rule:evenodd;stroke:none;stroke-width:0.21;fill-opacity:1;fill:url(#linearGradient837)" />
  </g>
</svg>
