<?xml version="1.0" encoding="UTF-8" standalone="no"?>
<!-- Created with Inkscape (http://www.inkscape.org/) -->

<svg
   width="210mm"
   height="210mm"
   viewBox="0 0 210 210"
   version="1.1"
   id="svg5"
   inkscape:version="1.1.1 (3bf5ae0d25, 2021-09-20)"
   sodipodi:docname="tiktok.svg"
   xmlns:inkscape="http://www.inkscape.org/namespaces/inkscape"
   xmlns:sodipodi="http://sodipodi.sourceforge.net/DTD/sodipodi-0.dtd"
   xmlns="http://www.w3.org/2000/svg"
   xmlns:svg="http://www.w3.org/2000/svg">
  <sodipodi:namedview
     id="namedview7"
     pagecolor="#505050"
     bordercolor="#eeeeee"
     borderopacity="1"
     inkscape:pageshadow="0"
     inkscape:pageopacity="0"
     inkscape:pagecheckerboard="0"
     inkscape:document-units="mm"
     showgrid="false"
     showguides="true"
     inkscape:guide-bbox="true"
     inkscape:zoom="0.72515432"
     inkscape:cx="341.99617"
     inkscape:cy="453.00702"
     inkscape:window-width="1920"
     inkscape:window-height="1005"
     inkscape:window-x="-9"
     inkscape:window-y="-9"
     inkscape:window-maximized="1"
     inkscape:current-layer="layer1" />
  <defs
     id="defs2">
    <clipPath
       clipPathUnits="userSpaceOnUse"
       id="clipPath1501">
      <rect
         style="fill:#f5c400;fill-rule:evenodd;stroke:#ffa47b;stroke-width:0;stroke-linecap:round;stroke-linejoin:round;stroke-opacity:0.99177"
         id="rect1503"
         width="84.365479"
         height="96.781654"
         x="62.516243"
         y="27.089834" />
    </clipPath>
    <clipPath
       clipPathUnits="userSpaceOnUse"
       id="clipPath1501-3">
      <rect
         style="fill:#f5c400;fill-rule:evenodd;stroke:#ffa47b;stroke-width:0;stroke-linecap:round;stroke-linejoin:round;stroke-opacity:0.99177"
         id="rect1503-7"
         width="84.365479"
         height="96.781654"
         x="62.516243"
         y="27.089834" />
    </clipPath>
  </defs>
  <g
     inkscape:label="Layer 1"
     inkscape:groupmode="layer"
     id="layer1">
    <g
       id="g1309">
      <rect
         style="fill:#4c4d4f;fill-opacity:1;fill-rule:evenodd;stroke:#ffa47b;stroke-width:0;stroke-linecap:round;stroke-linejoin:round;stroke-opacity:0.99177"
         id="rect1601"
         width="210"
         height="210"
         x="-1.3322676e-15"
         y="-1.3322676e-15" />
      <path
         d="m 162.83865,65.140228 a 35.942837,35.942837 0 0 1 -28.27136,-31.83319 v -3.30704 H 108.73313 V 132.52661 a 21.717183,21.717183 0 0 1 -39.002221,13.07084 l -0.015,-0.008 0.015,0.008 a 21.709684,21.709684 0 0 1 23.86916,-33.82059 V 85.530313 A 47.461343,47.461343 0 0 0 53.150389,165.70977 47.468843,47.468843 0 0 0 134.56729,132.53398 V 80.146033 a 61.357041,61.357041 0 0 0 35.79297,11.4434 V 65.920218 a 36.227801,36.227801 0 0 1 -7.52161,-0.77942 z"
         id="path2"
         style="fill:#ffffff;fill-opacity:1;stroke-width:7.49902" />
    </g>
  </g>
</svg>
