<?xml version="1.0" encoding="UTF-8" standalone="no"?>
<!-- Generator: Adobe Illustrator 24.2.3, SVG Export Plug-In . SVG Version: 6.00 Build 0)  -->

<svg
   version="1.1"
   id="Layer_1"
   x="0px"
   y="0px"
   viewBox="0 0 210 210"
   xml:space="preserve"
   sodipodi:docname="twitter.svg"
   width="210"
   height="210"
   inkscape:version="1.1.1 (3bf5ae0d25, 2021-09-20)"
   xmlns:inkscape="http://www.inkscape.org/namespaces/inkscape"
   xmlns:sodipodi="http://sodipodi.sourceforge.net/DTD/sodipodi-0.dtd"
   xmlns="http://www.w3.org/2000/svg"
   xmlns:svg="http://www.w3.org/2000/svg"><defs
   id="defs13" /><sodipodi:namedview
   id="namedview11"
   pagecolor="#505050"
   bordercolor="#eeeeee"
   borderopacity="1"
   inkscape:pageshadow="0"
   inkscape:pageopacity="0"
   inkscape:pagecheckerboard="0"
   showgrid="false"
   width="210px"
   inkscape:zoom="2.8779246"
   inkscape:cx="112.23366"
   inkscape:cy="120.74674"
   inkscape:window-width="1920"
   inkscape:window-height="1005"
   inkscape:window-x="-9"
   inkscape:window-y="-9"
   inkscape:window-maximized="1"
   inkscape:current-layer="Layer_1" />
<style
   type="text/css"
   id="style2">
	.st0{fill:#1D9BF0;}
	.st1{fill:#FFFFFF;}
</style>


<g
   id="g885"><rect
     style="fill:#4c4d4f;fill-rule:evenodd;stroke:#ffa47b;stroke-width:0;stroke-linecap:round;stroke-linejoin:round;stroke-opacity:0.99177"
     id="rect1044"
     width="210"
     height="210"
     x="2.2383858e-06"
     y="2.65072e-06" /><path
     class="st1"
     d="m 80.61375,158.34 c 49.5075,0 76.5975,-41.055 76.5975,-76.5975 0,-1.155 0,-2.31 -0.0525,-3.465 5.25,-3.78 9.8175,-8.5575 13.44,-13.965 -4.83,2.1525 -10.0275,3.57 -15.4875,4.2525 5.565,-3.3075 9.8175,-8.61 11.865,-14.91 -5.1975,3.0975 -10.9725,5.3025 -17.115,6.51 -4.935,-5.25 -11.9175,-8.505 -19.635,-8.505 -14.8575,0 -26.9325,12.075 -26.9325,26.9325 0,2.1 0.2625,4.1475 0.6825,6.1425 -22.365,-1.1025 -42.21,-11.865 -55.4925,-28.14 -2.31,3.99 -3.6225,8.61 -3.6225,13.545 0,9.345 4.7775,17.5875 11.97,22.4175 -4.41,-0.1575 -8.5575,-1.365 -12.18,-3.36 0,0.105 0,0.21 0,0.3675 0,13.02 9.2925,23.94 21.5775,26.4075 -2.2575,0.63 -4.62,0.945 -7.0875,0.945 -1.7325,0 -3.4125,-0.1575 -5.04,-0.4725 3.4125,10.71 13.3875,18.48 25.1475,18.69 -9.24,7.245 -20.8425,11.55 -33.4425,11.55 -2.1525,0 -4.305,-0.105 -6.405,-0.3675 11.865,7.56 26.04,12.0225 41.2125,12.0225"
     id="path7"
     style="stroke-width:0.525;fill:#1d9bf0;fill-opacity:1" /></g></svg>
