<?xml version="1.0" encoding="UTF-8" standalone="no"?>
<svg
   height="210"
   viewBox="0 0 210 210"
   width="210"
   fill="#000000"
   version="1.1"
   id="svg6"
   sodipodi:docname="Spay_Chat_unselected.svg"
   inkscape:version="1.1.1 (3bf5ae0d25, 2021-09-20)"
   xmlns:inkscape="http://www.inkscape.org/namespaces/inkscape"
   xmlns:sodipodi="http://sodipodi.sourceforge.net/DTD/sodipodi-0.dtd"
   xmlns="http://www.w3.org/2000/svg"
   xmlns:svg="http://www.w3.org/2000/svg">
  <defs
     id="defs10" />
  <sodipodi:namedview
     id="namedview8"
     pagecolor="#505050"
     bordercolor="#eeeeee"
     borderopacity="1"
     inkscape:pageshadow="0"
     inkscape:pageopacity="0"
     inkscape:pagecheckerboard="0"
     showgrid="false"
     showguides="true"
     inkscape:guide-bbox="true"
     inkscape:zoom="3"
     inkscape:cx="107"
     inkscape:cy="104.83333"
     inkscape:window-width="1920"
     inkscape:window-height="1005"
     inkscape:window-x="-9"
     inkscape:window-y="-9"
     inkscape:window-maximized="1"
     inkscape:current-layer="svg6" />
  <g
     id="g1095">
    <path
       id="rect1184"
       style="fill:#ffff00;fill-opacity:1;fill-rule:evenodd;stroke-width:0;stroke-linecap:round;stroke-linejoin:round"
       d="M 21 30 C 9.366 30 0 38.3625 0 48.75 L 0 161.25 C 0 171.6375 9.366 180 21 180 L 151.7793 180 C 163.4133 180 172.7793 171.6375 172.7793 161.25 L 172.7793 48.75 C 172.7793 38.3625 163.4133 30 151.7793 30 L 21 30 z M 105.3457 82.205078 C 114.00954 82.205078 120.98438 88.409141 120.98438 96.115234 L 120.98438 124.08984 C 120.98438 131.79594 114.00954 138 105.3457 138 C 96.681866 138 89.707031 131.79594 89.707031 124.08984 L 89.707031 96.115234 C 89.707031 88.409141 96.681866 82.205078 105.3457 82.205078 z M 57.638672 82.207031 C 66.302509 82.207031 73.277344 88.409141 73.277344 96.115234 L 73.277344 124.08984 C 73.277344 131.79594 66.302509 138 57.638672 138 C 48.974835 138 42 131.79594 42 124.08984 L 42 96.115234 C 42 88.409141 48.974835 82.207031 57.638672 82.207031 z " />
    <path
       style="fill:#ffff00;fill-opacity:1;stroke:none;stroke-width:0;stroke-linecap:butt;stroke-linejoin:miter;stroke-miterlimit:4;stroke-dasharray:none;stroke-opacity:1"
       d="M 165.76715,74.232845 210,30 h -59.39697 z"
       id="path1450" />
  </g>
</svg>
