<?xml version="1.0" encoding="UTF-8" standalone="no"?>
<!-- Created with Inkscape (http://www.inkscape.org/) -->

<svg
   width="210mm"
   height="210mm"
   viewBox="0 0 210 210"
   version="1.1"
   id="svg5"
   inkscape:version="1.1.1 (3bf5ae0d25, 2021-09-20)"
   sodipodi:docname="Spay Grids.svg"
   xmlns:inkscape="http://www.inkscape.org/namespaces/inkscape"
   xmlns:sodipodi="http://sodipodi.sourceforge.net/DTD/sodipodi-0.dtd"
   xmlns="http://www.w3.org/2000/svg"
   xmlns:svg="http://www.w3.org/2000/svg"
   xmlns:rdf="http://www.w3.org/1999/02/22-rdf-syntax-ns#"
   xmlns:cc="http://creativecommons.org/ns#"
   xmlns:dc="http://purl.org/dc/elements/1.1/">
  <title
     id="title4085">Spay Grids</title>
  <sodipodi:namedview
     id="namedview7"
     pagecolor="#505050"
     bordercolor="#eeeeee"
     borderopacity="1"
     inkscape:pageshadow="0"
     inkscape:pageopacity="0"
     inkscape:pagecheckerboard="0"
     inkscape:document-units="mm"
     showgrid="false"
     inkscape:zoom="0.71"
     inkscape:cx="398.59155"
     inkscape:cy="389.43662"
     inkscape:window-width="1920"
     inkscape:window-height="1005"
     inkscape:window-x="-9"
     inkscape:window-y="-9"
     inkscape:window-maximized="1"
     inkscape:current-layer="layer1" />
  <defs
     id="defs2" />
  <g
     inkscape:label="Layer 1"
     inkscape:groupmode="layer"
     id="layer1">
    <g
       id="g831"
       transform="translate(-4.9291748e-5,-4.9291748e-5)">
      <path
         id="rect849"
         style="fill:#ffff00;fill-opacity:1;fill-rule:evenodd;stroke-width:0;stroke-linecap:round;stroke-linejoin:round"
         d="M 151.18164,105.07031 C 67.427312,105.07031 0,172.49762 0,256.25195 v 281.19727 c 0,83.75433 67.427312,151.18164 151.18164,151.18164 h 491.33789 c 83.75433,0 151.18164,-67.42731 151.18164,-151.18164 V 256.25195 c 0,-83.75433 -67.42731,-151.18164 -151.18164,-151.18164 z m 36.77734,83.91992 a 37.795276,37.795276 0 0 1 14.53516,2.48633 37.795276,37.795276 0 0 1 21.7793,48.80664 l -0.008,0.0215 a 37.795276,37.795276 0 0 1 -48.8164,21.75781 37.795276,37.795276 0 0 1 -21.76563,-48.8125 37.795276,37.795276 0 0 1 34.27539,-24.25977 z m 208.42579,75.57813 a 56.692912,56.692912 0 0 1 20.74218,3.74805 56.692912,56.692912 0 0 1 32.66993,73.21093 l -0.0117,0.0312 a 56.692912,56.692912 0 0 1 -73.22657,32.63868 56.692912,56.692912 0 0 1 -32.64843,-73.22071 56.692912,56.692912 0 0 1 52.47461,-36.4082 z"
         transform="scale(0.26458333)" />
      <g
         id="g832"
         transform="matrix(1.5384615,0,0,1.5384615,-60.806613,-77.930076)">
        <rect
           style="fill:#000000;fill-opacity:1;fill-rule:evenodd;stroke:#000000;stroke-width:0;stroke-linecap:round;stroke-linejoin:round;stroke-miterlimit:0;stroke-dasharray:none;paint-order:stroke fill markers"
           id="rect2819"
           width="19.339636"
           height="34.498829"
           x="49.52"
           y="126.05"
           rx="9.6698179"
           ry="8.6008682" />
        <rect
           style="fill:#000000;fill-opacity:1;fill-rule:evenodd;stroke:#000000;stroke-width:0;stroke-linecap:round;stroke-linejoin:round;stroke-miterlimit:0;stroke-dasharray:none;paint-order:stroke fill markers"
           id="rect2819-5"
           width="19.339636"
           height="34.498829"
           x="79"
           y="126.05"
           rx="9.6698179"
           ry="8.6008682" />
      </g>
    </g>
  </g>
  <metadata
     id="metadata4083">
    <rdf:RDF>
      <cc:Work
         rdf:about="">
        <dc:title>Spay Grids</dc:title>
        <dc:date>4/18/2022</dc:date>
        <dc:creator>
          <cc:Agent>
            <dc:title>PhilMinecraft</dc:title>
          </cc:Agent>
        </dc:creator>
        <dc:publisher>
          <cc:Agent>
            <dc:title>RareFrostbites, Spay Team</dc:title>
          </cc:Agent>
        </dc:publisher>
        <dc:subject>
          <rdf:Bag>
            <rdf:li>Spay</rdf:li>
            <rdf:li>Spay Grids</rdf:li>
          </rdf:Bag>
        </dc:subject>
        <dc:description>Spay Chat is a photo-sharing site where you can flex your photos and mini videos. You know Instagram right?</dc:description>
      </cc:Work>
    </rdf:RDF>
  </metadata>
</svg>
