<?xml version="1.0" encoding="UTF-8" standalone="no"?>
<!-- Created with Inkscape (http://www.inkscape.org/) -->

<svg
   width="210mm"
   height="210mm"
   viewBox="0 0 210 210"
   version="1.1"
   id="svg5"
   inkscape:version="1.1.1 (3bf5ae0d25, 2021-09-20)"
   sodipodi:docname="Spay Channel.svg"
   xmlns:inkscape="http://www.inkscape.org/namespaces/inkscape"
   xmlns:sodipodi="http://sodipodi.sourceforge.net/DTD/sodipodi-0.dtd"
   xmlns="http://www.w3.org/2000/svg"
   xmlns:svg="http://www.w3.org/2000/svg"
   xmlns:rdf="http://www.w3.org/1999/02/22-rdf-syntax-ns#"
   xmlns:cc="http://creativecommons.org/ns#"
   xmlns:dc="http://purl.org/dc/elements/1.1/">
  <title
     id="title829">Spay Channel</title>
  <sodipodi:namedview
     id="namedview7"
     pagecolor="#505050"
     bordercolor="#eeeeee"
     borderopacity="1"
     inkscape:pageshadow="0"
     inkscape:pageopacity="0"
     inkscape:pagecheckerboard="0"
     inkscape:document-units="mm"
     showgrid="false"
     inkscape:lockguides="false"
     inkscape:snap-grids="true"
     inkscape:snap-to-guides="true"
     inkscape:zoom="0.7"
     inkscape:cx="397.14286"
     inkscape:cy="396.42857"
     inkscape:window-width="1920"
     inkscape:window-height="1005"
     inkscape:window-x="-9"
     inkscape:window-y="-9"
     inkscape:window-maximized="1"
     inkscape:current-layer="g1064"
     height="210mm"
     showguides="true"
     inkscape:guide-bbox="true" />
  <defs
     id="defs2" />
  <g
     inkscape:label="Layer 1"
     inkscape:groupmode="layer"
     id="layer1">
    <g
       id="g1064">
      <path
         id="rect3968"
         style="fill:#ffff00;fill-opacity:1;fill-rule:evenodd;stroke-width:0;stroke-linecap:round;stroke-linejoin:round"
         d="M 103.24609 105.07031 C 46.048334 105.07031 9.4739031e-15 151.11862 0 208.31641 L 0 585.38281 C 0 642.5806 46.048334 688.62891 103.24609 688.62891 L 680.3125 688.62891 L 690.45312 688.62891 L 793.69922 688.62891 L 793.69727 688.62695 L 647.80859 542.73828 L 501.92188 396.84961 L 647.80859 250.96094 L 793.69727 105.07227 L 793.69922 105.07031 L 690.45312 105.07031 L 680.3125 105.07031 L 103.24609 105.07031 z M 117.16211 438.4043 C 149.86917 438.4043 176.19922 461.8226 176.19922 490.91406 L 176.19922 596.52148 C 176.19922 625.61294 149.86917 649.03125 117.16211 649.03125 C 84.455049 649.03125 58.125 625.61294 58.125 596.52148 L 58.125 490.91406 C 58.125 461.8226 84.455049 438.4043 117.16211 438.4043 z M 297.14844 438.4043 C 329.8555 438.4043 356.1875 461.8226 356.1875 490.91406 L 356.1875 596.52148 C 356.1875 625.61294 329.8555 649.03125 297.14844 649.03125 C 264.44138 649.03125 238.11133 625.61294 238.11133 596.52148 L 238.11133 490.91406 C 238.11133 461.8226 264.44138 438.4043 297.14844 438.4043 z "
         transform="scale(0.26458333)" />
    </g>
  </g>
  <metadata
     id="metadata827">
    <rdf:RDF>
      <cc:Work
         rdf:about="">
        <dc:title>Spay Channel</dc:title>
        <dc:date>7/1/2022</dc:date>
        <dc:creator>
          <cc:Agent>
            <dc:title>PhilMinecraft</dc:title>
          </cc:Agent>
        </dc:creator>
        <dc:publisher>
          <cc:Agent>
            <dc:title>RareFrostbites, Spay Team</dc:title>
          </cc:Agent>
        </dc:publisher>
        <dc:subject>
          <rdf:Bag>
            <rdf:li>Spay</rdf:li>
            <rdf:li>Spay Channel</rdf:li>
          </rdf:Bag>
        </dc:subject>
        <dc:description>Spay Channel is your 2nd Profile for your public things like content. Just like you are making a Facebook Page.</dc:description>
      </cc:Work>
    </rdf:RDF>
  </metadata>
</svg>
