<?xml version="1.0" encoding="UTF-8" standalone="no"?>
<!-- Created with Inkscape (http://www.inkscape.org/) -->

<svg
   width="210mm"
   height="210mm"
   viewBox="0 0 210 210"
   version="1.1"
   id="svg828"
   sodipodi:docname="Spay_Chat_unselected.svg"
   inkscape:version="1.1.1 (3bf5ae0d25, 2021-09-20)"
   xmlns:inkscape="http://www.inkscape.org/namespaces/inkscape"
   xmlns:sodipodi="http://sodipodi.sourceforge.net/DTD/sodipodi-0.dtd"
   xmlns="http://www.w3.org/2000/svg"
   xmlns:svg="http://www.w3.org/2000/svg">
  <sodipodi:namedview
     id="namedview830"
     pagecolor="#505050"
     bordercolor="#eeeeee"
     borderopacity="1"
     inkscape:pageshadow="0"
     inkscape:pageopacity="0"
     inkscape:pagecheckerboard="0"
     inkscape:document-units="mm"
     showgrid="false"
     showguides="true"
     inkscape:guide-bbox="true"
     inkscape:zoom="0.9"
     inkscape:cx="407.77778"
     inkscape:cy="390.55556"
     inkscape:window-width="1920"
     inkscape:window-height="1005"
     inkscape:window-x="-9"
     inkscape:window-y="-9"
     inkscape:window-maximized="1"
     inkscape:current-layer="layer1" />
  <defs
     id="defs825" />
  <g
     inkscape:label="Layer 1"
     inkscape:groupmode="layer"
     id="layer1">
    <g
       id="g1236">
      <g
         id="g1223">
        <rect
           style="fill:#fffffc;fill-opacity:1;fill-rule:evenodd;stroke:#000000;stroke-width:0;stroke-linecap:round;stroke-linejoin:round;stroke-miterlimit:0;stroke-dasharray:none;paint-order:stroke fill markers"
           id="rect2819-9-0"
           width="24.454741"
           height="43.62336"
           x="30.073689"
           y="112.39391"
           rx="12.22737"
           ry="10.875696" />
        <rect
           style="fill:#fffffc;fill-opacity:1;fill-rule:evenodd;stroke:#000000;stroke-width:0;stroke-linecap:round;stroke-linejoin:round;stroke-miterlimit:0;stroke-dasharray:none;paint-order:stroke fill markers"
           id="rect2819-7-8"
           width="24.454741"
           height="43.62336"
           x="67.346313"
           y="112.39393"
           rx="12.22737"
           ry="10.875696" />
      </g>
      <g
         id="g1219">
        <rect
           style="fill:#fffffc;fill-opacity:1;fill-rule:evenodd;stroke-width:0;stroke-linecap:round;stroke-linejoin:round"
           id="rect1302-9-1-4-9-6"
           width="15.036881"
           height="15.036881"
           x="153.11325"
           y="-38.946556"
           transform="scale(1,-1)"
           ry="7.5184407"
           rx="7.5184407" />
        <g
           id="g1210">
          <path
             id="rect1615"
             style="fill:#fffffc;fill-opacity:1;fill-rule:evenodd;stroke-width:0;stroke-linecap:round;stroke-linejoin:round"
             d="M 136.26562 90.367188 C 60.774834 90.367188 1.8947806e-14 151.14007 0 226.63086 L 0 567.07031 C 0 642.56108 60.774834 703.33398 136.26562 703.33398 L 612.92969 703.33398 C 688.42042 703.33398 749.19531 642.56108 749.19531 567.07031 L 749.19531 226.63086 C 749.19531 192.7365 736.87319 161.87429 716.53906 138.08203 L 708.87109 148.78711 L 699.75391 161.60156 C 699.75391 161.60156 692.36112 171.83667 692.37695 178.625 C 692.39207 185.41333 692.36133 204.03125 692.36133 204.03125 L 692.36133 258.14258 C 692.36133 258.16072 692.36328 258.17747 692.36328 258.19531 L 692.36328 535.50586 C 692.36328 596.99817 640.80912 646.50195 576.77148 646.50195 L 172.42383 646.50195 C 108.38618 646.50195 56.832031 596.99817 56.832031 535.50586 L 56.832031 258.19531 C 56.832031 196.70302 108.38618 147.19922 172.42383 147.19922 L 566.7207 147.19922 L 571.25977 147.19922 L 607.10938 147.19922 L 607.10938 90.367188 L 571.25977 90.367188 L 566.7207 90.367188 L 136.26562 90.367188 z "
             transform="scale(0.26458333)" />
          <g
             id="g1203">
            <rect
               style="fill:#fffffc;fill-opacity:1;fill-rule:evenodd;stroke-width:0;stroke-linecap:round;stroke-linejoin:round"
               id="rect1302-9-1-4-6"
               width="15.036881"
               height="15.036881"
               x="194.96312"
               y="-38.946205"
               transform="scale(1,-1)"
               ry="7.5184407"
               rx="7.5184407" />
            <path
               id="rect5879-6"
               style="fill:#fffffc;fill-opacity:1;fill-rule:evenodd;stroke-width:0;stroke-linecap:round;stroke-linejoin:round"
               d="m 196.43192,26.938082 -1.1651,1.660748 -7.41217,10.347534 -0.0231,0.03188 -2.68805,3.779099 c 0,0 -1.95647,2.70799 -1.95227,4.504068 0.004,1.796081 -0.004,6.721657 -0.004,6.721657 v 17.301074 l 24.30398,-33.928597 1.06534,-1.500841 z" />
            <rect
               style="fill:#fffffc;fill-opacity:1;fill-rule:evenodd;stroke-width:0;stroke-linecap:round;stroke-linejoin:round"
               id="rect1302-9-1-4-2"
               width="15.037319"
               height="20.991167"
               x="183.18701"
               y="-71.284386"
               transform="scale(1,-1)" />
          </g>
        </g>
      </g>
    </g>
  </g>
</svg>
