<?xml version="1.0" encoding="UTF-8" standalone="no"?>
<!-- Created with Inkscape (http://www.inkscape.org/) -->

<svg
   width="210mm"
   height="210mm"
   viewBox="0 0 210 210"
   version="1.1"
   id="svg828"
   sodipodi:docname="Spay_Chat_selected.svg"
   inkscape:version="1.1.1 (3bf5ae0d25, 2021-09-20)"
   xmlns:inkscape="http://www.inkscape.org/namespaces/inkscape"
   xmlns:sodipodi="http://sodipodi.sourceforge.net/DTD/sodipodi-0.dtd"
   xmlns="http://www.w3.org/2000/svg"
   xmlns:svg="http://www.w3.org/2000/svg">
  <sodipodi:namedview
     id="namedview830"
     pagecolor="#505050"
     bordercolor="#eeeeee"
     borderopacity="1"
     inkscape:pageshadow="0"
     inkscape:pageopacity="0"
     inkscape:pagecheckerboard="0"
     inkscape:document-units="mm"
     showgrid="false"
     showguides="true"
     inkscape:guide-bbox="true"
     inkscape:zoom="0.9"
     inkscape:cx="408.88889"
     inkscape:cy="388.33333"
     inkscape:window-width="1920"
     inkscape:window-height="1005"
     inkscape:window-x="-9"
     inkscape:window-y="-9"
     inkscape:window-maximized="1"
     inkscape:current-layer="layer1" />
  <defs
     id="defs825" />
  <g
     inkscape:label="Layer 1"
     inkscape:groupmode="layer"
     id="layer1">
    <path
       id="rect1047"
       style="fill:#ffffff;fill-opacity:1;fill-rule:evenodd;stroke-width:0;stroke-linecap:round;stroke-linejoin:round"
       d="m 202.48165,23.909303 c -0.0352,0 -0.0703,10e-4 -0.10542,0.0016 v -0.001 H 151.14576 36.053562 c -19.973597,0 -36.053611291748,16.079491 -36.053611291748,36.053096 V 150.0376 c 0,19.9736 16.080014291748,36.0531 36.053611291748,36.0531 H 162.17093 c 19.97359,0 36.05361,-16.0795 36.05361,-36.0531 V 59.962916 c 0,-0.0076 -5e-4,-0.01512 -5.2e-4,-0.02274 v -9.646957 h -5.1e-4 l 9.26765,-12.937709 0.90899,-1.280544 c 1.00279,-1.277358 1.5999,-2.890059 1.5999,-4.64726 0,-4.165217 -3.35319,-7.518405 -7.5184,-7.518403 z M 42.301245,112.39434 c 6.773963,0 12.227676,4.85017 12.227676,10.87531 v 21.87205 c 0,6.02513 -5.453713,10.87582 -12.227676,10.87582 -6.773963,0 -12.22716,-4.85069 -12.22716,-10.87582 v -21.87205 c 0,-6.02514 5.453197,-10.87531 12.22716,-10.87531 z m 37.272658,0 c 6.773963,0 12.22716,4.85017 12.22716,10.87531 v 21.87205 c 0,6.02513 -5.453197,10.87582 -12.22716,10.87582 -6.773963,0 -12.22716,-4.85069 -12.22716,-10.87582 v -21.87205 c 0,-6.02514 5.453197,-10.87531 12.22716,-10.87531 z" />
  </g>
</svg>
