<?xml version="1.0" encoding="UTF-8" standalone="no"?>
<!-- Created with Inkscape (http://www.inkscape.org/) -->

<svg
   width="210mm"
   height="210mm"
   viewBox="0 0 210 210"
   version="1.1"
   id="svg5"
   inkscape:version="1.1.1 (3bf5ae0d25, 2021-09-20)"
   sodipodi:docname="Spay_Vertz_unselected.svg"
   xmlns:inkscape="http://www.inkscape.org/namespaces/inkscape"
   xmlns:sodipodi="http://sodipodi.sourceforge.net/DTD/sodipodi-0.dtd"
   xmlns="http://www.w3.org/2000/svg"
   xmlns:svg="http://www.w3.org/2000/svg">
  <sodipodi:namedview
     id="namedview7"
     pagecolor="#505050"
     bordercolor="#eeeeee"
     borderopacity="1"
     inkscape:pageshadow="0"
     inkscape:pageopacity="0"
     inkscape:pagecheckerboard="0"
     inkscape:document-units="mm"
     showgrid="false"
     height="210mm"
     inkscape:zoom="0.9"
     inkscape:cx="396.66667"
     inkscape:cy="396.11111"
     inkscape:window-width="1920"
     inkscape:window-height="1005"
     inkscape:window-x="-9"
     inkscape:window-y="-9"
     inkscape:window-maximized="1"
     inkscape:current-layer="layer1"
     showguides="true"
     inkscape:guide-bbox="true" />
  <defs
     id="defs2" />
  <g
     inkscape:label="Layer 1"
     inkscape:groupmode="layer"
     id="layer1">
    <g
       id="g14099"
       transform="matrix(1.1052615,0,0,1.1052615,-11.052513,-11.05252)">
      <g
         id="g861-3-7"
         transform="matrix(0.9047619,0,0,0.9047619,31.301714,20.773372)"
         style="fill:none">
        <rect
           style="fill:#000000;fill-opacity:1;fill-rule:evenodd;stroke:#000000;stroke-width:0;stroke-linecap:round;stroke-linejoin:round;stroke-miterlimit:0;stroke-dasharray:none;paint-order:stroke fill markers"
           id="rect2819-4-0"
           width="34.56802"
           height="61.663837"
           x="32.844284"
           y="108.93755"
           rx="17.28401"
           ry="15.373349" />
        <rect
           style="fill:#000000;fill-opacity:1;fill-rule:evenodd;stroke:#000000;stroke-width:0;stroke-linecap:round;stroke-linejoin:round;stroke-miterlimit:0;stroke-dasharray:none;paint-order:stroke fill markers"
           id="rect2819-5-2-7"
           width="34.56802"
           height="61.663837"
           x="85.537376"
           y="108.93755"
           rx="17.28401"
           ry="15.373349" />
      </g>
      <g
         id="g14089">
        <g
           id="g14083">
          <path
             id="rect1562-3-3-7"
             style="fill:#000000;fill-opacity:1;fill-rule:evenodd;stroke-width:0;stroke-linecap:round;stroke-linejoin:round"
             d="m 246.45703,37.794922 v 0.166016 h -0.13476 l -6.70704,0.232421 A 109.71489,109.71489 0 0 0 136.60938,147.7168 v 79.23632 c 0,16.62343 13.38243,30.00391 30.00585,30.00391 h 2.90039 v 0.002 h 455.3711 v -0.002 h 2.19922 c 16.62346,0 30.00586,-13.38048 30.00586,-30.00391 v -86.15234 h -0.24024 a 109.71489,109.71489 0 0 0 -82.21484,-99.542968 109.71489,109.71489 0 0 0 -27.31836,-3.46289 z m 259.28125,59.763672 -99.6582,99.736326 -112.79102,-0.0195 99.67969,-99.683593 z m -197.39258,0.03711 -0.006,0.0293 -99.68945,99.691406 -12.24609,0.0215 -0.004,-49.84766 0.26563,-5.10937 a 49.870391,49.870391 0 0 1 49.57812,-44.732418 z m 270.79492,11.236326 a 49.790605,49.790605 0 0 1 18.18555,38.5332 l -0.0352,49.79493 -106.58204,0.0566 z"
             transform="scale(0.26458333)" />
          <path
             id="rect1562-3-3"
             style="fill:#000000;fill-opacity:1;fill-rule:evenodd;stroke-width:0;stroke-linecap:round;stroke-linejoin:round"
             d="m 168.81445,197.16016 v 0.002 h -2.19922 c -16.62343,0 -30.00586,13.38049 -30.00585,30.00391 v 418.81836 c 0,60.87041 48.98739,109.87954 109.84765,109.92187 H 547.24414 C 608.10444,755.8641 657.0918,706.85493 657.0918,645.98443 V 227.16602 c 0,-16.62342 -13.38244,-30.00391 -30.00586,-30.00391 h -2.90039 v -0.002 z m 27.59766,59.79882 h 400.88086 v 389.58204 h 0.008 c 0,27.46114 -21.77062,49.5664 -48.8125,49.5664 H 506.41016 263.67773 245.22461 c -27.0419,0 -48.81445,-22.10526 -48.81445,-49.5664 h 0.002 z"
             transform="scale(0.26458333)" />
        </g>
        <rect
           style="fill:#000000;fill-opacity:1;fill-rule:evenodd;stroke-width:0;stroke-linecap:round;stroke-linejoin:round"
           id="rect859-4-8"
           width="28.5"
           height="28.5"
           x="90.75"
           y="77.03804"
           rx="86.761963"
           ry="28.5" />
      </g>
    </g>
  </g>
</svg>
