<?xml version="1.0" encoding="UTF-8" standalone="no"?>
<!-- Created with Inkscape (http://www.inkscape.org/) -->

<svg
   width="210mm"
   height="210mm"
   viewBox="0 0 210 210"
   version="1.1"
   id="svg5"
   inkscape:version="1.1.1 (3bf5ae0d25, 2021-09-20)"
   sodipodi:docname="Spay_Vertz_selected.svg"
   xmlns:inkscape="http://www.inkscape.org/namespaces/inkscape"
   xmlns:sodipodi="http://sodipodi.sourceforge.net/DTD/sodipodi-0.dtd"
   xmlns="http://www.w3.org/2000/svg"
   xmlns:svg="http://www.w3.org/2000/svg">
  <sodipodi:namedview
     id="namedview7"
     pagecolor="#505050"
     bordercolor="#eeeeee"
     borderopacity="1"
     inkscape:pageshadow="0"
     inkscape:pageopacity="0"
     inkscape:pagecheckerboard="0"
     inkscape:document-units="mm"
     showgrid="false"
     height="210mm"
     inkscape:zoom="0.9"
     inkscape:cx="396.66667"
     inkscape:cy="396.11111"
     inkscape:window-width="1920"
     inkscape:window-height="1005"
     inkscape:window-x="-9"
     inkscape:window-y="-9"
     inkscape:window-maximized="1"
     inkscape:current-layer="layer1"
     showguides="true"
     inkscape:guide-bbox="true" />
  <defs
     id="defs2" />
  <g
     inkscape:label="Layer 1"
     inkscape:groupmode="layer"
     id="layer1">
    <g
       id="g1078"
       transform="translate(1.2697369e-4,-5.0347073e-5)">
      <path
         id="rect1562-3-3-7"
         style="fill:#000000;fill-opacity:1;fill-rule:evenodd;stroke-width:0;stroke-linecap:round;stroke-linejoin:round"
         d="M 61.019845,-8.4726841e-6 V 0.04854021 h -0.03941 L 59.019072,0.11650796 A 32.084339,32.084339 0 0 0 28.896683,32.144861 v 23.171375 c 0,4.861253 3.913474,8.774157 8.774724,8.774157 h 0.848172 v 5.85e-4 H 171.68547 v -5.85e-4 h 0.64312 c 4.86126,0 8.77473,-3.912904 8.77473,-8.774157 V 30.122383 h -0.0702 A 32.084339,32.084339 0 0 0 156.99067,1.0126575 32.084339,32.084339 0 0 0 149.00186,-8.4726841e-6 Z M 136.84244,17.476907 107.69902,46.643177 74.715113,46.637475 103.86482,17.486626 Z m -57.724257,0.01085 -0.0018,0.0086 -29.152562,29.153134 -3.58117,0.0063 -0.0012,-14.577139 0.07768,-1.494152 A 14.583786,14.583786 0 0 1 60.957448,17.50323 Z m 79.189577,3.285881 a 14.560454,14.560454 0 0 1 5.31807,11.268409 l -0.0103,14.561719 -31.16819,0.01655 z" />
      <path
         id="rect1562-3-3"
         style="fill:#000000;fill-opacity:1;fill-rule:evenodd;stroke-width:0;stroke-linecap:round;stroke-linejoin:round"
         d="m 144.81055,176.14062 v 0.002 h -2.42969 c -18.37324,0 -33.16603,14.78888 -33.16602,33.16211 v 462.90429 c 0,67.27775 54.14561,121.4454 121.41211,121.49219 h 332.44727 c 67.26656,-0.0465 121.41016,-54.21437 121.41016,-121.49219 V 209.30469 c 0,-18.37323 -14.79084,-33.16211 -33.16407,-33.16211 h -3.20508 v -0.002 z m 473.58007,66.09376 h 0.002 v 430.58984 h 0.006 c 0,0.10815 -0.007,0.21426 -0.008,0.32226 z m -221.54101,37.80859 c 32.97822,0 59.52734,26.54912 59.52734,59.52734 0,32.97822 -26.54912,59.52735 -59.52734,59.52735 -32.97822,0 -59.52734,-26.54913 -59.52734,-59.52735 0,-32.97822 26.54912,-59.52734 59.52734,-59.52734 z M 278.44727,456.73633 c 36.19021,0 65.32421,25.91395 65.32421,58.10351 v 116.85352 c 0,32.18957 -29.134,58.10352 -65.32421,58.10352 -36.19022,0 -65.32618,-25.91395 -65.32618,-58.10352 V 514.83984 c 0,-32.18956 29.13596,-58.10351 65.32618,-58.10351 z m 199.15429,0 c 36.19021,0 65.32422,25.91395 65.32422,58.10351 v 116.85352 c 0,32.18957 -29.13401,58.10351 -65.32422,58.10352 -36.19021,0 -65.32617,-25.91395 -65.32617,-58.10352 V 514.83984 c 0,-32.18956 29.13596,-58.10351 65.32617,-58.10351 z M 175.31055,672.82422 h 0.002 v 0.0781 c -4e-5,-0.0262 -0.002,-0.0519 -0.002,-0.0781 z"
         transform="scale(0.26458333)" />
    </g>
  </g>
</svg>
