<?xml version="1.0" encoding="UTF-8" standalone="no"?>
<svg
   height="210"
   viewBox="0 0 210 210"
   width="210"
   fill="#000000"
   version="1.1"
   id="svg6"
   sodipodi:docname="Spay_Grids_unselected.svg"
   inkscape:version="1.1.1 (3bf5ae0d25, 2021-09-20)"
   xmlns:inkscape="http://www.inkscape.org/namespaces/inkscape"
   xmlns:sodipodi="http://sodipodi.sourceforge.net/DTD/sodipodi-0.dtd"
   xmlns="http://www.w3.org/2000/svg"
   xmlns:svg="http://www.w3.org/2000/svg">
  <defs
     id="defs10" />
  <sodipodi:namedview
     id="namedview8"
     pagecolor="#505050"
     bordercolor="#eeeeee"
     borderopacity="1"
     inkscape:pageshadow="0"
     inkscape:pageopacity="0"
     inkscape:pagecheckerboard="0"
     showgrid="false"
     height="210px"
     showguides="true"
     inkscape:guide-bbox="true"
     inkscape:zoom="3"
     inkscape:cx="107.66667"
     inkscape:cy="102.5"
     inkscape:window-width="1920"
     inkscape:window-height="1005"
     inkscape:window-x="-9"
     inkscape:window-y="-9"
     inkscape:window-maximized="1"
     inkscape:current-layer="svg6" />
  <g
     id="g1485">
    <g
       id="g967"
       transform="translate(11.667984,-13.075394)">
      <rect
         style="fill:#000000;fill-opacity:1;fill-rule:evenodd;stroke:#000000;stroke-width:0;stroke-linecap:round;stroke-linejoin:round;stroke-miterlimit:0;stroke-dasharray:none;paint-order:stroke fill markers"
         id="rect2819"
         width="29.753233"
         height="53.075027"
         x="35"
         y="100.00034"
         rx="14.876616"
         ry="13.232081" />
      <rect
         style="fill:#000000;fill-opacity:1;fill-rule:evenodd;stroke:#000000;stroke-width:0;stroke-linecap:round;stroke-linejoin:round;stroke-miterlimit:0;stroke-dasharray:none;paint-order:stroke fill markers"
         id="rect2819-5"
         width="29.753233"
         height="53.075027"
         x="80.35376"
         y="100.00034"
         rx="14.876616"
         ry="13.232081" />
    </g>
    <g
       id="g1475">
      <path
         id="rect1076"
         style="fill:#000000;fill-opacity:1;fill-rule:evenodd;stroke-width:0;stroke-linecap:round;stroke-linejoin:round"
         d="M 23.449219,23.332031 C 10.457918,23.332031 0,33.78995 0,46.78125 v 116.43359 c 0,12.9913 10.457918,23.44922 23.449219,23.44922 H 186.55078 C 199.54208,186.66406 210,176.20614 210,163.21484 V 46.78125 C 210,33.78995 199.54208,23.332031 186.55078,23.332031 Z M 23.333984,46.666016 H 186.66602 V 163.33398 H 23.333984 Z" />
      <g
         id="g1429">
        <path
           style="fill:#000000;fill-opacity:1;fill-rule:evenodd;stroke-width:0;stroke-linecap:round;stroke-linejoin:round"
           id="path862"
           sodipodi:type="arc"
           sodipodi:cx="105"
           sodipodi:cy="70.830002"
           sodipodi:rx="12.5"
           sodipodi:ry="12.5"
           sodipodi:start="0.36616833"
           sodipodi:end="0.36559935"
           sodipodi:open="true"
           sodipodi:arc-type="arc"
           d="m 116.67133,75.305507 a 12.5,12.5 0 0 1 -16.14517,7.196457 12.5,12.5 0 0 1 -7.198759,-16.144147 12.5,12.5 0 0 1 16.143119,-7.20105 12.5,12.5 0 0 1 7.20335,16.142099" />
        <path
           style="fill:#000000;fill-opacity:1;fill-rule:evenodd;stroke-width:0;stroke-linecap:round;stroke-linejoin:round"
           id="path862-1"
           sodipodi:type="arc"
           sodipodi:cx="42.500015"
           sodipodi:cy="65.829315"
           sodipodi:rx="7.5"
           sodipodi:ry="7.5"
           sodipodi:start="0.36616833"
           sodipodi:end="0.36559935"
           sodipodi:open="true"
           sodipodi:arc-type="arc"
           d="m 49.502811,68.514618 a 7.5,7.5 0 0 1 -9.687103,4.317875 7.5,7.5 0 0 1 -4.319252,-9.686489 7.5,7.5 0 0 1 9.685874,-4.32063 7.5,7.5 0 0 1 4.322008,9.685259" />
      </g>
    </g>
  </g>
</svg>
