<?xml version="1.0" encoding="UTF-8" standalone="no"?>
<svg
   height="210"
   width="210"
   version="1.1"
   id="svg4"
   sodipodi:docname="Spay_Group_selected.svg"
   inkscape:version="1.1.1 (3bf5ae0d25, 2021-09-20)"
   xmlns:inkscape="http://www.inkscape.org/namespaces/inkscape"
   xmlns:sodipodi="http://sodipodi.sourceforge.net/DTD/sodipodi-0.dtd"
   xmlns="http://www.w3.org/2000/svg"
   xmlns:svg="http://www.w3.org/2000/svg">
  <defs
     id="defs8" />
  <sodipodi:namedview
     id="namedview6"
     pagecolor="#505050"
     bordercolor="#eeeeee"
     borderopacity="1"
     inkscape:pageshadow="0"
     inkscape:pageopacity="0"
     inkscape:pagecheckerboard="0"
     showgrid="false"
     height="210px"
     inkscape:zoom="3"
     inkscape:cx="104.33333"
     inkscape:cy="103.5"
     inkscape:window-width="1920"
     inkscape:window-height="1005"
     inkscape:window-x="-9"
     inkscape:window-y="-9"
     inkscape:window-maximized="1"
     inkscape:current-layer="svg4" />
  <g
     id="g1187">
    <path
       id="rect1350-0"
       style="fill:#ffff00;fill-opacity:1;fill-rule:evenodd;stroke-width:0;stroke-linecap:round;stroke-linejoin:round"
       d="M 22.150391 0 C 16.169071 0 10.980411 2.1953679 6.5878906 6.5878906 C 2.1953706 10.980415 -5.9211895e-16 16.261463 0 22.429688 L 0 187.84961 C 0 193.83093 2.1953706 199.01959 6.5878906 203.41211 C 10.980421 207.80463 16.261448 210 22.429688 210 L 102.84961 210 C 108.83093 210 114.01959 207.80463 118.41211 203.41211 C 122.80463 199.01958 125 193.73853 125 187.57031 L 125 22.150391 C 125 16.169071 122.80464 10.980412 118.41211 6.5878906 C 114.01959 2.1953709 108.73853 -2.3684758e-15 102.57031 0 L 22.150391 0 z M 44.365234 138.98242 C 50.949157 138.98242 56.248047 143.69663 56.248047 149.55273 L 56.248047 170.81055 C 56.248047 176.66665 50.949157 181.38086 44.365234 181.38086 C 37.781311 181.38086 32.480469 176.66665 32.480469 170.81055 L 32.480469 149.55273 C 32.480469 143.69663 37.781311 138.98242 44.365234 138.98242 z M 80.595703 138.98242 C 87.179626 138.98242 92.480469 143.69663 92.480469 149.55273 L 92.480469 170.81055 C 92.480469 176.66665 87.179626 181.38086 80.595703 181.38086 C 74.01178 181.38086 68.710937 176.66665 68.710938 170.81055 L 68.710938 149.55273 C 68.710938 143.69663 74.01178 138.98242 80.595703 138.98242 z " />
    <path
       id="rect973-9"
       style="fill:#ffff00;fill-opacity:1;fill-rule:evenodd;stroke-width:0;stroke-linecap:round;stroke-linejoin:round"
       d="M 147.25,22.289061 V 187.71094 h 40.59961 c 5.98132,0 11.16998,-2.19537 15.5625,-6.58789 C 207.80463,176.73053 210,171.44947 210,165.28125 V 44.439452 c 0,-5.98132 -2.19536,-11.16998 -6.58789,-15.5625 -4.39252,-4.39252 -9.67358,-6.587891 -15.8418,-6.587891 z" />
  </g>
</svg>
