<?xml version="1.0" encoding="UTF-8" standalone="no"?>
<svg
   height="210"
   width="210"
   version="1.1"
   id="svg4"
   sodipodi:docname="Spay_Group_unselected.svg"
   inkscape:version="1.1.1 (3bf5ae0d25, 2021-09-20)"
   xmlns:inkscape="http://www.inkscape.org/namespaces/inkscape"
   xmlns:sodipodi="http://sodipodi.sourceforge.net/DTD/sodipodi-0.dtd"
   xmlns="http://www.w3.org/2000/svg"
   xmlns:svg="http://www.w3.org/2000/svg">
  <defs
     id="defs8" />
  <sodipodi:namedview
     id="namedview6"
     pagecolor="#505050"
     bordercolor="#eeeeee"
     borderopacity="1"
     inkscape:pageshadow="0"
     inkscape:pageopacity="0"
     inkscape:pagecheckerboard="0"
     showgrid="false"
     height="210px"
     inkscape:zoom="3"
     inkscape:cx="104.33333"
     inkscape:cy="103.16667"
     inkscape:window-width="1920"
     inkscape:window-height="1005"
     inkscape:window-x="-9"
     inkscape:window-y="-9"
     inkscape:window-maximized="1"
     inkscape:current-layer="svg4"
     showguides="true"
     inkscape:guide-bbox="true" />
  <g
     id="g5995">
    <path
       id="rect973-9"
       style="fill:#ffff00;fill-opacity:1;fill-rule:evenodd;stroke-width:0;stroke-linecap:round;stroke-linejoin:round"
       d="M 147.25 22.289062 L 147.25 187.71094 L 187.84961 187.71094 C 193.83093 187.71094 199.01959 185.51557 203.41211 181.12305 C 207.80463 176.73053 210 171.44947 210 165.28125 L 210 44.439453 C 210 38.458133 207.80464 33.269473 203.41211 28.876953 C 199.01959 24.484433 193.73853 22.289063 187.57031 22.289062 L 147.25 22.289062 z M 169.5 44.439453 L 187.75 44.439453 L 187.75 165.56055 L 169.5 165.56055 L 169.5 44.439453 z " />
    <g
       id="g5987">
      <path
         id="rect1350-0"
         style="fill:#ffff00;fill-opacity:1;fill-rule:evenodd;stroke-width:0;stroke-linecap:round;stroke-linejoin:round"
         d="M 22.150391 0 C 16.169071 -5.9211895e-16 10.980411 2.1953676 6.5878906 6.5878906 C 2.1953706 10.980414 -3.5527137e-15 16.261463 0 22.429688 L 0 187.84961 C -1.1842379e-15 193.83093 2.1953706 199.01959 6.5878906 203.41211 C 10.980421 207.80463 16.261457 210 22.429688 210 L 102.84961 210 C 108.83093 210 114.01959 207.80463 118.41211 203.41211 C 122.80463 199.01958 125 193.73853 125 187.57031 L 125 22.150391 C 125 16.169071 122.80464 10.980411 118.41211 6.5878906 C 114.01959 2.1953706 108.73853 -4.7369516e-15 102.57031 0 L 22.150391 0 z M 22.25 22.289062 L 102.71094 22.289062 L 102.71094 187.71094 L 22.25 187.71094 L 22.25 22.289062 z " />
      <g
         id="g5859"
         transform="matrix(0.76082268,0,0,0.76082268,14.335828,38.567038)">
        <rect
           style="fill:#ffff00;fill-opacity:1;fill-rule:evenodd;stroke:#000000;stroke-width:0;stroke-linecap:round;stroke-linejoin:round;stroke-miterlimit:0;stroke-dasharray:none;paint-order:stroke fill markers"
           id="rect2819"
           width="31.240755"
           height="55.728531"
           x="23.848282"
           y="131.98174"
           rx="15.620378"
           ry="13.893623" />
        <rect
           style="fill:#ffff00;fill-opacity:1;fill-rule:evenodd;stroke:#000000;stroke-width:0;stroke-linecap:round;stroke-linejoin:round;stroke-miterlimit:0;stroke-dasharray:none;paint-order:stroke fill markers"
           id="rect2819-5"
           width="31.240755"
           height="55.728531"
           x="71.469528"
           y="131.98174"
           rx="15.620378"
           ry="13.893623" />
      </g>
    </g>
  </g>
</svg>
