<?xml version="1.0" encoding="UTF-8" standalone="no"?>
<!-- Created with Inkscape (http://www.inkscape.org/) -->

<svg
   width="210mm"
   height="210mm"
   viewBox="0 0 210 210"
   version="1.1"
   id="svg5"
   inkscape:version="1.1.1 (3bf5ae0d25, 2021-09-20)"
   sodipodi:docname="Spay.svg"
   xmlns:inkscape="http://www.inkscape.org/namespaces/inkscape"
   xmlns:sodipodi="http://sodipodi.sourceforge.net/DTD/sodipodi-0.dtd"
   xmlns="http://www.w3.org/2000/svg"
   xmlns:svg="http://www.w3.org/2000/svg">
  <sodipodi:namedview
     id="namedview7"
     pagecolor="#505050"
     bordercolor="#eeeeee"
     borderopacity="1"
     inkscape:pageshadow="0"
     inkscape:pageopacity="0"
     inkscape:pagecheckerboard="0"
     inkscape:document-units="mm"
     showgrid="false"
     inkscape:lockguides="false"
     inkscape:snap-grids="true"
     inkscape:snap-to-guides="true"
     inkscape:zoom="0.89804426"
     inkscape:cx="358.55694"
     inkscape:cy="396.97375"
     inkscape:window-width="1920"
     inkscape:window-height="1005"
     inkscape:window-x="-9"
     inkscape:window-y="-9"
     inkscape:window-maximized="1"
     inkscape:current-layer="layer1"
     height="210mm"
     showguides="true"
     inkscape:guide-bbox="true" />
  <defs
     id="defs2" />
  <g
     inkscape:label="Layer 1"
     inkscape:groupmode="layer"
     id="layer1">
    <path
       id="rect2215"
       style="fill:#9aa0a6;fill-opacity:1;fill-rule:evenodd;stroke:#ffffff;stroke-width:0;stroke-linecap:round;stroke-linejoin:round;stroke-miterlimit:0;stroke-dasharray:none;stroke-opacity:1;paint-order:stroke fill markers"
       d="M 140.42383 0 C 62.628939 1.8947806e-14 0 54.459691 0 122.10742 L 0 671.59375 C 3.7895613e-14 739.24148 62.628939 793.70117 140.42383 793.70117 L 653.27734 793.70117 C 731.07223 793.70117 793.70117 739.24148 793.70117 671.59375 L 793.70117 122.10742 C 793.70117 54.459691 731.07223 3.7789276e-16 653.27734 0 L 140.42383 0 z M 166.06641 39.685547 L 627.63477 39.685547 C 697.65016 39.685547 754.01562 88.699075 754.01562 149.58203 L 754.01562 644.11914 C 754.01562 705.0021 697.65016 754.01562 627.63477 754.01562 L 166.06641 754.01562 C 96.051008 754.01562 39.685547 705.0021 39.685547 644.11914 L 39.685547 149.58203 C 39.685547 88.699075 96.051008 39.685547 166.06641 39.685547 z "
       transform="scale(0.26458333)" />
    <path
       id="rect2819"
       style="fill:#9aa0a6;fill-opacity:1;fill-rule:evenodd;stroke:#000000;stroke-width:0;stroke-linecap:round;stroke-linejoin:round;stroke-miterlimit:0;stroke-dasharray:none;paint-order:stroke fill markers"
       d="m 41.465753,128.537 c -8.653743,0 -15.620753,6.19661 -15.620753,13.89372 v 27.94145 c 0,7.69711 6.96701,13.89372 15.620753,13.89372 8.653742,0 15.620235,-6.19661 15.620235,-13.89372 v -27.94145 c 0,-7.69711 -6.966493,-13.89372 -15.620235,-13.89372 z m -0.06408,10.51667 c 2.856357,0 5.156273,3.85756 5.156273,8.64908 v 17.39377 c 0,4.79152 -2.299916,8.64857 -5.156273,8.64857 -2.856358,0 -5.155757,-3.85705 -5.155757,-8.64857 v -17.39377 c 0,-4.79152 2.299399,-8.64908 5.155757,-8.64908 z" />
    <path
       id="rect2819-5"
       style="fill:#9aa0a6;fill-opacity:1;fill-rule:evenodd;stroke:#000000;stroke-width:0;stroke-linecap:round;stroke-linejoin:round;stroke-miterlimit:0;stroke-dasharray:none;paint-order:stroke fill markers"
       d="m 89.112752,128.537 c -8.653743,0 -15.620751,6.19661 -15.620751,13.89372 v 27.94145 c -3e-6,7.69711 6.967008,13.89372 15.620751,13.89372 8.653743,0 15.620238,-6.19661 15.620238,-13.89372 v -27.94145 c 0,-7.69711 -6.966495,-13.89372 -15.620238,-13.89372 z m -0.02997,10.51667 c 2.856355,0 5.155756,3.85756 5.155756,8.64908 v 17.39377 c 0,4.79152 -2.299401,8.64857 -5.155756,8.64857 -2.856357,0 -5.156274,-3.85705 -5.156274,-8.64857 v -17.39377 c 0,-4.79152 2.299917,-8.64908 5.156274,-8.64908 z" />
  </g>
</svg>
