<?xml version="1.0" encoding="UTF-8" standalone="no"?>
<svg
   width="210"
   height="210"
   viewBox="0 0 210 210"
   version="1.1"
   id="svg12"
   sodipodi:docname="Spay_Watch_unselected.svg"
   inkscape:version="1.1.1 (3bf5ae0d25, 2021-09-20)"
   xmlns:inkscape="http://www.inkscape.org/namespaces/inkscape"
   xmlns:sodipodi="http://sodipodi.sourceforge.net/DTD/sodipodi-0.dtd"
   xmlns:xlink="http://www.w3.org/1999/xlink"
   xmlns="http://www.w3.org/2000/svg"
   xmlns:svg="http://www.w3.org/2000/svg"
   xmlns:rdf="http://www.w3.org/1999/02/22-rdf-syntax-ns#"
   xmlns:cc="http://creativecommons.org/ns#"
   xmlns:dc="http://purl.org/dc/elements/1.1/">
  <sodipodi:namedview
     id="namedview14"
     pagecolor="#505050"
     bordercolor="#eeeeee"
     borderopacity="1"
     inkscape:pageshadow="0"
     inkscape:pageopacity="0"
     inkscape:pagecheckerboard="0"
     showgrid="false"
     height="210px"
     inkscape:zoom="3"
     inkscape:cx="110"
     inkscape:cy="102.83333"
     inkscape:window-width="1920"
     inkscape:window-height="1005"
     inkscape:window-x="-9"
     inkscape:window-y="-9"
     inkscape:window-maximized="1"
     inkscape:current-layer="svg12"
     showguides="true"
     inkscape:guide-bbox="true" />
  <title
     id="title2">ic_template</title>
  <defs
     id="defs5">
    <path
       d="m 18,2 c 2.209139,0 4,1.790861 4,4 v 12 c 0,2.209139 -1.790861,4 -4,4 H 6 C 3.790861,22 2,20.209139 2,18 V 6 C 2,3.790861 3.790861,2 6,2 Z m 2.5,6.75 H 3.5 V 18 c 0,1.325483 1.0315359,2.410039 2.3356243,2.494682 L 6,20.5 h 12 c 1.325483,0 2.410039,-1.031536 2.494682,-2.335624 L 20.5,18 Z M 18,3.5 H 6 C 4.6745166,3.5 3.5899613,4.5315359 3.5053177,5.8356243 L 3.5,6 v 1.25 h 17 V 6 c 0,-1.3254834 -1.031536,-2.4100387 -2.335624,-2.4946823 z m -7.4,7.939231 c 0.105322,0 0.208789,0.02772 0.3,0.08038 l 3.396152,1.96077 c 0.286976,0.165685 0.385301,0.532639 0.219616,0.819615 -0.05266,0.09121 -0.128404,0.166954 -0.219616,0.219615 L 10.9,16.480385 C 10.613024,16.64607 10.24607,16.547745 10.080385,16.260769 10.027724,16.169558 10,16.066091 10,15.96077 v -3.921539 c 0,-0.331371 0.268629,-0.6 0.6,-0.6 z M 16.516864,2 18.700866,7.7330035 17.299134,8.2669965 15.483,3.5 h -3.396 l 2.001293,5.25 H 7.4831355 L 5.2991342,3.0169965 6.7008658,2.4830035 8.516,7.25 h 3.396 L 9.911707,2 Z"
       id="_path-1" />
    <mask
       id="_mask-2"
       fill="#ffffff">
      <use
         xlink:href="#_path-1"
         id="use7"
         x="0"
         y="0"
         width="100%"
         height="100%" />
    </mask>
  </defs>
  <metadata
     id="metadata831">
    <rdf:RDF>
      <cc:Work
         rdf:about="">
        <dc:title>ic_template</dc:title>
      </cc:Work>
    </rdf:RDF>
  </metadata>
  <g
     id="g1408">
    <path
       id="_形状结合"
       style="fill:#ffff00;fill-opacity:1;fill-rule:nonzero;stroke:none;stroke-width:10.5"
       d="M 42,0 C 18.80404,0 0,18.80404 0,42 v 126 c 0,23.19596 18.80404,42 42,42 h 126 c 23.19596,0 42,-18.80404 42,-42 V 42 C 210,18.80404 191.19596,0 168,0 Z M 53.425781,15.75 H 89.074219 L 104.07617,55.125 H 68.417969 Z m 52.488279,0 h 35.65821 l 15,39.375 h -35.64844 z m 52.51367,0 H 168 l 1.72656,0.05664 C 183.41948,16.695399 194.25,28.082424 194.25,42 V 55.125 H 173.42773 Z M 36.773438,16.273438 51.572266,55.125 H 15.75 V 42 l 0.05664,-1.726562 c 0.774431,-11.931519 9.521549,-21.686806 20.966798,-24 z M 15.75,70.875 h 178.5 V 168 l -0.0566,1.72656 C 193.30461,183.41948 181.91757,194.25 168,194.25 H 42 l -1.726562,-0.0566 C 26.58051,193.30461 15.75,181.91757 15.75,168 Z" />
    <g
       id="g928"
       transform="translate(-1.5000038,1.9775543)">
      <rect
         style="fill:#ffff00;fill-opacity:1;fill-rule:evenodd;stroke:#000000;stroke-width:0;stroke-linecap:round;stroke-linejoin:round;stroke-miterlimit:0;stroke-dasharray:none;paint-order:stroke fill markers"
         id="rect2819-9-0"
         width="24.454592"
         height="43.623093"
         x="33.000004"
         y="132.89545"
         rx="12.227296"
         ry="10.87563" />
      <rect
         style="fill:#ffff00;fill-opacity:1;fill-rule:evenodd;stroke:#000000;stroke-width:0;stroke-linecap:round;stroke-linejoin:round;stroke-miterlimit:0;stroke-dasharray:none;paint-order:stroke fill markers"
         id="rect2819-7-8"
         width="24.454592"
         height="43.623093"
         x="70.272408"
         y="132.89546"
         rx="12.227296"
         ry="10.87563" />
    </g>
  </g>
</svg>
