<?xml version="1.0" encoding="UTF-8" standalone="no"?>
<svg
   height="24"
   viewBox="0 0 24 24"
   width="24"
   fill="#ffffff"
   version="1.1"
   id="svg970"
   sodipodi:docname="Close.svg"
   inkscape:version="1.1.1 (3bf5ae0d25, 2021-09-20)"
   xmlns:inkscape="http://www.inkscape.org/namespaces/inkscape"
   xmlns:sodipodi="http://sodipodi.sourceforge.net/DTD/sodipodi-0.dtd"
   xmlns="http://www.w3.org/2000/svg"
   xmlns:svg="http://www.w3.org/2000/svg">
  <defs
     id="defs974" />
  <sodipodi:namedview
     id="namedview972"
     pagecolor="#505050"
     bordercolor="#eeeeee"
     borderopacity="1"
     inkscape:pageshadow="0"
     inkscape:pageopacity="0"
     inkscape:pagecheckerboard="0"
     showgrid="false"
     inkscape:zoom="21.114537"
     inkscape:cx="4.830795"
     inkscape:cy="12.053307"
     inkscape:window-width="1920"
     inkscape:window-height="1005"
     inkscape:window-x="-9"
     inkscape:window-y="-9"
     inkscape:window-maximized="1"
     inkscape:current-layer="svg970"
     showguides="true"
     inkscape:guide-bbox="true" />
  <g
     id="g1124">
    <path
       id="rect848"
       style="fill:#ffffff;fill-rule:evenodd;stroke:#ffa47b;stroke-width:0;stroke-linecap:round;stroke-linejoin:round;stroke-opacity:0.99177;fill-opacity:1"
       d="M 5.9223057,8.539006e-7 -2.16e-4,5.9225227 6.0772617,12 -2.16e-4,18.077478 5.9223057,23.999999 11.999783,17.922522 18.077261,23.999999 24.000216,18.077478 17.922739,12 24.000216,5.9225227 18.077261,8.539006e-7 11.999783,6.0774787 Z" />
    <path
       id="rect1199"
       style="fill:#ffffff;fill-opacity:1;fill-rule:evenodd;stroke:#ffa47b;stroke-width:0;stroke-linecap:round;stroke-linejoin:round;stroke-opacity:0.99177"
       d="m 4.4998485,4.5003656 v 5.9196414 c 0,0 1.000474,0.993238 1.0004737,1.578227 0,0.584987 -1.0004737,1.577193 -1.0004737,1.577193 v 5.924293 h 5.9222255 c 0,0 0.993238,-1.000474 1.578227,-1.000474 0.584987,0 1.577193,1.000474 1.577193,1.000474 h 5.922742 V 4.5003656 h -5.924292 c -0.0048,0.00481 -0.9931,0.9989233 -1.576677,0.9989233 -0.583575,0 -1.570872,-0.9941162 -1.575643,-0.9989233 z M 19.49972,10.420007 v 3.15542 c 0,0 -1.000474,-0.993238 -1.000474,-1.578227 0,-0.584987 1.000474,-1.577193 1.000474,-1.577193 z" />
  </g>
</svg>
