<?xml version="1.0" encoding="UTF-8" standalone="no"?>
<svg
   width="210"
   height="210"
   fill="none"
   viewBox="0 0 210 210"
   class="h-10 w-10"
   version="1.1"
   id="svg4"
   sodipodi:docname="Spay_Watch_selected.svg"
   inkscape:version="1.1.1 (3bf5ae0d25, 2021-09-20)"
   xmlns:inkscape="http://www.inkscape.org/namespaces/inkscape"
   xmlns:sodipodi="http://sodipodi.sourceforge.net/DTD/sodipodi-0.dtd"
   xmlns="http://www.w3.org/2000/svg"
   xmlns:svg="http://www.w3.org/2000/svg">
  <defs
     id="defs8" />
  <sodipodi:namedview
     id="namedview6"
     pagecolor="#505050"
     bordercolor="#eeeeee"
     borderopacity="1"
     inkscape:pageshadow="0"
     inkscape:pageopacity="0"
     inkscape:pagecheckerboard="0"
     showgrid="false"
     height="210px"
     inkscape:zoom="3"
     inkscape:cx="111.33333"
     inkscape:cy="100.83333"
     inkscape:window-width="1920"
     inkscape:window-height="1005"
     inkscape:window-x="-9"
     inkscape:window-y="-9"
     inkscape:window-maximized="1"
     inkscape:current-layer="svg4" />
  <g
     id="g1010">
    <path
       id="rect881"
       style="fill:#000000;fill-opacity:1;fill-rule:evenodd;stroke-width:0;stroke-linecap:round;stroke-linejoin:round"
       d="M 8.7734375 58.349609 C 3.9121814 58.349599 1.1842379e-15 62.261781 0 67.123047 L 0 88.302734 C 0 88.309734 0.001953125 88.318772 0.001953125 88.326172 L 0.001953125 90.451172 C 0.001863115 90.465772 -3.6140072e-19 90.481494 0 90.496094 L 0 166.18945 C 0 183.99773 14.336256 198.33594 32.144531 198.33594 L 177.85352 198.33594 C 195.6618 198.33594 210 183.99773 210 166.18945 L 210 90.496094 C 210 90.481494 209.99805 90.465772 209.99805 90.451172 L 209.99805 88.326172 C 209.99813 88.319172 210 88.310134 210 88.302734 L 210 67.123047 C 210 62.261781 206.08586 58.349609 201.22461 58.349609 L 177.85352 58.349609 L 32.144531 58.349609 L 8.7734375 58.349609 z M 52.285156 101.60938 C 61.860498 101.60938 69.570313 108.46559 69.570312 116.98242 L 69.570312 147.90039 C 69.570312 156.41723 61.860498 163.27344 52.285156 163.27344 C 42.709815 163.27344 35.001953 156.41723 35.001953 147.90039 L 35.001953 116.98242 C 35.001953 108.46559 42.709815 101.60938 52.285156 101.60938 z M 104.97852 101.60938 C 114.55386 101.60938 122.26367 108.46559 122.26367 116.98242 L 122.26367 147.90039 C 122.26367 156.41723 114.55386 163.27344 104.97852 163.27344 C 95.403174 163.27344 87.695312 156.41723 87.695312 147.90039 L 87.695312 116.98242 C 87.695312 108.46559 95.403174 101.60938 104.97852 101.60938 z " />
    <path
       id="rect6621"
       style="fill:#000000;fill-opacity:1;fill-rule:evenodd;stroke-width:0;stroke-linecap:round;stroke-linejoin:round"
       d="m 177.89857,11.6647 -145.814961,0.04846 -1.9616,0.06794 A 32.084388,32.084388 0 0 0 -1.6077441e-4,43.809789 l 0.006000004,20.60528 0.007,1e-4 0.002,2.77967 a 8.7502879,8.7501599 89.911289 0 0 7.53344997,8.65395 c 0.85851,-0.007 1.43058,-0.0345 2.38469,-0.0347 l 175.0292308,-0.0491 c 2.58316,-7.7e-4 4.39726,0.0507 6.59971,0.0808 l 9.69418,-0.002 1.18803,-0.0812 a 8.7502879,8.7502879 0 0 0 7.55603,-8.67409 l -0.0171,-23.33109 -0.0465,-1.95475 -0.007,-0.0153 a 32.084388,32.084388 0 0 0 -24.04212,-29.109861 32.084388,32.084388 0 0 0 -7.98869,-1.012363 z m -12.20987,17.512472 -29.15895,29.174747 -32.97515,-0.003 29.15422,-29.151058 z m -57.73951,0.02811 -29.143681,29.166367 -32.98376,-0.005 29.14991,-29.15112 z m -57.724091,0.01118 -0.002,0.0089 -29.15211,29.153257 -3.58162,0.005 -8.3e-4,-14.57687 0.0775,-1.4944 a 14.583813,14.583813 0 0 1 14.49851,-13.081193 z m 136.936921,3.283583 a 14.560479,14.560479 0 0 1 5.31853,11.268074 l -0.01,14.56159 -31.16851,0.0168 z" />
  </g>
</svg>
