<?xml version="1.0" encoding="UTF-8" standalone="no"?>
<svg
   height="210"
   width="210"
   version="1.1"
   id="svg4"
   sodipodi:docname="Spay_Group_selected.svg"
   inkscape:version="1.1.1 (3bf5ae0d25, 2021-09-20)"
   xmlns:inkscape="http://www.inkscape.org/namespaces/inkscape"
   xmlns:sodipodi="http://sodipodi.sourceforge.net/DTD/sodipodi-0.dtd"
   xmlns="http://www.w3.org/2000/svg"
   xmlns:svg="http://www.w3.org/2000/svg">
  <defs
     id="defs8" />
  <sodipodi:namedview
     id="namedview6"
     pagecolor="#505050"
     bordercolor="#eeeeee"
     borderopacity="1"
     inkscape:pageshadow="0"
     inkscape:pageopacity="0"
     inkscape:pagecheckerboard="0"
     showgrid="false"
     height="210px"
     inkscape:zoom="3"
     inkscape:cx="104.33333"
     inkscape:cy="103.5"
     inkscape:window-width="1920"
     inkscape:window-height="1005"
     inkscape:window-x="-9"
     inkscape:window-y="-9"
     inkscape:window-maximized="1"
     inkscape:current-layer="svg4" />
  <g
     id="g881">
    <path
       id="rect1350-0"
       style="fill:#ffffff;fill-opacity:1;fill-rule:evenodd;stroke-width:0;stroke-linecap:round;stroke-linejoin:round"
       d="M 22.150391,0 C 16.169071,0 10.980411,2.1953679 6.5878906,6.5878906 2.1953706,10.980415 0,16.261463 0,22.429688 V 187.84961 c 0,5.98132 2.1953706,11.16998 6.5878906,15.5625 C 10.980421,207.80463 16.261448,210 22.429688,210 h 80.419922 c 5.98132,0 11.16998,-2.19537 15.5625,-6.58789 C 122.80463,199.01958 125,193.73853 125,187.57031 V 22.150391 C 125,16.169071 122.80464,10.980412 118.41211,6.5878906 114.01959,2.1953709 108.73853,0 102.57031,0 Z m 22.214843,138.98242 c 6.583923,0 11.882813,4.71421 11.882813,10.57031 v 21.25782 c 0,5.8561 -5.29889,10.57031 -11.882813,10.57031 -6.583923,0 -11.884765,-4.71421 -11.884765,-10.57031 v -21.25782 c 0,-5.8561 5.300842,-10.57031 11.884765,-10.57031 z m 36.230469,0 c 6.583923,0 11.884766,4.71421 11.884766,10.57031 v 21.25782 c 0,5.8561 -5.300843,10.57031 -11.884766,10.57031 -6.583923,0 -11.884766,-4.71421 -11.884765,-10.57031 v -21.25782 c 0,-5.8561 5.300842,-10.57031 11.884765,-10.57031 z" />
    <path
       id="rect973-9"
       style="fill:#ffffff;fill-opacity:1;fill-rule:evenodd;stroke-width:0;stroke-linecap:round;stroke-linejoin:round"
       d="M 147.25,22.289061 V 187.71094 h 40.59961 c 5.98132,0 11.16998,-2.19537 15.5625,-6.58789 C 207.80463,176.73053 210,171.44947 210,165.28125 V 44.439452 c 0,-5.98132 -2.19536,-11.16998 -6.58789,-15.5625 -4.39252,-4.39252 -9.67358,-6.587891 -15.8418,-6.587891 z" />
  </g>
</svg>
