<?xml version="1.0" encoding="UTF-8" standalone="no"?>
<svg
   height="210"
   width="210"
   version="1.1"
   id="svg4"
   sodipodi:docname="Spay_Group_unselected.svg"
   inkscape:version="1.1.1 (3bf5ae0d25, 2021-09-20)"
   xmlns:inkscape="http://www.inkscape.org/namespaces/inkscape"
   xmlns:sodipodi="http://sodipodi.sourceforge.net/DTD/sodipodi-0.dtd"
   xmlns="http://www.w3.org/2000/svg"
   xmlns:svg="http://www.w3.org/2000/svg">
  <defs
     id="defs8" />
  <sodipodi:namedview
     id="namedview6"
     pagecolor="#505050"
     bordercolor="#eeeeee"
     borderopacity="1"
     inkscape:pageshadow="0"
     inkscape:pageopacity="0"
     inkscape:pagecheckerboard="0"
     showgrid="false"
     height="210px"
     inkscape:zoom="3"
     inkscape:cx="104.33333"
     inkscape:cy="103.16667"
     inkscape:window-width="1920"
     inkscape:window-height="1005"
     inkscape:window-x="-9"
     inkscape:window-y="-9"
     inkscape:window-maximized="1"
     inkscape:current-layer="svg4"
     showguides="true"
     inkscape:guide-bbox="true" />
  <g
     id="g909">
    <path
       id="rect973-9"
       style="fill:#ffffff;fill-opacity:1;fill-rule:evenodd;stroke-width:0;stroke-linecap:round;stroke-linejoin:round"
       d="M 147.25,22.289062 V 187.71094 h 40.59961 c 5.98132,0 11.16998,-2.19537 15.5625,-6.58789 C 207.80463,176.73053 210,171.44947 210,165.28125 V 44.439453 c 0,-5.98132 -2.19536,-11.16998 -6.58789,-15.5625 -4.39252,-4.39252 -9.67358,-6.58789 -15.8418,-6.587891 z m 22.25,22.150391 h 18.25 V 165.56055 H 169.5 Z" />
    <g
       id="g901">
      <path
         id="rect1350-0"
         style="fill:#ffffff;fill-opacity:1;fill-rule:evenodd;stroke-width:0;stroke-linecap:round;stroke-linejoin:round"
         d="M 22.150391,0 C 16.169071,0 10.980411,2.1953676 6.5878906,6.5878906 2.1953706,10.980414 0,16.261463 0,22.429688 V 187.84961 c 0,5.98132 2.1953706,11.16998 6.5878906,15.5625 C 10.980421,207.80463 16.261457,210 22.429688,210 h 80.419922 c 5.98132,0 11.16998,-2.19537 15.5625,-6.58789 C 122.80463,199.01958 125,193.73853 125,187.57031 V 22.150391 c 0,-5.98132 -2.19536,-11.16998 -6.58789,-15.5625004 C 114.01959,2.1953706 108.73853,0 102.57031,0 Z M 22.25,22.289062 h 80.46094 V 187.71094 H 22.25 Z" />
      <g
         id="g895">
        <rect
           style="fill:#ffffff;fill-opacity:1;fill-rule:evenodd;stroke:#000000;stroke-width:0;stroke-linecap:round;stroke-linejoin:round;stroke-miterlimit:0;stroke-dasharray:none;paint-order:stroke fill markers"
           id="rect2819"
           width="23.768675"
           height="42.399529"
           x="32.480141"
           y="138.98174"
           rx="11.884337"
           ry="10.570583" />
        <rect
           style="fill:#ffffff;fill-opacity:1;fill-rule:evenodd;stroke:#000000;stroke-width:0;stroke-linecap:round;stroke-linejoin:round;stroke-miterlimit:0;stroke-dasharray:none;paint-order:stroke fill markers"
           id="rect2819-5"
           width="23.768675"
           height="42.399529"
           x="68.711464"
           y="138.98174"
           rx="11.884337"
           ry="10.570583" />
      </g>
    </g>
  </g>
</svg>
