<?xml version="1.0" encoding="UTF-8" standalone="no"?>
<svg
   height="210"
   viewBox="0 0 210 210"
   width="210"
   fill="#000000"
   version="1.1"
   id="svg6"
   sodipodi:docname="Spay_Watch_selected.svg"
   inkscape:version="1.1.1 (3bf5ae0d25, 2021-09-20)"
   xmlns:inkscape="http://www.inkscape.org/namespaces/inkscape"
   xmlns:sodipodi="http://sodipodi.sourceforge.net/DTD/sodipodi-0.dtd"
   xmlns="http://www.w3.org/2000/svg"
   xmlns:svg="http://www.w3.org/2000/svg">
  <defs
     id="defs10" />
  <sodipodi:namedview
     id="namedview8"
     pagecolor="#505050"
     bordercolor="#eeeeee"
     borderopacity="1"
     inkscape:pageshadow="0"
     inkscape:pageopacity="0"
     inkscape:pagecheckerboard="0"
     showgrid="false"
     inkscape:zoom="3"
     inkscape:cx="104.66667"
     inkscape:cy="105.16667"
     inkscape:window-width="1920"
     inkscape:window-height="1005"
     inkscape:window-x="-9"
     inkscape:window-y="-9"
     inkscape:window-maximized="1"
     inkscape:current-layer="svg6" />
  <path
     id="path821"
     style="stroke-width:5.06635;fill:#000000;fill-opacity:1"
     d="M 20.011719 20.265625 C 14.607619 20.265625 9.9217583 22.25011 5.953125 26.21875 C 1.984485 30.187383 0 34.95827 0 40.53125 L 0 169.97656 C 0 175.54954 1.984485 180.2354 5.953125 184.03516 C 9.9217583 187.83492 14.607619 189.73436 20.011719 189.73438 L 189.73438 189.73438 C 195.30735 189.73438 200.07824 187.74989 204.04688 183.78125 C 208.01552 179.81262 210 175.12676 210 169.72266 L 210 40.53125 C 210 34.95827 208.0155 30.187383 204.04688 26.21875 C 200.07824 22.25011 195.30736 20.265625 189.73438 20.265625 L 163.89648 20.265625 L 182.64258 58.769531 L 149.71094 58.769531 L 130.96484 20.265625 L 108.41992 20.265625 L 127.16602 58.769531 L 94.234375 58.769531 L 75.488281 20.265625 L 52.943359 20.265625 L 71.689453 58.769531 L 38.757812 58.769531 L 20.011719 20.265625 z M 48.716797 102.62891 C 56.999641 102.62891 63.666016 108.56052 63.666016 115.92773 L 63.666016 142.67188 C 63.666016 150.03909 56.999641 155.96875 48.716797 155.96875 C 40.433953 155.96875 33.765625 150.03909 33.765625 142.67188 L 33.765625 115.92773 C 33.765625 108.56052 40.433953 102.62891 48.716797 102.62891 z M 94.296875 102.62891 C 102.57972 102.62891 109.24805 108.56052 109.24805 115.92773 L 109.24805 142.67188 C 109.24805 150.03909 102.57972 155.96875 94.296875 155.96875 C 86.014031 155.96875 79.345703 150.03909 79.345703 142.67188 L 79.345703 115.92773 C 79.345703 108.56052 86.014031 102.62891 94.296875 102.62891 z " />
</svg>
