<?xml version="1.0" encoding="UTF-8" standalone="no"?>
<svg
   height="210"
   viewBox="0 0 210 210"
   width="210"
   fill="#000000"
   version="1.1"
   id="svg6"
   sodipodi:docname="Spay_Watch_unselected.svg"
   inkscape:version="1.1.1 (3bf5ae0d25, 2021-09-20)"
   xmlns:inkscape="http://www.inkscape.org/namespaces/inkscape"
   xmlns:sodipodi="http://sodipodi.sourceforge.net/DTD/sodipodi-0.dtd"
   xmlns="http://www.w3.org/2000/svg"
   xmlns:svg="http://www.w3.org/2000/svg">
  <defs
     id="defs10" />
  <sodipodi:namedview
     id="namedview8"
     pagecolor="#505050"
     bordercolor="#eeeeee"
     borderopacity="1"
     inkscape:pageshadow="0"
     inkscape:pageopacity="0"
     inkscape:pagecheckerboard="0"
     showgrid="false"
     height="210px"
     inkscape:zoom="3"
     inkscape:cx="105"
     inkscape:cy="105.16667"
     inkscape:window-width="1920"
     inkscape:window-height="1005"
     inkscape:window-x="-9"
     inkscape:window-y="-9"
     inkscape:window-maximized="1"
     inkscape:current-layer="svg6" />
  <g
     id="g857">
    <g
       id="g851">
      <rect
         style="fill:#000000;fill-opacity:1;fill-rule:evenodd;stroke:#000000;stroke-width:0;stroke-linecap:round;stroke-linejoin:round;stroke-miterlimit:0;stroke-dasharray:none;paint-order:stroke fill markers"
         id="rect2819"
         width="29.901964"
         height="53.34034"
         x="33.76506"
         y="102.62922"
         rx="14.950982"
         ry="13.298226" />
      <rect
         style="fill:#000000;fill-opacity:1;fill-rule:evenodd;stroke:#000000;stroke-width:0;stroke-linecap:round;stroke-linejoin:round;stroke-miterlimit:0;stroke-dasharray:none;paint-order:stroke fill markers"
         id="rect2819-5"
         width="29.901964"
         height="53.34034"
         x="79.345543"
         y="102.62922"
         rx="14.950982"
         ry="13.298226" />
    </g>
    <path
       d="M 20.01206,20.265383 38.75753,58.769601 H 71.68878 L 52.94331,20.265383 h 22.54522 l 18.74549,38.504218 h 32.93124 L 108.41978,20.265383 h 22.54524 l 18.74547,38.504218 h 32.93124 L 163.89626,20.265383 h 25.83835 q 8.35947,0 14.31243,5.952958 Q 210,32.171289 210,40.530759 V 169.72256 q 0,8.10615 -5.95296,14.05911 -5.95296,5.95295 -14.31243,5.95295 H 20.01206 q -8.10615,0 -14.0591,-5.69964 Q 0,178.33535 0,169.97588 V 40.530759 q 0,-8.35947 5.95296,-14.312418 5.95295,-5.952958 14.0591,-5.952958 z m 0,58.769605 v 90.687572 q 0,0 0,0 0,0 0,0 h 169.72255 q 0,0 0,0 0,0 0,0 V 79.034988 Z m 0,0 v 90.687572 q 0,0 0,0 0,0 0,0 0,0 0,0 0,0 0,0 z"
       id="path825"
       style="fill:#000000;fill-opacity:1;stroke-width:5.06635" />
  </g>
</svg>
