<?xml version="1.0" encoding="UTF-8" standalone="no"?>
<!-- Created with Inkscape (http://www.inkscape.org/) -->

<svg
   width="150mm"
   height="150mm"
   viewBox="0 0 150 150"
   version="1.1"
   id="svg5"
   inkscape:version="1.1.1 (3bf5ae0d25, 2021-09-20)"
   sodipodi:docname="Facebook-share.svg"
   xmlns:inkscape="http://www.inkscape.org/namespaces/inkscape"
   xmlns:sodipodi="http://sodipodi.sourceforge.net/DTD/sodipodi-0.dtd"
   xmlns="http://www.w3.org/2000/svg"
   xmlns:svg="http://www.w3.org/2000/svg">
  <sodipodi:namedview
     id="namedview7"
     pagecolor="#505050"
     bordercolor="#eeeeee"
     borderopacity="1"
     inkscape:pageshadow="0"
     inkscape:pageopacity="0"
     inkscape:pagecheckerboard="0"
     inkscape:document-units="mm"
     showgrid="false"
     inkscape:zoom="0.9"
     inkscape:cx="287.77778"
     inkscape:cy="296.11111"
     inkscape:window-width="1920"
     inkscape:window-height="1005"
     inkscape:window-x="-9"
     inkscape:window-y="-9"
     inkscape:window-maximized="1"
     inkscape:current-layer="layer1" />
  <defs
     id="defs2" />
  <g
     inkscape:label="Layer 1"
     inkscape:groupmode="layer"
     id="layer1">
    <g
       id="g1830">
      <path
         id="rect846-21-6-7-4"
         style="fill:#1877f2;fill-opacity:1;fill-rule:evenodd;stroke-width:0;stroke-linecap:round;stroke-linejoin:round"
         d="M 49.999975,-7.2628034e-5 V 9.9998337 H 30.000163 V 20.000257 h -9.999906 v 9.999906 H 9.9998337 v 9.999906 9.999906 H -7.2628034e-5 V 100.00002 H 9.9998337 v 19.99982 H 19.99974 v 9.9999 h 10.000423 v 10.00043 h 9.999906 9.999906 v 9.9999 h 50.000045 v -9.9999 h 19.99982 v -10.00043 h 9.9999 v -9.9999 h 10.00043 v -9.99991 -9.99991 h 9.9999 V 49.999975 h -9.9999 V 30.000163 h -9.99991 V 20.000257 H 119.99984 V 9.9998337 h -9.99991 -9.99991 V -7.2628034e-5 Z M 129.99974,40.000069 h 5.3e-4 v 19.999812 h -5.3e-4 z m -110,50.000048 h 5.29e-4 v 19.999813 h -5.29e-4 z" />
      <path
         id="rect1400-6"
         style="fill:#ffffff;fill-opacity:1;fill-rule:evenodd;stroke-width:0;stroke-linecap:round;stroke-linejoin:round"
         d="m 85.000164,40.000069 v 5.29e-4 h -9.999906 v 9.999909 h -9.999905 v 9.999906 19.999811 H 45.000022 v 19.999816 h 20.000331 v 50.00003 h 19.999812 v -50.00005 h 9.999903 v -9.999903 h 9.999912 V 80.000211 H 95.000068 85.000165 V 60.000399 h 19.999815 v -20.00033 z" />
    </g>
  </g>
</svg>
