<?xml version="1.0" encoding="UTF-8" standalone="no"?>
<!-- Created with Inkscape (http://www.inkscape.org/) -->

<svg
   width="210mm"
   height="210mm"
   viewBox="0 0 210 210"
   version="1.1"
   id="svg5"
   inkscape:version="1.1.1 (3bf5ae0d25, 2021-09-20)"
   sodipodi:docname="rfbstore.svg"
   xmlns:inkscape="http://www.inkscape.org/namespaces/inkscape"
   xmlns:sodipodi="http://sodipodi.sourceforge.net/DTD/sodipodi-0.dtd"
   xmlns="http://www.w3.org/2000/svg"
   xmlns:svg="http://www.w3.org/2000/svg">
  <sodipodi:namedview
     id="namedview7"
     pagecolor="#505050"
     bordercolor="#eeeeee"
     borderopacity="1"
     inkscape:pageshadow="0"
     inkscape:pageopacity="0"
     inkscape:pagecheckerboard="0"
     inkscape:document-units="mm"
     showgrid="false"
     inkscape:zoom="0.66468037"
     inkscape:cx="288.86064"
     inkscape:cy="373.86391"
     inkscape:window-width="1920"
     inkscape:window-height="1005"
     inkscape:window-x="-9"
     inkscape:window-y="-9"
     inkscape:window-maximized="1"
     inkscape:current-layer="layer1"
     height="210mm"
     showguides="true"
     inkscape:guide-bbox="true" />
  <defs
     id="defs2" />
  <g
     inkscape:label="Layer 1"
     inkscape:groupmode="layer"
     id="layer1">
    <g
       id="g834">
      <rect
         style="fill:#02c2a2;fill-opacity:1;fill-rule:evenodd;stroke:#ffffff;stroke-width:0;stroke-linecap:round;stroke-linejoin:round;stroke-miterlimit:0;paint-order:stroke fill markers"
         id="rect844"
         width="210"
         height="210"
         x="1.2809198e-14"
         y="7.4384943e-15"
         ry="29.817719"
         rx="30.025118" />
      <path
         id="rect17871"
         style="fill:#03cf00;fill-opacity:1;fill-rule:evenodd;stroke:#004909;stroke-width:0.7;stroke-linecap:round;stroke-linejoin:round;stroke-miterlimit:4;stroke-dasharray:none;stroke-opacity:1;paint-order:normal"
         d="m 67.342141,36.973454 v 9.997321 h 9.4294 v -9.997321 z m 9.4294,9.997321 v 9.255249 h 9.499677 v -9.255249 z m 9.499677,0 h 9.46454 v -9.997321 h -9.46454 z m 0,9.255249 v 9.744109 h -9.499677 v 9.921875 h -9.4294 v 9.491927 h -9.872266 v 57.111245 h 9.872266 v 9.46454 h 9.4294 v 9.49967 h 9.499677 v 10.15442 h 37.963572 v -10.15442 h 9.25318 v -9.49967 h 9.64024 v -9.46454 h 9.77718 V 85.383935 h -9.77718 v -9.491927 h -9.64024 v -9.921875 h -9.25318 v -9.744109 h -9.60561 v -19.25257 h -9.63146 v 19.25257 h -9.261962 z m 47.216752,9.744109 h 9.64024 V 46.970775 h -9.64024 z m 0,-18.999358 v -9.997321 h -9.25318 v 9.997321 z M 76.771541,65.970133 v -9.744109 h -9.4294 v 9.744109 z m -9.4294,-9.744109 v -9.255249 h -9.872266 v 9.255249 z" />
      <path
         id="path17379"
         style="fill:none;fill-opacity:0;fill-rule:evenodd;stroke:#004237;stroke-width:4.70001;stroke-linecap:round;stroke-linejoin:round;stroke-miterlimit:4;stroke-dasharray:none;stroke-opacity:1;paint-order:normal"
         d="m 155.32177,17.681712 a 50.629814,50.629814 0 0 1 0.0558,2.37736 v 0 A 50.629814,50.629814 0 0 1 104.7478,70.688886 50.629814,50.629814 0 0 1 54.118005,20.059072 a 50.629814,50.629814 0 0 1 0.0559,-2.378416" />
      <path
         id="rect25943"
         style="fill:#010000;fill-opacity:1;fill-rule:evenodd;stroke:#ffa47b;stroke-width:0;stroke-linecap:round;stroke-linejoin:round;stroke-miterlimit:4;stroke-dasharray:none;stroke-opacity:0.99177;paint-order:normal"
         d="m 101.68165,90.141268 v 7.036779 h -6.896222 v 6.755143 h 27.514082 v -6.755143 h -13.86272 v -7.036779 z m -6.896222,13.791922 h -6.895704 v 6.9665 h 6.895704 z m 0,6.9665 v 6.82594 h 20.547582 v -6.82594 z m 20.547582,6.82594 v 6.8957 h 6.9665 v -6.8957 z m 0,6.8957 H 94.785428 87.889724 v 6.75566 h 13.791926 v 6.9665 h 6.75514 v -6.9665 h 6.89622 z" />
    </g>
  </g>
</svg>
