<?xml version="1.0" encoding="UTF-8" standalone="no"?>
<!-- Created with Inkscape (http://www.inkscape.org/) -->

<svg
   width="140mm"
   height="130mm"
   viewBox="0 0 140 130"
   version="1.1"
   id="svg5"
   inkscape:version="1.1.1 (3bf5ae0d25, 2021-09-20)"
   sodipodi:docname="Share-Google.svg"
   xmlns:inkscape="http://www.inkscape.org/namespaces/inkscape"
   xmlns:sodipodi="http://sodipodi.sourceforge.net/DTD/sodipodi-0.dtd"
   xmlns="http://www.w3.org/2000/svg"
   xmlns:svg="http://www.w3.org/2000/svg">
  <sodipodi:namedview
     id="namedview7"
     pagecolor="#505050"
     bordercolor="#eeeeee"
     borderopacity="1"
     inkscape:pageshadow="0"
     inkscape:pageopacity="0"
     inkscape:pagecheckerboard="0"
     inkscape:document-units="mm"
     showgrid="false"
     inkscape:zoom="1"
     inkscape:cx="267"
     inkscape:cy="247.5"
     inkscape:window-width="1372"
     inkscape:window-height="987"
     inkscape:window-x="0"
     inkscape:window-y="0"
     inkscape:window-maximized="0"
     inkscape:current-layer="layer1" />
  <defs
     id="defs2" />
  <g
     inkscape:label="Layer 1"
     inkscape:groupmode="layer"
     id="layer1">
    <g
       id="g870">
      <path
         id="rect858"
         style="fill:#000000;fill-opacity:1;fill-rule:evenodd;stroke-width:0;stroke-linecap:round;stroke-linejoin:round"
         d="M 377.95312 0 L 377.95312 37.794922 L 491.33789 37.794922 L 491.33789 0 L 377.95312 0 z M 491.33789 37.794922 L 491.33789 151.18164 L 529.13477 151.18164 L 529.13477 37.794922 L 491.33789 37.794922 z M 491.33789 151.18164 L 377.95312 151.18164 L 377.95312 188.97656 L 491.33789 188.97656 L 491.33789 151.18164 z M 377.95312 151.18164 L 377.95312 37.794922 L 340.1582 37.794922 L 340.1582 75.589844 L 302.36133 75.589844 L 302.36133 113.38672 L 340.1582 113.38672 L 340.1582 151.18164 L 377.95312 151.18164 z M 340.1582 151.18164 L 302.36133 151.18164 L 302.36133 188.97656 L 340.1582 188.97656 L 340.1582 151.18164 z M 302.36133 188.97656 L 264.56641 188.97656 L 264.56641 226.77148 L 302.36133 226.77148 L 302.36133 188.97656 z M 264.56641 226.77148 L 226.77148 226.77148 L 226.77148 264.56641 L 264.56641 264.56641 L 264.56641 226.77148 z M 264.56641 264.56641 L 264.56641 302.36133 L 302.36133 302.36133 L 302.36133 264.56641 L 264.56641 264.56641 z M 302.36133 302.36133 L 302.36133 340.1582 L 340.1582 340.1582 L 340.1582 302.36133 L 302.36133 302.36133 z M 340.1582 340.1582 L 340.1582 377.95312 L 302.36133 377.95312 L 302.36133 415.74805 L 340.1582 415.74805 L 340.1582 453.54297 L 377.95312 453.54297 L 377.95312 340.1582 L 340.1582 340.1582 z M 377.95312 340.1582 L 491.33789 340.1582 L 491.33789 302.36133 L 377.95312 302.36133 L 377.95312 340.1582 z M 491.33789 340.1582 L 491.33789 453.54297 L 529.13477 453.54297 L 529.13477 340.1582 L 491.33789 340.1582 z M 491.33789 453.54297 L 377.95312 453.54297 L 377.95312 491.33789 L 491.33789 491.33789 L 491.33789 453.54297 z M 302.36133 377.95312 L 302.36133 340.1582 L 264.56641 340.1582 L 264.56641 377.95312 L 302.36133 377.95312 z M 264.56641 340.1582 L 264.56641 302.36133 L 226.77148 302.36133 L 226.77148 340.1582 L 264.56641 340.1582 z M 226.77148 302.36133 L 226.77148 264.56641 L 188.97656 264.56641 L 188.97656 226.77148 L 226.77148 226.77148 L 226.77148 188.97656 L 188.97656 188.97656 L 151.18164 188.97656 L 151.18164 302.36133 L 188.97656 302.36133 L 226.77148 302.36133 z M 151.18164 302.36133 L 37.794922 302.36133 L 37.794922 340.1582 L 151.18164 340.1582 L 151.18164 302.36133 z M 37.794922 302.36133 L 37.794922 188.97656 L 0 188.97656 L 0 302.36133 L 37.794922 302.36133 z M 37.794922 188.97656 L 151.18164 188.97656 L 151.18164 151.18164 L 37.794922 151.18164 L 37.794922 188.97656 z M 226.77148 188.97656 L 264.56641 188.97656 L 264.56641 151.18164 L 226.77148 151.18164 L 226.77148 188.97656 z M 264.56641 151.18164 L 302.36133 151.18164 L 302.36133 113.38672 L 264.56641 113.38672 L 264.56641 151.18164 z "
         transform="scale(0.26458333)" />
      <path
         id="rect858-2"
         style="fill:#2e58da;fill-opacity:1;fill-rule:evenodd;stroke-width:0;stroke-linecap:round;stroke-linejoin:round"
         d="M 377.95312 37.794922 L 377.95312 151.18164 L 491.33789 151.18164 L 491.33789 37.794922 L 377.95312 37.794922 z M 37.794922 188.97656 L 37.794922 302.36133 L 151.18164 302.36133 L 151.18164 188.97656 L 37.794922 188.97656 z M 377.95312 340.1582 L 377.95312 453.54297 L 491.33789 453.54297 L 491.33789 340.1582 L 377.95312 340.1582 z "
         transform="scale(0.26458333)" />
      <path
         id="rect858-1-9-0"
         style="fill:#c6c6c6;fill-opacity:1;fill-rule:evenodd;stroke-width:0;stroke-linecap:round;stroke-linejoin:round"
         d="M 302.36133 113.38672 L 302.36133 151.18164 L 340.1582 151.18164 L 340.1582 113.38672 L 302.36133 113.38672 z M 302.36133 151.18164 L 264.56641 151.18164 L 264.56641 188.97656 L 302.36133 188.97656 L 302.36133 151.18164 z M 264.56641 188.97656 L 226.77148 188.97656 L 226.77148 226.77148 L 264.56641 226.77148 L 264.56641 188.97656 z M 226.77148 226.77148 L 188.97656 226.77148 L 188.97656 264.56641 L 226.77148 264.56641 L 226.77148 226.77148 z M 226.77148 264.56641 L 226.77148 302.36133 L 264.56641 302.36133 L 264.56641 264.56641 L 226.77148 264.56641 z M 264.56641 302.36133 L 264.56641 340.1582 L 302.36133 340.1582 L 302.36133 302.36133 L 264.56641 302.36133 z M 302.36133 340.1582 L 302.36133 377.95312 L 340.1582 377.95312 L 340.1582 340.1582 L 302.36133 340.1582 z "
         transform="scale(0.26458333)" />
    </g>
  </g>
</svg>
