<?xml version="1.0" encoding="UTF-8" standalone="no"?>
<!-- Created with Inkscape (http://www.inkscape.org/) -->

<svg
   width="150mm"
   height="130mm"
   viewBox="0 0 150 130"
   version="1.1"
   id="svg5"
   inkscape:version="1.1.1 (3bf5ae0d25, 2021-09-20)"
   sodipodi:docname="Share-HUAWEI.svg"
   xmlns:inkscape="http://www.inkscape.org/namespaces/inkscape"
   xmlns:sodipodi="http://sodipodi.sourceforge.net/DTD/sodipodi-0.dtd"
   xmlns="http://www.w3.org/2000/svg"
   xmlns:svg="http://www.w3.org/2000/svg">
  <sodipodi:namedview
     id="namedview7"
     pagecolor="#505050"
     bordercolor="#eeeeee"
     borderopacity="1"
     inkscape:pageshadow="0"
     inkscape:pageopacity="0"
     inkscape:pagecheckerboard="0"
     inkscape:document-units="mm"
     showgrid="false"
     inkscape:zoom="1.3"
     inkscape:cx="268.46154"
     inkscape:cy="247.30769"
     inkscape:window-width="1920"
     inkscape:window-height="1005"
     inkscape:window-x="-9"
     inkscape:window-y="-9"
     inkscape:window-maximized="1"
     inkscape:current-layer="layer1" />
  <defs
     id="defs2" />
  <g
     inkscape:label="Layer 1"
     inkscape:groupmode="layer"
     id="layer1">
    <g
       id="g12211">
      <path
         id="rect7984-4"
         style="fill:#000000;fill-opacity:1;fill-rule:evenodd;stroke-width:0;stroke-linecap:round;stroke-linejoin:round"
         d="M 37.794922 0 L 37.794922 37.792969 L 0 37.792969 L 0 151.17969 L 37.794922 151.17969 L 37.794922 37.794922 L 151.18164 37.794922 L 151.18164 0 L 37.794922 0 z M 151.18164 37.794922 L 151.18164 151.18164 L 188.97656 151.18164 L 226.77148 151.18164 L 226.77148 340.15625 L 188.97656 340.15625 L 151.18164 340.15625 L 151.18164 453.54297 L 188.97656 453.54297 L 302.36328 453.54297 L 340.1582 453.54297 L 340.1582 302.36133 L 377.95312 302.36133 L 415.74805 302.36133 L 415.74805 188.97656 L 529.13477 188.97656 L 529.13477 151.18164 L 415.74805 151.18164 L 415.74805 188.97461 L 377.95312 188.97461 L 340.1582 188.97461 L 340.1582 37.792969 L 302.36328 37.792969 L 302.36328 37.794922 L 188.97656 37.794922 L 151.18164 37.794922 z M 529.13477 188.97656 L 529.13477 302.36328 L 566.92969 302.36328 L 566.92969 188.97656 L 529.13477 188.97656 z M 529.13477 302.36328 L 415.74805 302.36328 L 415.74805 340.1582 L 529.13477 340.1582 L 529.13477 302.36328 z M 151.18164 453.54297 L 37.794922 453.54297 L 37.794922 491.33789 L 151.18164 491.33789 L 151.18164 453.54297 z M 151.18164 340.15625 L 151.18164 302.36133 L 37.794922 302.36133 L 37.794922 340.1543 L 0 340.1543 L 0 453.54102 L 37.794922 453.54102 L 37.794922 340.15625 L 151.18164 340.15625 z M 151.18164 151.18164 L 37.794922 151.18164 L 37.794922 188.97656 L 151.18164 188.97656 L 151.18164 151.18164 z M 188.97656 75.589844 L 302.36328 75.589844 L 302.36328 188.97461 L 302.36328 226.76953 L 340.1582 226.76953 L 377.95312 226.76953 L 377.95312 264.56641 L 302.36328 264.56641 L 302.36328 302.36133 L 302.36328 415.74805 L 188.97656 415.74805 L 188.97656 377.95312 L 264.56641 377.95312 L 264.56641 340.15625 L 264.56641 113.38672 L 188.97656 113.38672 L 188.97656 75.589844 z "
         transform="scale(0.26458333)" />
      <path
         id="rect7984-9-9-0"
         style="fill:#c6c6c6;fill-opacity:1;fill-rule:evenodd;stroke-width:0;stroke-linecap:round;stroke-linejoin:round"
         d="M 188.97656 75.589844 L 188.97656 113.38672 L 264.56641 113.38672 L 264.56641 226.76953 L 264.56641 264.56445 L 264.56641 377.95312 L 188.97656 377.95312 L 188.97656 415.74805 L 264.56641 415.74805 L 302.36328 415.74805 L 302.36328 377.95312 L 302.36328 264.56445 L 377.95312 264.56445 L 377.95312 226.76953 L 302.36328 226.76953 L 302.36328 75.589844 L 188.97656 75.589844 z "
         transform="scale(0.26458333)" />
      <path
         id="rect2768-6"
         style="fill:#2e58da;fill-opacity:1;fill-rule:evenodd;stroke-width:0;stroke-linecap:round;stroke-linejoin:round"
         d="M 37.794922 37.794922 L 37.794922 151.17969 L 151.18164 151.17969 L 151.18164 37.794922 L 37.794922 37.794922 z M 415.74805 188.97656 L 415.74805 302.36133 L 529.13477 302.36133 L 529.13477 188.97656 L 415.74805 188.97656 z M 37.794922 340.15625 L 37.794922 453.54102 L 151.18164 453.54102 L 151.18164 340.15625 L 37.794922 340.15625 z "
         transform="scale(0.26458333)" />
    </g>
  </g>
</svg>
