<?xml version="1.0" encoding="UTF-8" standalone="no"?>
<!-- Created with Inkscape (http://www.inkscape.org/) -->

<svg
   width="150mm"
   height="130mm"
   viewBox="0 0 150 130"
   version="1.1"
   id="svg5"
   inkscape:version="1.1.1 (3bf5ae0d25, 2021-09-20)"
   sodipodi:docname="Share-Microsoft.svg"
   xmlns:inkscape="http://www.inkscape.org/namespaces/inkscape"
   xmlns:sodipodi="http://sodipodi.sourceforge.net/DTD/sodipodi-0.dtd"
   xmlns="http://www.w3.org/2000/svg"
   xmlns:svg="http://www.w3.org/2000/svg">
  <sodipodi:namedview
     id="namedview7"
     pagecolor="#505050"
     bordercolor="#eeeeee"
     borderopacity="1"
     inkscape:pageshadow="0"
     inkscape:pageopacity="0"
     inkscape:pagecheckerboard="0"
     inkscape:document-units="mm"
     showgrid="false"
     inkscape:zoom="0.9"
     inkscape:cx="283.33333"
     inkscape:cy="247.22222"
     inkscape:window-width="1372"
     inkscape:window-height="987"
     inkscape:window-x="0"
     inkscape:window-y="0"
     inkscape:window-maximized="0"
     inkscape:current-layer="layer1" />
  <defs
     id="defs2" />
  <g
     inkscape:label="Layer 1"
     inkscape:groupmode="layer"
     id="layer1">
    <g
       id="g2940">
      <path
         id="rect858-1-9-9-1-8-2-8-7-6"
         style="fill:#000000;fill-opacity:1;fill-rule:evenodd;stroke-width:0;stroke-linecap:round;stroke-linejoin:round"
         d="M 0 0 L 0 37.794922 L 0 491.33789 L 37.794922 491.33789 L 566.92969 491.33789 L 566.92969 453.54297 L 566.92969 377.95312 L 566.92969 340.1582 L 453.54297 340.1582 L 453.54297 377.95312 L 113.38672 377.95312 L 113.38672 113.38672 L 188.97656 113.38672 L 226.77148 113.38672 L 226.77148 0 L 188.97656 0 L 0 0 z M 37.794922 37.794922 L 188.97656 37.794922 L 188.97656 75.589844 L 75.589844 75.589844 L 75.589844 113.38672 L 75.589844 415.74805 L 113.38672 415.74805 L 491.33789 415.74805 L 491.33789 377.95312 L 529.13477 377.95312 L 529.13477 453.54297 L 37.794922 453.54297 L 37.794922 37.794922 z "
         transform="scale(0.26458333)" />
      <path
         id="rect858-2-1-0"
         style="fill:#2e58da;fill-opacity:1;fill-rule:evenodd;stroke-width:0;stroke-linecap:round;stroke-linejoin:round"
         d="M 415.74805 75.589844 L 415.74805 151.18164 L 302.36133 151.18164 L 264.56641 151.18164 L 264.56641 188.97656 L 226.77148 188.97656 L 226.77148 302.36133 L 264.56641 302.36133 L 264.56641 226.77148 L 302.36133 226.77148 L 302.36133 188.97656 L 415.74805 188.97656 L 415.74805 264.56641 L 453.54297 264.56641 L 453.54297 226.77148 L 491.33789 226.77148 L 491.33789 188.97656 L 529.13477 188.97656 L 529.13477 151.18164 L 491.33789 151.18164 L 491.33789 113.38672 L 453.54297 113.38672 L 453.54297 75.589844 L 415.74805 75.589844 z "
         transform="scale(0.26458333)" />
      <path
         id="rect858-1-9-0-0-6"
         style="fill:#c6c6c6;fill-opacity:1;fill-rule:evenodd;stroke-width:0;stroke-linecap:round;stroke-linejoin:round"
         d="M 37.794922 37.794922 L 37.794922 75.589844 L 37.794922 453.54297 L 75.589844 453.54297 L 529.13477 453.54297 L 529.13477 415.74805 L 529.13477 377.95312 L 491.33789 377.95312 L 491.33789 415.74805 L 75.589844 415.74805 L 75.589844 75.589844 L 188.97656 75.589844 L 188.97656 37.794922 L 37.794922 37.794922 z "
         transform="scale(0.26458333)" />
      <path
         id="rect858-1-9-9-1-8-2-8-7-7"
         style="fill:#000000;fill-opacity:1;fill-rule:evenodd;stroke-width:0;stroke-linecap:round;stroke-linejoin:round"
         d="M 377.95312 37.794922 L 377.95312 113.38672 L 264.56641 113.38672 L 264.56641 151.18164 L 415.74805 151.18164 L 415.74805 113.38672 L 415.74805 75.589844 L 453.54297 75.589844 L 453.54297 37.794922 L 415.74805 37.794922 L 377.95312 37.794922 z M 453.54297 75.589844 L 453.54297 113.38672 L 491.33789 113.38672 L 491.33789 75.589844 L 453.54297 75.589844 z M 491.33789 113.38672 L 491.33789 151.18164 L 529.13477 151.18164 L 529.13477 113.38672 L 491.33789 113.38672 z M 529.13477 151.18164 L 529.13477 188.97656 L 566.92969 188.97656 L 566.92969 151.18164 L 529.13477 151.18164 z M 529.13477 188.97656 L 491.33789 188.97656 L 491.33789 226.77148 L 529.13477 226.77148 L 529.13477 188.97656 z M 491.33789 226.77148 L 453.54297 226.77148 L 453.54297 264.56641 L 491.33789 264.56641 L 491.33789 226.77148 z M 453.54297 264.56641 L 415.74805 264.56641 L 415.74805 226.77148 L 415.74805 188.97656 L 302.36133 188.97656 L 302.36133 226.77148 L 377.95312 226.77148 L 377.95312 302.36133 L 415.74805 302.36133 L 453.54297 302.36133 L 453.54297 264.56641 z M 302.36133 226.77148 L 264.56641 226.77148 L 264.56641 302.36133 L 226.77148 302.36133 L 226.77148 188.97656 L 188.97656 188.97656 L 188.97656 340.1582 L 226.77148 340.1582 L 302.36133 340.1582 L 302.36133 302.36133 L 302.36133 226.77148 z M 226.77148 188.97656 L 264.56641 188.97656 L 264.56641 151.18164 L 226.77148 151.18164 L 226.77148 188.97656 z "
         transform="scale(0.26458333)" />
    </g>
  </g>
</svg>
