<?xml version="1.0" encoding="UTF-8" standalone="no"?>
<svg
   width="210"
   height="210"
   fill="none"
   viewBox="0 0 210 210"
   class="h-10 w-10"
   version="1.1"
   id="svg4"
   sodipodi:docname="Spay_Grids_unselected.svg"
   inkscape:version="1.1.1 (3bf5ae0d25, 2021-09-20)"
   xmlns:inkscape="http://www.inkscape.org/namespaces/inkscape"
   xmlns:sodipodi="http://sodipodi.sourceforge.net/DTD/sodipodi-0.dtd"
   xmlns="http://www.w3.org/2000/svg"
   xmlns:svg="http://www.w3.org/2000/svg">
  <defs
     id="defs8" />
  <sodipodi:namedview
     id="namedview6"
     pagecolor="#505050"
     bordercolor="#eeeeee"
     borderopacity="1"
     inkscape:pageshadow="0"
     inkscape:pageopacity="0"
     inkscape:pagecheckerboard="0"
     showgrid="false"
     height="210px"
     inkscape:zoom="3"
     inkscape:cx="105.66667"
     inkscape:cy="100.5"
     inkscape:window-width="1920"
     inkscape:window-height="1005"
     inkscape:window-x="-9"
     inkscape:window-y="-9"
     inkscape:window-maximized="1"
     inkscape:current-layer="svg4"
     showguides="true"
     inkscape:guide-bbox="true" />
  <g
     id="g912">
    <g
       id="g892">
      <rect
         style="fill:#ffffff;fill-opacity:1;fill-rule:evenodd;stroke:#000000;stroke-width:0;stroke-linecap:round;stroke-linejoin:round;stroke-miterlimit:0;stroke-dasharray:none;paint-order:stroke fill markers"
         id="rect2819"
         width="29.753233"
         height="53.075027"
         x="31.492094"
         y="104.42506"
         rx="14.876616"
         ry="13.232081" />
      <rect
         style="fill:#ffffff;fill-opacity:1;fill-rule:evenodd;stroke:#000000;stroke-width:0;stroke-linecap:round;stroke-linejoin:round;stroke-miterlimit:0;stroke-dasharray:none;paint-order:stroke fill markers"
         id="rect2819-5"
         width="29.753233"
         height="53.075027"
         x="76.845863"
         y="104.42506"
         rx="14.876616"
         ry="13.232081" />
    </g>
    <g
       id="g902">
      <path
         d="M 0,55.125 A 34.125,34.125 0 0 1 34.125,21 h 141.75 A 34.125,34.125 0 0 1 210,55.125 v 99.75 A 34.125,34.125 0 0 1 175.875,189 H 34.125 A 34.125,34.125 0 0 1 0,154.875 Z M 34.125,36.75 A 18.375,18.375 0 0 0 15.75,55.125 v 99.75 c 0,10.143 8.232,18.375 18.375,18.375 h 141.75 A 18.375,18.375 0 0 0 194.25,154.875 V 55.125 A 18.375,18.375 0 0 0 175.875,36.75 Z"
         fill="#ffffff"
         id="path2"
         style="fill:#ffffff;fill-opacity:1;stroke-width:10.5" />
      <g
         id="g896">
        <rect
           style="fill:#ffffff;fill-opacity:1;fill-rule:evenodd;stroke-width:0;stroke-linecap:round;stroke-linejoin:round"
           id="rect859"
           width="15.75"
           height="15.75"
           x="35"
           y="52.5"
           rx="47.947399"
           ry="15.75" />
        <rect
           style="fill:#ffffff;fill-opacity:1;fill-rule:evenodd;stroke-width:0;stroke-linecap:round;stroke-linejoin:round"
           id="rect859-4"
           width="31.5"
           height="31.5"
           x="89.25"
           y="60"
           rx="95.894798"
           ry="31.5" />
      </g>
    </g>
  </g>
</svg>
