<?xml version="1.0" encoding="UTF-8" standalone="no"?>
<svg
   width="210"
   height="210"
   fill="none"
   viewBox="0 0 210 210"
   class="h-10 w-10"
   version="1.1"
   id="svg4"
   sodipodi:docname="Spay_Grids_selected.svg"
   inkscape:version="1.1.1 (3bf5ae0d25, 2021-09-20)"
   xmlns:inkscape="http://www.inkscape.org/namespaces/inkscape"
   xmlns:sodipodi="http://sodipodi.sourceforge.net/DTD/sodipodi-0.dtd"
   xmlns="http://www.w3.org/2000/svg"
   xmlns:svg="http://www.w3.org/2000/svg">
  <defs
     id="defs8" />
  <sodipodi:namedview
     id="namedview6"
     pagecolor="#505050"
     bordercolor="#eeeeee"
     borderopacity="1"
     inkscape:pageshadow="0"
     inkscape:pageopacity="0"
     inkscape:pagecheckerboard="0"
     showgrid="false"
     height="210px"
     inkscape:zoom="3"
     inkscape:cx="106"
     inkscape:cy="100.83333"
     inkscape:window-width="1920"
     inkscape:window-height="1005"
     inkscape:window-x="-9"
     inkscape:window-y="-9"
     inkscape:window-maximized="1"
     inkscape:current-layer="svg4" />
  <path
     id="path2"
     style="stroke-width:10.5;fill:#ffff00;fill-opacity:1"
     d="M 34.125 21 A 34.125 34.125 0 0 0 0 55.125 L 0 154.875 A 34.125 34.125 0 0 0 34.125 189 L 175.875 189 A 34.125 34.125 0 0 0 210 154.875 L 210 55.125 A 34.125 34.125 0 0 0 175.875 21 L 34.125 21 z M 42.875 52.5 C 47.23775 52.5 50.75 56.01225 50.75 60.375 C 50.75 64.73775 47.23775 68.25 42.875 68.25 C 38.51225 68.25 35 64.73775 35 60.375 C 35 56.01225 38.51225 52.5 42.875 52.5 z M 105 60 C 113.7255 60 120.75 67.0245 120.75 75.75 C 120.75 84.4755 113.7255 91.5 105 91.5 C 96.2745 91.5 89.25 84.4755 89.25 75.75 C 89.25 67.0245 96.2745 60 105 60 z M 46.369141 104.42578 C 54.610786 104.42578 61.246094 110.32568 61.246094 117.65625 L 61.246094 144.26758 C 61.246094 151.59815 54.610786 157.5 46.369141 157.5 C 38.127496 157.5 31.492188 151.59815 31.492188 144.26758 L 31.492188 117.65625 C 31.492188 110.32568 38.127496 104.42578 46.369141 104.42578 z M 91.722656 104.42578 C 99.964301 104.42578 106.59961 110.32568 106.59961 117.65625 L 106.59961 144.26758 C 106.59961 151.59815 99.964301 157.5 91.722656 157.5 C 83.481011 157.5 76.845703 151.59815 76.845703 144.26758 L 76.845703 117.65625 C 76.845703 110.32568 83.481011 104.42578 91.722656 104.42578 z " />
</svg>
