<?xml version="1.0" encoding="UTF-8" standalone="no"?>
<!-- Created with Inkscape (http://www.inkscape.org/) -->

<svg
   width="24mm"
   height="24mm"
   viewBox="0 0 24 24"
   version="1.1"
   id="svg5"
   inkscape:version="1.1.1 (3bf5ae0d25, 2021-09-20)"
   sodipodi:docname="Close.svg"
   xmlns:inkscape="http://www.inkscape.org/namespaces/inkscape"
   xmlns:sodipodi="http://sodipodi.sourceforge.net/DTD/sodipodi-0.dtd"
   xmlns="http://www.w3.org/2000/svg"
   xmlns:svg="http://www.w3.org/2000/svg">
  <sodipodi:namedview
     id="namedview7"
     pagecolor="#505050"
     bordercolor="#eeeeee"
     borderopacity="1"
     inkscape:pageshadow="0"
     inkscape:pageopacity="0"
     inkscape:pagecheckerboard="0"
     inkscape:document-units="mm"
     showgrid="false"
     height="210mm"
     inkscape:zoom="8"
     inkscape:cx="41.75"
     inkscape:cy="45.3125"
     inkscape:window-width="1920"
     inkscape:window-height="1005"
     inkscape:window-x="-9"
     inkscape:window-y="-9"
     inkscape:window-maximized="1"
     inkscape:current-layer="layer1"
     showguides="true"
     inkscape:guide-bbox="true" />
  <defs
     id="defs2" />
  <g
     inkscape:label="Layer 1"
     inkscape:groupmode="layer"
     id="layer1">
    <g
       id="g1120">
      <path
         id="rect1976-8"
         style="fill:#000000;fill-opacity:1;fill-rule:evenodd;stroke:#ffa47b;stroke-width:0;stroke-linecap:round;stroke-linejoin:round;stroke-opacity:0.99177"
         d="m 5.6853926,5.6834524 v 2.1061621 c 0,1e-7 2.1061621,2.1022834 2.1061621,4.2162045 -1.1e-6,2.113918 -2.1061622,4.208446 -2.1061622,4.208446 v 2.102283 h 2.1081016 c 0.010903,-0.01088 2.1058471,-2.104224 4.2142649,-2.104224 2.108417,1e-6 4.195645,2.093317 4.206504,2.104224 h 2.100345 v -2.106164 c -0.02172,-0.02173 -2.102285,-2.109411 -2.102285,-4.212323 10e-7,-2.1029159 2.080583,-4.1829285 2.102285,-4.2045676 v -2.110041 h -2.098403 c 0,0 -2.102283,2.1061623 -4.216204,2.1061621 -2.1139209,-2e-7 -4.2084465,-2.1061621 -4.2084465,-2.1061621 z" />
      <g
         id="g1114">
        <rect
           style="fill:#000000;fill-opacity:1;fill-rule:evenodd;stroke:#ffa47b;stroke-width:0;stroke-linecap:round;stroke-linejoin:round;stroke-opacity:0.99177"
           id="rect947-3"
           width="3.0000219"
           height="32.036854"
           x="-1.500011"
           y="0.95213634"
           rx="1.0000073"
           ry="1.0401576"
           transform="rotate(-45)" />
        <rect
           style="fill:#000000;fill-opacity:1;fill-rule:evenodd;stroke:#ffa47b;stroke-width:0;stroke-linecap:round;stroke-linejoin:round;stroke-opacity:0.99177"
           id="rect947-7-0"
           width="3.0000219"
           height="32.036854"
           x="15.470551"
           y="-16.018427"
           rx="1.0000073"
           ry="1.0401576"
           transform="rotate(45)" />
      </g>
    </g>
  </g>
</svg>
