<?xml version="1.0" encoding="UTF-8" standalone="no"?>
<!-- Created with Inkscape (http://www.inkscape.org/) -->

<svg
   width="210mm"
   height="210mm"
   viewBox="0 0 210 210"
   version="1.1"
   id="svg5"
   inkscape:version="1.1.1 (3bf5ae0d25, 2021-09-20)"
   sodipodi:docname="Spay_Vertz_selected.svg"
   xmlns:inkscape="http://www.inkscape.org/namespaces/inkscape"
   xmlns:sodipodi="http://sodipodi.sourceforge.net/DTD/sodipodi-0.dtd"
   xmlns="http://www.w3.org/2000/svg"
   xmlns:svg="http://www.w3.org/2000/svg">
  <sodipodi:namedview
     id="namedview7"
     pagecolor="#505050"
     bordercolor="#eeeeee"
     borderopacity="1"
     inkscape:pageshadow="0"
     inkscape:pageopacity="0"
     inkscape:pagecheckerboard="0"
     inkscape:document-units="mm"
     showgrid="false"
     height="210mm"
     inkscape:zoom="0.9"
     inkscape:cx="396.66667"
     inkscape:cy="396.11111"
     inkscape:window-width="1920"
     inkscape:window-height="1005"
     inkscape:window-x="-9"
     inkscape:window-y="-9"
     inkscape:window-maximized="1"
     inkscape:current-layer="layer1"
     showguides="true"
     inkscape:guide-bbox="true" />
  <defs
     id="defs2" />
  <g
     inkscape:label="Layer 1"
     inkscape:groupmode="layer"
     id="layer1">
    <g
       id="g852">
      <path
         id="rect1562-3-3-7"
         style="fill:#ffff00;fill-opacity:1;fill-rule:evenodd;stroke-width:0;stroke-linecap:round;stroke-linejoin:round"
         d="M 61.019972,-5.8819757e-5 V 0.04848986 h -0.03941 L 59.019199,0.11645761 A 32.084339,32.084339 0 0 0 28.89681,32.144811 v 23.171375 c 0,4.861253 3.913474,8.774157 8.774724,8.774157 h 0.848172 v 5.85e-4 H 171.6856 v -5.85e-4 h 0.64312 c 4.86126,0 8.77473,-3.912904 8.77473,-8.774157 V 30.122333 h -0.0702 A 32.084339,32.084339 0 0 0 156.9908,1.0126072 32.084339,32.084339 0 0 0 149.00199,-5.8819757e-5 Z M 136.84257,17.476857 l -29.14342,29.16627 -32.98391,-0.0057 29.14971,-29.150849 z m -57.72426,0.01085 -0.0018,0.0086 -29.152562,29.153134 -3.58117,0.0063 -0.0012,-14.577139 0.07768,-1.494152 A 14.583786,14.583786 0 0 1 60.957575,17.50318 Z m 79.18958,3.285881 a 14.560454,14.560454 0 0 1 5.31807,11.268409 l -0.0103,14.561719 -31.16819,0.01655 z" />
      <path
         id="rect1562-3-3"
         style="fill:#ffff00;fill-opacity:1;fill-rule:evenodd;stroke-width:0;stroke-linecap:round;stroke-linejoin:round"
         d="m 38.314585,46.603821 v 5.3e-4 h -0.642856 c -4.861253,0 -8.775179,3.912891 -8.775176,8.774141 V 177.85525 c 0,17.80057 14.326026,32.13243 32.12362,32.14481 h 87.960007 c 17.79761,-0.0123 32.1231,-14.34422 32.1231,-32.14481 V 55.378482 c 0,-4.861251 -3.91341,-8.774142 -8.77466,-8.774142 h -0.84801 v -5.29e-4 z M 163.61598,64.091129 h 5.3e-4 V 178.01802 h 0.002 c 0,0.0286 -0.002,0.0567 -0.002,0.0853 z m -58.61606,10.003522 c 8.72549,0 15.74994,7.024455 15.74994,15.749942 0,8.725487 -7.02445,15.749947 -15.74994,15.749947 -8.725489,0 -15.749944,-7.02446 -15.749944,-15.749947 0,-8.725487 7.024455,-15.749942 15.749944,-15.749942 z M 73.672633,120.84477 c 9.575326,0 17.283697,6.8564 17.283697,15.37322 v 30.91749 c 0,8.51683 -7.708371,15.37323 -17.283697,15.37323 -9.575329,0 -17.284218,-6.8564 -17.284218,-15.37323 v -30.91749 c 0,-8.51682 7.708889,-15.37322 17.284218,-15.37322 z m 52.692907,0 c 9.57532,0 17.2837,6.8564 17.2837,15.37322 v 30.91749 c 0,8.51683 -7.70838,15.37322 -17.2837,15.37323 -9.57533,0 -17.28422,-6.8564 -17.28422,-15.37323 v -30.91749 c 0,-8.51682 7.70889,-15.37322 17.28422,-15.37322 z m -79.981164,57.17325 h 5.29e-4 v 0.0207 c -1e-5,-0.007 -5.29e-4,-0.0137 -5.29e-4,-0.0207 z" />
    </g>
  </g>
</svg>
