<?xml version="1.0" encoding="UTF-8" standalone="no"?>
<svg
   width="210"
   height="210"
   fill="none"
   viewBox="0 0 210 210"
   class="h-10 w-10"
   version="1.1"
   id="svg4"
   sodipodi:docname="Spay_Chat_selected.svg"
   inkscape:version="1.1.1 (3bf5ae0d25, 2021-09-20)"
   xmlns:inkscape="http://www.inkscape.org/namespaces/inkscape"
   xmlns:sodipodi="http://sodipodi.sourceforge.net/DTD/sodipodi-0.dtd"
   xmlns="http://www.w3.org/2000/svg"
   xmlns:svg="http://www.w3.org/2000/svg">
  <defs
     id="defs8" />
  <sodipodi:namedview
     id="namedview6"
     pagecolor="#505050"
     bordercolor="#eeeeee"
     borderopacity="1"
     inkscape:pageshadow="0"
     inkscape:pageopacity="0"
     inkscape:pagecheckerboard="0"
     showgrid="false"
     height="210px"
     inkscape:zoom="3"
     inkscape:cx="112"
     inkscape:cy="103.5"
     inkscape:window-width="1920"
     inkscape:window-height="1005"
     inkscape:window-x="-9"
     inkscape:window-y="-9"
     inkscape:window-maximized="1"
     inkscape:current-layer="svg4" />
  <g
     id="g1016">
    <path
       id="rect2215"
       style="fill:#ffff00;fill-opacity:1;fill-rule:evenodd;stroke:#000000;stroke-width:0;stroke-linecap:round;stroke-linejoin:round;stroke-miterlimit:0;stroke-dasharray:none;paint-order:stroke fill markers"
       d="M 28.900391 27.800781 C 12.889791 27.800781 0 40.690572 0 56.701172 L 0 153.30078 C 0 169.31138 12.889791 182.19922 28.900391 182.19922 L 159.81055 182.19922 C 175.82115 182.19922 188.71094 169.31138 188.71094 153.30078 L 188.71094 56.701172 C 188.71094 40.690572 175.82115 27.800781 159.81055 27.800781 L 28.900391 27.800781 z M 45.552734 100.60742 C 53.329187 100.60742 59.589844 106.17695 59.589844 113.09375 L 59.589844 138.20312 C 59.589844 145.11993 53.329187 150.6875 45.552734 150.6875 C 37.776282 150.6875 31.515625 145.11993 31.515625 138.20312 L 31.515625 113.09375 C 31.515625 106.17695 37.776282 100.60742 45.552734 100.60742 z M 88.375 100.60742 C 96.151452 100.60742 102.41016 106.17695 102.41016 113.09375 L 102.41016 138.20117 C 102.41016 145.11798 96.151452 150.6875 88.375 150.6875 C 80.598548 150.6875 74.337891 145.11798 74.337891 138.20117 L 74.337891 113.09375 C 74.337891 106.17695 80.598548 100.60742 88.375 100.60742 z " />
    <g
       id="g887">
      <circle
         style="fill:#ffff00;fill-opacity:1;fill-rule:evenodd;stroke:#000000;stroke-width:0;stroke-linecap:round;stroke-linejoin:round;stroke-miterlimit:4;stroke-dasharray:none;paint-order:stroke fill markers"
         id="path1468"
         cx="202.20816"
         cy="35.652634"
         r="7.7918434" />
      <path
         style="fill:#ffff00;fill-opacity:1;stroke:#000000;stroke-width:0;stroke-linecap:butt;stroke-linejoin:miter;stroke-miterlimit:4;stroke-dasharray:none;stroke-opacity:1"
         d="M 208.17792,40.600378 188.65797,67.843446 156.41224,27.801013 h 45.96895 z"
         id="path3522" />
    </g>
  </g>
</svg>
