<?xml version="1.0" encoding="UTF-8" standalone="no"?>
<svg
   width="210"
   height="210"
   fill="none"
   viewBox="0 0 210 210"
   class="h-10 w-10"
   version="1.1"
   id="svg4"
   sodipodi:docname="Spay_Chat_unselected.svg"
   inkscape:version="1.1.1 (3bf5ae0d25, 2021-09-20)"
   xmlns:inkscape="http://www.inkscape.org/namespaces/inkscape"
   xmlns:sodipodi="http://sodipodi.sourceforge.net/DTD/sodipodi-0.dtd"
   xmlns="http://www.w3.org/2000/svg"
   xmlns:svg="http://www.w3.org/2000/svg">
  <defs
     id="defs8" />
  <sodipodi:namedview
     id="namedview6"
     pagecolor="#505050"
     bordercolor="#eeeeee"
     borderopacity="1"
     inkscape:pageshadow="0"
     inkscape:pageopacity="0"
     inkscape:pagecheckerboard="0"
     showgrid="false"
     height="210px"
     showguides="true"
     inkscape:guide-bbox="true"
     inkscape:zoom="3"
     inkscape:cx="112"
     inkscape:cy="102.83333"
     inkscape:window-width="1920"
     inkscape:window-height="1005"
     inkscape:window-x="-9"
     inkscape:window-y="-9"
     inkscape:window-maximized="1"
     inkscape:current-layer="svg4" />
  <g
     id="g1099">
    <g
       id="g911"
       transform="translate(6.5156231,-4.3921661)">
      <rect
         style="fill:#ffff00;fill-opacity:1;fill-rule:evenodd;stroke:#000000;stroke-width:0;stroke-linecap:round;stroke-linejoin:round;stroke-miterlimit:0;stroke-dasharray:none;paint-order:stroke fill markers"
         id="rect2819"
         width="28.073835"
         height="50.07925"
         x="25"
         y="105.00024"
         rx="14.036918"
         ry="12.485207" />
      <rect
         style="fill:#ffff00;fill-opacity:1;fill-rule:evenodd;stroke:#000000;stroke-width:0;stroke-linecap:round;stroke-linejoin:round;stroke-miterlimit:0;stroke-dasharray:none;paint-order:stroke fill markers"
         id="rect2819-5"
         width="28.073835"
         height="50.07925"
         x="67.821205"
         y="105"
         rx="14.036918"
         ry="12.485207" />
    </g>
    <g
       id="g907">
      <path
         id="rect2215"
         style="fill:#ffff00;fill-opacity:1;fill-rule:evenodd;stroke:#000000;stroke-width:0;stroke-linecap:round;stroke-linejoin:round;stroke-miterlimit:0;stroke-dasharray:none;paint-order:stroke fill markers"
         d="M 28.900391,27.800781 C 12.889791,27.800781 0,40.690572 0,56.701172 v 96.599608 c 0,16.0106 12.889791,28.89844 28.900391,28.89844 H 159.81055 c 16.0106,0 28.90039,-12.88784 28.90039,-28.89844 V 56.701172 c 0,-4.375712 -0.96916,-8.514527 -2.69532,-12.22461 l -13.06835,18.240235 v 3.638672 c 6.1e-4,0.06759 0.008,0.133433 0.008,0.201172 v 76.886719 c 0,12.74315 -10.73699,23.00195 -24.07422,23.00195 H 39.830078 c -13.337228,0 -24.074219,-10.2588 -24.074219,-23.00195 V 66.556641 c 0,-12.743147 10.736991,-23.001955 24.074219,-23.001953 H 148.88086 c 0.0668,0 0.13251,0.0034 0.19922,0.0039 l -0.002,-0.002 36.48633,-0.002 c -4.77089,-9.364056 -14.48552,-15.753907 -25.7539,-15.753907 z" />
      <g
         id="g901">
        <circle
           style="fill:#ffff00;fill-opacity:1;fill-rule:evenodd;stroke:#000000;stroke-width:0;stroke-linecap:round;stroke-linejoin:round;stroke-miterlimit:4;stroke-dasharray:none;paint-order:stroke fill markers"
           id="path1468"
           cx="202.20816"
           cy="35.652634"
           r="7.7918434" />
        <path
           id="path3522"
           style="fill:#ffff00;fill-opacity:1;stroke:#000000;stroke-width:0;stroke-linecap:butt;stroke-linejoin:miter;stroke-miterlimit:4;stroke-dasharray:none;stroke-opacity:1"
           d="m 156.41211,27.800781 12.6875,15.753907 h 17.57617 l -8.27539,11.550781 10.25781,12.738281 19.51953,-27.244141 -5.79687,-12.798828 z" />
      </g>
    </g>
  </g>
</svg>
