<?xml version="1.0" encoding="UTF-8" standalone="no"?>
<!-- Created with Inkscape (http://www.inkscape.org/) -->

<svg
   width="210mm"
   height="210mm"
   viewBox="0 0 210 210"
   version="1.1"
   id="svg5"
   inkscape:version="1.1.1 (3bf5ae0d25, 2021-09-20)"
   sodipodi:docname="Spay Group.svg"
   xmlns:inkscape="http://www.inkscape.org/namespaces/inkscape"
   xmlns:sodipodi="http://sodipodi.sourceforge.net/DTD/sodipodi-0.dtd"
   xmlns="http://www.w3.org/2000/svg"
   xmlns:svg="http://www.w3.org/2000/svg"
   xmlns:rdf="http://www.w3.org/1999/02/22-rdf-syntax-ns#"
   xmlns:cc="http://creativecommons.org/ns#"
   xmlns:dc="http://purl.org/dc/elements/1.1/">
  <title
     id="title829">Spay Group</title>
  <sodipodi:namedview
     id="namedview7"
     pagecolor="#505050"
     bordercolor="#eeeeee"
     borderopacity="1"
     inkscape:pageshadow="0"
     inkscape:pageopacity="0"
     inkscape:pagecheckerboard="0"
     inkscape:document-units="mm"
     showgrid="false"
     inkscape:lockguides="false"
     inkscape:snap-grids="true"
     inkscape:snap-to-guides="true"
     inkscape:zoom="0.7"
     inkscape:cx="397.14286"
     inkscape:cy="396.42857"
     inkscape:window-width="1920"
     inkscape:window-height="1005"
     inkscape:window-x="-9"
     inkscape:window-y="-9"
     inkscape:window-maximized="1"
     inkscape:current-layer="g1064"
     height="210mm"
     showguides="true"
     inkscape:guide-bbox="true" />
  <defs
     id="defs2" />
  <g
     inkscape:label="Layer 1"
     inkscape:groupmode="layer"
     id="layer1">
    <g
       id="g1064">
      <g
         id="g1181"
         transform="translate(-4.9291748e-5,-4.9291748e-5)">
        <path
           id="rect2215-8"
           style="fill:#ffff00;fill-opacity:1;fill-rule:evenodd;stroke:#000000;stroke-width:0;stroke-linecap:round;stroke-linejoin:round;stroke-miterlimit:0;stroke-dasharray:none;paint-order:stroke fill markers"
           d="M 566.92969,75.589844 V 718.10938 h 151.17969 c 41.87716,0 75.59179,-33.71268 75.59179,-75.58985 V 151.18164 c 0,-41.87716 -33.71463,-75.591796 -75.59179,-75.591796 z"
           transform="scale(0.26458333)" />
        <path
           id="rect2215-88"
           style="fill:#ffff00;fill-opacity:1;fill-rule:evenodd;stroke:#000000;stroke-width:0;stroke-linecap:round;stroke-linejoin:round;stroke-miterlimit:0;stroke-dasharray:none;paint-order:stroke fill markers"
           d="M 75.589844,0 C 33.712678,0 0,33.712678 0,75.589844 V 718.10938 c 0,41.87715 33.712678,75.59179 75.589844,75.59179 H 415.74805 c 41.87716,0 75.58984,-33.71464 75.58984,-75.59179 V 75.589844 C 491.33789,33.712678 457.62521,0 415.74805,0 Z m 41.570316,525.36914 c 32.70706,0 59.03711,23.42026 59.03711,52.51172 v 105.60547 c 0,29.09146 -26.33005,52.51172 -59.03711,52.51172 -32.707067,0 -59.039066,-23.42026 -59.039066,-52.51172 V 577.88086 c 0,-29.09146 26.331999,-52.51172 59.039066,-52.51172 z m 179.98632,0 c 32.70706,0 59.03711,23.42026 59.03711,52.51172 v 105.60547 c 0,29.09146 -26.33005,52.51172 -59.03711,52.51172 -32.70706,0 -59.03906,-23.42026 -59.03906,-52.51172 V 577.88086 c 0,-29.09146 26.332,-52.51172 59.03906,-52.51172 z"
           transform="scale(0.26458333)" />
      </g>
    </g>
  </g>
  <metadata
     id="metadata827">
    <rdf:RDF>
      <cc:Work
         rdf:about="">
        <dc:title>Spay Group</dc:title>
        <dc:date>7/1/2022</dc:date>
        <dc:creator>
          <cc:Agent>
            <dc:title>PhilMinecraft</dc:title>
          </cc:Agent>
        </dc:creator>
        <dc:publisher>
          <cc:Agent>
            <dc:title>RareFrostbites, Spay Team</dc:title>
          </cc:Agent>
        </dc:publisher>
        <dc:subject>
          <rdf:Bag>
            <rdf:li>Spay</rdf:li>
            <rdf:li>Spay Group</rdf:li>
          </rdf:Bag>
        </dc:subject>
        <dc:description>Spay Group is a social network platform that focus on discussions in a much bigger space, similar to Reddit.</dc:description>
      </cc:Work>
    </rdf:RDF>
  </metadata>
</svg>
