<?xml version="1.0" encoding="UTF-8" standalone="no"?>
<!-- Created with Inkscape (http://www.inkscape.org/) -->

<svg
   width="210mm"
   height="210mm"
   viewBox="0 0 210 210"
   version="1.1"
   id="svg5"
   inkscape:version="1.1.1 (3bf5ae0d25, 2021-09-20)"
   sodipodi:docname="Spay_selected.svg"
   xmlns:inkscape="http://www.inkscape.org/namespaces/inkscape"
   xmlns:sodipodi="http://sodipodi.sourceforge.net/DTD/sodipodi-0.dtd"
   xmlns="http://www.w3.org/2000/svg"
   xmlns:svg="http://www.w3.org/2000/svg">
  <sodipodi:namedview
     id="namedview7"
     pagecolor="#505050"
     bordercolor="#eeeeee"
     borderopacity="1"
     inkscape:pageshadow="0"
     inkscape:pageopacity="0"
     inkscape:pagecheckerboard="0"
     inkscape:document-units="mm"
     showgrid="false"
     inkscape:lockguides="false"
     inkscape:snap-grids="true"
     inkscape:snap-to-guides="true"
     inkscape:zoom="0.6363961"
     inkscape:cx="420.3357"
     inkscape:cy="384.19469"
     inkscape:window-width="1168"
     inkscape:window-height="987"
     inkscape:window-x="0"
     inkscape:window-y="0"
     inkscape:window-maximized="0"
     inkscape:current-layer="layer1"
     height="210mm" />
  <defs
     id="defs2" />
  <g
     inkscape:label="Layer 1"
     inkscape:groupmode="layer"
     id="layer1">
    <g
       id="g1064">
      <g
         id="g832"
         transform="matrix(1.6153846,0,0,1.6153846,-64.615383,-64.615383)" />
    </g>
    <path
       id="rect916"
       style="fill:#212121;fill-rule:evenodd;stroke:#ffa47b;stroke-width:0;stroke-linecap:round;stroke-linejoin:round;stroke-opacity:0.99177;fill-opacity:1"
       d="M 126.39062 0 C 56.369913 -2.8421709e-14 -9.4739031e-15 56.369913 0 126.39062 L 0 667.31055 C -1.8947806e-14 737.33127 56.369913 793.70117 126.39062 793.70117 L 667.31055 793.70117 C 737.33127 793.70117 793.70117 737.33127 793.70117 667.31055 L 793.70117 126.39062 C 793.70117 56.369913 737.33127 -9.4739031e-15 667.31055 0 L 126.39062 0 z M 157.16211 485.36914 C 189.86917 485.36914 216.19922 508.7894 216.19922 537.88086 L 216.19922 643.48633 C 216.19922 672.57779 189.86917 695.99805 157.16211 695.99805 C 124.45505 695.99805 98.123047 672.57779 98.123047 643.48633 L 98.123047 537.88086 C 98.123047 508.7894 124.45505 485.36914 157.16211 485.36914 z M 337.14648 485.60547 C 369.85354 485.60547 396.18555 509.02573 396.18555 538.11719 L 396.18555 643.72266 C 396.18555 672.81412 369.85354 696.23437 337.14648 696.23438 C 304.43942 696.23438 278.10938 672.81412 278.10938 643.72266 L 278.10938 538.11719 C 278.10938 509.02573 304.43942 485.60547 337.14648 485.60547 z "
       transform="scale(0.26458333)" />
  </g>
</svg>
