<?xml version="1.0" encoding="UTF-8" standalone="no"?>
<!-- Created with Inkscape (http://www.inkscape.org/) -->

<svg
   width="210mm"
   height="210mm"
   viewBox="0 0 210 210"
   version="1.1"
   id="svg5"
   inkscape:version="1.1.1 (3bf5ae0d25, 2021-09-20)"
   sodipodi:docname="Spay_unselected.svg"
   xmlns:inkscape="http://www.inkscape.org/namespaces/inkscape"
   xmlns:sodipodi="http://sodipodi.sourceforge.net/DTD/sodipodi-0.dtd"
   xmlns="http://www.w3.org/2000/svg"
   xmlns:svg="http://www.w3.org/2000/svg">
  <sodipodi:namedview
     id="namedview7"
     pagecolor="#505050"
     bordercolor="#eeeeee"
     borderopacity="1"
     inkscape:pageshadow="0"
     inkscape:pageopacity="0"
     inkscape:pagecheckerboard="0"
     inkscape:document-units="mm"
     showgrid="false"
     inkscape:lockguides="false"
     inkscape:snap-grids="true"
     inkscape:snap-to-guides="true"
     inkscape:zoom="0.9"
     inkscape:cx="405.55556"
     inkscape:cy="397.22222"
     inkscape:window-width="1920"
     inkscape:window-height="1005"
     inkscape:window-x="-9"
     inkscape:window-y="-9"
     inkscape:window-maximized="1"
     inkscape:current-layer="layer1"
     height="210mm"
     showguides="true"
     inkscape:guide-bbox="true" />
  <defs
     id="defs2" />
  <g
     inkscape:label="Layer 1"
     inkscape:groupmode="layer"
     id="layer1">
    <g
       id="g858">
      <path
         id="rect1014"
         style="fill:#000000;fill-opacity:1;fill-rule:evenodd;stroke-width:0;stroke-linecap:round;stroke-linejoin:round"
         d="M 28.899996,-4.9291748e-5 C 12.889395,-4.9291748e-5 -4.9291748e-5,12.889395 -4.9291748e-5,28.899996 V 181.10001 c 0,16.0106 12.889444291748,28.90004 28.900045291748,28.90004 H 181.10001 c 16.0106,0 28.90004,-12.88944 28.90004,-28.90004 V 28.899996 c 0,-16.010601 -12.88944,-28.900045291748 -28.90004,-28.900045291748 z M 40.286895,15.711136 H 169.7131 c 13.61496,0 24.57576,10.960804 24.57576,24.575759 V 169.7131 c 0,13.61496 -10.9608,24.57576 -24.57576,24.57576 H 40.286895 c -13.614955,0 -24.575759,-10.9608 -24.575759,-24.57576 V 40.286895 c 0,-13.614955 10.960804,-24.575759 24.575759,-24.575759 z" />
      <g
         id="g852">
        <rect
           style="fill:#000000;fill-opacity:1;fill-rule:evenodd;stroke:#000000;stroke-width:0;stroke-linecap:round;stroke-linejoin:round;stroke-miterlimit:0;stroke-dasharray:none;paint-order:stroke fill markers"
           id="rect2819"
           width="31.24095"
           height="55.728878"
           x="31.423702"
           y="122.84802"
           rx="15.620475"
           ry="13.89371" />
        <rect
           style="fill:#000000;fill-opacity:1;fill-rule:evenodd;stroke:#000000;stroke-width:0;stroke-linecap:round;stroke-linejoin:round;stroke-miterlimit:0;stroke-dasharray:none;paint-order:stroke fill markers"
           id="rect2819-5"
           width="31.24095"
           height="55.728878"
           x="79.045242"
           y="122.84802"
           rx="15.620475"
           ry="13.89371" />
      </g>
    </g>
  </g>
</svg>
